<?xml version="1.0" standalone="no"?><!DOCTYPE svg PUBLIC "-//W3C//DTD SVG 1.1//EN" "http://www.w3.org/Graphics/SVG/1.1/DTD/svg11.dtd"><svg class="icon" width="48px" height="48.00px" viewBox="0 0 1024 1024" version="1.1" xmlns="http://www.w3.org/2000/svg"><path d="M177.6128 575.488s213.0944 198.0416 337.92 198.0416 337.92-198.0416 337.92-198.0416 84.3264 170.8032-337.92 364.8512c-399.9232-192.256-337.92-364.8512-337.92-364.8512z" fill="#ffa115" /><path d="M855.0912 177.6128c-1.8432-0.1024-185.4464-11.1616-320.7168-116.4288a30.75072 30.75072 0 0 0-39.168 1.1776c-127.2832 112.2304-315.9552 115.2-317.7984 115.2-16.896 0.1024-30.5152 13.824-30.5152 30.72v417.2288c0 154.112 318.208 323.328 354.5088 342.1184 4.4032 2.304 9.2672 3.4304 14.1312 3.4304 4.5056 0 9.0112-0.9728 13.2096-2.9696 3.5328-1.6896 87.808-41.9328 173.4656-102.1952 120.7808-84.9408 182.016-165.8368 182.016-240.384V208.2816a30.7712 30.7712 0 0 0-29.1328-30.6688z m-32.3584 447.8976c0 105.1648-209.664 231.8848-306.688 280.3712-124.4672-66.7648-307.712-195.2256-307.712-280.3712V237.3632c60.2624-5.1712 197.5808-26.2656 308.3264-112.9472 114.1248 80.0768 248.0128 104.6016 306.0736 111.7696v389.3248z" fill="#474A54" /><path d="M489.984 598.5792c-2.048 0.1024-5.6832-0.3584-8.6528-3.7376L375.808 475.5456a30.76096 30.76096 0 0 0-43.3664-2.6624 30.76096 30.76096 0 0 0-2.6624 43.3664l105.5232 119.296c13.824 15.616 33.536 24.4736 54.3744 24.4736 0.7168 0 1.3824 0 2.0992-0.0512a72.3456 72.3456 0 0 0 54.9376-27.648l177.92-225.9456c10.496-13.312 8.192-32.6656-5.12-43.1616a30.76096 30.76096 0 0 0-43.1616 5.12l-177.92 225.9456c-2.816 3.6352-6.5024 4.2496-8.448 4.3008z" fill="#474A54" /></svg>