<?xml version="1.0" standalone="no"?><!DOCTYPE svg PUBLIC "-//W3C//DTD SVG 1.1//EN" "http://www.w3.org/Graphics/SVG/1.1/DTD/svg11.dtd"><svg class="icon" width="48px" height="48.00px" viewBox="0 0 1024 1024" version="1.1" xmlns="http://www.w3.org/2000/svg"><path d="M649.8304 399.0016a295.7312 133.1712 90 1 0 266.3424 0 295.7312 133.1712 90 1 0-266.3424 0Z" fill="#ffa115" /><path d="M783.0016 72.5504H269.056c-32.6656 0-64.0512 11.7248-88.4224 32.9728-43.9296 38.2976-96.256 120.32-96.256 293.4784v504.5248a30.72 30.72 0 0 0 43.7248 27.8016l74.1888-34.7136 70.4 34.4576c8.3456 4.096 18.0736 4.1984 26.4704 0.256l71.3216-33.1776L451.328 931.84c8.0896 3.3792 17.2032 3.1232 25.088-0.6656l71.1168-33.9968 87.1424 49.408c4.7104 2.6624 9.9328 3.9936 15.1552 3.9936a30.80192 30.80192 0 0 0 30.72-30.72V657.408c27.6992 42.9056 63.0272 67.9936 102.4512 67.9936 93.44 0 163.8912-140.3392 163.8912-326.4512s-70.4512-326.4-163.8912-326.4z m-163.9424 794.5728l-55.2448-31.2832a30.64832 30.64832 0 0 0-28.416-0.9728l-73.1648 35.0208-80.64-33.5872a30.80704 30.80704 0 0 0-24.7808 0.512l-70.2976 32.7168-70.4512-34.5088c-8.3456-4.096-18.1248-4.1472-26.5216-0.256l-43.776 20.48V399.0016c0-157.952 47.1552-222.6688 75.2128-247.1424 13.1584-11.52 30.2592-17.8176 48.0256-17.8176h415.7952l-0.3072 0.4608c-38.5024 55.808-63.232 145.1008-65.28 250.2144-0.1024 1.024-0.1536 1.9968-0.1536 3.0208v479.3856z m163.9424-203.1616c-48.384 0-102.4512-113.3056-102.4512-265.0112 0-3.584 0.0512-7.1168 0.1024-10.6496v-0.1024c2.4576-145.5104 56.064-254.208 102.3488-254.208 48.384 0 102.4512 113.3056 102.4512 265.0112s-54.0672 264.96-102.4512 264.96z" fill="#474A54" /><path d="M465.3056 719.36H299.6224c-16.9472 0-30.72-13.7728-30.72-30.72s13.7728-30.72 30.72-30.72h165.7344c16.9472 0 30.72 13.7728 30.72 30.72s-13.7728 30.72-30.7712 30.72z" fill="#474A54" /></svg>