<?xml version="1.0" standalone="no"?><!DOCTYPE svg PUBLIC "-//W3C//DTD SVG 1.1//EN" "http://www.w3.org/Graphics/SVG/1.1/DTD/svg11.dtd"><svg class="icon" width="48px" height="48.00px" viewBox="0 0 1024 1024" version="1.1" xmlns="http://www.w3.org/2000/svg"><path d="M760.9344 187.0848c47.2064 66.7136 75.0592 148.1216 75.0592 236.0832 0 225.9968-183.1936 409.1904-409.1904 409.1904-92.0064 0-176.896-30.3616-245.248-81.6128 74.1376 104.704 196.096 173.1072 334.1312 173.1072 225.9968 0 409.1904-183.1936 409.1904-409.1904 0-133.9904-64.4096-252.928-163.9424-327.5776z" fill="#ffa115" /><path d="M515.6864 954.624c-242.5856 0-439.9104-197.376-439.9104-439.9104S273.1008 74.752 515.6864 74.752s439.9104 197.376 439.9104 439.9104-197.3248 439.9616-439.9104 439.9616z m0-818.432c-208.6912 0-378.4704 169.7792-378.4704 378.4704s169.7792 378.4704 378.4704 378.4704c208.6912 0 378.4704-169.7792 378.4704-378.4704S724.3776 136.192 515.6864 136.192z" fill="#474A54" /><path d="M515.6864 758.6304c-65.1776 0-126.4128-25.3952-172.4928-71.4752-46.08-46.08-71.4752-107.3152-71.4752-172.4928 0-65.1776 25.3952-126.4128 71.4752-172.4928 95.1296-95.1296 249.856-95.1296 344.9856 0 11.9808 11.9808 11.9808 31.4368 0 43.4688-11.9808 11.9808-31.4368 11.9808-43.4688 0-71.168-71.168-186.9312-71.168-258.0992 0-34.4576 34.4576-53.4528 80.2816-53.4528 129.024s18.9952 94.5664 53.4528 129.024c34.4576 34.4576 80.2816 53.4528 129.0752 53.4528 48.7424 0 94.5664-18.9952 129.0752-53.4528a30.72 30.72 0 0 1 43.4176 0 30.72 30.72 0 0 1 0 43.4176c-46.08 46.1312-107.3664 71.5264-172.4928 71.5264z" fill="#474A54" /></svg>