<?xml version="1.0" standalone="no"?><!DOCTYPE svg PUBLIC "-//W3C//DTD SVG 1.1//EN" "http://www.w3.org/Graphics/SVG/1.1/DTD/svg11.dtd"><svg class="icon" width="48px" height="48.00px" viewBox="0 0 1024 1024" version="1.1" xmlns="http://www.w3.org/2000/svg"><path d="M885.9648 229.12l-87.3984-108.9536c-26.6752-33.28-66.4576-52.3264-109.056-52.3264H257.4848c-77.1072 0-139.8272 62.72-139.8272 139.8272v609.2288c0 77.1072 62.72 139.8272 139.8272 139.8272h519.3728c77.1072 0 139.8272-62.72 139.8272-139.8272v-500.224c0.0512-31.744-10.9056-62.8224-30.72-87.552z m-264.704-99.7888V198.144c0 8.8064-7.168 16.0256-16.0256 16.0256H414.5152c-8.8064 0-16.0256-7.168-16.0256-16.0256V129.3312h222.7712z m234.0352 687.616c0 43.2128-35.1744 78.3872-78.3872 78.3872H257.4848c-43.2128 0-78.3872-35.1744-78.3872-78.3872V207.7184c0-43.2128 35.1744-78.3872 78.3872-78.3872h79.5648V198.144c0 42.7008 34.7648 77.4656 77.4656 77.4656h190.72c42.7008 0 77.4656-34.7648 77.4656-77.4656V129.3312h6.8096c23.9104 0 46.1824 10.7008 61.1328 29.3376l87.3984 108.9536c11.1104 13.8752 17.2544 31.2832 17.2544 49.0496v500.2752z" fill="#474A54" /><path d="M517.1712 593.8176m-148.3776 0a148.3776 148.3776 0 1 0 296.7552 0 148.3776 148.3776 0 1 0-296.7552 0Z" fill="#ffa115" /><path d="M517.1712 772.9152c-98.7648 0-179.0976-80.3328-179.0976-179.0976S418.4576 414.72 517.1712 414.72c98.7648 0 179.0976 80.3328 179.0976 179.0976s-80.3328 179.0976-179.0976 179.0976z m0-296.7552c-64.8704 0-117.6576 52.7872-117.6576 117.6576s52.7872 117.6576 117.6576 117.6576 117.6576-52.7872 117.6576-117.6576S582.0416 476.16 517.1712 476.16z" fill="#474A54" /></svg>