<?xml version="1.0" standalone="no"?><!DOCTYPE svg PUBLIC "-//W3C//DTD SVG 1.1//EN" "http://www.w3.org/Graphics/SVG/1.1/DTD/svg11.dtd"><svg class="icon" width="48px" height="48.00px" viewBox="0 0 1024 1024" version="1.1" xmlns="http://www.w3.org/2000/svg"><path d="M805.8368 943.0528H218.4704c-73.4208 0-133.12-59.6992-133.12-133.12V208.8448c0-73.4208 59.6992-133.12 133.12-133.12h587.3664c73.4208 0 133.12 59.6992 133.12 133.12v601.088c0 73.4208-59.6992 133.12-133.12 133.12zM218.4704 137.1648c-39.5264 0-71.68 32.1536-71.68 71.68v601.088c0 39.5264 32.1536 71.68 71.68 71.68h587.3664c39.5264 0 71.68-32.1536 71.68-71.68V208.8448c0-39.5264-32.1536-71.68-71.68-71.68H218.4704z" fill="#474A54" /><path d="M560.0768 719.7696c-15.2576 3.3792-31.0272 5.0688-46.848 5.0688-119.296 0-216.32-97.024-216.32-216.32 0-40.8576 11.2128-79.872 32.2048-113.664v16.7936c0 16.9472 13.7728 30.72 30.72 30.72s30.72-13.7728 30.72-30.72V322.6624c0-16.9472-13.7728-30.72-30.72-30.72H266.1888c-16.9472 0-30.72 13.7728-30.72 30.72s13.7728 30.72 30.72 30.72h16.5376c-30.7712 45.4656-47.2576 98.9696-47.2576 155.136 0 153.1392 124.6208 277.76 277.76 277.76 20.224 0 40.448-2.2016 60.0576-6.5024 16.5888-3.6352 27.0336-20.0704 23.3984-36.608a30.66368 30.66368 0 0 0-36.608-23.3984zM760.2688 666.9824h-18.9952c32.0512-46.08 49.7152-101.2224 49.7152-158.464 0-153.1392-124.6208-277.76-277.76-277.76-15.0016 0-30.0544 1.2288-44.7488 3.584a30.70464 30.70464 0 0 0-25.3952 35.2256c2.7136 16.7424 18.4832 28.16 35.2256 25.3952 11.4688-1.8432 23.1936-2.816 34.9184-2.816 119.296 0 216.32 97.024 216.32 216.32 0 41.0624-11.7248 80.6912-33.024 114.7392v-18.0224c0-16.9472-13.7728-30.72-30.72-30.72s-30.72 13.7728-30.72 30.72v92.416c0 16.9472 13.7728 30.72 30.72 30.72h94.464c16.9472 0 30.72-13.7728 30.72-30.72s-13.7728-30.6176-30.72-30.6176z" fill="#474A54" /><path d="M513.6896 509.3888m-124.416 0a124.416 124.416 0 1 0 248.832 0 124.416 124.416 0 1 0-248.832 0Z" fill="#ffa115" /></svg>