<?xml version="1.0" standalone="no"?><!DOCTYPE svg PUBLIC "-//W3C//DTD SVG 1.1//EN" "http://www.w3.org/Graphics/SVG/1.1/DTD/svg11.dtd"><svg class="icon" width="48px" height="48.00px" viewBox="0 0 1024 1024" version="1.1" xmlns="http://www.w3.org/2000/svg"><path d="M903.2704 238.08l-352.3072 352.3072a28.8768 28.8768 0 0 1-14.3872 7.8336l-94.3104 20.224c-20.5312 4.4032-38.7072-13.824-34.304-34.3552l20.3264-94.208c1.1776-5.4272 3.8912-10.3936 7.8336-14.336L788.48 123.1872a35.10272 35.10272 0 0 1 49.664 0l65.1776 65.1776a35.21536 35.21536 0 0 1-0.0512 49.7152z" fill="#ffa115" /><path d="M921.3952 482.048c-16.9472 0-30.72 13.7728-30.72 30.72v300.2368c0 39.5264-32.1536 71.68-71.68 71.68H206.7968c-39.5264 0-71.68-32.1536-71.68-71.68V200.7552c0-39.5264 32.1536-71.68 71.68-71.68h306.1248c16.9472 0 30.72-13.7728 30.72-30.72s-13.7728-30.72-30.72-30.72H206.7968c-73.4208 0-133.12 59.6992-133.12 133.12v612.1984c0 73.4208 59.6992 133.12 133.12 133.12h612.2496c73.4208 0 133.12-59.6992 133.12-133.12v-300.2368a30.77632 30.77632 0 0 0-30.7712-30.6688z" fill="#474A54" /><path d="M398.2336 483.3792l-20.3264 94.208c-4.3008 19.8656 1.7408 40.3456 16.0768 54.6816 11.3152 11.3664 26.4704 17.5104 42.0864 17.5104 4.1984 0 8.3968-0.4608 12.5952-1.3312l94.3616-20.224c11.264-2.4064 21.504-7.9872 29.6448-16.128l352.3072-352.3072c25.6512-25.6512 25.6512-67.4304 0-93.1328l-65.1776-65.1776c-25.6512-25.7024-67.4304-25.7024-93.1328 0L414.3616 453.8368a59.26912 59.26912 0 0 0-16.128 29.5424z m59.9552 13.5168l351.9488-351.9488c1.6896-1.6896 4.5056-1.7408 6.2464 0l65.1776 65.1776c1.6896 1.7408 1.6896 4.5056 0 6.2464L529.6128 568.32l-91.0336 19.5072 19.6096-90.9312z" fill="#474A54" /></svg>