<?xml version="1.0" standalone="no"?><!DOCTYPE svg PUBLIC "-//W3C//DTD SVG 1.1//EN" "http://www.w3.org/Graphics/SVG/1.1/DTD/svg11.dtd"><svg class="icon" width="48px" height="48.00px" viewBox="0 0 1024 1024" version="1.1" xmlns="http://www.w3.org/2000/svg"><path d="M646.2464 378.4192m-105.0112 0a105.0112 105.0112 0 1 0 210.0224 0 105.0112 105.0112 0 1 0-210.0224 0Z" fill="#ffa115" /><path d="M646.2464 514.1504c-74.8544 0-135.7312-60.8768-135.7312-135.7312 0-74.8544 60.8768-135.7312 135.7312-135.7312s135.7312 60.8768 135.7312 135.7312c0 74.8544-60.8768 135.7312-135.7312 135.7312z m0-210.0224c-40.96 0-74.2912 33.3312-74.2912 74.2912s33.3312 74.2912 74.2912 74.2912 74.2912-33.3312 74.2912-74.2912-33.3312-74.2912-74.2912-74.2912z" fill="#474A54" /><path d="M506.4192 950.1696c-29.2352 0-58.4192-11.1104-80.6912-33.3824l-317.8496-317.8496c-21.5552-21.5552-33.4336-50.176-33.4336-80.6912s11.8784-59.136 33.4336-80.6912l310.7328-310.7328c21.5552-21.5552 50.176-33.4336 80.64-33.4336h0.256l322.2528 0.6144c30.72 0.0512 59.4944 12.1344 80.9984 33.9968 21.5552 21.8624 33.2288 50.7904 32.8192 81.5104l-3.8912 316.7232a113.26976 113.26976 0 0 1-33.4336 79.2576l-311.2448 311.2448c-22.1696 22.3232-51.4048 33.4336-80.5888 33.4336z m-7.168-795.2384c-14.08 0-27.2896 5.4784-37.2224 15.4112L151.296 481.0752a52.2752 52.2752 0 0 0-15.4112 37.2224c0 14.08 5.4784 27.2896 15.4112 37.2224l317.8496 317.8496c20.5312 20.5312 53.9136 20.5312 74.4448 0l311.2448-311.2448c9.7792-9.7792 15.2576-22.784 15.4112-36.5568l3.8912-316.7232c0.1536-14.1824-5.2224-27.5456-15.1552-37.632a52.15744 52.15744 0 0 0-37.376-15.6672l-322.2528-0.6144h-0.1024z m401.7152 371.0464z" fill="#474A54" /></svg>