<?xml version="1.0" standalone="no"?><!DOCTYPE svg PUBLIC "-//W3C//DTD SVG 1.1//EN" "http://www.w3.org/Graphics/SVG/1.1/DTD/svg11.dtd"><svg class="icon" width="48px" height="48.00px" viewBox="0 0 1024 1024" version="1.1" xmlns="http://www.w3.org/2000/svg"><path d="M779.264 934.144H256.8704c-62.9248 0-113.9712-51.0464-113.9712-113.9712v-157.3376h750.336v157.3376c0 62.976-50.9952 113.9712-113.9712 113.9712z" fill="#ffa115" /><path d="M790.8352 56.0128H232.192c-73.4208 0-133.12 59.6992-133.12 133.12v649.3184c0 73.4208 59.6992 133.12 133.12 133.12h558.6432c73.4208 0 133.12-59.6992 133.12-133.12V189.1328c0-73.3696-59.6992-133.12-133.12-133.12z m71.68 782.4896c0 39.5264-32.1536 71.68-71.68 71.68H232.192c-39.5264 0-71.68-32.1536-71.68-71.68V189.1328c0-39.5264 32.1536-71.68 71.68-71.68h558.6432c39.5264 0 71.68 32.1536 71.68 71.68v649.3696z" fill="#474A54" /><path d="M708.9152 330.3936H319.3856c-16.9472 0-30.72 13.7728-30.72 30.72s13.7728 30.72 30.72 30.72h389.5296c16.9472 0 30.72-13.7728 30.72-30.72s-13.7728-30.72-30.72-30.72zM708.9152 481.28H319.3856c-16.9472 0-30.72 13.7728-30.72 30.72s13.7728 30.72 30.72 30.72h389.5296c16.9472 0 30.72-13.7728 30.72-30.72s-13.7728-30.72-30.72-30.72zM583.424 632.1664H319.3856c-16.9472 0-30.72 13.7728-30.72 30.72s13.7728 30.72 30.72 30.72h264.0384c16.9472 0 30.72-13.7728 30.72-30.72 0-16.9984-13.7728-30.72-30.72-30.72z" fill="#474A54" /></svg>