<?xml version="1.0" standalone="no"?><!DOCTYPE svg PUBLIC "-//W3C//DTD SVG 1.1//EN" "http://www.w3.org/Graphics/SVG/1.1/DTD/svg11.dtd"><svg class="icon" width="48px" height="48.00px" viewBox="0 0 1024 1024" version="1.1" xmlns="http://www.w3.org/2000/svg"><path d="M789.4016 928.768H233.0624c-73.4208 0-133.12-59.6992-133.12-133.12V239.3088c0-73.4208 59.6992-133.12 133.12-133.12h556.3392c73.4208 0 133.12 59.6992 133.12 133.12V795.648c0 73.4208-59.6992 133.12-133.12 133.12zM233.0624 167.6288c-39.5264 0-71.68 32.1536-71.68 71.68V795.648c0 39.5264 32.1536 71.68 71.68 71.68h556.3392c39.5264 0 71.68-32.1536 71.68-71.68V239.3088c0-39.5264-32.1536-71.68-71.68-71.68H233.0624z" fill="#474A54" /><path d="M666.368 482.4064L461.1584 363.9296c-26.9824-15.5648-60.7744 3.8912-60.7744 35.072v237.0048c0 31.1808 33.7408 50.688 60.7744 35.072l205.2096-118.4768c27.0336-15.616 27.0336-54.5792 0-70.1952z" fill="#ffa115" /><path d="M440.8832 707.328c-12.2368 0-24.4736-3.2256-35.584-9.6768-22.3232-12.8512-35.6352-35.9424-35.6352-61.696V399.0016c0-25.7536 13.312-48.7936 35.6352-61.696s48.896-12.8512 71.2192 0l205.2096 118.4768c22.3232 12.8512 35.6352 35.9424 35.6352 61.696s-13.312 48.7936-35.6352 61.696l-205.2096 118.4768a71.05024 71.05024 0 0 1-35.6352 9.6768z m0.0512-318.1568c-2.0992 0-3.84 0.7168-4.9152 1.3824-1.8432 1.0752-4.9152 3.5328-4.9152 8.448v237.0048c0 4.9152 3.072 7.424 4.9152 8.448 1.8432 1.0752 5.5296 2.4576 9.7792 0l205.2096-118.4768c4.2496-2.4576 4.9152-6.3488 4.9152-8.448s-0.6144-5.9904-4.9152-8.448L445.7984 390.5024c-1.7408-0.9728-3.3792-1.3312-4.864-1.3312z" fill="#474A54" /></svg>