<?xml version="1.0" standalone="no"?><!DOCTYPE svg PUBLIC "-//W3C//DTD SVG 1.1//EN" "http://www.w3.org/Graphics/SVG/1.1/DTD/svg11.dtd"><svg class="icon" width="48px" height="48.00px" viewBox="0 0 1024 1024" version="1.1" xmlns="http://www.w3.org/2000/svg"><path d="M757.1456 859.1872H271.616c-61.2352 0-110.848-49.6128-110.848-110.848v-128.6144h707.2256v128.6144c0 61.2352-49.6128 110.848-110.848 110.848z" fill="#ffa115" /><path d="M579.7376 485.9904H447.744c-16.9472 0-30.72-13.7728-30.72-30.72s13.7728-30.72 30.72-30.72h132.0448c16.9472 0 30.72 13.7728 30.72 30.72s-13.7728 30.72-30.7712 30.72z" fill="#474A54" /><path d="M765.5936 259.7888h-55.7568v-125.952c0-45.1584-36.7616-81.92-81.92-81.92H395.6736c-45.1584 0-81.92 36.7616-81.92 81.92v125.952H263.168c-73.4208 0-133.12 59.6992-133.12 133.12v363.8272c0 73.4208 59.6992 133.12 133.12 133.12h17.8688v52.9408c0 16.9472 13.7728 30.72 30.72 30.72s30.72-13.7728 30.72-30.72V889.856h342.4768v52.9408c0 16.9472 13.7728 30.72 30.72 30.72s30.72-13.7728 30.72-30.72V889.856h19.2c73.4208 0 133.12-59.6992 133.12-133.12V392.9088c0-73.3696-59.6992-133.12-133.12-133.12zM375.1936 133.888c0-11.3152 9.1648-20.48 20.48-20.48h232.2432c11.3152 0 20.48 9.1648 20.48 20.48v125.952H375.1936v-125.952z m462.08 622.8992c0 39.5264-32.1536 71.68-71.68 71.68H263.168c-39.5264 0-71.68-32.1536-71.68-71.68V392.9088c0-39.5264 32.1536-71.68 71.68-71.68h502.3744c39.5264 0 71.68 32.1536 71.68 71.68v363.8784z" fill="#474A54" /></svg>