<?xml version="1.0" standalone="no"?><!DOCTYPE svg PUBLIC "-//W3C//DTD SVG 1.1//EN" "http://www.w3.org/Graphics/SVG/1.1/DTD/svg11.dtd"><svg class="icon" width="48px" height="48.00px" viewBox="0 0 1024 1024" version="1.1" xmlns="http://www.w3.org/2000/svg"><path d="M923.392 632.8832h-279.3984c-56.32 0-101.9392-45.6704-101.9392-101.9392v-47.104c0-56.32 45.6704-101.9392 101.9392-101.9392h279.3984v250.9824z" fill="#ffa115" /><path d="M820.992 121.0368H205.1584c-73.4208 0-133.12 59.6992-133.12 133.12v508.0576c0 73.4208 59.6992 133.12 133.12 133.12h615.8848c73.4208 0 133.12-59.6992 133.12-133.12V254.1568c-0.0512-73.4208-59.7504-133.12-133.1712-133.12z m0 712.8576H205.1584c-39.5264 0-71.68-32.1536-71.68-71.68V254.1568c0-39.5264 32.1536-71.68 71.68-71.68h615.8848c39.5264 0 71.68 32.1536 71.68 71.68v96.9728h-248.6784c-73.1648 0-132.6592 59.5456-132.6592 132.7104v47.104c0 73.1648 59.5456 132.7104 132.6592 132.7104h248.6784v98.6112c-0.0512 39.4752-32.2048 71.6288-71.7312 71.6288z m71.68-231.7312h-248.6784c-39.2704 0-71.2192-31.9488-71.2192-71.2704v-47.104c0-39.2704 31.9488-71.2704 71.2192-71.2704h248.6784v189.6448z" fill="#474A54" /><path d="M665.9584 507.392m-39.8848 0a39.8848 39.8848 0 1 0 79.7696 0 39.8848 39.8848 0 1 0-79.7696 0Z" fill="#474A54" /></svg>