<?xml version="1.0" standalone="no"?><!DOCTYPE svg PUBLIC "-//W3C//DTD SVG 1.1//EN" "http://www.w3.org/Graphics/SVG/1.1/DTD/svg11.dtd"><svg class="icon" width="48px" height="48.00px" viewBox="0 0 1024 1024" version="1.1" xmlns="http://www.w3.org/2000/svg"><path d="M288.4096 99.328h455.168c39.0144 0 74.5984 22.1696 91.8528 57.1392l83.0464 168.5504c1.1776 2.3552-0.5632 5.12-3.1744 5.12H115.456c-2.6624 0-4.352-2.7648-3.1744-5.1712l84.5312-169.0624A102.4256 102.4256 0 0 1 288.4096 99.328z" fill="#ffa115" /><path d="M948.9408 320.256c-0.5632-3.0208-1.536-5.9392-2.9184-8.8064l-83.0464-168.5504c-22.5792-45.824-68.352-74.2912-119.3984-74.2912h-455.168c-50.7392 0-96.3584 28.2112-119.04 73.5744L84.8384 311.2448c-1.4336 2.8672-2.4064 5.8368-3.0208 8.8576-1.792 4.1984-2.816 8.7552-2.816 13.6192v476.2112c0 73.4208 59.6992 133.12 133.12 133.12h606.464c73.4208 0 133.12-59.6992 133.12-133.12V333.7216c0-4.8128-0.9728-9.3184-2.7648-13.4656zM224.3072 169.6768C236.544 145.2544 261.12 130.048 288.4096 130.048h455.168c27.4944 0 52.1728 15.3088 64.3072 39.9872l63.744 129.3824H159.4368l64.8704-129.7408z m665.9584 640.2048c0 39.5264-32.1536 71.68-71.68 71.68H212.1216c-39.5264 0-71.68-32.1536-71.68-71.68v-449.024h749.824v449.024z" fill="#474A54" /><path d="M298.0864 637.5424h363.3152l-63.9488 72.9088a30.72 30.72 0 0 0 2.8672 43.3664c5.8368 5.12 13.056 7.6288 20.224 7.6288 8.5504 0 17.0496-3.5328 23.0912-10.4448l108.5952-123.904a30.74048 30.74048 0 0 0 0.1536-40.3456l-108.5952-125.5936a30.67392 30.67392 0 0 0-43.3152-3.1232 30.67392 30.67392 0 0 0-3.1232 43.3152l64.6656 74.8032H298.0864c-16.9472 0-30.72 13.7728-30.72 30.72s13.7216 30.6688 30.72 30.6688z" fill="#474A54" /></svg>