<?xml version="1.0" standalone="no"?><!DOCTYPE svg PUBLIC "-//W3C//DTD SVG 1.1//EN" "http://www.w3.org/Graphics/SVG/1.1/DTD/svg11.dtd"><svg class="icon" width="48px" height="48.00px" viewBox="0 0 1024 1024" version="1.1" xmlns="http://www.w3.org/2000/svg"><path d="M285.0816 99.328h455.168c39.0144 0 74.5984 22.1696 91.8528 57.1392l83.0464 168.5504c1.1776 2.3552-0.5632 5.12-3.1744 5.12H112.128c-2.6624 0-4.352-2.7648-3.1744-5.1712l84.5312-169.0624A102.4256 102.4256 0 0 1 285.0816 99.328z" fill="#ffa115" /><path d="M945.6128 320.256c-0.5632-3.0208-1.536-5.9392-2.9184-8.8064L859.648 142.8992c-22.5792-45.824-68.352-74.2912-119.3984-74.2912h-455.168c-50.7392 0-96.3584 28.2112-119.04 73.5744L81.4592 311.296c-1.4336 2.8672-2.4064 5.8368-2.9696 8.8576-1.792 4.1472-2.816 8.7552-2.816 13.568v476.2112c0 73.4208 59.6992 133.12 133.12 133.12h606.464c73.4208 0 133.12-59.6992 133.12-133.12V333.7216c0-4.8128-1.024-9.3184-2.7648-13.4656zM220.928 169.6768c12.2368-24.4224 36.7616-39.6288 64.1024-39.6288h455.168c27.4944 0 52.1216 15.3088 64.3072 39.9872l63.744 129.3824H156.0576l64.8704-129.7408z m666.0096 640.2048c0 39.5264-32.1536 71.68-71.68 71.68H208.7424c-39.5264 0-71.68-32.1536-71.68-71.68v-449.024h749.824v449.024z" fill="#474A54" /><path d="M444.416 743.2704c-14.4896 0-28.9792-5.632-39.936-16.8448l-94.2592-96.3072c-11.8784-12.1344-11.6736-31.5904 0.4608-43.4176 12.1344-11.8784 31.5904-11.6736 43.4176 0.4608l90.5728 92.4672L671.232 474.624c12.5952-11.3664 32-10.4448 43.3664 2.1504a30.73536 30.73536 0 0 1-2.1504 43.3664l-230.5024 208.5376a55.3984 55.3984 0 0 1-37.5296 14.592z" fill="#474A54" /></svg>