<?xml version="1.0" standalone="no"?><!DOCTYPE svg PUBLIC "-//W3C//DTD SVG 1.1//EN" "http://www.w3.org/Graphics/SVG/1.1/DTD/svg11.dtd"><svg class="icon" width="48px" height="48.00px" viewBox="0 0 1024 1024" version="1.1" xmlns="http://www.w3.org/2000/svg"><path d="M102.4512 638.6176h837.9392s11.3152 248.7808-196.7616 248.7808H275.456s-177.5104-13.568-177.5104-150.3744c0-80.2816 4.5056-98.4064 4.5056-98.4064z" fill="#ffa115" /><path d="M749.056 919.1424H283.2896c-121.6512 0-220.672-98.9696-220.672-220.672V381.8496c0-125.7984 90.4704-220.672 210.432-220.672 16.9472 0 30.72 13.7728 30.72 30.72s-13.7728 30.72-30.72 30.72c-84.9408 0-148.992 68.4544-148.992 159.232v316.6208c0 87.808 71.424 159.232 159.232 159.232h465.7664c87.808 0 159.232-71.424 159.232-159.232V381.8496c0-90.7776-64.0512-159.232-148.992-159.232-16.9472 0-30.72-13.7728-30.72-30.72s13.7728-30.72 30.72-30.72c119.9616 0 210.432 94.8736 210.432 220.672v316.6208c0 121.7024-99.0208 220.672-220.672 220.672z" fill="#474A54" /><path d="M611.072 222.6176h-187.904c-16.9472 0-30.72-13.7728-30.72-30.72s13.7728-30.72 30.72-30.72h187.904c16.9472 0 30.72 13.7728 30.72 30.72s-13.7728 30.72-30.72 30.72zM687.9744 308.992c-16.9472 0-30.72-13.7728-30.72-30.72V117.3504c0-16.9472 13.7728-30.72 30.72-30.72s30.72 13.7728 30.72 30.72v160.9216c0 16.9984-13.7216 30.72-30.72 30.72zM345.6512 308.992c-16.9472 0-30.72-13.7728-30.72-30.72V117.3504c0-16.9472 13.7728-30.72 30.72-30.72s30.72 13.7728 30.72 30.72v160.9216c0 16.9984-13.7216 30.72-30.72 30.72zM441.6512 701.184a44.4928 44.4928 0 0 1-32.1024-13.568c-0.768-0.8192-1.4848-1.6384-2.2016-2.5088l-80.7936-103.8336a30.71488 30.71488 0 0 1 5.376-43.1104 30.7712 30.7712 0 0 1 43.1104 5.376l69.12 88.832 207.616-176.5376a30.73536 30.73536 0 0 1 43.3152 3.4816c11.008 12.9024 9.4208 32.3072-3.4816 43.3152l-220.9792 187.904a44.69248 44.69248 0 0 1-28.9792 10.6496z" fill="#474A54" /></svg>