<?xml version="1.0" standalone="no"?><!DOCTYPE svg PUBLIC "-//W3C//DTD SVG 1.1//EN" "http://www.w3.org/Graphics/SVG/1.1/DTD/svg11.dtd"><svg class="icon" width="48px" height="48.00px" viewBox="0 0 1024 1024" version="1.1" xmlns="http://www.w3.org/2000/svg"><path d="M293.3248 446.0032l367.2576-118.528c12.544-4.0448 24.4224 7.6288 20.6848 20.224l-112.384 376.7808c-4.6592 15.6672-26.88 15.5136-31.3856-0.1536l-53.9648-188.3136a16.3584 16.3584 0 0 0-11.52-11.3152l-177.92-47.36c-15.7184-4.1984-16.2816-26.3168-0.768-31.3344z" fill="#ffa115" /><path d="M507.5968 56.0128c-253.6448 0-460.032 206.3872-460.032 460.032s206.3872 460.032 460.032 460.032 460.032-206.3872 460.032-460.032-206.3872-460.032-460.032-460.032z m0 858.6752c-219.8016 0-398.592-178.7904-398.592-398.592 0-219.8016 178.7904-398.592 398.592-398.592 219.8016 0 398.592 178.7904 398.592 398.592 0 219.7504-178.7904 398.592-398.592 398.592z" fill="#474A54" /><path d="M651.1616 298.24L283.904 416.768c-20.0192 6.4512-33.1264 24.9856-32.6144 46.0288s14.592 38.8608 34.9184 44.288l170.0352 45.2608 51.712 180.48c5.7856 20.2752 23.9104 33.9968 45.0048 34.0992h0.256c20.992 0 39.0656-13.4656 45.1072-33.6384l112.384-376.7808a46.8992 46.8992 0 0 0-12.1856-47.104 47.00672 47.00672 0 0 0-47.36-11.1616zM302.7968 475.2384z m250.6752 193.3824l-40.3968-141.056a47.22176 47.22176 0 0 0-33.1264-32.512l-130.7136-34.816 294.8096-95.1296-90.5728 303.5136z" fill="#474A54" /></svg>