<?xml version="1.0" standalone="no"?><!DOCTYPE svg PUBLIC "-//W3C//DTD SVG 1.1//EN" "http://www.w3.org/Graphics/SVG/1.1/DTD/svg11.dtd"><svg class="icon" width="48px" height="48.00px" viewBox="0 0 1024 1024" version="1.1" xmlns="http://www.w3.org/2000/svg"><path d="M240.384 328.8064h557.4656s-32.768 197.888-283.8528 197.888-273.6128-197.888-273.6128-197.888zM844.8 903.2704H187.8016c-32.1536 0-58.2144-26.0608-58.2144-58.2144 0-32.1536 26.0608-58.2144 58.2144-58.2144H844.8c32.1536 0 58.2144 26.0608 58.2144 58.2144 0 32.1024-26.0608 58.2144-58.2144 58.2144z" fill="#ffa115" /><path d="M854.8352 922.9824H176.384c-43.6224 0-79.104-35.4816-79.104-79.104s35.4816-79.104 79.104-79.104h26.7776v-0.6656c0-99.4304 46.5408-191.744 124.1088-250.9312a315.47392 315.47392 0 0 1-124.0576-250.9312v-0.6144h-26.7776c-43.6224 0-79.104-35.4816-79.104-79.104S132.8128 103.424 176.384 103.424h678.4512c43.6224 0 79.104 35.4816 79.104 79.104s-35.4816 79.104-79.104 79.104H834.56v0.6656c0 99.4304-46.5408 191.744-124.1088 250.9312A315.37152 315.37152 0 0 1 834.56 764.16v0.6656h20.2752c43.6224 0 79.104 35.4816 79.104 79.104s-35.4816 79.0528-79.104 79.0528z m-678.4512-96.768c-9.728 0-17.664 7.936-17.664 17.664s7.936 17.664 17.664 17.664h678.4512c9.728 0 17.664-7.936 17.664-17.664s-7.936-17.664-17.664-17.664H803.84c-16.9472 0-30.72-13.7728-30.72-30.72v-31.3856c0-93.5936-51.2512-179.4048-133.6832-223.8976-9.9328-5.376-16.128-15.7696-16.128-27.0336s6.1952-21.6576 16.128-27.0336A254.13632 254.13632 0 0 0 773.12 262.2464V230.912c0-16.9472 13.7728-30.72 30.72-30.72h50.9952c9.728 0 17.664-7.936 17.664-17.664s-7.936-17.664-17.664-17.664H176.384c-9.728 0-17.664 7.936-17.664 17.664s7.936 17.664 17.664 17.664h57.4976c16.9472 0 30.72 13.7728 30.72 30.72v31.3856c0 93.5936 51.2512 179.4048 133.6832 223.8976 9.9328 5.376 16.128 15.7696 16.128 27.0336s-6.1952 21.6576-16.128 27.0336a254.13632 254.13632 0 0 0-133.6832 223.8976v31.3856c0 16.9472-13.7728 30.72-30.72 30.72H176.384z" fill="#474A54" /><path d="M642.9184 357.0176h-252.928c-16.9472 0-30.72-13.7728-30.72-30.72s13.7728-30.72 30.72-30.72h252.928c16.9472 0 30.72 13.7728 30.72 30.72s-13.7728 30.72-30.72 30.72zM642.9184 736.9728h-252.928c-16.9472 0-30.72-13.7728-30.72-30.72s13.7728-30.72 30.72-30.72h252.928c16.9472 0 30.72 13.7728 30.72 30.72s-13.7728 30.72-30.72 30.72z" fill="#474A54" /></svg>