<?xml version="1.0" standalone="no"?><!DOCTYPE svg PUBLIC "-//W3C//DTD SVG 1.1//EN" "http://www.w3.org/Graphics/SVG/1.1/DTD/svg11.dtd"><svg class="icon" width="48px" height="48.00px" viewBox="0 0 1024 1024" version="1.1" xmlns="http://www.w3.org/2000/svg"><path d="M669.5424 929.6384H367.104c-56.576 0-102.4-45.824-102.4-102.4v-162.5088c0-56.576 45.824-102.4 102.4-102.4h302.3872c56.576 0 102.4 45.824 102.4 102.4v162.5088c0.0512 56.576-45.824 102.4-102.3488 102.4z" fill="#ffa115" /><path d="M813.9776 209.7152h-11.3152v-14.2848c0-73.4208-59.6992-133.12-133.12-133.12H367.104c-73.4208 0-133.12 59.6992-133.12 133.12v14.2848h-11.3152c-73.4208 0-133.12 59.6992-133.12 133.12v276.5824c0 73.4208 59.6992 133.12 133.12 133.12h11.3152v74.752c0 73.4208 59.6992 133.12 133.12 133.12h302.3872c73.4208 0 133.12-59.6992 133.12-133.12v-74.752h11.3152c73.4208 0 133.12-59.6992 133.12-133.12V342.8352c0.0512-73.4208-59.648-133.12-133.0688-133.12zM295.424 195.4304c0-39.5264 32.1536-71.68 71.68-71.68h302.3872c39.5264 0 71.68 32.1536 71.68 71.68v14.2848H295.424v-14.2848z m445.7984 631.808c0 39.5264-32.1536 71.68-71.68 71.68H367.104c-39.5264 0-71.68-32.1536-71.68-71.68v-162.5088c0-39.5264 32.1536-71.68 71.68-71.68h302.3872c39.5264 0 71.68 32.1536 71.68 71.68v162.5088z m144.4352-207.8208c0 39.5264-32.1536 71.68-71.68 71.68h-11.3152v-26.368c0-73.4208-59.6992-133.12-133.12-133.12H367.104c-73.4208 0-133.12 59.6992-133.12 133.12v26.368h-11.3152c-39.5264 0-71.68-32.1536-71.68-71.68V342.8352c0-39.5264 32.1536-71.68 71.68-71.68H813.9264c39.5264 0 71.68 32.1536 71.68 71.68v276.5824z" fill="#474A54" /><path d="M266.0352 381.2864m-37.5808 0a37.5808 37.5808 0 1 0 75.1616 0 37.5808 37.5808 0 1 0-75.1616 0Z" fill="#474A54" /></svg>