<?xml version="1.0" standalone="no"?><!DOCTYPE svg PUBLIC "-//W3C//DTD SVG 1.1//EN" "http://www.w3.org/Graphics/SVG/1.1/DTD/svg11.dtd"><svg class="icon" width="48px" height="48.00px" viewBox="0 0 1024 1024" version="1.1" xmlns="http://www.w3.org/2000/svg"><path d="M510.976 129.8944L319.5904 384.9216 510.464 913.7664l202.8544-528.8448-181.4528-255.0272z" fill="#ffa115" /><path d="M972.9536 327.168L811.52 120.1664c-18.0736-23.1424-45.2608-36.4544-74.6496-36.4544H293.3248c-28.416 0-55.04 12.5952-73.0624 34.5088L50.5856 324.4544c-28.8768 35.1232-28.672 85.9648 0.512 120.832l389.1712 465.3568c16.896 20.1728 41.1648 32.1536 67.2256 33.6384 0.8704 0.1024 1.7408 0.2048 2.6624 0.256h0.3072c0.2048 0 0.3584-0.0512 0.512-0.0512 0.6144 0 1.2288 0.1024 1.8432 0.1024h0.2048c28.16-0.0512 54.6304-12.544 72.6528-34.2016l385.4848-464.5376c28.16-33.9968 28.928-83.8656 1.792-118.6816z m-209.92-169.216l153.0368 196.2496h-186.9312l-148.6848-208.9984h156.416c10.2912 0 19.8656 4.6592 26.1632 12.7488zM511.3344 825.7024l-147.968-410.0608h305.2544l-157.2864 410.0608zM381.0816 354.2016l139.9808-186.5216 132.7104 186.5216H381.0816zM267.6736 157.2864a33.13152 33.13152 0 0 1 25.6512-12.0832h167.7824L304.2816 354.2016H105.6768l161.9968-196.9152zM106.3424 415.6416h191.6928l145.5104 403.1488-337.2032-403.1488z m471.7568 407.6544l156.3648-407.6544h181.9136l-338.2784 407.6544z" fill="#474A54" /></svg>