<?xml version="1.0" standalone="no"?><!DOCTYPE svg PUBLIC "-//W3C//DTD SVG 1.1//EN" "http://www.w3.org/Graphics/SVG/1.1/DTD/svg11.dtd"><svg class="icon" width="48px" height="48.00px" viewBox="0 0 1024 1024" version="1.1" xmlns="http://www.w3.org/2000/svg"><path d="M807.4752 615.3728c-59.1872 0-113.3568-28.6208-147.2512-74.1888-33.8944 45.568-88.064 74.1888-147.2512 74.1888-58.368 0-111.5136-27.1872-145.4592-71.4752-33.9456 44.288-87.04 71.4752-145.4592 71.4752-2.7648 0-5.5296-0.0512-8.2944-0.2048-56.3712-2.56-106.4448-31.3856-137.5232-79.1552-31.488-48.384-37.7344-109.312-16.7936-162.9184l92.0064-235.3152C167.0656 97.8944 204.8 72.0896 247.6544 72.0896H806.4c45.824 0 85.5552 29.44 98.8672 73.3184l73.2672 241.4592c21.248 70.0928-2.4064 146.5344-58.88 190.2592-32.4096 25.0368-71.168 38.2464-112.1792 38.2464z m-147.2512-173.8752c13.8752 0 26.0096 9.2672 29.6448 22.6304 14.3872 52.8896 62.7712 89.8048 117.6064 89.8048 27.2384 0 53.0432-8.8064 74.5472-25.4464 36.4544-28.2112 51.6096-77.9776 37.7344-123.8528l-73.2672-241.4592c-5.376-17.7664-21.504-29.696-40.0896-29.696H247.7056c-17.3568 0-32.6656 10.4448-39.0144 26.624L116.6848 395.4688c-13.7728 35.2256-9.6256 75.2128 11.0592 107.0592 20.1216 30.976 52.48 49.664 88.7296 51.3024 1.792 0.1024 3.6864 0.1024 5.5808 0.1024 53.2992 0 99.9936-34.0992 116.1728-84.8384a30.73536 30.73536 0 0 1 58.5728 0c16.1792 50.7392 62.8736 84.8384 116.1728 84.8384 54.8352 0 103.2192-36.9152 117.6064-89.8048a30.6944 30.6944 0 0 1 29.6448-22.6304z" fill="#474A54" /><path d="M795.648 374.4256H237.7728c-16.9472 0-30.72-13.7728-30.72-30.72s13.7728-30.72 30.72-30.72H795.648c16.9472 0 30.72 13.7728 30.72 30.72s-13.7728 30.72-30.72 30.72z" fill="#474A54" /><path d="M830.208 900.096H207.872c-42.0352 0-76.1344-34.0992-76.1344-76.1344v-119.8592h774.6048v119.8592c0 42.0352-34.0992 76.1344-76.1344 76.1344z" fill="#ffa115" /><path d="M805.6832 948.8896H227.7888c-69.888 0-126.7712-56.8832-126.7712-126.7712v-158.976c0-16.9472 13.7728-30.72 30.72-30.72s30.72 13.7728 30.72 30.72v158.976c0 36.0448 29.2864 65.3312 65.3312 65.3312h577.8944c36.0448 0 65.3312-29.2864 65.3312-65.3312v-158.976c0-16.9472 13.7728-30.72 30.72-30.72s30.72 13.7728 30.72 30.72v158.976c0 69.888-56.8832 126.7712-126.7712 126.7712z" fill="#474A54" /></svg>