<?xml version="1.0" standalone="no"?><!DOCTYPE svg PUBLIC "-//W3C//DTD SVG 1.1//EN" "http://www.w3.org/Graphics/SVG/1.1/DTD/svg11.dtd"><svg class="icon" width="48px" height="48.00px" viewBox="0 0 1024 1024" version="1.1" xmlns="http://www.w3.org/2000/svg"><path d="M814.848 771.2768H212.992c-57.856 0-104.7552-46.8992-104.7552-104.7552v-114.5344h811.3664v114.5344c0 57.856-46.8992 104.7552-104.7552 104.7552z" fill="#ffa115" /><path d="M817.2032 92.16H210.6368c-73.4208 0-133.12 59.6992-133.12 133.12v443.5968c0 73.4208 59.6992 133.12 133.12 133.12h606.5664c73.4208 0 133.12-59.6992 133.12-133.12V225.28c0-73.4208-59.6992-133.12-133.12-133.12z m71.68 576.7168c0 39.5264-32.1536 71.68-71.68 71.68H210.6368c-39.5264 0-71.68-32.1536-71.68-71.68V225.28c0-39.5264 32.1536-71.68 71.68-71.68h606.5664c39.5264 0 71.68 32.1536 71.68 71.68v443.5968zM682.3424 890.6752H350.3104c-16.9472 0-30.72 13.7728-30.72 30.72s13.7728 30.72 30.72 30.72h332.032c16.9472 0 30.72-13.7728 30.72-30.72s-13.7728-30.72-30.72-30.72z" fill="#474A54" /></svg>