<?xml version="1.0" standalone="no"?><!DOCTYPE svg PUBLIC "-//W3C//DTD SVG 1.1//EN" "http://www.w3.org/Graphics/SVG/1.1/DTD/svg11.dtd"><svg class="icon" width="48px" height="48.00px" viewBox="0 0 1024 1024" version="1.1" xmlns="http://www.w3.org/2000/svg"><path d="M512 326.5024m-84.3264 0a84.3264 84.3264 0 1 0 168.6528 0 84.3264 84.3264 0 1 0-168.6528 0Z" fill="#ffa115" /><path d="M627.0464 326.5024c0-63.4368-51.6096-115.0464-115.0464-115.0464S396.9536 263.0656 396.9536 326.5024c0 63.4368 51.6096 115.0464 115.0464 115.0464s115.0464-51.6096 115.0464-115.0464z m-168.6528 0c0-29.5424 24.064-53.6064 53.6064-53.6064s53.6064 24.064 53.6064 53.6064c0 29.5424-24.064 53.6064-53.6064 53.6064s-53.6064-24.064-53.6064-53.6064z" fill="#474A54" /><path d="M491.52 782.7456a30.76096 30.76096 0 0 0 41.984-1.024c94.3104-92.8256 252.5696-275.456 252.5696-455.2704 0-151.1424-122.9824-274.1248-274.1248-274.1248S237.8752 175.3088 237.8752 326.5024c0 149.2992 130.7136 346.5216 253.6448 456.2432z m20.48-668.928c117.248 0 212.6848 95.3856 212.6848 212.6848 0 109.5168-77.4656 250.7776-213.504 390.6048-107.52-104.6528-211.8656-271.7696-211.8656-390.6048 0-117.2992 95.4368-212.6848 212.6848-212.6848z" fill="#474A54" /><path d="M775.5264 658.3296c-16.4864-3.9936-33.0752 6.1952-37.0688 22.6816-3.9936 16.4864 6.1952 33.0752 22.6816 37.0688 111.104 26.7264 151.4496 64.0512 151.4496 82.5856 0 43.5712-160.9728 109.4656-403.6096 109.4656s-403.6096-65.8944-403.6096-109.4656c0-20.0192 44.544-59.4944 167.3216-86.2208 16.5888-3.6352 27.0848-19.968 23.4496-36.5568-3.6352-16.5888-20.0192-27.0848-36.5568-23.4496-139.0592 30.3104-215.6544 82.2784-215.6544 146.2784 0 112.2304 233.9328 170.9056 465.0496 170.9056s465.0496-58.7264 465.0496-170.9056c0-61.0304-70.5024-111.5648-198.5024-142.3872z" fill="#474A54" /></svg>