<?xml version="1.0" standalone="no"?><!DOCTYPE svg PUBLIC "-//W3C//DTD SVG 1.1//EN" "http://www.w3.org/Graphics/SVG/1.1/DTD/svg11.dtd"><svg class="icon" width="48px" height="48.00px" viewBox="0 0 1024 1024" version="1.1" xmlns="http://www.w3.org/2000/svg"><path d="M621.824 229.2224H408.6272c-41.9328 0-75.8784-33.9968-75.8784-75.8784 0-41.9328 33.9968-75.8784 75.8784-75.8784h213.1968c41.9328 0 75.8784 33.9968 75.8784 75.8784 0 41.9328-33.9456 75.8784-75.8784 75.8784z" fill="#ffa115" /><path d="M787.6608 117.1968h-65.6896c-14.848-41.0112-54.0672-70.4512-100.1472-70.4512H408.6272c-46.08 0-85.2992 29.44-100.1472 70.4512H240.9984c-68.9664 0-125.0816 56.1152-125.0816 125.0816v609.8944c0 68.9664 56.1152 125.0816 125.0816 125.0816h546.6624c68.9664 0 125.0816-56.1152 125.0816-125.0816V242.2784c0-68.9664-56.1152-125.0816-125.0816-125.0816z m-379.0336-9.0112h213.1968c24.8832 0 45.1584 20.2752 45.1584 45.1584s-20.2752 45.1584-45.1584 45.1584H408.6272c-24.8832 0-45.1584-20.2752-45.1584-45.1584s20.224-45.1584 45.1584-45.1584z m442.6752 743.9872c0 35.072-28.5696 63.6416-63.6416 63.6416H240.9984c-35.072 0-63.6416-28.5696-63.6416-63.6416V242.2784c0-35.072 28.5696-63.6416 63.6416-63.6416H305.152c11.4176 46.592 53.4016 81.3056 103.424 81.3056h213.1968c50.0736 0 92.0576-34.7136 103.424-81.3056h62.3616c35.072 0 63.6416 28.5696 63.6416 63.6416v609.8944z" fill="#474A54" /><path d="M741.0688 444.8256H291.1744c-16.9472 0-30.72-13.7728-30.72-30.72s13.7728-30.72 30.72-30.72h449.8944c16.9472 0 30.72 13.7728 30.72 30.72s-13.7216 30.72-30.72 30.72zM741.0688 609.8944H291.1744c-16.9472 0-30.72-13.7728-30.72-30.72s13.7728-30.72 30.72-30.72h449.8944c16.9472 0 30.72 13.7728 30.72 30.72s-13.7216 30.72-30.72 30.72zM524.2368 774.912H291.1744c-16.9472 0-30.72-13.7728-30.72-30.72s13.7728-30.72 30.72-30.72h233.0624c16.9472 0 30.72 13.7728 30.72 30.72s-13.7216 30.72-30.72 30.72z" fill="#474A54" /></svg>