<?xml version="1.0" standalone="no"?><!DOCTYPE svg PUBLIC "-//W3C//DTD SVG 1.1//EN" "http://www.w3.org/Graphics/SVG/1.1/DTD/svg11.dtd"><svg class="icon" width="48px" height="48.00px" viewBox="0 0 1024 1024" version="1.1" xmlns="http://www.w3.org/2000/svg"><path d="M653.5168 952.9344c-14.3872 0-28.8256-3.7376-41.5232-11.264l-242.688-142.6432a20.3776 20.3776 0 0 0-20.8896 0.1024L181.248 899.2256c-25.6512 15.36-56.4736 15.7184-82.4832 0.9728s-41.5232-41.3696-41.5232-71.2704V484.7104c0-31.1808 18.1248-60.16 46.2336-73.728l81.5104-39.4752c15.2576-7.3728 33.6384-1.024 41.0112 14.2848 7.3728 15.2576 1.024 33.6384-14.2848 41.0112l-81.5104 39.4752a20.61824 20.61824 0 0 0-11.5712 18.432v344.2688c0 10.752 7.2704 16.0256 10.3936 17.8176 3.1232 1.792 11.3664 5.2736 20.6336-0.256l167.168-100.096a81.96608 81.96608 0 0 1 83.6096-0.3584l242.688 142.6432c6.1952 3.6352 13.9264 3.7376 20.224 0.3072l231.1168-126.464c6.5536-3.584 10.6496-10.496 10.6496-17.9712V399.2576c0-3.6352-2.048-5.632-3.7376-6.7072-1.6896-1.0752-4.4032-1.9456-7.68-0.3584l-29.6448 14.848a30.73024 30.73024 0 0 1-41.216-13.7216 30.74048 30.74048 0 0 1 13.7216-41.216l29.6448-14.848c21.6576-10.8544 46.848-9.6768 67.4304 3.0208s32.8704 34.7648 32.8704 58.9824v345.3952c0 29.952-16.3328 57.4976-42.5984 71.8848l-231.1168 126.464a82.3808 82.3808 0 0 1-39.2704 9.9328z" fill="#474A54" /><path d="M511.8464 327.8848m-94.4128 0a94.4128 94.4128 0 1 0 188.8256 0 94.4128 94.4128 0 1 0-188.8256 0Z" fill="#ffa115" /><path d="M511.8464 453.0176c-69.0176 0-125.1328-56.1152-125.1328-125.1328S442.8288 202.752 511.8464 202.752s125.1328 56.1152 125.1328 125.1328-56.1152 125.1328-125.1328 125.1328z m0-188.8256c-35.1232 0-63.6928 28.5696-63.6928 63.6928s28.5696 63.6928 63.6928 63.6928 63.6928-28.5696 63.6928-63.6928-28.5696-63.6928-63.6928-63.6928z" fill="#474A54" /><path d="M511.8464 745.1648c-5.12 0-10.2912-1.28-14.8992-3.84C371.0976 671.3856 264.704 482.0992 264.704 327.936c0-136.2944 110.848-247.1424 247.1424-247.1424 136.2944 0 247.1424 110.848 247.1424 247.1424 0 152.8832-101.5808 334.2336-231.2192 412.7744-4.864 2.9696-10.3936 4.4544-15.9232 4.4544z m0-602.9824c-102.4 0-185.7024 83.3024-185.7024 185.7024 0 125.7984 84.8384 284.0576 185.1392 350.2592 104.0384-72.3456 186.2656-225.0752 186.2656-350.2592 0-102.4-83.3024-185.7024-185.7024-185.7024z" fill="#474A54" /></svg>