<?xml version="1.0" standalone="no"?><!DOCTYPE svg PUBLIC "-//W3C//DTD SVG 1.1//EN" "http://www.w3.org/Graphics/SVG/1.1/DTD/svg11.dtd"><svg class="icon" width="48px" height="48.00px" viewBox="0 0 1024 1024" version="1.1" xmlns="http://www.w3.org/2000/svg"><path d="M838.8096 865.7408H195.84c-45.2608 0-81.9712-36.7104-81.9712-81.9712v-118.016h806.912v118.016c0.0512 45.2608-36.6592 81.9712-81.9712 81.9712z" fill="#ffa115" /><path d="M825.4976 905.2672H202.1376c-73.4208 0-133.12-59.6992-133.12-133.12v-90.5728c0-32.3072 19.4048-61.7984 49.4592-75.1616 37.2736-16.5888 61.3888-53.6576 61.3888-94.3616 0-40.7552-24.064-77.7728-61.3888-94.3616-30.0544-13.3632-49.4592-42.9056-49.4592-75.1616V251.8528c0-73.4208 59.6992-133.12 133.12-133.12h623.3088c73.4208 0 133.12 59.6992 133.12 133.12v90.5216c0 32.3584-19.456 61.8496-49.5104 75.2128-37.3248 16.5888-61.4912 53.6576-61.4912 94.4128 0 40.7552 24.1152 77.824 61.4912 94.4128 30.1056 13.3632 49.5104 42.9056 49.5104 75.2128v90.5216c0.0512 73.4208-59.6992 133.12-133.0688 133.12zM202.1376 180.1728c-39.5264 0-71.68 32.1536-71.68 71.68v90.5728c0 8.192 4.9664 15.4624 13.0048 19.0464 59.4432 26.4704 97.792 85.5552 97.792 150.528 0 64.9728-38.4 124.0576-97.792 150.528-8.0384 3.584-13.0048 10.8544-13.0048 19.0464v90.5728c0 39.5264 32.1536 71.68 71.68 71.68h623.3088c39.5264 0 71.68-32.1536 71.68-71.68v-90.5216c0-8.192-4.9664-15.5136-13.0048-19.0464-59.5456-26.4192-97.9968-85.504-97.9968-150.5792s38.4512-124.16 97.9968-150.5792c8.0384-3.584 13.0048-10.8544 13.0048-19.0464V251.8528c0-39.5264-32.1536-71.68-71.68-71.68H202.1376z" fill="#474A54" /><path d="M638.2592 434.8416H395.264c-16.9472 0-30.72-13.7728-30.72-30.72s13.7728-30.72 30.72-30.72h242.9952c16.9472 0 30.72 13.7728 30.72 30.72s-13.7728 30.72-30.72 30.72zM638.2592 642.816H395.264c-16.9472 0-30.72-13.7728-30.72-30.72s13.7728-30.72 30.72-30.72h242.9952c16.9472 0 30.72 13.7728 30.72 30.72s-13.7728 30.72-30.72 30.72z" fill="#474A54" /></svg>