<?xml version="1.0" standalone="no"?><!DOCTYPE svg PUBLIC "-//W3C//DTD SVG 1.1//EN" "http://www.w3.org/Graphics/SVG/1.1/DTD/svg11.dtd"><svg class="icon" width="48px" height="48.00px" viewBox="0 0 1024 1024" version="1.1" xmlns="http://www.w3.org/2000/svg"><path d="M219.2896 917.6064h122.8288c56.576 0 102.4-45.824 102.4-102.4v-122.8288c0-56.576-45.824-102.4-102.4-102.4H219.2896c-56.576 0-102.4 45.824-102.4 102.4v122.8288c0 56.5248 45.8752 102.4 102.4 102.4z" fill="#ffa115" /><path d="M810.4448 484.1472H687.616c-73.4208 0-133.12-59.6992-133.12-133.12V228.1984c0-73.4208 59.6992-133.12 133.12-133.12h122.8288c73.4208 0 133.12 59.6992 133.12 133.12v122.8288c0 73.4208-59.6992 133.12-133.12 133.12z m-122.7776-327.6288c-39.5264 0-71.68 32.1536-71.68 71.68v122.8288c0 39.5264 32.1536 71.68 71.68 71.68h122.8288c39.5264 0 71.68-32.1536 71.68-71.68V228.1984c0-39.5264-32.1536-71.68-71.68-71.68h-122.8288zM342.1184 484.1472H219.2896c-73.4208 0-133.12-59.6992-133.12-133.12V228.1984c0-73.4208 59.6992-133.12 133.12-133.12h122.8288c73.4208 0 133.12 59.6992 133.12 133.12v122.8288c0 73.4208-59.6992 133.12-133.12 133.12zM219.2896 156.5184c-39.5264 0-71.68 32.1536-71.68 71.68v122.8288c0 39.5264 32.1536 71.68 71.68 71.68h122.8288c39.5264 0 71.68-32.1536 71.68-71.68V228.1984c0-39.5264-32.1536-71.68-71.68-71.68H219.2896zM342.1184 948.3264H219.2896c-73.4208 0-133.12-59.6992-133.12-133.12v-122.8288c0-73.4208 59.6992-133.12 133.12-133.12h122.8288c73.4208 0 133.12 59.6992 133.12 133.12v122.8288c0 73.3696-59.6992 133.12-133.12 133.12z m-122.8288-327.6288c-39.5264 0-71.68 32.1536-71.68 71.68v122.8288c0 39.5264 32.1536 71.68 71.68 71.68h122.8288c39.5264 0 71.68-32.1536 71.68-71.68v-122.8288c0-39.5264-32.1536-71.68-71.68-71.68H219.2896zM912.8448 645.888H585.216c-16.9472 0-30.72-13.7728-30.72-30.72s13.7728-30.72 30.72-30.72h327.6288c16.9472 0 30.72 13.7728 30.72 30.72s-13.7216 30.72-30.72 30.72zM883.456 943.104c-16.9472 0-30.72-13.7728-30.72-30.72v-174.2848c0-16.9472 13.7728-30.72 30.72-30.72s30.72 13.7728 30.72 30.72v174.2848c0 16.9472-13.7216 30.72-30.72 30.72zM749.056 943.104c-16.9472 0-30.72-13.7728-30.72-30.72v-146.9952c0-16.9472 13.7728-30.72 30.72-30.72s30.72 13.7728 30.72 30.72v146.9952c0 16.9472-13.7728 30.72-30.72 30.72zM612.5568 943.104c-16.9472 0-30.72-13.7728-30.72-30.72v-195.328c0-16.9472 13.7728-30.72 30.72-30.72s30.72 13.7728 30.72 30.72v195.328c0 16.9472-13.7728 30.72-30.72 30.72z" fill="#474A54" /></svg>