<?xml version="1.0" standalone="no"?><!DOCTYPE svg PUBLIC "-//W3C//DTD SVG 1.1//EN" "http://www.w3.org/Graphics/SVG/1.1/DTD/svg11.dtd"><svg class="icon" width="48px" height="48.00px" viewBox="0 0 1024 1024" version="1.1" xmlns="http://www.w3.org/2000/svg"><path d="M646.8096 743.4752H394.0864c-56.576 0-102.4-45.824-102.4-102.4V388.352c0-56.576 45.824-102.4 102.4-102.4h252.7232c56.576 0 102.4 45.824 102.4 102.4v252.7232c0 56.576-45.824 102.4-102.4 102.4z" fill="#ffa115" /><path d="M779.9296 641.0752V388.352c0-73.4208-59.6992-133.12-133.12-133.12H394.0864c-73.4208 0-133.12 59.6992-133.12 133.12v252.7232c0 73.4208 59.6992 133.12 133.12 133.12h252.7232c73.4208 0 133.12-59.6992 133.12-133.12z m-61.44 0c0 39.5264-32.1536 71.68-71.68 71.68H394.0864c-39.5264 0-71.68-32.1536-71.68-71.68V388.352c0-39.5264 32.1536-71.68 71.68-71.68h252.7232c39.5264 0 71.68 32.1536 71.68 71.68v252.7232zM129.6896 318.464c16.9472 0 30.72-13.7728 30.72-30.72V180.736c0-12.6976 10.3424-23.04 23.04-23.04h111.1552c16.9472 0 30.72-13.7728 30.72-30.72s-13.7728-30.72-30.72-30.72h-111.104c-46.592 0-84.48 37.888-84.48 84.48v107.008c-0.0512 16.9472 13.7216 30.72 30.6688 30.72zM855.1424 96.2048h-111.1552c-16.9472 0-30.72 13.7728-30.72 30.72s13.7728 30.72 30.72 30.72h111.1552c12.6976 0 23.04 10.3424 23.04 23.04v107.008c0 16.9472 13.7728 30.72 30.72 30.72s30.72-13.7728 30.72-30.72v-107.008c0-46.592-37.888-84.48-84.48-84.48zM908.9024 707.5328c-16.9472 0-30.72 13.7728-30.72 30.72v107.008c0 12.6976-10.3424 23.04-23.04 23.04h-111.1552c-16.9472 0-30.72 13.7728-30.72 30.72s13.7728 30.72 30.72 30.72h111.1552c46.592 0 84.48-37.888 84.48-84.48v-107.008c0-16.9984-13.7216-30.72-30.72-30.72zM294.6048 868.3008h-111.104c-12.6976 0-23.04-10.3424-23.04-23.04v-107.008c0-16.9472-13.7728-30.72-30.72-30.72s-30.72 13.7728-30.72 30.72v107.008c0 46.592 37.888 84.48 84.48 84.48h111.1552c16.9472 0 30.72-13.7728 30.72-30.72s-13.7728-30.72-30.7712-30.72z" fill="#474A54" /></svg>