<?xml version="1.0" standalone="no"?><!DOCTYPE svg PUBLIC "-//W3C//DTD SVG 1.1//EN" "http://www.w3.org/Graphics/SVG/1.1/DTD/svg11.dtd"><svg class="icon" width="48px" height="48.00px" viewBox="0 0 1024 1024" version="1.1" xmlns="http://www.w3.org/2000/svg"><path d="M556.0832 318.208s209.152 69.1712 209.152 270.4896-149.0432 271.9232-196.096 271.9232c127.7952-6.6048 339.8656-36.608 339.8656-271.9232s-224.8192-269.056-352.9216-270.4896z" fill="#ffa115" /><path d="M637.1328 286.0544H192.0512l132.1984-108.288c13.1072-10.752 15.0528-30.1056 4.3008-43.2128-10.752-13.1072-30.1056-15.0528-43.2128-4.3008L114.2784 270.336a59.9552 59.9552 0 0 0-22.0672 46.3872 60.2624 60.2624 0 0 0 21.7088 46.592l171.2128 142.6944c5.7344 4.7616 12.6976 7.1168 19.6608 7.1168 8.8064 0 17.5616-3.7888 23.6032-11.0592a30.70464 30.70464 0 0 0-3.9424-43.264L190.9248 347.4944h446.208c132.9664 0 241.2032 108.1856 241.2032 241.2032s-108.1856 241.2032-241.2032 241.2032H278.9376c-16.9472 0-30.72 13.7728-30.72 30.72s13.7728 30.72 30.72 30.72h358.1952c166.8608 0 302.6432-135.7312 302.6432-302.6432s-135.7824-302.6432-302.6432-302.6432z" fill="#474A54" /></svg>