<?xml version="1.0" standalone="no"?><!DOCTYPE svg PUBLIC "-//W3C//DTD SVG 1.1//EN" "http://www.w3.org/Graphics/SVG/1.1/DTD/svg11.dtd"><svg class="icon" width="48px" height="48.00px" viewBox="0 0 1024 1024" version="1.1" xmlns="http://www.w3.org/2000/svg"><path d="M517.12 962.0992c-248.7808 0-451.1232-202.3936-451.1232-451.1232S268.3392 59.8016 517.12 59.8016s451.1232 202.3936 451.1232 451.1232-202.3424 451.1744-451.1232 451.1744z m0-840.8576c-214.8864 0-389.6832 174.7968-389.6832 389.6832S302.2336 900.608 517.12 900.608s389.6832-174.7968 389.6832-389.6832S732.0064 121.2416 517.12 121.2416z" fill="#474A54" /><path d="M324.1984 685.824l65.8944-238.6432A96.28672 96.28672 0 0 1 454.656 380.7744l239.0016-73.3184c11.8784-3.6352 22.9888 7.4752 19.3536 19.3024l-72.3456 237.7216a96.2048 96.2048 0 0 1-62.1568 63.4368l-234.5472 76.6976c-11.776 3.8912-23.04-6.912-19.7632-18.7904z" fill="#ffa115" /><path d="M339.0976 736.1536a46.2336 46.2336 0 0 1-31.8976-12.8 46.08512 46.08512 0 0 1-12.6464-45.7216l65.8944-238.592c11.6224-42.0352 43.4176-74.8032 85.1456-87.6032l239.0016-73.3184c16.384-5.0176 34.0992-0.6144 46.1824 11.4688a46.1568 46.1568 0 0 1 11.5712 46.1824L670.0544 573.44a127.0272 127.0272 0 0 1-82.0224 83.712l-234.5472 76.6976c-4.7104 1.536-9.5744 2.304-14.3872 2.304z m336.1792-390.912L463.616 410.1632c-21.504 6.6048-37.9392 23.5008-43.9296 45.2096L361.3696 666.624l207.616-67.8912c20.2752-6.656 36.096-22.784 42.3424-43.2128l63.9488-210.2784z" fill="#474A54" /><path d="M517.12 510.9248m-43.9296 0a43.9296 43.9296 0 1 0 87.8592 0 43.9296 43.9296 0 1 0-87.8592 0Z" fill="#474A54" /></svg>