<?xml version="1.0" standalone="no"?><!DOCTYPE svg PUBLIC "-//W3C//DTD SVG 1.1//EN" "http://www.w3.org/Graphics/SVG/1.1/DTD/svg11.dtd"><svg class="icon" width="48px" height="48.00px" viewBox="0 0 1024 1024" version="1.1" xmlns="http://www.w3.org/2000/svg"><path d="M573.9008 643.7888m-94.1056 0a94.1056 94.1056 0 1 0 188.2112 0 94.1056 94.1056 0 1 0-188.2112 0Z" fill="#ffa115" /><path d="M430.08 253.184m-41.8304 0a41.8304 41.8304 0 1 0 83.6608 0 41.8304 41.8304 0 1 0-83.6608 0Z" fill="#ffa115" /><path d="M885.1456 287.0272c27.8016-41.6256 74.2912-123.8528 45.1072-171.9808-9.3184-15.36-23.552-25.4464-41.216-29.0816-38.0928-7.8848-86.9376 15.5136-147.2512 55.7568-67.584-41.7792-144.9472-63.7952-225.0752-63.7952-236.544 0-429.0048 192.4608-429.0048 429.0048 0 29.0816 2.9184 58.1632 8.704 86.4256a30.73024 30.73024 0 0 0 36.2496 23.9616 30.6432 30.6432 0 0 0 23.9104-36.2496c-4.9664-24.2176-7.4752-49.152-7.4752-74.0864 0-202.6496 164.864-367.5648 367.5648-367.5648 59.7504 0 117.7088 14.2848 169.8816 41.5744C600.832 245.8624 282.368 499.712 107.8784 810.7008c-0.256 0.4096-0.4608 0.8704-0.6656 1.28-19.456 38.912-18.688 77.2608 1.9968 99.9936 14.592 16.0768 44.032 30.5664 101.2736 8.3968 45.9264-17.7664 73.6256-32.4608 90.0608-42.9056 65.4336 38.2464 139.7248 58.368 216.1664 58.368 236.544 0 429.0048-192.4608 429.0048-429.0048 0-77.9264-20.8896-153.4976-60.5696-219.8016z m-368.4352 587.4176c-71.7312 0-141.2096-20.6336-200.9088-59.7504-5.7344-3.7376-11.9808-5.6832-18.0224-5.6832-7.8336 0-15.36 3.2256-20.9408 10.0352-3.328 2.816-24.832 19.4048-88.5248 44.032-20.6336 7.9872-30.3616 7.5264-33.536 6.9632-0.768-4.0448-0.3072-15.0016 7.0656-30.0032C357.1712 492.4928 740.1472 217.5488 744.0384 214.784c25.6512-18.2272 58.7776-41.0112 87.6544-55.296 35.0208-17.3056 45.5168-13.2608 45.6192-13.2608 0 0 0.1536 0.1536 0.4608 0.6144 6.5024 12.2368-16.2304 69.0688-54.2208 121.1904a30.8224 30.8224 0 0 0-0.768 35.1744c40.2432 60.3648 61.5424 130.7648 61.5424 203.6736-0.0512 202.6496-164.9152 367.5648-367.616 367.5648z" fill="#474A54" /><path d="M573.9008 518.9632c-68.8128 0-124.8256 56.0128-124.8256 124.8256s56.0128 124.8256 124.8256 124.8256 124.8256-56.0128 124.8256-124.8256-55.9616-124.8256-124.8256-124.8256z m0 188.2624c-34.9696 0-63.3856-28.416-63.3856-63.3856s28.416-63.3856 63.3856-63.3856 63.3856 28.416 63.3856 63.3856-28.416 63.3856-63.3856 63.3856zM502.6816 253.184c0-40.0384-32.5632-72.5504-72.5504-72.5504-40.0384 0-72.5504 32.5632-72.5504 72.5504 0 40.0384 32.5632 72.5504 72.5504 72.5504s72.5504-32.5632 72.5504-72.5504z m-83.712 0c0-6.144 5.0176-11.1104 11.1104-11.1104 6.144 0 11.1104 5.0176 11.1104 11.1104 0 6.144-5.0176 11.1104-11.1104 11.1104-6.144 0-11.1104-4.9664-11.1104-11.1104z" fill="#474A54" /></svg>