<?xml version="1.0" standalone="no"?><!DOCTYPE svg PUBLIC "-//W3C//DTD SVG 1.1//EN" "http://www.w3.org/Graphics/SVG/1.1/DTD/svg11.dtd"><svg class="icon" width="48px" height="48.00px" viewBox="0 0 1024 1024" version="1.1" xmlns="http://www.w3.org/2000/svg"><path d="M336.6912 486.2976H206.3872c-73.4208 0-133.12-59.6992-133.12-133.12V222.8736c0-73.4208 59.6992-133.12 133.12-133.12h130.304c73.4208 0 133.12 59.6992 133.12 133.12v130.304c0 73.4208-59.7504 133.12-133.12 133.12zM206.3872 151.1936c-39.5264 0-71.68 32.1536-71.68 71.68v130.304c0 39.5264 32.1536 71.68 71.68 71.68h130.304c39.5264 0 71.68-32.1536 71.68-71.68V222.8736c0-39.5264-32.1536-71.68-71.68-71.68H206.3872zM835.1232 486.2976h-130.304c-73.4208 0-133.12-59.6992-133.12-133.12V222.8736c0-73.4208 59.6992-133.12 133.12-133.12h130.304c73.4208 0 133.12 59.6992 133.12 133.12v130.304c0 73.4208-59.6992 133.12-133.12 133.12z m-130.304-335.104c-39.5264 0-71.68 32.1536-71.68 71.68v130.304c0 39.5264 32.1536 71.68 71.68 71.68h130.304c39.5264 0 71.68-32.1536 71.68-71.68V222.8736c0-39.5264-32.1536-71.68-71.68-71.68h-130.304zM336.6912 952.7808H206.3872c-73.4208 0-133.12-59.6992-133.12-133.12v-130.304c0-73.4208 59.6992-133.12 133.12-133.12h130.304c73.4208 0 133.12 59.6992 133.12 133.12v130.304c0 73.3696-59.7504 133.12-133.12 133.12z m-130.304-335.104c-39.5264 0-71.68 32.1536-71.68 71.68v130.304c0 39.5264 32.1536 71.68 71.68 71.68h130.304c39.5264 0 71.68-32.1536 71.68-71.68v-130.304c0-39.5264-32.1536-71.68-71.68-71.68H206.3872z" fill="#474A54" /><path d="M704.8192 922.0608h130.304c56.576 0 102.4-45.824 102.4-102.4v-130.304c0-56.576-45.824-102.4-102.4-102.4h-130.304c-56.576 0-102.4 45.824-102.4 102.4v130.304c0 56.5248 45.824 102.4 102.4 102.4z" fill="#ffa115" /><path d="M835.1232 952.7808h-130.304c-73.4208 0-133.12-59.6992-133.12-133.12v-130.304c0-73.4208 59.6992-133.12 133.12-133.12h130.304c73.4208 0 133.12 59.6992 133.12 133.12v130.304c0 73.3696-59.6992 133.12-133.12 133.12z m-130.304-335.104c-39.5264 0-71.68 32.1536-71.68 71.68v130.304c0 39.5264 32.1536 71.68 71.68 71.68h130.304c39.5264 0 71.68-32.1536 71.68-71.68v-130.304c0-39.5264-32.1536-71.68-71.68-71.68h-130.304z" fill="#474A54" /></svg>