<?xml version="1.0" standalone="no"?><!DOCTYPE svg PUBLIC "-//W3C//DTD SVG 1.1//EN" "http://www.w3.org/Graphics/SVG/1.1/DTD/svg11.dtd"><svg class="icon" width="48px" height="48.00px" viewBox="0 0 1024 1024" version="1.1" xmlns="http://www.w3.org/2000/svg"><path d="M807.2192 908.8512H234.24c-59.5456 0-107.776-48.2816-107.776-107.776V634.368h788.5312v166.7072c0 59.4944-48.2816 107.776-107.776 107.776z" fill="#ffa115" /><path d="M822.0672 925.696H213.7088c-65.0752 0-117.9648-52.9408-117.9648-117.9648V212.736c0-65.0752 52.9408-117.9648 117.9648-117.9648h279.5008c16.9472 0 30.72 13.7728 30.72 30.72s-13.7728 30.72-30.72 30.72H213.7088c-31.1808 0-56.5248 25.344-56.5248 56.5248v594.9952c0 31.1808 25.344 56.5248 56.5248 56.5248h608.3584c31.1808 0 56.5248-25.344 56.5248-56.5248v-274.3296c0-16.9472 13.7728-30.72 30.72-30.72s30.72 13.7728 30.72 30.72v274.3296c0 65.024-52.9408 117.9648-117.9648 117.9648z" fill="#474A54" /><path d="M839.5264 94.72h-154.112c-16.9472 0-30.72 13.7728-30.72 30.72s13.7728 30.72 30.72 30.72h150.0672L496.384 488.2432c-12.1344 11.8784-12.3392 31.3344-0.4608 43.4176 5.9904 6.144 13.9776 9.216 21.9648 9.216 7.7312 0 15.5136-2.9184 21.504-8.7552l339.2-332.2368v145.2544c0 16.9472 13.7728 30.72 30.72 30.72s30.72-13.7728 30.72-30.72V195.2768c0-55.4496-45.1072-100.5568-100.5056-100.5568z" fill="#474A54" /></svg>