<?xml version="1.0" standalone="no"?><!DOCTYPE svg PUBLIC "-//W3C//DTD SVG 1.1//EN" "http://www.w3.org/Graphics/SVG/1.1/DTD/svg11.dtd"><svg class="icon" width="48px" height="48.00px" viewBox="0 0 1024 1024" version="1.1" xmlns="http://www.w3.org/2000/svg"><path d="M844.544 908.8H191.5392c-61.696 0-111.7696-50.0224-111.7696-111.7696v-107.2128h876.4928v107.2128c0 61.7472-50.0224 111.7696-111.7184 111.7696z" fill="#ffa115" /><path d="M853.8624 268.4416h-87.2448l-163.1232-145.1008c-48.6912-43.3152-122.2656-43.4688-171.1616-0.3584L267.4176 268.4416H182.1696c-73.4208 0-133.12 59.6992-133.12 133.12v404.8384c0 73.4208 59.6992 133.12 133.12 133.12h671.6928c73.4208 0 133.12-59.6992 133.12-133.12V401.5616c0-73.4208-59.6992-133.12-133.12-133.12zM472.9856 169.0624c25.6-22.5792 64.1536-22.4768 89.7024 0.2048l111.5136 99.1744h-313.856l112.64-99.3792z m452.5568 637.3376c0 39.5264-32.1536 71.68-71.68 71.68H182.1696c-39.5264 0-71.68-32.1536-71.68-71.68V401.5616c0-39.5264 32.1536-71.68 71.68-71.68h671.6928c39.5264 0 71.68 32.1536 71.68 71.68v404.8384z" fill="#474A54" /><path d="M756.1216 479.744H271.7184c-16.9472 0-30.72 13.7728-30.72 30.72s13.7728 30.72 30.72 30.72h484.4544c16.9472 0 30.72-13.7728 30.72-30.72s-13.7728-30.72-30.7712-30.72zM611.4304 659.1488H271.7184c-16.9472 0-30.72 13.7728-30.72 30.72s13.7728 30.72 30.72 30.72h339.712c16.9472 0 30.72-13.7728 30.72-30.72s-13.7728-30.72-30.72-30.72z" fill="#474A54" /></svg>