<?xml version="1.0" standalone="no"?><!DOCTYPE svg PUBLIC "-//W3C//DTD SVG 1.1//EN" "http://www.w3.org/Graphics/SVG/1.1/DTD/svg11.dtd"><svg class="icon" width="48px" height="48.00px" viewBox="0 0 1024 1024" version="1.1" xmlns="http://www.w3.org/2000/svg"><path d="M807.6288 923.904H222.8736c-68.6592 0-124.2624-55.6544-124.2624-124.2624v-148.3264h833.3824v148.3264c-0.0512 68.6592-55.7056 124.2624-124.3648 124.2624z" fill="#ffa115" /><path d="M880.7424 285.5424h-86.7328c-28.416-127.744-142.592-223.5392-278.7328-223.5392-136.192 0-250.3168 95.7952-278.7328 223.5392H149.76c-45.1584 0-81.92 36.7616-81.92 81.92v448.4096c0 73.4208 59.6992 133.12 133.12 133.12h628.5824c73.4208 0 133.12-59.6992 133.12-133.12V367.4624c0-45.2096-36.7616-81.92-81.92-81.92z m-365.4656-162.0992c102.0928 0 188.3648 68.608 215.3984 162.0992H299.8784c26.9824-93.5424 113.3056-162.0992 215.3984-162.0992z m385.9456 692.3776c0 39.5264-32.1536 71.68-71.68 71.68H200.96c-39.5264 0-71.68-32.1536-71.68-71.68V367.4624c0-11.3152 9.1648-20.48 20.48-20.48h79.872V471.04c0 16.9472 13.7728 30.72 30.72 30.72s30.72-13.7728 30.72-30.72V347.5968v-0.6656h448.3584V471.04c0 16.9472 13.7728 30.72 30.72 30.72s30.72-13.7728 30.72-30.72V347.5968v-0.6656h79.872c11.3152 0 20.48 9.1648 20.48 20.48v448.4096z" fill="#474A54" /></svg>