<?xml version="1.0" standalone="no"?><!DOCTYPE svg PUBLIC "-//W3C//DTD SVG 1.1//EN" "http://www.w3.org/Graphics/SVG/1.1/DTD/svg11.dtd"><svg class="icon" width="48px" height="48.00px" viewBox="0 0 1024 1024" version="1.1" xmlns="http://www.w3.org/2000/svg"><path d="M259.0208 572.4672h620.1344l-33.28 126.976c-7.1168 27.136-31.6416 46.0288-59.648 46.0288H340.6336c-30.0544 0-55.7056-21.6576-60.7744-51.2512l-20.8384-121.7536z" fill="#ffa115" /><path d="M951.7056 259.7888c-17.1008-21.8112-42.8544-34.304-70.5536-34.304H248.3712l-2.816-23.6544c-5.376-45.056-43.7248-79.0528-89.088-79.0528H77.4144c-16.9472 0-30.72 13.7728-30.72 30.72s13.7728 30.72 30.72 30.72h79.0016a28.3648 28.3648 0 0 1 28.1088 24.9344l58.5216 487.9872c5.376 45.056 43.7248 79.0528 89.088 79.0528h458.496c41.5232 0 77.3632-28.16 87.1936-68.4544l90.5216-371.2512c6.5536-26.9312 0.4608-54.8864-16.64-76.6976z m-43.0592 62.1568l-90.5216 371.2512a28.2624 28.2624 0 0 1-27.4944 21.6064H332.1344a28.3648 28.3648 0 0 1-28.1088-24.9344l-48.3328-402.8928H881.152c8.7552 0 16.8448 3.9424 22.2208 10.8032s7.3216 15.6672 5.2736 24.1664z" fill="#474A54" /><path d="M729.7536 455.8848H406.6304c-16.9472 0-30.72-13.7728-30.72-30.72s13.7728-30.72 30.72-30.72h323.1744c16.9472 0 30.72 13.7728 30.72 30.72s-13.7728 30.72-30.7712 30.72z" fill="#474A54" /><path d="M320.5632 866.6112m-51.3536 0a51.3536 51.3536 0 1 0 102.7072 0 51.3536 51.3536 0 1 0-102.7072 0Z" fill="#474A54" /><path d="M809.7792 866.6112m-51.3536 0a51.3536 51.3536 0 1 0 102.7072 0 51.3536 51.3536 0 1 0-102.7072 0Z" fill="#474A54" /></svg>