<?xml version="1.0" standalone="no"?><!DOCTYPE svg PUBLIC "-//W3C//DTD SVG 1.1//EN" "http://www.w3.org/Graphics/SVG/1.1/DTD/svg11.dtd"><svg class="icon" width="48px" height="48.00px" viewBox="0 0 1024 1024" version="1.1" xmlns="http://www.w3.org/2000/svg"><path d="M583.5776 642.2528V345.1904s199.9872-19.6096 199.9872 143.1552-174.5408 153.9072-199.9872 153.9072zM298.2912 542.1568l68.6592-147.0464 57.8048 147.0464z" fill="#ffa115" /><path d="M809.8816 923.904H220.5184c-73.4208 0-133.12-59.6992-133.12-133.12V218.624c0-73.4208 59.6992-133.12 133.12-133.12h589.3632c73.4208 0 133.12 59.6992 133.12 133.12v572.16c0 73.3696-59.7504 133.12-133.12 133.12zM220.5184 146.944c-39.5264 0-71.68 32.1536-71.68 71.68v572.16c0 39.5264 32.1536 71.68 71.68 71.68h589.3632c39.5264 0 71.68-32.1536 71.68-71.68V218.624c0-39.5264-32.1536-71.68-71.68-71.68H220.5184z" fill="#474A54" /><path d="M506.5728 625.3568L388.9152 342.016a30.73536 30.73536 0 0 0-28.3648-18.944h-0.2048c-12.4928 0.0512-23.7056 7.68-28.3136 19.2512L218.3168 625.664c-6.2976 15.7696 1.3312 33.6384 17.0496 39.936a30.67904 30.67904 0 0 0 39.936-17.1008l26.88-67.0208H421.888l27.9552 67.328a30.73024 30.73024 0 0 0 40.1408 16.5888c15.6672-6.4 23.0912-24.3712 16.5888-40.0384z m-179.6608-105.216l34.1504-85.0944 35.328 85.0944H326.912zM592.3328 673.024c-1.7408 0-3.5328 0-5.3248-0.0512l-3.4304-0.0512c-16.9472 0-30.72-13.7728-30.72-30.72V345.1904c0-15.8208 11.9808-29.0304 27.6992-30.5664 4.7104-0.4608 115.6608-10.5472 183.3984 50.8416 33.4336 30.3104 50.3296 71.6288 50.3296 122.88 0 53.0432-16.2304 95.9488-48.2816 127.6416-38.2976 37.8368-96.7168 57.0368-173.6704 57.0368z m21.9648-297.6256v235.5712c48.9984-2.9184 85.4528-15.872 108.544-38.7072 20.224-19.968 30.0544-47.4112 30.0544-83.9168 0-33.536-9.8304-58.8288-30.0544-77.2096-30.72-28.0064-78.4896-34.6112-108.544-35.7376z" fill="#474A54" /></svg>