<?xml version="1.0" standalone="no"?><!DOCTYPE svg PUBLIC "-//W3C//DTD SVG 1.1//EN" "http://www.w3.org/Graphics/SVG/1.1/DTD/svg11.dtd"><svg class="icon" width="48px" height="48.00px" viewBox="0 0 1024 1024" version="1.1" xmlns="http://www.w3.org/2000/svg"><path d="M787.7632 652.0832c-152.2688 152.2688-399.2064 152.2688-551.4752 0-53.2992-53.2992-87.8592-118.1696-103.8336-186.5216-29.696 126.976 4.864 265.984 103.8336 364.9536 152.2688 152.2688 399.2064 152.2688 551.4752 0 99.0208-99.0208 133.5808-237.9776 103.8336-364.9536-15.9744 68.352-50.5856 133.2224-103.8336 186.5216z" fill="#ffa115" /><path d="M809.472 257.3312a418.6112 418.6112 0 0 0-133.7856-90.2144 30.69952 30.69952 0 0 0-40.2432 16.384 30.69952 30.69952 0 0 0 16.384 40.2432c42.7008 18.0224 81.152 43.9296 114.2272 77.0048 140.0832 140.0832 140.0832 367.9744 0 508.0576-67.84 67.84-158.0544 105.216-254.0032 105.216s-186.1632-37.376-254.0032-105.216c-140.0832-140.0832-140.0832-367.9744 0-508.0576 31.1808-31.1296 67.1232-56.0128 106.9568-73.8304 15.4624-6.9632 22.4256-25.1392 15.4624-40.6016-6.9632-15.4624-25.1392-22.4256-40.6016-15.4624-46.6432 20.8896-88.7808 50.0224-125.2352 86.4768-163.9936 164.0448-163.9936 430.8992 0 594.944 79.4624 79.4624 185.088 123.2384 297.472 123.2384s218.0096-43.776 297.472-123.2384c163.8912-164.0448 163.8912-430.9504-0.1024-594.944z" fill="#474A54" /><path d="M512 432.7936c16.9472 0 30.72-13.7728 30.72-30.72V77.8752c0-16.9472-13.7728-30.72-30.72-30.72s-30.72 13.7728-30.72 30.72v324.1984c0 16.9984 13.7728 30.72 30.72 30.72z" fill="#474A54" /></svg>