<?xml version="1.0" standalone="no"?><!DOCTYPE svg PUBLIC "-//W3C//DTD SVG 1.1//EN" "http://www.w3.org/Graphics/SVG/1.1/DTD/svg11.dtd"><svg class="icon" width="48px" height="48.00px" viewBox="0 0 1024 1024" version="1.1" xmlns="http://www.w3.org/2000/svg"><path d="M531.8656 286.6176s90.2144-96.7168 122.88-112.4352c32.6656-15.6672 156.5184-62.1056 244.9408 34.9696s67.584 223.9488 41.3696 259.8912-116.6848 126.72-116.6848 126.72l-292.5056-309.1456z" fill="#ffa115" /><path d="M921.3952 187.4432c-97.792-97.792-252.7232-102.0416-345.2928-9.472L513.024 241.0496 459.4688 187.4432c-97.792-97.792-256.9728-97.792-354.7648 0-97.792 97.792-97.792 256.9728 0 354.7648l363.5712 363.5712c11.9296 11.9808 27.8528 18.5344 44.7488 18.5344s32.8192-6.6048 44.7488-18.5344l31.2832-31.2832h0.0512l341.76-341.76c92.6208-92.5696 88.3712-247.5008-9.472-345.2928zM513.024 862.8736c-0.768 0-1.1776-0.4096-1.3312-0.5632L148.1216 498.7392c-73.8304-73.8304-73.8304-193.9968 0-267.8784 36.9152-36.9152 85.4528-55.3984 133.9392-55.3984 48.4864 0 97.024 18.4832 133.9392 55.3984l364.9024 364.9024-67.5328 67.5328-90.5728-95.7952a30.73024 30.73024 0 0 0-43.4176-1.2288 30.73024 30.73024 0 0 0-1.2288 43.4176l91.7504 97.024-50.2272 50.2272-92.3648-97.6896a30.73024 30.73024 0 0 0-43.4176-1.2288 30.73024 30.73024 0 0 0-1.2288 43.4176l93.5424 98.9184-61.8496 61.8496c-0.1536 0.3072-0.512 0.6656-1.3312 0.6656z m374.4256-373.6064l-63.0784 63.0784-267.8784-267.8784 63.0784-63.0784c68.608-68.608 184.5248-64.3584 258.4064 9.472 73.8304 73.8816 78.08 189.7984 9.472 258.4064z" fill="#474A54" /></svg>