<?xml version="1.0" standalone="no"?><!DOCTYPE svg PUBLIC "-//W3C//DTD SVG 1.1//EN" "http://www.w3.org/Graphics/SVG/1.1/DTD/svg11.dtd"><svg class="icon" width="48px" height="48.00px" viewBox="0 0 1024 1024" version="1.1" xmlns="http://www.w3.org/2000/svg"><path d="M512 432.4352m-115.4048 0a115.4048 115.4048 0 1 0 230.8096 0 115.4048 115.4048 0 1 0-230.8096 0Z" fill="#ffa115" /><path d="M895.232 285.3888V196.7616c0-73.4208-59.6992-133.12-133.12-133.12h-500.224c-73.4208 0-133.12 59.6992-133.12 133.12v631.6032c0 73.4208 59.6992 133.12 133.12 133.12h500.224c73.4208 0 133.12-59.6992 133.12-133.12V285.3888zM261.888 125.0816h500.224c39.5264 0 71.68 32.1536 71.68 71.68v71.68L651.264 388.096c-18.8416-58.9824-74.1376-101.7856-139.264-101.7856-65.28 0-120.7296 43.0592-139.4176 102.2464L190.6176 270.4384c-0.1536-0.1024-0.3072-0.1536-0.4096-0.256V196.7616c0-39.5264 32.1536-71.68 71.68-71.68zM512 517.12c-46.6944 0-84.6848-37.9904-84.6848-84.6848S465.3056 347.7504 512 347.7504s84.6848 37.9904 84.6848 84.6848S558.6944 517.12 512 517.12z m250.112 382.9248h-500.224c-39.5264 0-71.68-32.1536-71.68-71.68V343.4496L367.104 458.1888c0.4096 0.256 0.8192 0.4096 1.1776 0.6656C380.7744 526.848 440.4224 578.56 512 578.56c71.6288 0 131.3792-51.8656 143.7696-119.9616l178.0224-116.736v486.4512c0 39.5776-32.1536 71.7312-71.68 71.7312z" fill="#474A54" /></svg>