<?xml version="1.0" standalone="no"?><!DOCTYPE svg PUBLIC "-//W3C//DTD SVG 1.1//EN" "http://www.w3.org/Graphics/SVG/1.1/DTD/svg11.dtd"><svg class="icon" width="48px" height="48.00px" viewBox="0 0 1024 1024" version="1.1" xmlns="http://www.w3.org/2000/svg"><path d="M730.7264 737.9456H290.56c-48.9984 0-91.8016-33.0752-104.1408-80.4864l-41.6768-144.4864h726.7328l-35.7888 141.2608c-11.2128 48.9984-54.7328 83.712-104.96 83.712z" fill="#ffa115" /><path d="M926.9248 243.712c-22.0672-14.8992-50.432-14.6432-72.2432 0.6144l-109.6704 76.8c-0.9728 0.7168-2.3552 0.512-3.1232-0.4096l-181.1456-213.504c-12.1344-14.2848-29.8496-22.528-48.64-22.528H512c-18.7904 0.0512-36.5568 8.2944-48.64 22.6816l-178.5856 211.968c-0.768 0.8704-2.0992 1.0752-3.072 0.4608L166.8096 244.6848c-21.76-14.2336-49.664-13.8752-71.0656 0.8704a63.51872 63.51872 0 0 0-26.1632 66.048l83.712 386.048c8.704 40.192 44.9024 69.4272 86.0672 69.4272h538.9824c41.2672 0 76.5952-28.1088 85.8112-68.3008l89.2416-387.84c5.9904-25.9584-4.4032-52.3776-26.4704-67.2256z m-33.3824 53.4016l-89.2928 387.84a26.4704 26.4704 0 0 1-25.9584 20.6336H239.36c-12.4416 0-23.3984-8.8064-26.0096-20.992l-83.712-386.048c-0.1536-0.768-0.3072-1.536 0.9728-2.4064 0.5632-0.3584 0.9728-0.512 1.3824-0.512 0.512 0 0.8704 0.256 1.2288 0.4608L248.064 371.2c26.9312 17.6128 62.9248 12.3392 83.6608-12.288l178.5856-211.9168c0.2048-0.2048 0.7168-0.8192 1.792-0.8192 1.0752 0 1.5872 0.6144 1.792 0.8192l181.1456 213.504c21.4528 25.2416 58.0608 30.0032 85.1968 11.008l109.6704-76.8c0.6656-0.4608 1.28-0.9216 2.6624 0 1.3312 0.8192 1.1776 1.5872 0.9728 2.4064zM834.2528 865.3824H189.0304c-16.9472 0-30.72 13.7728-30.72 30.72s13.7728 30.72 30.72 30.72h645.1712c16.9472 0 30.72-13.7728 30.72-30.72s-13.7216-30.72-30.6688-30.72z" fill="#474A54" /></svg>