<?xml version="1.0" standalone="no"?><!DOCTYPE svg PUBLIC "-//W3C//DTD SVG 1.1//EN" "http://www.w3.org/Graphics/SVG/1.1/DTD/svg11.dtd"><svg class="icon" width="48px" height="48.00px" viewBox="0 0 1024 1024" version="1.1" xmlns="http://www.w3.org/2000/svg"><path d="M722.5856 396.8l-208.4352 221.184-209.7152-207.0528z" fill="#ffa115" /><path d="M520.704 920.8832c-37.1712 0-72.9088-15.5648-98.2528-42.752l-340.3776-365.4656c-45.8752-49.2544-48.0256-125.44-5.0176-177.2544l170.9056-205.824c25.6-30.8224 63.232-48.4864 103.2704-48.4864h332.1856c40.6016 0 78.592 18.0736 104.192 49.6128L953.856 335.36c41.8816 51.5584 40.0896 124.8256-4.2496 174.2848l-329.0112 366.6944a134.48704 134.48704 0 0 1-98.6624 44.5952c-0.4096-0.0512-0.8192-0.0512-1.2288-0.0512zM351.232 142.592c-21.7088 0-42.1376 9.5744-56.0128 26.2656l-170.9056 205.824c-23.3472 28.1088-22.1696 69.376 2.7136 96.1024l340.3776 365.4656c13.9264 14.9504 32.8192 23.1936 53.248 23.1936h0.7168c20.6848-0.2048 39.68-8.7552 53.504-24.1664l329.0112-366.6944c24.064-26.8288 25.0368-66.56 2.304-94.5152L739.9424 169.472a72.3968 72.3968 0 0 0-56.4736-26.88H351.232z" fill="#474A54" /><path d="M514.1504 648.704c-8.0896 0-15.8208-3.1744-21.6064-8.8576L282.8288 432.7936a30.73024 30.73024 0 0 1-0.256-43.4688 30.73024 30.73024 0 0 1 43.4688-0.256l187.3408 184.9856 186.88-198.3488a30.68416 30.68416 0 0 1 43.4176-1.28 30.68416 30.68416 0 0 1 1.28 43.4176l-208.4352 221.2352a30.41792 30.41792 0 0 1-21.8112 9.6256h-0.5632z" fill="#474A54" /></svg>