<?xml version="1.0" standalone="no"?><!DOCTYPE svg PUBLIC "-//W3C//DTD SVG 1.1//EN" "http://www.w3.org/Graphics/SVG/1.1/DTD/svg11.dtd"><svg class="icon" width="48px" height="48.00px" viewBox="0 0 1024 1024" version="1.1" xmlns="http://www.w3.org/2000/svg"><path d="M816.7424 761.6512H224.4096c-52.48 0-95.0272-42.5472-95.0272-95.0272v-150.016h782.3872v150.016c0 52.48-42.5472 95.0272-95.0272 95.0272z" fill="#ffa115" /><path d="M821.6064 82.5344H215.04c-73.4208 0-133.12 59.6992-133.12 133.12v443.5968c0 73.4208 59.6992 133.12 133.12 133.12h606.5664c73.4208 0 133.12-59.6992 133.12-133.12V215.6544c0-73.4208-59.7504-133.12-133.12-133.12z m71.68 576.7168c0 39.5264-32.1536 71.68-71.68 71.68H215.04c-39.5264 0-71.68-32.1536-71.68-71.68V215.6544c0-39.5264 32.1536-71.68 71.68-71.68h606.5664c39.5264 0 71.68 32.1536 71.68 71.68v443.5968zM712.4992 881.0496H324.096c-16.9472 0-30.72 13.7728-30.72 30.72s13.7728 30.72 30.72 30.72h388.4032c16.9472 0 30.72-13.7728 30.72-30.72s-13.7216-30.72-30.72-30.72z" fill="#474A54" /><path d="M324.608 413.9008c-16.9472 0-30.72 13.7728-30.72 30.72v91.1872c0 16.9472 13.7728 30.72 30.72 30.72s30.72-13.7728 30.72-30.72V444.6208c0-16.9472-13.7216-30.72-30.72-30.72zM514.3552 288.9216c-16.9472 0-30.72 13.7728-30.72 30.72v216.1664c0 16.9472 13.7728 30.72 30.72 30.72s30.72-13.7728 30.72-30.72V319.6416c0-16.9984-13.7728-30.72-30.72-30.72zM705.9968 358.0416c-16.9472 0-30.72 13.7728-30.72 30.72v147.0464c0 16.9472 13.7728 30.72 30.72 30.72s30.72-13.7728 30.72-30.72V388.7616c0-16.9984-13.7216-30.72-30.72-30.72z" fill="#474A54" /></svg>