<?xml version="1.0" standalone="no"?><!DOCTYPE svg PUBLIC "-//W3C//DTD SVG 1.1//EN" "http://www.w3.org/Graphics/SVG/1.1/DTD/svg11.dtd"><svg class="icon" width="48px" height="48.00px" viewBox="0 0 1024 1024" version="1.1" xmlns="http://www.w3.org/2000/svg"><path d="M235.264 375.5008s179.6096-54.8864 342.3744 23.552 217.6512 127.4368 319.6416 103.936v149.5552s-80.7936 63.488-330.5984-74.3936c-79.2064-47.7184-226.1504-53.76-332.0832-29.1328-0.1024-89.1904 0.6656-173.5168 0.6656-173.5168z" fill="#ffa115" /><path d="M917.2992 211.8144a30.6688 30.6688 0 0 0-24.576-7.1168c-1.8432 0.256-182.1184 25.8048-292.1984-53.7088-129.024-93.3376-358.5024-77.9264-368.2304-77.2608a30.73536 30.73536 0 0 0-28.5184 30.6176v444.5696c0 2.2016 0.256 4.4032 0.7168 6.5024v383.3856c0 16.9472 13.7728 30.72 30.72 30.72s30.72-13.7728 30.72-30.72v-364.7488c71.7312-12.288 211.4048-22.8864 282.624 28.8768 88.2688 64.1536 180.1216 97.792 261.12 97.792 35.9424 0 69.7344-6.656 100.096-20.1728a30.73024 30.73024 0 0 0 18.2272-28.0576V235.0592c-0.0512-8.9088-3.9424-17.408-10.7008-23.2448z m-50.7904 419.4304c-76.4416 23.2448-182.1696-5.5296-281.8048-77.9776-54.7328-39.7824-132.2496-50.7904-201.1136-50.7904-46.6944 0-89.3952 5.0688-118.3232 9.5744V133.9904c62.4128-1.024 212.4288 3.9424 299.3152 66.7648 98.9696 71.5264 237.568 72.448 301.9264 68.1984v362.2912z" fill="#474A54" /></svg>