<?xml version="1.0" standalone="no"?><!DOCTYPE svg PUBLIC "-//W3C//DTD SVG 1.1//EN" "http://www.w3.org/Graphics/SVG/1.1/DTD/svg11.dtd"><svg class="icon" width="48px" height="48.00px" viewBox="0 0 1024 1024" version="1.1" xmlns="http://www.w3.org/2000/svg"><path d="M765.7472 947.8656c-27.0336 0-53.8112-8.5504-76.544-25.344l-130.3552-96.1024a67.51232 67.51232 0 0 0-80.4352 0l-130.3552 96.1024c-39.4752 29.0816-91.1872 33.4336-134.912 11.3152-43.776-22.1184-70.9632-66.304-70.9632-115.3536V225.2288c0-73.4208 59.6992-133.12 133.12-133.12h486.7072c73.4208 0 133.12 59.6992 133.12 133.12v593.3056c0 49.0496-27.1872 93.2352-70.9632 115.3536a129.55648 129.55648 0 0 1-58.4192 13.9776zM275.2512 153.5488c-39.5264 0-71.68 32.1536-71.68 71.68v593.3056c0 26.112 13.9264 48.7424 37.2224 60.5184 23.296 11.776 49.7664 9.5744 70.7584-5.9392l130.3552-96.1024c45.8752-33.792 107.4688-33.792 153.344 0l130.3552 96.1024c20.992 15.4624 47.4624 17.7152 70.7584 5.9392 23.296-11.776 37.2224-34.4064 37.2224-60.5184V225.2288c0-39.5264-32.1536-71.68-71.68-71.68H275.2512z m184.9344 648.1408z" fill="#474A54" /><path d="M547.072 302.6432l28.3648 57.4464a24.9344 24.9344 0 0 0 18.7904 13.6704l63.3856 9.216c20.48 2.9696 28.6208 28.1088 13.824 42.5472l-45.8752 44.6976a24.91392 24.91392 0 0 0-7.168 22.0672l10.8032 63.1296c3.4816 20.3776-17.92 35.9424-36.1984 26.3168l-56.6784-29.7984a24.89344 24.89344 0 0 0-23.2448 0l-56.6784 29.7984c-18.3296 9.6256-39.7312-5.9392-36.1984-26.3168l10.8032-63.1296c1.3824-8.0896-1.28-16.3328-7.168-22.0672l-45.8752-44.6976c-14.7968-14.4384-6.656-39.5776 13.824-42.5472L455.2192 373.76a24.9344 24.9344 0 0 0 18.7904-13.6704l28.3648-57.4464c9.1136-18.5344 35.584-18.5344 44.6976 0z" fill="#ffa115" /><path d="M444.7232 615.3728c-11.4688 0-22.8864-3.584-32.6656-10.7008a55.45472 55.45472 0 0 1-22.1696-54.4768l10.2912-60.16-43.6736-42.5984c-15.3088-14.8992-20.6848-36.7616-14.08-57.088 6.6048-20.3264 23.808-34.816 44.9536-37.888l60.3648-8.7552 26.9824-54.7328c9.4208-19.1488 28.5696-31.0272 49.92-31.0272s40.4992 11.8784 49.92 31.0272l26.9824 54.7328 60.3648 8.7552c21.1456 3.072 38.3488 17.5616 44.9536 37.888 6.6048 20.3264 1.2288 42.1888-14.08 57.088l-43.6736 42.5984 10.2912 60.1088c3.584 21.0432-4.864 41.9328-22.1696 54.4768a55.32672 55.32672 0 0 1-58.624 4.2496l-54.016-28.3648-54.016 28.3648c-8.0896 4.4032-16.9984 6.5024-25.856 6.5024z m79.9744-97.024c8.9088 0 17.7664 2.1504 25.9072 6.4l46.3872 24.3712-8.8576-51.6096c-3.1232-18.0736 2.8672-36.5056 16.0256-49.3056l37.4784-36.5568-51.8144-7.5264c-18.1248-2.6112-33.792-14.0288-41.9328-30.464l-23.1936-46.9504-23.1936 46.9504a55.74144 55.74144 0 0 1-41.9328 30.464L407.808 411.648l37.4784 36.5568c13.1072 12.8 19.0976 31.232 16.0256 49.3056l-8.8576 51.6096 46.336-24.3712c8.1408-4.2496 16.9984-6.4 25.9072-6.4z m78.2848-171.8784z m-83.456-30.208z" fill="#474A54" /></svg>