<?xml version="1.0" standalone="no"?><!DOCTYPE svg PUBLIC "-//W3C//DTD SVG 1.1//EN" "http://www.w3.org/Graphics/SVG/1.1/DTD/svg11.dtd"><svg class="icon" width="48px" height="48.00px" viewBox="0 0 1024 1024" version="1.1" xmlns="http://www.w3.org/2000/svg"><path d="M236.8512 392.0384s-34.304 179.9168 93.1328 274.9952c62.7712-112.4352 164.7104-137.5232 164.7104-137.5232s60.1088 183.1936 162.0992 208.7424c88.8832-39.8336 198.656-137.0112 218.2656-212.6336 14.1824 107.52 71.936 237.9264-232.6528 397.5168-86.1184-70.0416-166.0416-185.7536-172.544-228.7616-13.5168 116.5824-9.1648 207.7184 31.3856 248.3712-87.6032 14.4896-276.7872-65.3312-332.544-221.4912s68.1472-329.216 68.1472-329.216z" fill="#ffa115" /><path d="M791.04 327.7824a30.68928 30.68928 0 0 0-23.1424-10.5472h-0.1024c-8.9088 0-17.3568 3.9424-23.1936 10.7008l-5.4272 6.2976c-11.3152 13.2096-20.7872 24.2176-29.5424 33.8944 4.0448-24.7296 4.7616-51.9168-1.024-80.9984-16.64-83.5584-80.7936-159.7952-196.1472-233.0624-8.0384-5.12-18.0224-6.1952-26.9312-2.9184-8.96 3.2256-15.872 10.4448-18.7904 19.5584-0.3584 1.024-36.6592 111.616-159.1296 214.4768-140.5952 118.1184-201.216 197.4784-188.672 355.3792 13.056 164.0448 158.5664 332.8512 379.6992 332.8512h2.7648c10.7008-0.0512 20.6336-5.7344 26.1632-14.9504s5.8368-20.6336 0.8192-30.1056c-27.4432-52.1728-39.936-88.0128-41.8304-125.5936 33.8432 61.184 79.9744 120.32 143.4112 148.3776 6.7584 3.0208 14.3872 3.4304 21.4528 1.28 40.1408-12.3392 212.2752-97.024 258.048-257.536 32.9728-115.5072-6.8608-239.0528-118.4256-367.104z m59.3408 350.3104c-34.9184 122.4192-162.2016 193.1776-206.336 211.6608-54.3232-29.2864-100.9152-95.5392-145.7152-206.848a30.67392 30.67392 0 0 0-30.8224-19.1488 30.6688 30.6688 0 0 0-27.5456 23.6544c-20.5824 88.064-22.8352 141.9776 10.9568 221.44-158.5664-21.6064-260.8128-148.992-270.6944-273.1008-10.3424-129.8944 34.7648-192.4096 166.912-303.4624 92.5696-77.824 140.9024-159.9488 162.8672-206.08 188.6208 132.4544 143.9744 238.1312 113.9712 309.1968-2.2016 5.1712-4.2496 10.0864-6.144 14.7456a30.76096 30.76096 0 0 0 8.96 35.2256c10.3424 8.5504 25.0368 9.3184 36.3008 2.048 49.2544-32.0512 71.2704-53.9648 104.3456-91.904 79.7184 101.12 107.6224 196.0448 82.944 282.5728z" fill="#474A54" /><path d="M429.4144 330.496c-0.5632 0.512-57.8048 53.4016-117.1968 107.6224-65.536 59.8016-105.8304 187.2896-58.9824 274.5856a30.63296 30.63296 0 0 0 27.0848 16.1792c4.9152 0 9.8816-1.1776 14.4896-3.6352 14.9504-8.0384 20.5312-26.6752 12.544-41.6256-29.2352-54.4768-6.7584-151.7056 46.2848-200.1408C413.1328 429.1584 470.528 376.1664 471.0912 375.6032a30.78656 30.78656 0 0 0 1.7408-43.4176 30.74048 30.74048 0 0 0-43.4176-1.6896z" fill="#474A54" /></svg>