<?xml version="1.0" standalone="no"?><!DOCTYPE svg PUBLIC "-//W3C//DTD SVG 1.1//EN" "http://www.w3.org/Graphics/SVG/1.1/DTD/svg11.dtd"><svg class="icon" width="48px" height="48.00px" viewBox="0 0 1024 1024" version="1.1" xmlns="http://www.w3.org/2000/svg"><path d="M261.0688 483.328S336.384 595.2512 512 595.2512s261.7856-111.9232 261.7856-111.9232 8.7552 280.32-256.3584 280.32S261.0688 483.328 261.0688 483.328z" fill="#ffa115" /><path d="M796.672 594.7392c91.5968-6.3488 164.1472-82.8928 164.1472-176.0256 0-87.7056-64.256-160.6144-148.1728-174.2336v-38.0928c0-73.4208-59.6992-133.12-133.12-133.12H355.328c-73.4208 0-133.12 59.6992-133.12 133.12v36.6592C132.9152 251.6992 62.8224 327.168 62.8224 418.7136c0 96.9728 78.6432 175.9232 175.4624 176.4864 36.7616 106.496 132.7104 185.6 248.3712 197.5808v94.72h-240.128c-16.9472 0-30.72 13.7728-30.72 30.72s13.7728 30.72 30.72 30.72h552.9088c16.9472 0 30.72-13.7728 30.72-30.72s-13.7728-30.72-30.72-30.72h-251.3408v-94.72c115.9168-11.9808 211.968-91.3408 248.576-198.0416z m102.7584-176.0256c0 54.272-37.7856 99.8912-88.4224 111.9744 0-0.1536 0-0.3584 0.0512-0.512 0.4096-3.8912 0.6656-7.8336 0.9216-11.776 0.1024-1.2288 0.2048-2.4576 0.256-3.6864 0.256-5.1712 0.4096-10.3424 0.4096-15.5136V307.2c49.8176 12.5952 86.784 57.8048 86.784 111.5136z m-675.328 114.0736c-56.2688-7.4752-99.7888-55.808-99.7888-114.0736 0-57.6 42.5472-105.472 97.8944-113.8176V499.2c0 0.5632 0.0512 1.1264 0.0512 1.6384 0.0512 4.8128 0.1536 9.6256 0.4096 14.336 0.1024 1.7408 0.256 3.5328 0.4096 5.2736 0.256 3.584 0.512 7.168 0.9216 10.7008 0 0.5632 0.0512 1.0752 0.1024 1.6384z m65.9968 20.6848c-0.7168-3.0208-1.3824-5.9904-1.9968-9.0112-0.3072-1.6384-0.6144-3.2768-0.8704-4.9152-0.512-2.816-0.9216-5.6832-1.3312-8.4992-0.2048-1.6384-0.4608-3.2768-0.6144-4.9664-0.3584-3.0208-0.6144-6.0416-0.8192-9.0624-0.1024-1.4848-0.256-2.9184-0.3584-4.4032-0.256-4.1472-0.3584-8.3456-0.4096-12.544V206.3872c0-39.5264 32.1536-71.68 71.68-71.68h324.2496c39.5264 0 71.68 32.1536 71.68 71.68V499.2c0 4.5056-0.1536 9.0112-0.4096 13.5168-0.0512 1.3312-0.2048 2.6624-0.3072 4.0448-0.256 3.1744-0.512 6.3488-0.8704 9.472-0.1536 1.536-0.3584 3.072-0.5632 4.608-0.4096 2.9696-0.8704 5.9392-1.3824 8.9088-0.256 1.536-0.512 3.072-0.8192 4.608-0.6144 3.1744-1.3312 6.4-2.0992 9.5232-24.6784 102.6048-117.1968 179.0976-227.2768 179.0976-110.3872 0-202.9568-76.6976-227.4816-179.5072z" fill="#474A54" /></svg>