<?xml version="1.0" standalone="no"?><!DOCTYPE svg PUBLIC "-//W3C//DTD SVG 1.1//EN" "http://www.w3.org/Graphics/SVG/1.1/DTD/svg11.dtd"><svg class="icon" width="48px" height="48.00px" viewBox="0 0 1024 1024" version="1.1" xmlns="http://www.w3.org/2000/svg"><path d="M831.3344 757.8624H192.6656c-47.7184 0-86.3744-38.656-86.3744-86.3744v-125.3888h811.3664v125.3888c0 47.7184-38.656 86.3744-86.3232 86.3744z" fill="#ffa115" /><path d="M815.2576 795.3408H208.7424c-73.4208 0-133.12-59.6992-133.12-133.12V218.624c0-73.4208 59.6992-133.12 133.12-133.12h606.5664c73.4208 0 133.12 59.6992 133.12 133.12v443.5968c-0.0512 73.4208-59.7504 133.12-133.1712 133.12zM208.7424 146.944c-39.5264 0-71.68 32.1536-71.68 71.68v443.5968c0 39.5264 32.1536 71.68 71.68 71.68h606.5664c39.5264 0 71.68-32.1536 71.68-71.68V218.624c0-39.5264-32.1536-71.68-71.68-71.68H208.7424zM706.2016 945.4592H317.7984c-16.9472 0-30.72-13.7728-30.72-30.72s13.7728-30.72 30.72-30.72h388.4032c16.9472 0 30.72 13.7728 30.72 30.72s-13.7728 30.72-30.72 30.72z" fill="#474A54" /><path d="M256.6144 563.0976a30.6176 30.6176 0 0 1-22.3232-9.6256 30.67904 30.67904 0 0 1 1.2288-43.4176l162.7648-153.9072a30.72512 30.72512 0 0 1 41.8304-0.3584l129.7408 118.784 176.2816-169.2672c12.2368-11.7248 31.6928-11.3664 43.4176 0.8704s11.3664 31.6928-0.8704 43.4176l-197.0688 189.2352a30.77632 30.77632 0 0 1-42.0352 0.512L419.6864 420.4032l-141.9776 134.2976a30.7456 30.7456 0 0 1-21.0944 8.3968z" fill="#474A54" /></svg>