<?xml version="1.0" standalone="no"?><!DOCTYPE svg PUBLIC "-//W3C//DTD SVG 1.1//EN" "http://www.w3.org/Graphics/SVG/1.1/DTD/svg11.dtd"><svg class="icon" width="48px" height="48.00px" viewBox="0 0 1024 1024" version="1.1" xmlns="http://www.w3.org/2000/svg"><path d="M807.424 512m-107.7248 0a107.7248 107.7248 0 1 0 215.4496 0 107.7248 107.7248 0 1 0-215.4496 0Z" fill="#ffa115" /><path d="M945.8688 512c0-76.3392-62.1056-138.4448-138.4448-138.4448S668.928 435.6608 668.928 512c0 65.792 46.1312 120.9856 107.7248 134.9632v27.904c0 111.36-90.624 201.984-201.984 201.984s-201.984-90.624-201.984-201.984v-40.7552c134.3488-10.3936 240.5376-122.9312 240.5376-259.9424V115.3536c0-16.9472-13.7728-30.72-30.72-30.72H510.6688c-16.9472 0-30.72 13.7728-30.72 30.72s13.7728 30.72 30.72 30.72h41.1648v228.096c0 109.9264-89.4464 199.3728-199.3728 199.3728S153.1392 484.096 153.1392 374.2208V146.0736h43.776c16.9472 0 30.72-13.7728 30.72-30.72s-13.7728-30.72-30.72-30.72H122.4192c-16.9472 0-30.72 13.7728-30.72 30.72v258.816c0 129.792 95.3344 237.7216 219.5968 257.4848v43.1616c0 145.2544 118.1696 263.424 263.424 263.424 145.2544 0 263.424-118.1696 263.424-263.424v-27.904c61.5936-13.9264 107.7248-69.12 107.7248-134.912z m-138.496 77.0048c-42.4448 0-77.0048-34.56-77.0048-77.0048s34.56-77.0048 77.0048-77.0048 77.0048 34.56 77.0048 77.0048c0.0512 42.4448-34.5088 77.0048-77.0048 77.0048z" fill="#474A54" /></svg>