<?xml version="1.0" standalone="no"?><!DOCTYPE svg PUBLIC "-//W3C//DTD SVG 1.1//EN" "http://www.w3.org/Graphics/SVG/1.1/DTD/svg11.dtd"><svg class="icon" width="48px" height="48.00px" viewBox="0 0 1024 1024" version="1.1" xmlns="http://www.w3.org/2000/svg"><path d="M780.6464 896.2048H243.3536c-70.912 0-128.4096-57.4976-128.4096-128.4096v-99.4816h794.1632v99.4816c-0.0512 70.9632-57.5488 128.4096-128.4608 128.4096z" fill="#ffa115" /><path d="M806.656 926.9248H217.344c-73.4208 0-133.12-59.6992-133.12-133.12V221.696c0-73.4208 59.6992-133.12 133.12-133.12h589.3632c73.4208 0 133.12 59.6992 133.12 133.12v572.16c-0.0512 73.3696-59.7504 133.0688-133.1712 133.0688zM217.344 150.016c-39.5264 0-71.68 32.1536-71.68 71.68v572.16c0 39.5264 32.1536 71.68 71.68 71.68h589.3632c39.5264 0 71.68-32.1536 71.68-71.68V221.696c0-39.5264-32.1536-71.68-71.68-71.68H217.344z" fill="#474A54" /><path d="M710.7072 538.4704H313.2928c-16.9472 0-30.72-13.7728-30.72-30.72s13.7728-30.72 30.72-30.72h397.4144c16.9472 0 30.72 13.7728 30.72 30.72s-13.7728 30.72-30.72 30.72z" fill="#474A54" /></svg>