<?xml version="1.0" standalone="no"?><!DOCTYPE svg PUBLIC "-//W3C//DTD SVG 1.1//EN" "http://www.w3.org/Graphics/SVG/1.1/DTD/svg11.dtd"><svg class="icon" width="48px" height="48.00px" viewBox="0 0 1024 1024" version="1.1" xmlns="http://www.w3.org/2000/svg"><path d="M777.1648 939.5712h-532.48c-73.4208 0-133.12-59.6992-133.12-133.12V221.696c0-73.4208 59.6992-133.12 133.12-133.12h532.48c73.4208 0 133.12 59.6992 133.12 133.12v584.7552c0 73.4208-59.6992 133.12-133.12 133.12zM244.6848 150.016c-39.5264 0-71.68 32.1536-71.68 71.68v584.7552c0 39.5264 32.1536 71.68 71.68 71.68h532.48c39.5264 0 71.68-32.1536 71.68-71.68V221.696c0-39.5264-32.1536-71.68-71.68-71.68h-532.48z" fill="#474A54" /><path d="M678.2976 306.8928H317.4912c-16.9472 0-30.72-13.7728-30.72-30.72s13.7728-30.72 30.72-30.72h360.8064c16.9472 0 30.72 13.7728 30.72 30.72s-13.7728 30.72-30.72 30.72zM412.928 478.1056H317.4912c-16.9472 0-30.72-13.7728-30.72-30.72s13.7728-30.72 30.72-30.72h95.4368c16.9472 0 30.72 13.7728 30.72 30.72s-13.7728 30.72-30.72 30.72z" fill="#474A54" /><path d="M589.3632 568.9856m-121.5488 0a121.5488 121.5488 0 1 0 243.0976 0 121.5488 121.5488 0 1 0-243.0976 0Z" fill="#ffa115" /><path d="M797.0304 730.5728l-78.6432-80.7936c14.7456-23.4496 23.296-51.1488 23.296-80.7936 0-83.968-68.3008-152.2688-152.32-152.2688s-152.2688 68.3008-152.2688 152.2688 68.3008 152.32 152.2688 152.32c32.1024 0 61.9008-10.0352 86.528-27.0336l77.1072 79.2064a30.6176 30.6176 0 0 0 22.016 9.2672c7.7312 0 15.4624-2.9184 21.4016-8.704 12.1856-11.8784 12.4416-31.3344 0.6144-43.4688z m-298.496-161.5872c0-50.0736 40.7552-90.8288 90.8288-90.8288 50.1248 0 90.88 40.7552 90.88 90.8288 0 50.1248-40.7552 90.88-90.88 90.88-50.0736-0.0512-90.8288-40.8064-90.8288-90.88z" fill="#474A54" /></svg>