<?xml version="1.0" standalone="no"?><!DOCTYPE svg PUBLIC "-//W3C//DTD SVG 1.1//EN" "http://www.w3.org/Graphics/SVG/1.1/DTD/svg11.dtd"><svg class="icon" width="48px" height="48.00px" viewBox="0 0 1024 1024" version="1.1" xmlns="http://www.w3.org/2000/svg"><path d="M859.4432 616.0896c-71.2192 60.16-200.1408 100.352-347.4432 100.352-147.2512 0-276.224-40.192-347.4432-100.352-37.2224 31.4368-58.6752 68.352-58.6752 107.8272 0 114.9952 181.8112 208.1792 406.1184 208.1792s406.1184-93.184 406.1184-208.1792c0-39.424-21.4528-76.3392-58.6752-107.8272z" fill="#ffa115" /><path d="M906.752 404.1216c27.0336-31.2832 42.0864-66.5088 42.0864-104.0384 0-133.9392-191.8976-238.8992-436.8384-238.8992s-436.8384 104.96-436.8384 238.8992c0 37.5296 15.0528 72.7552 42.0864 104.0384-27.648 32-42.0864 67.5328-42.0864 104.1408 0 38.9632 16.3328 75.4688 45.4144 107.6736-29.7984 32.9728-45.4144 69.8368-45.4144 108.032 0 133.9392 191.8976 238.8992 436.8384 238.8992s436.8384-104.96 436.8384-238.8992c0-38.1952-15.616-75.0592-45.4144-108.032 29.0816-32.2048 45.4144-68.6592 45.4144-107.6736 0-36.608-14.4896-72.0896-42.0864-104.1408z m-73.1648 193.4336c-0.3072 0.256-0.6144 0.512-0.9216 0.7168-64.0512 49.9712-172.6976 82.176-291.1232 86.8352-1.8432 0.0512-3.6352 0.1536-5.4784 0.2048l-6.912 0.1536c-5.6832 0.1024-11.4176 0.2048-17.152 0.2048s-11.4688-0.1024-17.2032-0.2048l-6.912-0.1536c-1.8432-0.0512-3.6352-0.1536-5.4784-0.2048-118.4768-4.6592-227.1744-36.9152-291.2256-86.9376l-0.6656-0.512c-1.792-1.4336-3.5328-2.8672-5.2736-4.3008-31.4368-26.5728-48.6912-56.1664-48.6912-85.0944 0-24.576 12.032-46.08 26.2144-62.8736 3.0208 2.2016 6.1952 4.2496 9.3696 6.3488 0.7168 0.512 1.4336 0.9728 2.1504 1.4848 3.7376 2.5088 7.6288 4.9152 11.52 7.3216 0.9728 0.6144 1.9456 1.1776 2.9184 1.792 3.9936 2.4064 8.0896 4.7616 12.2368 7.0144 0.768 0.4096 1.536 0.8192 2.2528 1.2288 18.2784 9.8816 38.0928 18.8416 59.1872 26.7264 1.6896 0.6144 3.3792 1.28 5.0688 1.8944 3.9936 1.4336 8.0896 2.8672 12.1856 4.2496 2.56 0.8704 5.12 1.6896 7.7312 2.56a579.712 579.712 0 0 0 21.0944 6.3488c3.328 0.9216 6.656 1.8944 10.0352 2.7648 4.4544 1.1776 9.0112 2.304 13.5168 3.3792 2.4064 0.5632 4.7616 1.1776 7.168 1.7408 7.2192 1.6384 14.4896 3.2256 21.9136 4.6592 0.7168 0.1536 1.4848 0.256 2.2016 0.4096 6.7072 1.28 13.5168 2.5088 20.4288 3.6352l5.888 0.9216c5.6832 0.8704 11.4688 1.6896 17.2544 2.4576 2.3552 0.3072 4.7616 0.6144 7.1168 0.8704 5.4784 0.6656 11.008 1.28 16.5376 1.8432 2.56 0.256 5.12 0.512 7.7312 0.7168 5.4784 0.512 10.9568 0.9216 16.4864 1.28 2.6112 0.2048 5.2736 0.3584 7.8848 0.512 5.7856 0.3584 11.6224 0.6144 17.4592 0.8192l7.0656 0.3072c8.1408 0.256 16.384 0.3584 24.6784 0.3584h0.0512c8.2944 0 16.5376-0.1536 24.6784-0.3584 2.3552-0.0512 4.7104-0.2048 7.0656-0.3072 5.888-0.2048 11.7248-0.4608 17.5104-0.8192 2.6112-0.1536 5.2224-0.3584 7.8336-0.512 5.5296-0.3584 11.0592-0.8192 16.5376-1.28 2.56-0.2048 5.12-0.4608 7.68-0.7168 5.5808-0.5632 11.1104-1.1776 16.5888-1.8432 2.3552-0.3072 4.7616-0.5632 7.1168-0.8704 5.8368-0.768 11.5712-1.5872 17.3056-2.4576 1.9456-0.3072 3.9424-0.5632 5.888-0.8704 6.8608-1.1264 13.6704-2.304 20.4288-3.6352 0.768-0.1536 1.4848-0.256 2.2528-0.4096 7.3728-1.4336 14.6944-3.0208 21.8624-4.6592 2.4064-0.5632 4.8128-1.1776 7.2192-1.7408 4.5568-1.0752 9.0624-2.2016 13.5168-3.3792 3.3792-0.8704 6.7072-1.8432 10.0352-2.7648 3.328-0.9216 6.6048-1.8432 9.8304-2.8672 3.7888-1.1264 7.5264-2.304 11.2128-3.4816 2.56-0.8192 5.12-1.6896 7.68-2.5088 4.096-1.3824 8.192-2.816 12.2368-4.2496 1.6896-0.6144 3.2768-1.2288 4.9664-1.8432 21.1968-7.936 41.0112-16.8448 59.392-26.7776 0.7168-0.4096 1.4336-0.768 2.1504-1.1264 4.1984-2.304 8.2944-4.6592 12.3392-7.1168l2.7648-1.6896c3.9424-2.4064 7.8336-4.864 11.6224-7.3728l1.9968-1.3824c3.1744-2.1504 6.4-4.2496 9.472-6.4512 14.1824 16.7936 26.2144 38.2464 26.2144 62.8736 0 28.9792-17.3056 58.5728-48.7424 85.1456-1.5872 1.2288-3.2256 2.6112-4.9664 3.9936zM512 122.624c224.5632 0 375.3984 91.7504 375.3984 177.4592 0 27.4432-15.5136 55.5008-43.9296 80.9472-0.0512 0.0512-0.1024 0.1024-0.2048 0.1536-61.952 54.8864-174.8992 90.5216-299.8272 95.6928l-7.3728 0.3072-6.7072 0.1536c-5.7344 0.1024-11.4688 0.2048-17.3056 0.2048-5.8368 0-11.6224-0.1024-17.3568-0.2048l-6.7072-0.1536c-2.5088-0.0512-5.0176-0.2048-7.5264-0.3072-124.8768-5.1712-237.7728-40.8576-299.7248-95.6928-0.0512-0.0512-0.1536-0.1024-0.2048-0.1536-28.3648-25.4464-43.9296-53.504-43.9296-80.9472 0-85.7088 150.8352-177.4592 375.3984-177.4592z m0 778.752c-224.5632 0-375.3984-91.7504-375.3984-177.4592 0-26.7264 14.0288-49.8176 30.1568-67.4816 18.7392 13.1072 39.936 24.9344 62.976 35.4304 1.1264 0.512 2.2528 1.0752 3.4304 1.5872 3.328 1.4848 6.7072 2.8672 10.0864 4.3008 2.9184 1.2288 5.8368 2.4576 8.7552 3.6352 2.7136 1.0752 5.4272 2.0992 8.1408 3.1744 3.9936 1.4848 7.9872 2.9696 12.0832 4.4032 2.0992 0.7168 4.1472 1.4336 6.2464 2.1504 5.2736 1.792 10.6496 3.5328 16.0768 5.1712 1.0752 0.3072 2.0992 0.6656 3.2256 0.9728 28.0576 8.448 58.112 15.3088 89.7024 20.2752 0.1024 0 0.256 0.0512 0.3584 0.0512 7.424 1.1776 14.9504 2.2016 22.5792 3.1744 0.9216 0.1024 1.8432 0.2048 2.7648 0.3584 6.7584 0.8192 13.568 1.5872 20.48 2.2016 1.4848 0.1536 2.9696 0.3072 4.4544 0.4096 6.3488 0.5632 12.7488 1.0752 19.1488 1.4848 1.8432 0.1024 3.7376 0.256 5.5808 0.3584 6.2464 0.3584 12.544 0.6144 18.8416 0.8704 1.9456 0.0512 3.84 0.1536 5.7856 0.256 8.0896 0.256 16.2816 0.3584 24.5248 0.3584s16.384-0.1536 24.5248-0.3584c1.9456-0.0512 3.8912-0.1536 5.8368-0.256 6.2976-0.2048 12.5952-0.512 18.8416-0.8704 1.8944-0.1024 3.7376-0.256 5.5808-0.3584 6.4512-0.4096 12.8-0.9216 19.1488-1.4848 1.4848-0.1536 2.9696-0.3072 4.4544-0.4096 6.8608-0.6656 13.6704-1.3824 20.4288-2.2016 0.9216-0.1024 1.8944-0.2048 2.816-0.3584 7.5776-0.9728 15.104-1.9968 22.528-3.1744 0.1024 0 0.256-0.0512 0.4096-0.0512 31.5904-4.9664 61.6448-11.776 89.7024-20.224 1.1264-0.3072 2.2016-0.6656 3.2768-1.024 5.4272-1.6896 10.752-3.3792 15.9744-5.1712 2.0992-0.7168 4.1984-1.4336 6.2976-2.2016 4.0448-1.4336 8.0384-2.8672 11.9808-4.4032 2.7648-1.024 5.5296-2.0992 8.2432-3.1744 2.9184-1.1776 5.7856-2.3552 8.6528-3.584 3.4304-1.4336 6.8608-2.8672 10.1888-4.352 1.0752-0.4608 2.0992-0.9728 3.1744-1.4848 23.1424-10.5472 44.3904-22.3744 63.1808-35.5328 16.0768 17.664 30.1568 40.7552 30.1568 67.4816 0 85.76-150.8352 177.5104-375.3984 177.5104z" fill="#474A54" /></svg>