<?xml version="1.0" standalone="no"?><!DOCTYPE svg PUBLIC "-//W3C//DTD SVG 1.1//EN" "http://www.w3.org/Graphics/SVG/1.1/DTD/svg11.dtd"><svg class="icon" width="48px" height="48.00px" viewBox="0 0 1024 1024" version="1.1" xmlns="http://www.w3.org/2000/svg"><path d="M590.5408 125.7984l235.3152 217.0368-240.8448 2.8672z" fill="#ffa115" /><path d="M485.9392 417.9968H314.368c-16.9472 0-30.72-13.7728-30.72-30.72s13.7728-30.72 30.72-30.72h171.5712c16.9472 0 30.72 13.7728 30.72 30.72s-13.7216 30.72-30.72 30.72zM585.0112 589.568H314.368c-16.9472 0-30.72-13.7728-30.72-30.72s13.7728-30.72 30.72-30.72h270.592c16.9472 0 30.72 13.7728 30.72 30.72s-13.7216 30.72-30.6688 30.72zM677.1712 760.1664H314.368c-16.9472 0-30.72-13.7728-30.72-30.72s13.7728-30.72 30.72-30.72h362.752c16.9472 0 30.72 13.7728 30.72 30.72s-13.7216 30.72-30.6688 30.72z" fill="#474A54" /><path d="M880.5376 322.7648l-269.312-245.76a30.75072 30.75072 0 0 0-20.6848-8.0384H289.024c-73.4208 0-133.12 59.6992-133.12 133.12v617.472c0 73.4208 59.6992 133.12 133.12 133.12h468.4288c73.4208 0 133.12-59.6992 133.12-133.12v-474.112c0-8.6528-3.6352-16.896-10.0352-22.6816z m-82.0224 8.2944h-180.6848c-6.0416 0-10.9568-4.9152-10.9568-10.9568V156.16l191.6416 174.8992z m-41.0624 560.128H289.024c-39.5264 0-71.68-32.1536-71.68-71.68V202.0864c0-39.5264 32.1536-71.68 71.68-71.68h256.4096v189.696c0 39.936 32.4608 72.3968 72.3968 72.3968h211.3024v427.008c0 39.5264-32.1536 71.68-71.68 71.68z" fill="#474A54" /></svg>