<?xml version="1.0" standalone="no"?><!DOCTYPE svg PUBLIC "-//W3C//DTD SVG 1.1//EN" "http://www.w3.org/Graphics/SVG/1.1/DTD/svg11.dtd"><svg class="icon" width="48px" height="48.00px" viewBox="0 0 1024 1024" version="1.1" xmlns="http://www.w3.org/2000/svg"><path d="M739.1744 155.1872a425.02144 425.02144 0 0 1 65.4848 227.1744c0 235.8272-191.1808 427.0592-427.0592 427.0592-84.224 0-162.6624-24.4736-228.8128-66.56 75.5712 120.064 209.2032 199.8848 361.5744 199.8848 235.8272 0 427.0592-191.1808 427.0592-427.0592 0-151.6544-79.1552-284.7232-198.2464-360.4992z" fill="#ffa115" /><path d="M510.3616 973.4656c-252.416 0-457.7792-205.3632-457.7792-457.7792s205.3632-457.7792 457.7792-457.7792 457.7792 205.3632 457.7792 457.7792-205.3632 457.7792-457.7792 457.7792z m0-854.1184c-218.5216 0-396.3392 177.7664-396.3392 396.3392S291.84 912.0256 510.3616 912.0256s396.3392-177.7664 396.3392-396.3392-177.8176-396.3392-396.3392-396.3392z" fill="#474A54" /><path d="M655.6672 585.216h-116.6336v-49.9712h116.6336c16.9472 0 30.72-13.7728 30.72-30.72s-13.7728-30.72-30.72-30.72h-80.3328l102.3488-104.96c11.8272-12.1344 11.6224-31.5904-0.5632-43.4176-12.1344-11.8272-31.5904-11.6224-43.4176 0.5632L508.3136 454.5536 382.9248 325.9392a30.72 30.72 0 0 0-43.4176-0.5632 30.72 30.72 0 0 0-0.5632 43.4176l102.3488 104.96H360.96c-16.9472 0-30.72 13.7728-30.72 30.72s13.7728 30.72 30.72 30.72h116.6336v49.9712H360.96c-16.9472 0-30.72 13.7728-30.72 30.72s13.7728 30.72 30.72 30.72h116.6336v84.6336c0 16.9472 13.7728 30.72 30.72 30.72s30.72-13.7728 30.72-30.72V646.656h116.6336c16.9472 0 30.72-13.7728 30.72-30.72s-13.7728-30.72-30.72-30.72z" fill="#474A54" /></svg>