<?xml version="1.0" standalone="no"?><!DOCTYPE svg PUBLIC "-//W3C//DTD SVG 1.1//EN" "http://www.w3.org/Graphics/SVG/1.1/DTD/svg11.dtd"><svg class="icon" width="48px" height="48.00px" viewBox="0 0 1024 1024" version="1.1" xmlns="http://www.w3.org/2000/svg"><path d="M513.1776 721.0496c-231.3728 0-348.0576-54.4256-406.8352-111.9232a424.1408 424.1408 0 0 0-20.8384 131.6864c0 25.5488 2.2528 50.6368 6.6048 74.9568 11.9808 67.4304 70.2976 116.7872 138.8032 116.7872h559.616c67.1232 0 125.7472-47.2064 138.0864-113.152 4.7616-25.4464 7.2704-51.712 7.2704-78.5408 0-51.3536-9.1648-100.608-25.856-146.176-49.408 64-158.6176 126.3616-396.8512 126.3616z" fill="#ffa115" /><path d="M790.4768 963.2256H230.8608c-83.3024 0-154.368-59.7504-169.0112-142.1312a457.20064 457.20064 0 0 1-7.0656-80.3328c0-162.5088 88.064-313.4464 227.2256-394.4448-49.3056-70.6048-57.6-137.4208-23.808-194.7648 0.2048-0.3584 0.4608-0.768 0.7168-1.1264 19.5584-30.0544 73.4208-63.0784 147.0464-42.5472 44.288-47.1552 100.9664-47.1552 120.9856-47.1552 35.584 0 80.2304 19.8656 105.5744 51.5584 34.56-8.3968 81.7664-7.4752 116.1216 15.2576 32.3072 21.4016 47.5648 58.0608 43.008 103.2704-4.3008 42.3936-19.5072 82.432-45.3632 119.552 136.7552 82.3296 220.2112 228.6592 220.2112 390.3488a458.24 458.24 0 0 1-7.7824 84.224c-14.9504 80.128-85.7088 138.2912-168.2432 138.2912zM310.7328 183.5008c-29.6448 51.3536 6.0416 111.5648 41.3184 153.088a30.6432 30.6432 0 0 1 6.6048 26.3168 30.7712 30.7712 0 0 1-16.8448 21.2992c-137.0624 65.024-225.5872 204.9536-225.5872 356.5568 0 23.3472 2.048 46.7456 6.0928 69.5296 9.4208 52.992 55.0912 91.4432 108.544 91.4432h559.616c52.992 0 98.3552-37.0688 107.8784-88.064 4.4544-23.8592 6.7072-48.384 6.7072-72.9088 0-150.784-83.968-286.208-219.0848-353.3824a30.5664 30.5664 0 0 1-16.4864-21.7088c-1.792-9.4208 0.8704-19.1488 7.2704-26.2656 31.5392-35.2768 49.6128-73.8816 53.76-114.7392 3.0208-29.696-7.5776-40.3968-15.8208-45.8752-23.5008-15.5648-66.3552-10.1376-80.9472-2.1504a30.7456 30.7456 0 0 1-43.7248-16.5888c-6.5536-18.3808-39.0144-37.8368-63.0784-37.8368-40.8576 0-66.4064 11.7248-85.4016 39.168a30.6944 30.6944 0 0 1-36.8128 10.9568c-55.1936-22.4256-86.7328 0.6656-94.0032 11.1616z" fill="#474A54" /><path d="M637.2864 677.9392h-94.6176v-33.3312h94.6176c16.9472 0 30.72-13.7728 30.72-30.72s-13.7728-30.72-30.72-30.72h-57.4464l79.4624-81.5104c11.8272-12.1344 11.5712-31.5904-0.5632-43.4688-12.1344-11.8272-31.5904-11.5712-43.4688 0.5632l-103.3728 106.0352L408.576 458.752c-11.8272-12.1344-31.2832-12.3904-43.4176-0.5632a30.72 30.72 0 0 0-0.5632 43.4176l79.4624 81.5104H386.56c-16.9472 0-30.72 13.7728-30.72 30.72s13.7728 30.72 30.72 30.72h94.6688v33.3312H386.56c-16.9472 0-30.72 13.7728-30.72 30.72s13.7728 30.72 30.72 30.72h94.6688v67.4304c0 16.9472 13.7728 30.72 30.72 30.72s30.72-13.7728 30.72-30.72V739.328h94.6176c16.9472 0 30.72-13.7728 30.72-30.72s-13.7216-30.6688-30.72-30.6688z" fill="#474A54" /></svg>