<?xml version="1.0" standalone="no"?><!DOCTYPE svg PUBLIC "-//W3C//DTD SVG 1.1//EN" "http://www.w3.org/Graphics/SVG/1.1/DTD/svg11.dtd"><svg class="icon" width="48px" height="48.00px" viewBox="0 0 1024 1024" version="1.1" xmlns="http://www.w3.org/2000/svg"><path d="M627.5584 872.5504c-230.8608 0-417.9968-187.136-417.9968-417.9968 0-145.3568 74.1888-273.3056 186.7776-348.2112-174.6432 50.1248-302.4384 210.944-302.4384 401.664 0 230.8608 187.136 417.9968 417.9968 417.9968 85.504 0 164.9664-25.7024 231.2192-69.7856a415.97952 415.97952 0 0 1-115.5584 16.3328z" fill="#ffa115" /><path d="M920.6784 322.8672a30.6944 30.6944 0 0 0-40.6528-15.2576 30.6944 30.6944 0 0 0-15.2576 40.6528c22.8352 50.3296 34.4064 104.0896 34.4064 159.7952 0 213.5552-173.7216 387.2768-387.2256 387.2768-213.5552 0-387.2768-173.7216-387.2768-387.2768S298.3424 120.832 511.8976 120.832c59.4944 0 116.5312 13.1072 169.5744 39.0144 15.2576 7.424 33.6384 1.1264 41.0624-14.1312 7.424-15.2576 1.1264-33.6384-14.1312-41.0624-61.4912-30.0032-127.5904-45.2096-196.5056-45.2096-247.3984 0-448.7168 201.2672-448.7168 448.7168s201.2672 448.7168 448.7168 448.7168 448.6656-201.2672 448.6656-448.7168c0-64.6656-13.4144-126.976-39.8848-185.2928z" fill="#474A54" /><path d="M511.8976 398.8992c-60.2112 0-109.1584 48.9472-109.1584 109.1584s48.9472 109.1584 109.1584 109.1584c60.16 0 109.1584-48.9472 109.1584-109.1584 0-17.8688-4.4032-34.7648-12.0832-49.664l289.28-287.3856a30.77632 30.77632 0 0 0 0.1536-43.4688 30.77632 30.77632 0 0 0-43.4688-0.1536l-288.256 286.3616c-16.128-9.3184-34.816-14.848-54.784-14.848z m0 156.8768c-26.3168 0-47.7184-21.4016-47.7184-47.7184s21.4016-47.7184 47.7184-47.7184c26.3168 0 47.7184 21.4016 47.7184 47.7184s-21.4016 47.7184-47.7184 47.7184z" fill="#474A54" /></svg>