<?xml version="1.0" standalone="no"?><!DOCTYPE svg PUBLIC "-//W3C//DTD SVG 1.1//EN" "http://www.w3.org/Graphics/SVG/1.1/DTD/svg11.dtd"><svg class="icon" width="48px" height="48.00px" viewBox="0 0 1024 1024" version="1.1" xmlns="http://www.w3.org/2000/svg"><path d="M665.4976 481.536l-118.4256-118.4256a42.9568 42.9568 0 0 0-60.7744 0L367.9232 481.536a42.9568 42.9568 0 0 0 0 60.7744l118.4256 118.4256a42.9568 42.9568 0 0 0 60.7744 0l118.4256-118.4256c16.7424-16.7936 16.7424-44.032-0.0512-60.7744z" fill="#ffa115" /><path d="M516.7104 703.9488c-18.8928 0-37.7344-7.168-52.0704-21.5552l-118.4256-118.4256a73.19552 73.19552 0 0 1-21.6064-52.1216c0-19.6608 7.68-38.1952 21.6064-52.1216l118.4256-118.4256c28.7232-28.7232 75.4688-28.7232 104.192 0l118.4256 118.4256c28.7232 28.7232 28.7232 75.4688 0 104.192l-118.4256 118.4256a73.25184 73.25184 0 0 1-52.1216 21.6064z m0-322.7136c-3.1232 0-6.2464 1.1776-8.6528 3.584L389.632 503.2448c-3.1232 3.1232-3.584 6.7584-3.584 8.6528 0 1.8944 0.4608 5.5296 3.584 8.6528l118.4256 118.4256c4.7616 4.7616 12.544 4.7616 17.3056 0l118.4256-118.4256c4.7616-4.7616 4.7616-12.544 0-17.3056l-118.4256-118.4256c-2.3552-2.3552-5.5296-3.584-8.6528-3.584z" fill="#474A54" /><path d="M516.7104 972.6464c-254.0544 0-460.7488-206.6944-460.7488-460.7488S262.656 51.1488 516.7104 51.1488s460.7488 206.6944 460.7488 460.7488-206.6944 460.7488-460.7488 460.7488z m0-860.0576c-220.16 0-399.3088 179.0976-399.3088 399.3088 0 220.16 179.0976 399.3088 399.3088 399.3088 220.16 0 399.3088-179.0976 399.3088-399.3088 0-220.16-179.1488-399.3088-399.3088-399.3088z" fill="#474A54" /></svg>