<?xml version="1.0" standalone="no"?><!DOCTYPE svg PUBLIC "-//W3C//DTD SVG 1.1//EN" "http://www.w3.org/Graphics/SVG/1.1/DTD/svg11.dtd"><svg class="icon" width="48px" height="48.00px" viewBox="0 0 1024 1024" version="1.1" xmlns="http://www.w3.org/2000/svg"><path d="M781.0048 897.536H243.5584c-62.9248 0-113.9712-50.9952-113.9712-113.9712v-153.1904H894.976v153.1904c0 62.976-50.9952 113.9712-113.9712 113.9712z" fill="#ffa115" /><path d="M792.576 106.8544H231.9872c-73.4208 0-133.12 59.6992-133.12 133.12v560.5888c0 73.4208 59.6992 133.12 133.12 133.12H792.576c73.4208 0 133.12-59.6992 133.12-133.12V239.9744c0-73.3696-59.6992-133.12-133.12-133.12z m71.68 693.7088c0 39.5264-32.1536 71.68-71.68 71.68H231.9872c-39.5264 0-71.68-32.1536-71.68-71.68V239.9744c0-39.5264 32.1536-71.68 71.68-71.68H792.576c39.5264 0 71.68 32.1536 71.68 71.68v560.5888z" fill="#474A54" /><path d="M437.0432 306.6368H238.848c-16.9472 0-30.72 13.7728-30.72 30.72s13.7728 30.72 30.72 30.72h198.1952c16.9472 0 30.72-13.7728 30.72-30.72s-13.7728-30.72-30.72-30.72zM778.752 540.16h-198.144c-16.9472 0-30.72 13.7728-30.72 30.72s13.7728 30.72 30.72 30.72h198.144c16.9472 0 30.72-13.7728 30.72-30.72s-13.7728-30.72-30.72-30.72zM778.752 333.312h-68.352V264.96c0-16.9472-13.7728-30.72-30.72-30.72s-30.72 13.7728-30.72 30.72V333.312H580.608c-16.9472 0-30.72 13.7728-30.72 30.72s13.7728 30.72 30.72 30.72h68.352v68.352c0 16.9472 13.7728 30.72 30.72 30.72s30.72-13.7728 30.72-30.72V394.752h68.352c16.9472 0 30.72-13.7728 30.72-30.72s-13.7728-30.72-30.72-30.72zM434.4832 558.2848c-11.9808-11.9808-31.4368-11.9808-43.4688 0l-58.3168 58.3168-58.2656-58.3168c-11.9808-11.9808-31.4368-11.9808-43.4688 0-11.9808 11.9808-11.9808 31.4368 0 43.4688l58.3168 58.3168-58.2656 58.2656c-11.9808 11.9808-11.9808 31.4368 0 43.4688a30.67392 30.67392 0 0 0 43.4176 0l58.3168-58.3168 58.3168 58.3168a30.67392 30.67392 0 0 0 43.4176 0c11.9808-11.9808 11.9808-31.4368 0-43.4688l-58.3168-58.3168 58.3168-58.3168a30.62272 30.62272 0 0 0 0-43.4176zM778.752 697.9072h-198.144c-16.9472 0-30.72 13.7728-30.72 30.72s13.7728 30.72 30.72 30.72h198.144c16.9472 0 30.72-13.7728 30.72-30.72s-13.7728-30.72-30.72-30.72z" fill="#474A54" /></svg>