<?xml version="1.0" standalone="no"?><!DOCTYPE svg PUBLIC "-//W3C//DTD SVG 1.1//EN" "http://www.w3.org/Graphics/SVG/1.1/DTD/svg11.dtd"><svg class="icon" width="48px" height="48.00px" viewBox="0 0 1024 1024" version="1.1" xmlns="http://www.w3.org/2000/svg"><path d="M236.8512 449.6384s-11.2128 290.56 282.112 290.56 277.7088-310.9376 270.848-347.0336c0.9728-9.8816 0-44.8512 0-44.8512-99.7888 132.6592-206.6944 59.4944-257.4336 26.7776-160.768-118.272-295.5264 74.5472-295.5264 74.5472" fill="#ffa115" /><path d="M831.2832 464.384V181.1456c0-73.4208-59.6992-133.12-133.12-133.12H335.616c-73.4208 0-133.12 59.6992-133.12 133.12V464.384c0 161.28 122.112 294.5536 278.784 312.32v141.9264H246.3232c-16.9472 0-30.72 13.7728-30.72 30.72s13.7728 30.72 30.72 30.72h512.4096c16.9472 0 30.72-13.7728 30.72-30.72s-13.7728-30.72-30.72-30.72H542.72v-141.0048c161.3312-13.1584 288.5632-148.5824 288.5632-313.2416zM335.616 109.4656h362.5472c39.5264 0 71.68 32.1536 71.68 71.68v143.8208c-1.6896 1.4336-3.2256 3.072-4.608 4.864-74.2912 98.7648-145.9712 64.8192-212.992 21.5552l-2.5088-1.5872c-49.6128-36.2496-102.1952-50.1248-156.2624-41.216-53.248 8.7552-97.8432 38.4-129.536 66.4576V181.1456c0-39.5264 32.1536-71.68 71.68-71.68z m-71.68 355.1744c10.8544-14.3872 66.2016-83.3024 139.52-95.3856 37.9392-6.2464 74.1376 3.7888 110.6432 30.6688 0.512 0.3584 1.024 0.768 1.5872 1.0752l3.2256 2.0992c43.0592 27.8016 148.4288 95.7952 250.9312 11.1616v50.176c0 139.4688-113.4592 252.928-252.928 252.928-139.4176 0-252.8256-113.3568-252.9792-252.7232z" fill="#474A54" /></svg>