<?xml version="1.0" standalone="no"?><!DOCTYPE svg PUBLIC "-//W3C//DTD SVG 1.1//EN" "http://www.w3.org/Graphics/SVG/1.1/DTD/svg11.dtd"><svg class="icon" width="48px" height="48.00px" viewBox="0 0 1024 1024" version="1.1" xmlns="http://www.w3.org/2000/svg"><path d="M709.4272 962.6624H333.1584c-115.4048 0-209.2544-93.9008-209.2544-209.2544V276.2752c0-115.4048 93.9008-209.2544 209.2544-209.2544h376.2688c115.4048 0 209.2544 93.8496 209.2544 209.2544 0 16.9472-13.7728 30.72-30.72 30.72s-30.72-13.7728-30.72-30.72c0-81.5104-66.304-147.8144-147.8144-147.8144H333.1584c-81.5104 0-147.8144 66.304-147.8144 147.8144v477.1328c0 81.5104 66.304 147.8144 147.8144 147.8144h376.2688c81.5104 0 147.8144-66.304 147.8144-147.8144 0-16.9472 13.7728-30.72 30.72-30.72s30.72 13.7728 30.72 30.72c0 115.4048-93.8496 209.2544-209.2544 209.2544z" fill="#474A54" /><path d="M540.9792 660.1216h347.0336V376.3712h-347.0336c-78.3872 0-141.8752 63.5392-141.8752 141.8752-0.0512 78.3872 63.488 141.8752 141.8752 141.8752z" fill="#ffa115" /><path d="M887.9616 690.8416h-347.0336c-95.1808 0-172.5952-77.4144-172.5952-172.5952s77.4144-172.5952 172.5952-172.5952h347.0336c16.9472 0 30.72 13.7728 30.72 30.72v283.7504c0 16.9984-13.7216 30.72-30.72 30.72z m-347.0336-283.7504c-61.2864 0-111.1552 49.8688-111.1552 111.1552s49.8688 111.1552 111.1552 111.1552h316.3136V407.0912h-316.3136z" fill="#474A54" /><path d="M549.4784 518.2464m-41.0112 0a41.0112 41.0112 0 1 0 82.0224 0 41.0112 41.0112 0 1 0-82.0224 0Z" fill="#474A54" /></svg>