<?xml version="1.0" standalone="no"?><!DOCTYPE svg PUBLIC "-//W3C//DTD SVG 1.1//EN" "http://www.w3.org/Graphics/SVG/1.1/DTD/svg11.dtd"><svg class="icon" width="48px" height="48.00px" viewBox="0 0 1024 1024" version="1.1" xmlns="http://www.w3.org/2000/svg"><path d="M241.2032 923.1872h-16.4864c-61.7984 0-111.9232-50.1248-111.9232-111.9232v-114.8416c0-61.7984 50.1248-111.9232 111.9232-111.9232h16.4864c61.7984 0 111.9232 50.1248 111.9232 111.9232v114.8416c0 61.7984-50.1248 111.9232-111.9232 111.9232zM809.5232 923.1872h-16.4864c-61.7984 0-111.9232-50.1248-111.9232-111.9232v-114.8416c0-61.7984 50.1248-111.9232 111.9232-111.9232h16.4864c61.7984 0 111.9232 50.1248 111.9232 111.9232v114.8416c-0.0512 61.7984-50.1248 111.9232-111.9232 111.9232z" fill="#ffa115" /><path d="M952.1152 502.9376c0-239.872-195.1744-434.9952-434.9952-434.9952S82.1248 263.0656 82.1248 502.9376v174.848c0 2.048 0.2048 4.0448 0.6144 5.9904-0.3584 4.1984-0.6144 8.3968-0.6144 12.6464v114.8416c0 78.6432 64 142.6432 142.6432 142.6432h16.4864c78.6432 0 142.6432-64 142.6432-142.6432v-114.8416c0-78.6432-64-142.6432-142.6432-142.6432H224.768c-30.1568 0-58.112 9.4208-81.2032 25.4464v-76.288C143.5648 296.96 311.1424 129.3824 517.12 129.3824S890.6752 296.96 890.6752 502.9376v76.3392c-23.04-16.0256-51.0464-25.4464-81.2032-25.4464h-16.4864c-78.6432 0-142.6432 64-142.6432 142.6432v114.8416c0 78.6432 64 142.6432 142.6432 142.6432h16.4864c78.6432 0 142.6432-64 142.6432-142.6432v-114.8416c0-4.2496-0.2048-8.4992-0.6144-12.6464 0.3584-1.9456 0.6144-3.9424 0.6144-5.9904V502.9376zM224.7168 615.2704h16.4864c44.7488 0 81.2032 36.4032 81.2032 81.2032v114.8416c0 44.7488-36.4032 81.2032-81.2032 81.2032h-16.4864c-44.7488 0-81.2032-36.4032-81.2032-81.2032v-114.8416c0.0512-44.8 36.4544-81.2032 81.2032-81.2032z m665.9584 195.9936c0 44.7488-36.4032 81.2032-81.2032 81.2032h-16.4864c-44.7488 0-81.2032-36.4032-81.2032-81.2032v-114.8416c0-44.7488 36.4032-81.2032 81.2032-81.2032h16.4864c44.7488 0 81.2032 36.4032 81.2032 81.2032v114.8416z" fill="#474A54" /></svg>