<?xml version="1.0" standalone="no"?><!DOCTYPE svg PUBLIC "-//W3C//DTD SVG 1.1//EN" "http://www.w3.org/Graphics/SVG/1.1/DTD/svg11.dtd"><svg class="icon" width="48px" height="48.00px" viewBox="0 0 1024 1024" version="1.1" xmlns="http://www.w3.org/2000/svg"><path d="M784.1792 894.4128H238.2336c-59.4432 0-107.6224-48.1792-107.6224-107.6224v-132.864h761.1392v132.864c0.0512 59.4432-48.128 107.6224-107.5712 107.6224z" fill="#ffa115" /><path d="M789.4016 925.1328H233.0112c-73.4208 0-133.12-59.6992-133.12-133.12V235.6736c0-73.4208 59.6992-133.12 133.12-133.12h556.3904c73.4208 0 133.12 59.6992 133.12 133.12v556.3392c0 73.4208-59.7504 133.12-133.12 133.12zM233.0112 163.9936c-39.5264 0-71.68 32.1536-71.68 71.68v556.3392c0 39.5264 32.1536 71.68 71.68 71.68h556.3904c39.5264 0 71.68-32.1536 71.68-71.68V235.6736c0-39.5264-32.1536-71.68-71.68-71.68H233.0112z" fill="#474A54" /><path d="M388.9152 684.6464c-16.9472 0-30.72-13.7728-30.72-30.72V373.7088c0-16.9472 13.7728-30.72 30.72-30.72s30.72 13.7728 30.72 30.72v280.1664c0 16.9984-13.7728 30.7712-30.72 30.7712zM638.3616 684.6464c-7.936 0-15.872-3.072-21.8624-9.1648l-138.24-140.0832a30.68928 30.68928 0 0 1 0-43.1616l138.24-140.0832a30.72 30.72 0 0 1 43.4176-0.3072 30.72 30.72 0 0 1 0.3072 43.4176l-116.9408 118.528 116.9408 118.528a30.6688 30.6688 0 0 1-0.3072 43.4176 30.43328 30.43328 0 0 1-21.5552 8.9088z" fill="#474A54" /></svg>