<?xml version="1.0" standalone="no"?><!DOCTYPE svg PUBLIC "-//W3C//DTD SVG 1.1//EN" "http://www.w3.org/Graphics/SVG/1.1/DTD/svg11.dtd"><svg class="icon" width="48px" height="48.00px" viewBox="0 0 1024 1024" version="1.1" xmlns="http://www.w3.org/2000/svg"><path d="M824.832 883.712H223.7952c-44.032 0-79.7184-35.6864-79.7184-79.7184v-150.016h760.5248v150.016c-0.0512 43.9808-35.7376 79.7184-79.7696 79.7184z" fill="#ffa115" /><path d="M802.816 925.1328H246.4768c-73.4208 0-133.12-59.6992-133.12-133.12V235.6736c0-73.4208 59.6992-133.12 133.12-133.12H802.816c73.4208 0 133.12 59.6992 133.12 133.12v556.3392c0 73.4208-59.6992 133.12-133.12 133.12zM246.4768 163.9936c-39.5264 0-71.68 32.1536-71.68 71.68v556.3392c0 39.5264 32.1536 71.68 71.68 71.68H802.816c39.5264 0 71.68-32.1536 71.68-71.68V235.6736c0-39.5264-32.1536-71.68-71.68-71.68H246.4768z" fill="#474A54" /><path d="M646.9632 684.6464c-16.9472 0-30.72-13.7728-30.72-30.72V373.7088c0-16.9472 13.7728-30.72 30.72-30.72s30.72 13.7728 30.72 30.72v280.1664c0 16.9984-13.7728 30.7712-30.72 30.7712zM397.4656 684.6464a30.72 30.72 0 0 1-21.8624-52.2752l116.9408-118.528-116.9408-118.528a30.6688 30.6688 0 0 1 0.3072-43.4176 30.6688 30.6688 0 0 1 43.4176 0.3072l138.24 140.0832a30.68928 30.68928 0 0 1 0 43.1616l-138.24 140.0832a30.7456 30.7456 0 0 1-21.8624 9.1136z" fill="#474A54" /></svg>