<?xml version="1.0" standalone="no"?><!DOCTYPE svg PUBLIC "-//W3C//DTD SVG 1.1//EN" "http://www.w3.org/Graphics/SVG/1.1/DTD/svg11.dtd"><svg class="icon" width="48px" height="48.00px" viewBox="0 0 1024 1024" version="1.1" xmlns="http://www.w3.org/2000/svg"><path d="M542.2592 465.7152V116.6848l237.2608 186.368zM542.2592 891.1872v-354.9184l237.2608 189.5424z" fill="#ffa115" /><path d="M799.3856 691.6096l-221.7472-188.0576 221.7984-188.6208c7.0144-5.9904 11.008-14.7456 10.8032-23.9616s-4.4544-17.8688-11.6736-23.552l-250.9824-198.0928a30.75072 30.75072 0 0 0-32.4608-3.5328 30.81728 30.81728 0 0 0-17.3056 27.6992l0.8192 343.0912-254.1568-215.552a30.7456 30.7456 0 0 0-43.3152 3.584 30.7456 30.7456 0 0 0 3.584 43.3152l272.8448 231.3728-272.9984 235.008a30.72 30.72 0 0 0-3.2256 43.3152 30.64832 30.64832 0 0 0 23.296 10.7008c7.1168 0 14.2336-2.4576 20.0192-7.424l254.2592-218.88 0.8704 364.9536a30.81216 30.81216 0 0 0 17.8688 27.8528 30.78144 30.78144 0 0 0 32.768-4.5056l249.0368-211.7632a30.70464 30.70464 0 0 0 10.8032-23.3984 31.0528 31.0528 0 0 0-10.9056-23.552zM559.4112 156.928l171.6736 135.4752-171.008 145.408-0.6656-280.8832z m1.6384 703.5904l-0.6656-291.0208 171.6736 145.6128-171.008 145.408z" fill="#474A54" /></svg>