<?xml version="1.0" standalone="no"?><!DOCTYPE svg PUBLIC "-//W3C//DTD SVG 1.1//EN" "http://www.w3.org/Graphics/SVG/1.1/DTD/svg11.dtd"><svg class="icon" width="48px" height="48.00px" viewBox="0 0 1024 1024" version="1.1" xmlns="http://www.w3.org/2000/svg"><path d="M573.0816 701.44l-200.192-200.192c-36.2496-36.2496-36.2496-94.976 0-131.1744 36.2496-36.2496 94.976-36.2496 131.1744 0l200.192 200.192c36.2496 36.2496 36.2496 94.976 0 131.1744-36.1984 36.1984-94.9248 36.1984-131.1744 0z" fill="#ffa115" /><path d="M872.5504 491.52L782.848 401.8176a30.72 30.72 0 0 0-43.4176 0 30.72 30.72 0 0 0 0 43.4176l89.7024 89.7024c81.8176 81.8176 81.8176 214.9376 0 296.7552-39.6288 39.6288-92.3136 61.44-148.3776 61.44s-108.7488-21.8112-148.3776-61.44L437.76 737.1264a30.72 30.72 0 0 0-43.4176 0 30.72 30.72 0 0 0 0 43.4176l94.6176 94.6176c52.8896 52.8896 122.368 79.3088 191.8464 79.3088s138.9568-26.4192 191.7952-79.3088c105.728-105.728 105.728-277.8624-0.0512-383.6416zM487.936 193.792l83.8144 83.8144a30.72 30.72 0 0 0 43.4176 0 30.72 30.72 0 0 0 0-43.4176l-83.8144-83.8144C425.6256 44.544 253.4912 44.544 147.712 150.3232c-105.7792 105.7792-105.7792 277.8624 0 383.6416l84.7872 84.7872a30.67392 30.67392 0 0 0 43.4176 0 30.72 30.72 0 0 0 0-43.4176L191.1808 490.5472c-81.8176-81.8176-81.8176-214.9376 0-296.7552 81.8176-81.8176 214.9376-81.8176 296.7552 0z" fill="#474A54" /><path d="M407.1936 401.664a30.72 30.72 0 0 0-0.3072 43.4176l219.5968 222.5664a30.58688 30.58688 0 0 0 21.8624 9.1648 30.72 30.72 0 0 0 21.8624-52.2752L450.6624 401.9712a30.78144 30.78144 0 0 0-43.4688-0.3072z" fill="#474A54" /></svg>