<?xml version="1.0" standalone="no"?><!DOCTYPE svg PUBLIC "-//W3C//DTD SVG 1.1//EN" "http://www.w3.org/Graphics/SVG/1.1/DTD/svg11.dtd"><svg class="icon" width="48px" height="48.00px" viewBox="0 0 1024 1024" version="1.1" xmlns="http://www.w3.org/2000/svg"><path d="M146.944 584.7552c22.4256 88.6272 82.432 162.304 162.0992 203.1104l4.352 56.2688a22.23616 22.23616 0 0 0 22.2208 20.5312h92.3136c11.6224 0 21.2992-8.96 22.2208-20.5312l1.6896-21.7088H646.5024c9.1648 0 18.176-0.4608 27.136-1.2288l1.792 22.9376a22.23616 22.23616 0 0 0 22.2208 20.5312h92.3136c11.6224 0 21.2992-8.96 22.2208-20.5312l5.632-72.3968c64.8192-42.0864 113.2544-107.3152 133.4272-183.9616-495.2064 248.6784-804.3008-3.0208-804.3008-3.0208z" fill="#ffa115" /><path d="M789.9136 895.3856h-92.3136c-25.2416 0-46.848-18.0736-51.8656-42.24H479.7952c-5.0176 24.1664-26.6752 42.24-51.8656 42.24H335.5648c-27.4944 0-50.688-21.4528-52.8384-48.896l-3.072-39.6288c-74.1888-42.8544-129.8432-111.5136-156.16-192.5632l-31.2832-1.6384c-31.1296-1.6384-55.5008-27.3408-55.5008-58.5216V435.2c0-30.0544 22.528-55.0912 52.4288-58.2656l44.9536-4.7616c16.8448-39.5776 41.0624-75.776 71.2192-106.6496-38.5536-52.992-30.3104-96.0512-8.8064-118.528 0.9728-1.024 1.9968-1.9456 3.072-2.816 47.36-37.632 117.6576-34.4064 203.264 9.3696 11.2128 5.7344 24.6272 8.5504 38.8096 8.0896 3.584-0.1024 7.168-0.1536 10.752-0.1536h194.048c190.6688 0 345.8048 155.136 345.8048 345.8048 0 112.384-53.9136 216.5248-145.0496 281.4976l-4.4544 57.6512c-2.1504 27.4944-25.344 48.9472-52.8384 48.9472z m-84.48-61.44h76.6976l5.0176-64.5632a30.69952 30.69952 0 0 1 13.9264-23.3984c81.3056-52.7872 129.792-141.9776 129.792-238.6432 0-156.7744-127.5392-284.3648-284.3648-284.3648h-194.048c-2.9696 0-5.888 0.0512-8.8576 0.1536-24.5248 0.768-48.2304-4.352-68.6592-14.7968-34.9696-17.8688-98.1504-43.4688-134.656-17.8688-2.4576 5.4784 0.2048 25.6512 29.44 56.4736 5.7856 6.0928 8.8064 14.336 8.3968 22.7328s-4.3008 16.2816-10.7008 21.76c-37.5296 32.2048-66.0992 73.5744-82.688 119.7568a30.70976 30.70976 0 0 1-25.6512 20.1728l-60.928 6.4512v113.6128l50.3808 2.6624c13.4656 0.7168 24.832 10.0864 28.16 23.1424 20.0192 79.104 73.3184 145.92 146.2784 183.296 9.5232 4.864 15.7696 14.336 16.64 24.9856l3.7376 48.4864h76.6976l1.0752-13.9264a30.70976 30.70976 0 0 1 30.6176-28.3648H646.4c7.6288 0 15.616-0.3584 24.5248-1.1264 8.192-0.6656 16.2816 1.8944 22.4768 7.2192a30.84288 30.84288 0 0 1 10.752 21.0432l1.28 15.104z" fill="#474A54" /><path d="M332.6976 411.0848m-44.5952 0a44.5952 44.5952 0 1 0 89.1904 0 44.5952 44.5952 0 1 0-89.1904 0Z" fill="#474A54" /></svg>