<?xml version="1.0" standalone="no"?><!DOCTYPE svg PUBLIC "-//W3C//DTD SVG 1.1//EN" "http://www.w3.org/Graphics/SVG/1.1/DTD/svg11.dtd"><svg class="icon" width="48px" height="48.00px" viewBox="0 0 1024 1024" version="1.1" xmlns="http://www.w3.org/2000/svg"><path d="M538.4704 535.808m-195.2256 0a195.2256 195.2256 0 1 0 390.4512 0 195.2256 195.2256 0 1 0-390.4512 0Z" fill="#ffa115" /><path d="M167.6288 127.3344h-43.5712c-16.9472 0-30.72 13.7728-30.72 30.72s13.7728 30.72 30.72 30.72h43.5712c16.9472 0 30.72-13.7728 30.72-30.72s-13.7216-30.72-30.72-30.72zM275.6608 188.7744h620.8c16.9472 0 30.72-13.7728 30.72-30.72s-13.7728-30.72-30.72-30.72H275.6608c-16.9472 0-30.72 13.7728-30.72 30.72s13.7728 30.72 30.72 30.72zM167.6288 501.248h-43.5712c-16.9472 0-30.72 13.7728-30.72 30.72s13.7728 30.72 30.72 30.72h43.5712c16.9472 0 30.72-13.7728 30.72-30.72s-13.7216-30.72-30.72-30.72zM896.4096 501.248H275.6608c-16.9472 0-30.72 13.7728-30.72 30.72s13.7728 30.72 30.72 30.72h620.8c16.9472 0 30.72-13.7728 30.72-30.72s-13.7728-30.72-30.7712-30.72zM167.6288 835.2256h-43.5712c-16.9472 0-30.72 13.7728-30.72 30.72s13.7728 30.72 30.72 30.72h43.5712c16.9472 0 30.72-13.7728 30.72-30.72s-13.7216-30.72-30.72-30.72zM896.4096 835.2256H275.6608c-16.9472 0-30.72 13.7728-30.72 30.72s13.7728 30.72 30.72 30.72h620.8c16.9472 0 30.72-13.7728 30.72-30.72s-13.7728-30.72-30.7712-30.72z" fill="#474A54" /></svg>