<?xml version="1.0" standalone="no"?><!DOCTYPE svg PUBLIC "-//W3C//DTD SVG 1.1//EN" "http://www.w3.org/Graphics/SVG/1.1/DTD/svg11.dtd"><svg class="icon" width="48px" height="48.00px" viewBox="0 0 1024 1024" version="1.1" xmlns="http://www.w3.org/2000/svg"><path d="M611.9424 668.16l-72.0384-70.8608a25.58976 25.58976 0 0 0-35.9424 0L431.9232 668.16c-16.2304 15.9232-43.6224 4.4544-43.6224-18.2784V322.304L449.024 113.8176h147.5072l59.0336 208.4352v327.5776c0 22.784-27.392 34.304-43.6224 18.3296z" fill="#ffa115" /><path d="M935.3216 272.4864l-79.36-129.024c-22.784-37.0176-63.8976-60.0064-107.3152-60.0064h-147.456c-1.536-0.256-3.072-0.4096-4.6592-0.4096H449.024c-1.5872 0-3.1744 0.1536-4.7104 0.4096H292.6592c-42.24 0-81.4592 20.992-104.8576 56.1664L100.7104 270.4384a134.3488 134.3488 0 0 0-22.5792 74.5984v468.0192c0 66.9184 54.4256 121.344 121.344 121.344h634.4704c66.9184 0 121.344-54.4256 121.344-121.344V342.9888c0-24.8832-6.912-49.2544-19.968-70.5024z m-131.6352-96.8192l71.2704 115.9168h-196.1472l-41.5232-146.6368h111.4112c22.2208 0 43.3152 11.776 54.9888 30.72zM419.0208 353.024h205.824v284.7232l-63.3856-62.3616c-21.8112-21.4016-57.2416-21.4016-79.0528 0l-63.3856 62.3616V353.024zM573.44 144.9472l41.5232 146.6368H429.2608l42.752-146.6368H573.44z m-334.5408 28.7744c11.9808-18.0224 32.1024-28.7744 53.76-28.7744h115.3024l-42.752 146.6368h-204.8l78.4896-117.8624z m595.0464 699.2896H199.4752c-33.024 0-59.904-26.88-59.904-59.904V353.024h218.0096v296.8576c0 22.784 13.568 43.1616 34.56 51.968 7.0656 2.9696 14.4896 4.4032 21.8112 4.4032 14.4896 0 28.7232-5.5808 39.4752-16.1792l68.4544-67.328 68.4544 67.328c16.2304 15.9744 40.2944 20.5824 61.2864 11.8272 20.992-8.8064 34.56-29.2352 34.56-51.968V353.024h207.5648v460.0832c0.1024 33.024-26.7776 59.904-59.8016 59.904z" fill="#474A54" /></svg>