<?xml version="1.0" standalone="no"?><!DOCTYPE svg PUBLIC "-//W3C//DTD SVG 1.1//EN" "http://www.w3.org/Graphics/SVG/1.1/DTD/svg11.dtd"><svg class="icon" width="48px" height="48.00px" viewBox="0 0 1024 1024" version="1.1" xmlns="http://www.w3.org/2000/svg"><path d="M582.144 936.2944H175.1552V204.6976c0-56.576 45.824-102.4 102.4-102.4H479.744c56.576 0 102.4 45.824 102.4 102.4v731.5968z" fill="#ffa115" /><path d="M752.4864 299.008H612.864V204.6976c0-73.4208-59.6992-133.12-133.12-133.12H277.5552c-73.4208 0-133.12 59.6992-133.12 133.12v731.5968c0 16.9472 13.7728 30.72 30.72 30.72h679.7312c16.9472 0 30.72-13.7728 30.72-30.72V432.128c0-73.3696-59.6992-133.12-133.12-133.12zM205.8752 204.6976c0-39.5264 32.1536-71.68 71.68-71.68H479.744c39.5264 0 71.68 32.1536 71.68 71.68v700.8768H205.8752V204.6976z m618.2912 700.8768H612.864V360.448h139.6736c39.5264 0 71.68 32.1536 71.68 71.68v473.4464z" fill="#474A54" /><path d="M454.8608 398.3872H301.9264c-16.9472 0-30.72-13.7728-30.72-30.72s13.7728-30.72 30.72-30.72h152.9344c16.9472 0 30.72 13.7728 30.72 30.72s-13.7216 30.72-30.72 30.72zM454.8608 543.4368H301.9264c-16.9472 0-30.72-13.7728-30.72-30.72s13.7728-30.72 30.72-30.72h152.9344c16.9472 0 30.72 13.7728 30.72 30.72s-13.7216 30.72-30.72 30.72zM454.8608 700.3648H301.9264c-16.9472 0-30.72-13.7728-30.72-30.72s13.7728-30.72 30.72-30.72h152.9344c16.9472 0 30.72 13.7728 30.72 30.72s-13.7216 30.72-30.72 30.72zM930.7136 967.0144H104.3456c-16.9472 0-30.72-13.7728-30.72-30.72s13.7728-30.72 30.72-30.72h826.368c16.9472 0 30.72 13.7728 30.72 30.72s-13.7728 30.72-30.72 30.72zM748.032 550.0416h-58.8288c-16.9472 0-30.72-13.7728-30.72-30.72s13.7728-30.72 30.72-30.72h58.8288c16.9472 0 30.72 13.7728 30.72 30.72s-13.7728 30.72-30.72 30.72zM748.032 700.3648h-58.8288c-16.9472 0-30.72-13.7728-30.72-30.72s13.7728-30.72 30.72-30.72h58.8288c16.9472 0 30.72 13.7728 30.72 30.72s-13.7728 30.72-30.72 30.72z" fill="#474A54" /></svg>