<?xml version="1.0" standalone="no"?><!DOCTYPE svg PUBLIC "-//W3C//DTD SVG 1.1//EN" "http://www.w3.org/Graphics/SVG/1.1/DTD/svg11.dtd"><svg class="icon" width="48px" height="48.00px" viewBox="0 0 1024 1024" version="1.1" xmlns="http://www.w3.org/2000/svg"><path d="M143.7696 596.7872h743.2704v155.1872H143.7696z" fill="#ffa115" /><path d="M926.2592 870.2976H98.7648c-16.9472 0-30.72 13.7728-30.72 30.72s13.7728 30.72 30.72 30.72h827.4944c16.9472 0 30.72-13.7728 30.72-30.72s-13.7728-30.72-30.72-30.72zM141.9264 782.6944h745.1136c16.9472 0 30.72-13.7728 30.72-30.72v-117.6576c0-212.0192-164.5056-386.2528-372.5824-401.9712V149.3504h77.1072c16.9472 0 30.72-13.7728 30.72-30.72s-13.7728-30.72-30.72-30.72H402.688c-16.9472 0-30.72 13.7728-30.72 30.72s13.7728 30.72 30.72 30.72h81.0496v82.9952c-208.0768 15.7696-372.5824 189.952-372.5824 401.9712v117.6576c0.0512 16.9984 13.7728 30.72 30.7712 30.72z m30.72-148.3776c0-188.5184 153.344-341.8624 341.8624-341.8624 188.4672 0 341.8624 153.344 341.8624 341.8624v86.9376H172.6464v-86.9376z" fill="#474A54" /><path d="M593.5104 383.232a30.74048 30.74048 0 0 0-39.936 17.1008 30.74048 30.74048 0 0 0 17.1008 39.936c1.024 0.4096 100.5056 41.1136 135.5776 135.168 4.608 12.3392 16.3328 20.0192 28.7744 20.0192a30.79168 30.79168 0 0 0 28.7744-41.472c-44.3904-119.1936-165.1712-168.704-170.2912-170.752z" fill="#474A54" /></svg>