<?xml version="1.0" standalone="no"?><!DOCTYPE svg PUBLIC "-//W3C//DTD SVG 1.1//EN" "http://www.w3.org/Graphics/SVG/1.1/DTD/svg11.dtd"><svg class="icon" width="48px" height="48.00px" viewBox="0 0 1024 1024" version="1.1" xmlns="http://www.w3.org/2000/svg"><path d="M836.3008 932.1472H188.7744c-41.216 0-74.6496-33.4336-74.6496-74.6496v-140.3904h796.8256v140.3904c0 41.216-33.4336 74.6496-74.6496 74.6496z" fill="#ffa115" /><path d="M820.3776 321.8944h-29.4912c-5.9392-147.1488-127.4368-265.0112-276.0192-265.0112h-0.512c-148.5824 0-270.08 117.8624-276.0192 265.0112h-29.4912c-73.4208 0-133.12 59.6992-133.12 133.12v379.2384c0 73.4208 59.6992 133.12 133.12 133.12h611.584c73.4208 0 133.12-59.6992 133.12-133.12V455.0144c-0.0512-73.4208-59.7504-133.12-133.1712-133.12z m-306.0224-203.5712h0.512c114.688 0 208.6912 90.3168 214.5792 203.5712H299.776c5.888-113.2544 99.8912-203.5712 214.5792-203.5712z m377.7024 715.9296c0 39.5264-32.1536 71.68-71.68 71.68H208.8448c-39.5264 0-71.68-32.1536-71.68-71.68V455.0144c0-39.5264 32.1536-71.68 71.68-71.68h611.5328c39.5264 0 71.68 32.1536 71.68 71.68v379.2384z" fill="#474A54" /><path d="M636.1088 658.2784H393.1136c-16.9472 0-30.72-13.7728-30.72-30.72s13.7728-30.72 30.72-30.72h242.9952c16.9472 0 30.72 13.7728 30.72 30.72s-13.7728 30.72-30.72 30.72z" fill="#474A54" /></svg>