<?xml version="1.0" standalone="no"?><!DOCTYPE svg PUBLIC "-//W3C//DTD SVG 1.1//EN" "http://www.w3.org/Graphics/SVG/1.1/DTD/svg11.dtd"><svg class="icon" width="48px" height="48.00px" viewBox="0 0 1024 1024" version="1.1" xmlns="http://www.w3.org/2000/svg"><path d="M928.6656 511.4368c0-230.4-186.7776-417.1776-417.1776-417.1776v417.1776h417.1776z" fill="#ffa115" /><path d="M928.6656 542.1568H511.488c-16.9472 0-30.72-13.7728-30.72-30.72V94.208c0-16.9472 13.7728-30.72 30.72-30.72 246.9888 0 447.8976 200.9088 447.8976 447.8976a30.72 30.72 0 0 1-30.72 30.7712z m-386.4576-61.44h354.56c-14.8992-188.672-165.888-339.6096-354.56-354.56v354.56z" fill="#474A54" /><path d="M511.488 959.3344c-246.9888 0-447.8976-200.9088-447.8976-447.8976 0-198.912 133.4272-376.0128 324.4544-430.6944 16.3328-4.6592 33.3312 4.7616 37.9904 21.0944 4.6592 16.3328-4.7616 33.3312-21.0944 37.9904-164.8128 47.1552-279.9104 199.936-279.9104 371.6096 0 213.0944 173.3632 386.4576 386.4576 386.4576 169.0624 0 321.2288-112.896 370.0224-274.5856a30.72 30.72 0 0 1 38.2976-20.5312c16.2304 4.9152 25.4464 22.0672 20.5312 38.2976-27.2384 90.1632-83.8144 171.2128-159.3856 228.1984-78.1312 58.88-171.3152 90.0608-269.4656 90.0608z" fill="#474A54" /></svg>