<?xml version="1.0" standalone="no"?><!DOCTYPE svg PUBLIC "-//W3C//DTD SVG 1.1//EN" "http://www.w3.org/Graphics/SVG/1.1/DTD/svg11.dtd"><svg class="icon" width="48px" height="48.00px" viewBox="0 0 1024 1024" version="1.1" xmlns="http://www.w3.org/2000/svg"><path d="M840.3968 512h-180.3776c-45.2608 0-81.92-36.6592-81.92-81.92V199.7824c0-45.2608 36.6592-81.92 81.92-81.92h180.3776c45.2608 0 81.92 36.6592 81.92 81.92V430.08c0 45.2608-36.6592 81.92-81.92 81.92z" fill="#ffa115" /><path d="M367.2576 87.1424H186.88c-62.1056 0-112.64 50.5344-112.64 112.64v624.4352c0 62.1056 50.5344 112.64 112.64 112.64h180.3776c62.1056 0 112.64-50.5344 112.64-112.64V199.7824c0-62.1056-50.5344-112.64-112.64-112.64z m51.2 737.0752c0 28.2112-22.9888 51.2-51.2 51.2H186.88c-28.2112 0-51.2-22.9888-51.2-51.2V199.7824c0-28.2112 22.9888-51.2 51.2-51.2h180.3776c28.2112 0 51.2 22.9888 51.2 51.2v624.4352zM840.3968 87.1424h-180.3776c-62.1056 0-112.64 50.5344-112.64 112.64V430.08c0 62.1056 50.5344 112.64 112.64 112.64h180.3776c62.1056 0 112.64-50.5344 112.64-112.64V199.7824c0-62.1056-50.5344-112.64-112.64-112.64z m51.2 342.9376c0 28.2112-22.9888 51.2-51.2 51.2h-180.3776c-28.2112 0-51.2-22.9888-51.2-51.2V199.7824c0-28.2112 22.9888-51.2 51.2-51.2h180.3776c28.2112 0 51.2 22.9888 51.2 51.2V430.08zM840.3968 611.0208h-180.3776c-62.1056 0-112.64 50.5344-112.64 112.64v100.5568c0 62.1056 50.5344 112.64 112.64 112.64h180.3776c62.1056 0 112.64-50.5344 112.64-112.64v-100.5568c0-62.1056-50.5344-112.64-112.64-112.64z m51.2 213.1968c0 28.2112-22.9888 51.2-51.2 51.2h-180.3776c-28.2112 0-51.2-22.9888-51.2-51.2v-100.5568c0-28.2112 22.9888-51.2 51.2-51.2h180.3776c28.2112 0 51.2 22.9888 51.2 51.2v100.5568z" fill="#474A54" /></svg>