<?xml version="1.0" standalone="no"?><!DOCTYPE svg PUBLIC "-//W3C//DTD SVG 1.1//EN" "http://www.w3.org/Graphics/SVG/1.1/DTD/svg11.dtd"><svg class="icon" width="48px" height="48.00px" viewBox="0 0 1024 1024" version="1.1" xmlns="http://www.w3.org/2000/svg"><path d="M725.2992 262.7072c27.6992 50.2272 43.4688 107.8784 43.4688 169.2672 0 193.8944-157.184 351.1296-351.1296 351.1296-79.9744 0-153.6-26.7776-212.6336-71.7824 59.7504 108.3904 175.104 181.8624 307.6096 181.8624 193.8944 0 351.1296-157.184 351.1296-351.1296 0.0512-113.9712-54.3232-215.1936-138.4448-279.3472z" fill="#ffa115" /><path d="M134.6048 357.0176c-8.2944 0-16.5376-3.328-22.6304-9.9328a148.15744 148.15744 0 0 1-39.2704-100.6592c0-81.9712 66.7136-148.6848 148.6848-148.6848 39.7824 0 77.2096 15.5136 105.3184 43.7248 11.9808 12.032 11.9296 31.488-0.0512 43.4688s-31.488 11.9296-43.4688-0.0512a86.7072 86.7072 0 0 0-61.7984-25.6512c-48.0768 0-87.2448 39.1168-87.2448 87.2448 0 21.9648 8.192 42.9056 23.04 59.0336a30.69952 30.69952 0 0 1-22.5792 51.5072zM893.6448 359.1168c-7.936 0-15.872-3.072-21.9136-9.1648a30.78144 30.78144 0 0 1 0.3584-43.4688c16.8448-16.5376 26.112-38.6048 26.112-62.208 0-48.0768-39.1168-87.2448-87.2448-87.2448-24.1664 0-46.592 9.6768-63.2832 27.2384-11.6736 12.3392-31.1296 12.8-43.4176 1.1264a30.72512 30.72512 0 0 1-1.1264-43.4176c28.3648-29.9008 66.6624-46.3872 107.8784-46.3872 81.9712 0 148.6848 66.7136 148.6848 148.6848 0 40.1408-15.7696 77.824-44.4416 105.984a30.6688 30.6688 0 0 1-21.6064 8.8576zM678.2464 583.0144H502.4256c-16.9472 0-30.72-13.7728-30.72-30.72V336.5376c0-16.9472 13.7728-30.72 30.72-30.72s30.72 13.7728 30.72 30.72v185.0368h145.1008c16.9472 0 30.72 13.7728 30.72 30.72s-13.7216 30.72-30.72 30.72z" fill="#474A54" /><path d="M778.752 815.5136c71.3216-69.4272 115.7632-166.3488 115.7632-273.4592 0-210.5344-171.3152-381.8496-381.8496-381.8496s-381.8496 171.3152-381.8496 381.8496c0 107.2128 44.4928 204.1856 115.9168 273.6128L177.152 883.1488c-12.1856 11.8272-12.4928 31.2832-0.6656 43.4176a30.70464 30.70464 0 0 0 22.0672 9.3184c7.68 0 15.4112-2.8672 21.4016-8.6528L294.4 855.04c61.9008 43.3152 137.1648 68.8128 218.2656 68.8128 81.2032 0 156.5184-25.5488 218.4704-68.9664l74.5984 72.3456a30.6432 30.6432 0 0 0 21.4016 8.6528c8.0384 0 16.0256-3.1232 22.0672-9.3184a30.6688 30.6688 0 0 0-0.6656-43.4176l-69.7856-67.6352zM192.256 542.0544c0-176.64 143.7184-320.4096 320.4096-320.4096s320.4096 143.7184 320.4096 320.4096-143.7184 320.4096-320.4096 320.4096-320.4096-143.7696-320.4096-320.4096z" fill="#474A54" /></svg>