<?xml version="1.0" standalone="no"?><!DOCTYPE svg PUBLIC "-//W3C//DTD SVG 1.1//EN" "http://www.w3.org/Graphics/SVG/1.1/DTD/svg11.dtd"><svg class="icon" width="48px" height="48.00px" viewBox="0 0 1024 1024" version="1.1" xmlns="http://www.w3.org/2000/svg"><path d="M693.8112 400.5376H334.5408c-31.8464 0-57.6512-25.8048-57.6512-57.6512V112.7424h474.5216v230.1952c0.0512 31.8464-25.7536 57.6-57.6 57.6z" fill="#ffa115" /><path d="M817.664 82.0224H206.7456c-73.4208 0-133.12 59.6992-133.12 133.12v592.64c0 73.4208 59.6992 133.12 133.12 133.12H817.664c73.4208 0 133.12-59.6992 133.12-133.12V215.1424c0-73.4208-59.6992-133.12-133.12-133.12z m-96.9216 61.44v199.4752c0 14.848-12.0832 26.9312-26.9312 26.9312H334.5408c-14.848 0-26.9312-12.0832-26.9312-26.9312V143.4624h413.1328z m168.6016 664.32c0 39.5264-32.1536 71.68-71.68 71.68H206.7456c-39.5264 0-71.68-32.1536-71.68-71.68V215.1424c0-39.5264 32.1536-71.68 71.68-71.68h39.424v199.4752c0 48.6912 39.6288 88.3712 88.3712 88.3712h359.2704c48.6912 0 88.3712-39.6288 88.3712-88.3712V143.4624h35.4816c39.5264 0 71.68 32.1536 71.68 71.68v592.64z" fill="#474A54" /><path d="M648.192 322.7648c16.9472 0 30.72-13.7728 30.72-30.72V220.8256c0-16.9472-13.7728-30.72-30.72-30.72s-30.72 13.7728-30.72 30.72v71.2704a30.6688 30.6688 0 0 0 30.72 30.6688z" fill="#474A54" /></svg>