<?xml version="1.0" standalone="no"?><!DOCTYPE svg PUBLIC "-//W3C//DTD SVG 1.1//EN" "http://www.w3.org/Graphics/SVG/1.1/DTD/svg11.dtd"><svg class="icon" width="48px" height="48.00px" viewBox="0 0 1024 1024" version="1.1" xmlns="http://www.w3.org/2000/svg"><path d="M789.6576 890.5216H226.2528c-57.1904 0-103.5776-46.3872-103.5776-103.5776v-150.6304h770.56v150.6304c0 57.1904-46.3872 103.5776-103.5776 103.5776z" fill="#ffa115" /><path d="M790.8352 921.2416H225.0752c-73.4208 0-133.12-59.6992-133.12-133.12V235.8784c0-73.4208 59.6992-133.12 133.12-133.12h565.76c73.4208 0 133.12 59.6992 133.12 133.12v552.192c0 73.4208-59.6992 133.1712-133.12 133.1712zM225.0752 164.1984c-39.5264 0-71.68 32.1536-71.68 71.68v552.192c0 39.5264 32.1536 71.68 71.68 71.68h565.76c39.5264 0 71.68-32.1536 71.68-71.68V235.8784c0-39.5264-32.1536-71.68-71.68-71.68H225.0752z" fill="#474A54" /><path d="M320.8192 725.6576c-16.9472 0-30.72-13.7728-30.72-30.72V495.5648c0-16.9472 13.7728-30.72 30.72-30.72s30.72 13.7728 30.72 30.72v199.424a30.6688 30.6688 0 0 1-30.72 30.6688zM696.4736 725.6576c-16.9472 0-30.72-13.7728-30.72-30.72V495.5648c0-16.9472 13.7728-30.72 30.72-30.72s30.72 13.7728 30.72 30.72v199.424c0 16.9472-13.7728 30.6688-30.72 30.6688zM502.8352 725.6576c-16.9472 0-30.72-13.7728-30.72-30.72V315.4944c0-16.9472 13.7728-30.72 30.72-30.72s30.72 13.7728 30.72 30.72v379.4944c0 16.9472-13.7728 30.6688-30.72 30.6688z" fill="#474A54" /></svg>