<?xml version="1.0" standalone="no"?><!DOCTYPE svg PUBLIC "-//W3C//DTD SVG 1.1//EN" "http://www.w3.org/Graphics/SVG/1.1/DTD/svg11.dtd"><svg class="icon" width="48px" height="48.00px" viewBox="0 0 1024 1024" version="1.1" xmlns="http://www.w3.org/2000/svg"><path d="M871.6288 306.176L755.712 370.944v266.496l115.9168 64.768c37.4784 20.9408 84.2752-5.2224 84.2752-47.104V353.28c0-41.8304-46.7968-67.9936-84.2752-47.104z" fill="#ffa115" /><path d="M944.4352 280.32c-27.3408-16.0256-60.16-16.384-87.808-0.9216l-70.2464 39.2192v-29.952c0-73.4208-59.6992-133.12-133.12-133.12h-478.72c-73.4208 0-133.12 59.6992-133.12 133.12v431.1552c0 73.4208 59.6992 133.12 133.12 133.12h478.72c73.4208 0 133.12-59.6992 133.12-133.12v-29.952l70.2464 39.2192c13.568 7.5776 28.3136 11.3664 43.1104 11.3152 15.36 0 30.7712-4.096 44.6976-12.288 26.4192-15.5136 42.1888-42.8032 42.1888-72.96V353.28c0-30.208-15.7696-57.4464-42.1888-72.96z m-219.4432 439.4496c0 39.5264-32.1536 71.68-71.68 71.68H174.592c-39.5264 0-71.68-32.1536-71.68-71.68V288.6144c0-39.5264 32.1536-71.68 71.68-71.68h478.72c39.5264 0 71.68 32.1536 71.68 71.68v431.1552z m200.192-64.6656c0 11.776-8.2944 17.92-11.8784 20.0192-8.2944 4.864-18.3296 4.9664-26.7264 0.256l-100.1984-55.9616v-230.4l100.1984-55.9616c8.3968-4.7104 18.432-4.608 26.7264 0.3072 3.584 2.0992 11.8784 8.2432 11.8784 19.968v301.7728z" fill="#474A54" /><path d="M508.672 464.128L386.56 393.6768c-30.8736-17.8176-69.4272 4.4544-69.4272 40.0896v140.9536c0 35.6352 38.5536 57.9072 69.4272 40.0896l122.0608-70.5024c30.8736-17.8176 30.8736-62.3616 0.0512-80.1792z" fill="#ffa115" /><path d="M363.4688 651.8272c-13.2096 0-26.4704-3.4816-38.5024-10.4448-24.1152-13.9264-38.5024-38.8608-38.5024-66.6624V433.7152c0-27.8528 14.3872-52.7872 38.5024-66.6624 24.1152-13.9264 52.8896-13.9264 77.0048 0l122.0608 70.5024c24.1152 13.9264 38.5024 38.8608 38.5024 66.6624 0 27.8528-14.3872 52.7872-38.5024 66.6624L401.92 641.3824a76.5952 76.5952 0 0 1-38.4512 10.4448zM363.52 418.0992c-3.584 0-6.4512 1.3312-7.8336 2.1504-2.3552 1.3312-7.7824 5.376-7.7824 13.4656v140.9536c0 8.0896 5.4272 12.1344 7.7824 13.4656 2.3552 1.3312 8.5504 4.0448 15.5648 0l122.0608-70.5024c7.0144-4.0448 7.7824-10.752 7.7824-13.4656 0-2.7136-0.768-9.4208-7.7824-13.4656L371.2 420.2496c-2.7136-1.5872-5.376-2.1504-7.68-2.1504z" fill="#474A54" /></svg>