<?xml version="1.0" standalone="no"?><!DOCTYPE svg PUBLIC "-//W3C//DTD SVG 1.1//EN" "http://www.w3.org/Graphics/SVG/1.1/DTD/svg11.dtd"><svg class="icon" width="48px" height="48.00px" viewBox="0 0 1024 1024" version="1.1" xmlns="http://www.w3.org/2000/svg"><path d="M832.6656 918.7328H196.1472c-74.3424 0-134.8608-60.5184-134.8608-134.8608V439.1936c0-74.3424 60.5184-134.8608 134.8608-134.8608h25.856c24.6784 0 47.5648-12.288 61.184-32.8704l39.0144-58.8288a134.49728 134.49728 0 0 1 112.384-60.3136h173.056c45.056 0 86.9376 22.3232 112.0256 59.7504l40.0384 59.7504c13.6704 20.3776 36.4544 32.512 60.9792 32.512h11.9808c74.3424 0 134.8608 60.5184 134.8608 134.8608v344.7296c0 74.3424-60.5184 134.8096-134.8608 134.8096z m-636.5184-552.96c-40.4992 0-73.4208 32.9216-73.4208 73.4208v344.7296c0 40.4992 32.9216 73.4208 73.4208 73.4208h636.5184c40.4992 0 73.4208-32.9216 73.4208-73.4208V439.1936c0-40.4992-32.9216-73.4208-73.4208-73.4208h-11.9808c-45.056 0-86.9376-22.3232-112.0256-59.7504l-40.0384-59.7504a73.27232 73.27232 0 0 0-60.9792-32.512h-173.056c-24.6784 0-47.5648 12.288-61.184 32.8192l-39.0144 58.8288a134.56896 134.56896 0 0 1-112.4352 60.3648h-25.8048z" fill="#474A54" /><path d="M514.4064 591.36m-128.9216 0a128.9216 128.9216 0 1 0 257.8432 0 128.9216 128.9216 0 1 0-257.8432 0Z" fill="#ffa115" /><path d="M514.4064 751.0528c-88.064 0-159.6416-71.6288-159.6416-159.6416s71.6288-159.6416 159.6416-159.6416c88.0128 0 159.6416 71.6288 159.6416 159.6416s-71.5776 159.6416-159.6416 159.6416z m0-257.8944c-54.1696 0-98.2016 44.0832-98.2016 98.2016s44.0832 98.2016 98.2016 98.2016 98.2016-44.0832 98.2016-98.2016-44.032-98.2016-98.2016-98.2016z" fill="#474A54" /></svg>