<?xml version="1.0" standalone="no"?><!DOCTYPE svg PUBLIC "-//W3C//DTD SVG 1.1//EN" "http://www.w3.org/Graphics/SVG/1.1/DTD/svg11.dtd"><svg class="icon" width="48px" height="48.00px" viewBox="0 0 1024 1024" version="1.1" xmlns="http://www.w3.org/2000/svg"><path d="M692.8896 900.1472H334.336c-44.1856 0-79.9744-35.7888-79.9744-79.9744v-170.1376h518.4512v170.1376c0 44.1856-35.7888 79.9744-79.9232 79.9744z" fill="#ffa115" /><path d="M971.9296 250.8288l-148.2752-148.2752a30.65344 30.65344 0 0 0-21.7088-9.0112h-84.9408c-10.2912 0-19.9168 5.1712-25.6 13.7728-39.424 59.5968-105.472 95.1296-176.7936 95.1296-71.2704 0-137.3696-35.584-176.7936-95.1296a30.6944 30.6944 0 0 0-25.6-13.7728h-81.408c-8.1408 0-15.9744 3.2256-21.7088 9.0112L60.7744 250.88c-32.7168 32.7168-32.7168 85.9648 0 118.6816l60.8768 60.8768c27.5968 27.5968 69.8368 31.9488 101.9904 12.9536v371.6096c0 63.8976 51.968 115.8656 115.8656 115.8656h350.1056c63.8976 0 115.8656-51.968 115.8656-115.8656V441.1904c13.568 9.0112 29.5424 13.824 46.1824 13.824 22.4256 0 43.52-8.7552 59.3408-24.576l60.8768-60.8768c32.768-32.7168 32.768-85.9648 0.0512-118.7328z m-43.4688 75.264l-60.8768 60.8768c-4.2496 4.2496-9.8816 6.6048-15.9232 6.6048-5.9904 0-11.6736-2.3552-15.9232-6.6048l-39.2704-39.2704a30.68928 30.68928 0 0 0-33.4848-6.656c-11.4688 4.7616-18.944 15.9744-18.944 28.3648v445.5936c0 30.0032-24.4224 54.4256-54.4256 54.4256H339.5072c-30.0032 0-54.4256-24.4224-54.4256-54.4256V375.4496c0-10.1888-5.0176-19.6608-13.4144-25.3952l-1.4848-1.024c-5.2736-3.584-11.264-5.3248-17.3056-5.3248-7.936 0-15.7696 3.072-21.7088 9.0112l-34.2528 34.2528c-8.7552 8.7552-23.04 8.7552-31.8464 0L104.2432 326.0928a22.528 22.528 0 0 1 0-31.7952l139.3152-139.264h52.7872c51.5584 68.5056 131.9936 108.9024 218.2656 108.9024s166.7072-40.3968 218.2656-108.9024h56.32l139.264 139.264a22.528 22.528 0 0 1 0 31.7952z" fill="#474A54" /><path d="M376.4224 481.4848c-16.9472 0-30.72 13.7728-30.72 30.72v247.9616c0 16.9472 13.7728 30.72 30.72 30.72s30.72-13.7728 30.72-30.72v-247.9616c0-16.9472-13.7216-30.72-30.72-30.72z" fill="#474A54" /></svg>