<?xml version="1.0" standalone="no"?><!DOCTYPE svg PUBLIC "-//W3C//DTD SVG 1.1//EN" "http://www.w3.org/Graphics/SVG/1.1/DTD/svg11.dtd"><svg class="icon" width="48px" height="48.00px" viewBox="0 0 1024 1024" version="1.1" xmlns="http://www.w3.org/2000/svg"><path d="M160.768 369.6128S274.3808 599.04 512 599.04s367.8208-212.1216 366.2848-256.9216c-16.7936 143.2064-56.7808 392.7552-362.3424 392.7552S158.2592 442.1632 160.768 369.6128z" fill="#ffa115" /><path d="M141.5168 757.2992c-16.9472-0.6656-31.2832 12.4928-31.9488 29.44s12.4928 31.2832 29.44 31.9488c171.0592 7.0656 235.1104 89.7024 238.0288 93.6448a30.73536 30.73536 0 0 0 42.752 6.8096 30.73024 30.73024 0 0 0 6.9632-42.9056c-3.2256-4.5056-81.8688-110.5408-285.2352-118.9376zM892.3136 757.2992c-203.3664 8.3968-282.0096 114.432-285.2352 118.9376a30.73024 30.73024 0 0 0 24.8832 48.6912c9.5232 0 18.944-4.4544 24.9344-12.7488 0.6144-0.8704 64.1024-86.3232 237.9264-93.44 16.9472-0.7168 30.1056-15.0016 29.44-31.9488s-15.0016-30.1568-31.9488-29.4912z" fill="#474A54" /><path d="M823.3472 622.6944c50.432-64.4608 102.4-151.6544 80.5376-371.8144-1.1264-28.2112-6.2976-67.3792-36.8128-86.528-33.536-21.0432-78.6432-6.0928-118.3232 11.3664-25.088 11.008-49.3056 20.7872-74.1376 29.952-5.632 2.0992-11.9296 0.256-15.6672-4.5056l-83.5584-106.6496a75.04896 75.04896 0 0 0-58.112-28.8768c-22.9376-0.4096-44.3392 9.5232-58.9824 27.0336L368.128 200.8064c-3.7376 4.4544-9.9328 6.144-15.4112 4.1472l-102.5024-37.1712c-10.5984-5.2736-48.8448-21.7088-83.3024-4.5056-16.3328 8.1408-37.0688 26.6752-43.3152 68.9152-0.0512 0.3072-0.1024 0.6144-0.1024 0.8704-1.1264 9.6256-26.5216 237.056 77.1584 368.7424l0.4608 0.6144c30.6688 39.0656 120.9856 153.856 284.0576 162.6624v166.5024c0 16.9472 13.7728 30.72 30.72 30.72s30.72-13.7728 30.72-30.72v-167.6288c157.44-11.9808 232.96-85.3504 276.736-141.2608zM249.4464 564.4288l-0.512-0.6144C162.9184 454.5536 183.296 251.2384 184.4736 240.64c1.792-11.8272 5.4784-20.1728 9.7792-22.3744 6.5536-3.328 21.4016 0.7168 28.928 4.7104 1.3824 0.7168 2.7648 1.3824 4.2496 1.8944l104.3456 37.8368c29.696 10.8032 63.2832 1.7408 83.5072-22.528l90.1632-108.032c3.6864-4.4544 8.448-4.864 10.8544-4.9664 2.4576 0.0512 7.168 0.768 10.7008 5.3248l83.5584 106.5984a74.99776 74.99776 0 0 0 85.2992 24.2176c25.9584-9.5744 51.3536-19.8144 77.568-31.3344 49.8688-21.9136 60.5184-15.8208 60.9792-15.5648 0.0512 0.0512 6.912 5.2224 8.0896 37.7344 0 0.6656 0.0512 1.28 0.1536 1.9456 19.8144 198.1952-22.5792 271.104-67.7376 328.7552-42.496 54.272-110.9504 116.8896-264.7552 119.3472-1.6384 0-3.2256 0.0512-4.864 0.0512-146.0224-0.0512-228.5056-105.0624-255.8464-139.8272z" fill="#474A54" /></svg>