<?xml version="1.0" standalone="no"?><!DOCTYPE svg PUBLIC "-//W3C//DTD SVG 1.1//EN" "http://www.w3.org/Graphics/SVG/1.1/DTD/svg11.dtd"><svg class="icon" width="48px" height="48.00px" viewBox="0 0 1024 1024" version="1.1" xmlns="http://www.w3.org/2000/svg"><path d="M290.7136 832.3584s98.7136-154.7264 331.6736-154.7264 331.4688 154.7264 331.4688 154.7264-23.296-320.5632-331.4688-320.5632-331.6736 320.5632-331.6736 320.5632z" fill="#ffa115" /><path d="M737.4848 499.968c47.872-35.3792 78.9504-92.16 78.9504-156.1088 0-107.008-87.04-194.048-194.048-194.048s-194.048 87.04-194.048 194.048c0 63.9488 31.1296 120.7808 78.9504 156.1088-143.5648 48.2304-247.3472 183.9616-247.3472 343.552 0 16.9472 13.7728 30.72 30.72 30.72s30.72-13.7728 30.72-30.72c0-165.9392 135.0144-300.9536 300.9536-300.9536s300.9536 135.0144 300.9536 300.9536c0 16.9472 13.7728 30.72 30.72 30.72s30.72-13.7728 30.72-30.72c0.1024-159.5904-103.68-295.3728-247.2448-343.552z m-115.0464-288.768c73.1136 0 132.608 59.4944 132.608 132.608s-59.4944 132.608-132.608 132.608-132.608-59.4944-132.608-132.608 59.4432-132.608 132.608-132.608z" fill="#474A54" /><path d="M310.3744 509.7472c32.9216-2.1504 65.28-15.7184 90.4192-40.8576a30.72 30.72 0 0 0 0-43.4176 30.72 30.72 0 0 0-43.4176 0c-30.976 30.976-81.408 30.976-112.384 0-30.976-30.976-30.976-81.408 0-112.384 12.4416-12.4416 28.2112-20.2752 45.6192-22.5792 24.7808-3.2768 49.1008 4.9152 66.7648 22.5792a30.72 30.72 0 0 0 43.4176 0 30.72 30.72 0 0 0 0-43.4176c-31.2832-31.2832-74.3936-45.8752-118.272-40.0384-30.8736 4.096-58.88 17.9712-80.9472 40.0384-54.9376 54.9376-54.9376 144.3328 0 199.2704 0.3072 0.3072 0.6144 0.5632 0.9216 0.8704C108.3392 507.136 41.5744 599.04 41.5744 706.304c0 16.9472 13.7728 30.72 30.72 30.72s30.72-13.7728 30.72-30.72c0-106.4448 86.5792-193.024 193.024-193.024 5.1712 0 10.0864-1.28 14.336-3.5328z" fill="#474A54" /></svg>