<?xml version="1.0" standalone="no"?><!DOCTYPE svg PUBLIC "-//W3C//DTD SVG 1.1//EN" "http://www.w3.org/Graphics/SVG/1.1/DTD/svg11.dtd"><svg class="icon" width="48px" height="48.00px" viewBox="0 0 1024 1024" version="1.1" xmlns="http://www.w3.org/2000/svg"><path d="M823.2448 887.296H224.1024c-55.2448 0-99.9936-44.7488-99.9936-99.9936v-181.4016h799.1808v181.4016c-0.0512 55.1936-44.8512 99.9936-100.0448 99.9936z" fill="#ffa115" /><path d="M813.0048 83.968H215.808c-73.4208 0-133.12 59.6992-133.12 133.12v583.4752c0 73.4208 59.6992 133.12 133.12 133.12h597.1968c73.4208 0 133.12-59.6992 133.12-133.12V217.088c0-73.3696-59.7504-133.12-133.12-133.12z m71.68 716.5952c0 39.5264-32.1536 71.68-71.68 71.68H215.808c-39.5264 0-71.68-32.1536-71.68-71.68V217.088c0-39.5264 32.1536-71.68 71.68-71.68h597.1968c39.5264 0 71.68 32.1536 71.68 71.68v583.4752z" fill="#474A54" /><path d="M728.1152 385.9456H358.6048l56.0128-68.4544a30.70976 30.70976 0 0 0-47.5136-38.912L270.0288 397.2096c-7.5264 9.1648-9.0624 21.8624-3.9936 32.6144s15.872 17.5616 27.7504 17.5616h434.3296c16.9472 0 30.72-13.7728 30.72-30.72s-13.7216-30.72-30.72-30.72zM728.1152 575.1808H293.7856c-16.9472 0-30.72 13.7728-30.72 30.72s13.7728 30.72 30.72 30.72h370.176l-56.832 70.6048a30.74048 30.74048 0 0 0 23.9104 50.0224c8.96 0 17.8688-3.9424 23.9616-11.4688l97.0752-120.576c7.424-9.216 8.9088-21.8624 3.7888-32.512-5.12-10.7008-15.9232-17.5104-27.7504-17.5104z" fill="#474A54" /></svg>