<?xml version="1.0" standalone="no"?><!DOCTYPE svg PUBLIC "-//W3C//DTD SVG 1.1//EN" "http://www.w3.org/Graphics/SVG/1.1/DTD/svg11.dtd"><svg class="icon" width="48px" height="48.00px" viewBox="0 0 1024 1024" version="1.1" xmlns="http://www.w3.org/2000/svg"><path d="M826.7264 901.0176H195.9936c-41.8816 0-75.8272-33.9456-75.8272-75.8272v-151.6544h782.3872v151.6544c0 41.8816-33.9456 75.8272-75.8272 75.8272z" fill="#ffa115" /><path d="M809.9328 943.0528H222.5664c-73.4208 0-133.12-59.6992-133.12-133.12V208.8448c0-73.4208 59.6992-133.12 133.12-133.12h587.3664c73.4208 0 133.12 59.6992 133.12 133.12v601.088c0 73.4208-59.6992 133.12-133.12 133.12zM222.5664 137.1648c-39.5264 0-71.68 32.1536-71.68 71.68v601.088c0 39.5264 32.1536 71.68 71.68 71.68h587.3664c39.5264 0 71.68-32.1536 71.68-71.68V208.8448c0-39.5264-32.1536-71.68-71.68-71.68H222.5664z" fill="#474A54" /><path d="M465.5104 653.824h-0.4096a50.88256 50.88256 0 0 1-36.5568-15.7184l-103.1168-107.4176c-11.7248-12.2368-11.3664-31.6928 0.8704-43.4176a30.67392 30.67392 0 0 1 43.4176 0.8704l95.8464 99.84 195.4816-197.2736c11.9296-12.032 31.3856-12.1344 43.4688-0.2048s12.1344 31.3856 0.2048 43.4688l-202.8544 204.6976a50.75456 50.75456 0 0 1-36.352 15.1552z" fill="#474A54" /></svg>