<?xml version="1.0" standalone="no"?><!DOCTYPE svg PUBLIC "-//W3C//DTD SVG 1.1//EN" "http://www.w3.org/Graphics/SVG/1.1/DTD/svg11.dtd"><svg class="icon" width="48px" height="48.00px" viewBox="0 0 1024 1024" version="1.1" xmlns="http://www.w3.org/2000/svg"><path d="M806.5024 81.0496H214.784c-73.4208 0-133.12 59.6992-133.12 133.12V805.888c0 73.4208 59.6992 133.12 133.12 133.12h591.7184c73.4208 0 133.12-59.6992 133.12-133.12V214.1696c0-73.4208-59.6992-133.12-133.12-133.12z m71.68 724.8384c0 39.5264-32.1536 71.68-71.68 71.68H214.784c-39.5264 0-71.68-32.1536-71.68-71.68V214.1696c0-39.5264 32.1536-71.68 71.68-71.68h591.7184c39.5264 0 71.68 32.1536 71.68 71.68V805.888z" fill="#474A54" /><path d="M710.5536 226.3552h-137.0624c-16.9472 0-30.72 13.7728-30.72 30.72s13.7728 30.72 30.72 30.72h137.0624c11.3152 0 20.48 9.1648 20.48 20.48v127.8976c0 16.9472 13.7728 30.72 30.72 30.72s30.72-13.7728 30.72-30.72V308.2752c0-45.1584-36.7616-81.92-81.92-81.92zM454.7584 727.9104H315.136c-11.3152 0-20.48-9.1648-20.48-20.48v-135.7312c0-16.9472-13.7728-30.72-30.72-30.72s-30.72 13.7728-30.72 30.72v135.7312c0 45.1584 36.7616 81.92 81.92 81.92h139.6736c16.9472 0 30.72-13.7728 30.72-30.72s-13.7728-30.72-30.7712-30.72z" fill="#474A54" /><path d="M623.8208 668.5184h-226.304c-25.0368 0-45.3632-20.3264-45.3632-45.3632v-226.304c0-25.0368 20.3264-45.3632 45.3632-45.3632h226.304c25.0368 0 45.3632 20.3264 45.3632 45.3632v226.304c0 25.088-20.3264 45.3632-45.3632 45.3632z" fill="#ffa115" /></svg>