<?xml version="1.0" standalone="no"?><!DOCTYPE svg PUBLIC "-//W3C//DTD SVG 1.1//EN" "http://www.w3.org/Graphics/SVG/1.1/DTD/svg11.dtd"><svg class="icon" width="48px" height="48.00px" viewBox="0 0 1024 1024" version="1.1" xmlns="http://www.w3.org/2000/svg"><path d="M517.12 596.3264m-145.1008 0a145.1008 145.1008 0 1 0 290.2016 0 145.1008 145.1008 0 1 0-290.2016 0Z" fill="#ffa115" /><path d="M517.12 420.5056c-96.9728 0-175.8208 78.8992-175.8208 175.8208 0 96.9728 78.8992 175.8208 175.8208 175.8208 96.9216 0 175.8208-78.8992 175.8208-175.8208 0-96.9728-78.848-175.8208-175.8208-175.8208z m0 290.2016c-63.0784 0-114.3808-51.3024-114.3808-114.3808S454.0416 481.9456 517.12 481.9456s114.3808 51.3024 114.3808 114.3808-51.3024 114.3808-114.3808 114.3808z" fill="#474A54" /><path d="M953.2416 86.3744c-9.728-16.6912-27.0848-26.6752-46.4384-26.6752H662.528c-24.0128 0-46.1312 13.056-57.7024 34.1504l-75.1616 136.7552c-4.1472-0.1536-8.3456-0.3072-12.544-0.3072-4.7616 0-9.472 0.1536-14.2336 0.3584L427.7248 93.8496a65.88416 65.88416 0 0 0-57.7024-34.1504H125.696c-19.3536 0-36.7104 9.984-46.4384 26.6752-9.728 16.6912-9.8304 36.7104-0.3072 53.5552l139.3664 245.2992C176.0256 444.928 151.04 517.7344 151.04 596.2752c0 201.8304 164.1984 366.0288 366.0288 366.0288 201.8304 0 366.0288-164.1984 366.0288-366.0288 0-79.1552-25.344-152.4224-68.1984-212.3776l138.5984-243.968c9.5744-16.7936 9.472-36.8128-0.256-53.5552zM370.0224 121.1392c1.5872 0 3.072 0.8704 3.84 2.304l63.5904 115.712c-0.3584 0.1024-0.7168 0.2048-1.1264 0.256a363.648 363.648 0 0 0-115.7632 48.384c-0.0512 0.0512-0.1024 0.0512-0.1536 0.1024a372.87424 372.87424 0 0 0-26.6752 18.7904c-2.304 1.792-4.5568 3.5328-6.8608 5.376-1.4848 1.2288-3.0208 2.4576-4.5056 3.6864-3.7888 3.1232-7.4752 6.3488-11.1104 9.6256-0.0512 0.0512-0.1024 0.1024-0.2048 0.1536-3.5328 3.2256-7.0144 6.4512-10.4448 9.8304L139.008 121.1392h231.0144zM517.12 900.9152c-167.936 0-304.5888-136.6528-304.5888-304.5888 0-73.0624 25.856-140.1856 68.9152-192.7168 0.768-0.9216 1.536-1.8432 2.3552-2.7648 2.4064-2.8672 4.8128-5.6832 7.3216-8.448 0.9216-0.9728 1.8432-1.9456 2.7136-2.9184 2.4064-2.56 4.7616-5.12 7.2704-7.6288 1.3824-1.3824 2.816-2.7648 4.2496-4.096 2.048-1.9456 4.0448-3.9424 6.144-5.8368 2.56-2.304 5.12-4.5568 7.7312-6.8096 1.024-0.8704 1.9968-1.7408 3.0208-2.6112 46.8992-38.9632 104.96-63.5904 165.9904-69.3248 9.5232-0.9216 19.1488-1.3824 28.8768-1.3824 9.216 0 18.3296 0.4608 27.3408 1.28h0.0512c61.2864 5.4784 119.6032 29.8496 166.7584 68.8128 0.256 0.2048 0.512 0.4608 0.768 0.6656a269.66528 269.66528 0 0 1 19.6096 17.8688c0.256 0.256 0.512 0.512 0.8192 0.768 6.7584 6.7584 13.2096 13.824 19.3024 21.1968 0.1536 0.1536 0.256 0.3072 0.4096 0.4608 43.4176 52.6336 69.5808 120.1152 69.5808 193.536-0.0512 167.8848-136.704 304.5376-304.64 304.5376z m255.3856-566.6816c-6.8608-6.656-13.9776-13.0048-21.3504-19.0976-1.28-1.024-2.56-2.048-3.7888-3.1232-2.5088-1.9968-5.0176-3.9936-7.5776-5.9392-1.9968-1.536-3.9936-3.072-6.0416-4.5568-0.768-0.5632-1.5872-1.1264-2.3552-1.6896a364.07296 364.07296 0 0 0-136.1408-61.0816l63.3856-115.3536c0.768-1.4336 2.2528-2.304 3.8912-2.304h231.0144l-121.0368 213.1456z" fill="#474A54" /></svg>