<?xml version="1.0" standalone="no"?><!DOCTYPE svg PUBLIC "-//W3C//DTD SVG 1.1//EN" "http://www.w3.org/Graphics/SVG/1.1/DTD/svg11.dtd"><svg class="icon" width="48px" height="48.00px" viewBox="0 0 1024 1024" version="1.1" xmlns="http://www.w3.org/2000/svg"><path d="M522.24 414.72m-101.9392 0a101.9392 101.9392 0 1 0 203.8784 0 101.9392 101.9392 0 1 0-203.8784 0Z" fill="#ffa115" /><path d="M834.2528 170.0352c-49.8688-6.0416-177.152-28.1088-282.112-102.2464-21.504-15.2064-49.8688-14.4384-70.6048 1.8944C381.7472 148.3776 252.928 166.656 202.1888 170.8544 172.0832 173.3632 148.48 199.0144 148.48 229.2736v390.8096c0 134.4 238.5408 278.9888 341.0944 334.9504 8.7552 4.7616 18.3808 7.1168 28.0576 7.1168 9.0624 0 18.1248-2.0992 26.4192-6.2976 102.7584-51.968 341.7088-188.7232 341.7088-335.7696V228.1984c0-29.5936-22.1184-54.6304-51.5072-58.1632z m-9.9328 450.048c0 92.1088-164.864 208.3328-306.6368 280.2688C364.288 816.5376 209.92 697.5488 209.92 620.0832V231.8848c57.8048-5.0688 197.3248-26.0608 308.3264-112.896 114.2784 80.128 250.1632 104.704 306.0736 111.7184v389.376z" fill="#474A54" /><path d="M389.5808 414.72c0 62.5664 43.5712 115.1488 101.9904 129.0752v196.4544c0 16.9472 13.7728 30.72 30.72 30.72s30.72-13.7728 30.72-30.72V652.288h60.4672c16.9472 0 30.72-13.7728 30.72-30.72s-13.7728-30.72-30.72-30.72H552.96v-47.104c58.4192-13.8752 101.9904-66.4576 101.9904-129.0752 0-73.1648-59.5456-132.7104-132.7104-132.7104S389.5808 341.5552 389.5808 414.72zM522.24 343.5008c39.2704 0 71.2704 31.9488 71.2704 71.2704 0 39.2704-31.9488 71.2192-71.2704 71.2192S451.0208 453.9904 451.0208 414.72 482.9696 343.5008 522.24 343.5008z" fill="#474A54" /></svg>