<?xml version="1.0" standalone="no"?><!DOCTYPE svg PUBLIC "-//W3C//DTD SVG 1.1//EN" "http://www.w3.org/Graphics/SVG/1.1/DTD/svg11.dtd"><svg class="icon" width="48px" height="48.00px" viewBox="0 0 1024 1024" version="1.1" xmlns="http://www.w3.org/2000/svg"><path d="M767.1296 897.536H269.9264c-94.4128 0-170.9056-76.544-170.9056-170.9056v-96.2048h839.0656v96.2048c-0.0512 94.3616-76.5952 170.9056-170.9568 170.9056z" fill="#ffa115" /><path d="M758.3232 170.2912c-16.9472 0-30.72 13.7728-30.72 30.72s13.7728 30.72 30.72 30.72c131.2768 0 148.992 54.6304 148.992 108.032v42.2912H123.136v-42.2912c0-53.4016 17.7152-108.032 148.992-108.032 16.9472 0 30.72-13.7728 30.72-30.72s-13.7728-30.72-30.72-30.72c-173.9264 0-210.432 92.16-210.432 169.472v431.9232c0 86.3232 70.2464 156.5696 156.5696 156.5696h595.9168c85.248 0 154.5728-69.3248 154.5728-154.5728V339.7632c0-77.312-36.5056-169.472-210.432-169.472z m55.8592 696.5248H218.2656c-52.48 0-95.1296-42.7008-95.1296-95.1296v-328.192h784.1792v330.1888c0 51.3536-41.7792 93.1328-93.1328 93.1328z" fill="#474A54" /><path d="M422.2464 231.7312h187.904c16.9472 0 30.72-13.7728 30.72-30.72s-13.7728-30.72-30.72-30.72h-187.904c-16.9472 0-30.72 13.7728-30.72 30.72s13.7216 30.72 30.72 30.72zM687.0528 318.1056c16.9472 0 30.72-13.7728 30.72-30.72V126.464c0-16.9472-13.7728-30.72-30.72-30.72s-30.72 13.7728-30.72 30.72v160.9216c0 16.9984 13.7216 30.72 30.72 30.72zM344.7296 318.1056c16.9472 0 30.72-13.7728 30.72-30.72V126.464c0-16.9472-13.7728-30.72-30.72-30.72s-30.72 13.7728-30.72 30.72v160.9216c0 16.9984 13.7216 30.72 30.72 30.72zM346.112 526.2848H211.8144c-16.9472 0-30.72 13.7728-30.72 30.72s13.7728 30.72 30.72 30.72H346.112c16.9472 0 30.72-13.7728 30.72-30.72s-13.7728-30.72-30.72-30.72zM581.376 526.2848H447.0272c-16.9472 0-30.72 13.7728-30.72 30.72s13.7728 30.72 30.72 30.72h134.2976c16.9472 0 30.72-13.7728 30.72-30.72s-13.7216-30.72-30.6688-30.72zM346.112 676.608H211.8144c-16.9472 0-30.72 13.7728-30.72 30.72s13.7728 30.72 30.72 30.72H346.112c16.9472 0 30.72-13.7728 30.72-30.72s-13.7728-30.72-30.72-30.72zM581.376 676.608H447.0272c-16.9472 0-30.72 13.7728-30.72 30.72s13.7728 30.72 30.72 30.72h134.2976c16.9472 0 30.72-13.7728 30.72-30.72s-13.7216-30.72-30.6688-30.72zM818.9952 526.2848h-134.2976c-16.9472 0-30.72 13.7728-30.72 30.72s13.7728 30.72 30.72 30.72h134.2976c16.9472 0 30.72-13.7728 30.72-30.72s-13.7728-30.72-30.72-30.72z" fill="#474A54" /></svg>