<?xml version="1.0" standalone="no"?><!DOCTYPE svg PUBLIC "-//W3C//DTD SVG 1.1//EN" "http://www.w3.org/Graphics/SVG/1.1/DTD/svg11.dtd"><svg class="icon" width="48px" height="48.00px" viewBox="0 0 1024 1024" version="1.1" xmlns="http://www.w3.org/2000/svg"><path d="M774.1952 647.424H250.8288c-27.2896 0-49.4592-22.1184-49.4592-49.4592V438.4768c0-27.2896 22.1184-49.4592 49.4592-49.4592h523.3664c27.2896 0 49.4592 22.1184 49.4592 49.4592v159.488c0 27.2896-22.1696 49.4592-49.4592 49.4592z" fill="#ffa115" /><path d="M121.3952 419.7376c-16.9472 0-30.72-13.7728-30.72-30.72v-162.304c0-75.264 61.2352-136.4992 136.4992-136.4992h170.752c16.9472 0 30.72 13.7728 30.72 30.72s-13.7728 30.72-30.72 30.72H227.1232c-41.3696 0-75.0592 33.6384-75.0592 75.0592v162.3552c0.0512 16.9472-13.7216 30.6688-30.6688 30.6688zM904.5504 419.7376c-16.9472 0-30.72-13.7728-30.72-30.72v-162.304c0-41.3696-33.6384-75.0592-75.0592-75.0592h-170.752c-16.9472 0-30.72-13.7728-30.72-30.72s13.7728-30.72 30.72-30.72h170.752c75.264 0 136.4992 61.2352 136.4992 136.4992v162.3552a30.6688 30.6688 0 0 1-30.72 30.6688zM397.8752 920.2688H227.1232c-75.264 0-136.4992-61.2352-136.4992-136.448v-162.3552c0-16.9472 13.7728-30.72 30.72-30.72s30.72 13.7728 30.72 30.72v162.3552c0 41.3696 33.6384 75.008 75.0592 75.008h170.752c16.9472 0 30.72 13.7728 30.72 30.72s-13.7216 30.72-30.72 30.72zM798.8224 920.2688h-170.752c-16.9472 0-30.72-13.7728-30.72-30.72s13.7728-30.72 30.72-30.72h170.752c41.3696 0 75.0592-33.6384 75.0592-75.008v-162.3552c0-16.9472 13.7728-30.72 30.72-30.72s30.72 13.7728 30.72 30.72v162.3552c-0.0512 75.2128-61.2352 136.448-136.4992 136.448zM761.1904 542.464h-495.104c-16.9472 0-30.72-13.7728-30.72-30.72s13.7728-30.72 30.72-30.72h495.104c16.9472 0 30.72 13.7728 30.72 30.72s-13.7728 30.72-30.72 30.72z" fill="#474A54" /></svg>