<?xml version="1.0" standalone="no"?><!DOCTYPE svg PUBLIC "-//W3C//DTD SVG 1.1//EN" "http://www.w3.org/Graphics/SVG/1.1/DTD/svg11.dtd"><svg class="icon" width="48px" height="48.00px" viewBox="0 0 1024 1024" version="1.1" xmlns="http://www.w3.org/2000/svg"><path d="M312.1152 370.688l438.3232-98.4576-162.6112 167.2192v451.072l-56.5248 31.5904-165.1712-102.144 3.3792-383.232z" fill="#ffa115" /><path d="M538.88 952.9344c-14.2336 0-28.4672-3.9936-41.2672-11.9808l-120.32-75.008c-23.04-14.336-36.7616-39.1168-36.7616-66.2528V449.4336c0-4.4544-1.7408-8.6016-4.864-11.776L121.856 223.8464a77.92128 77.92128 0 0 1-16.9472-85.0944c12.1344-29.2864 40.448-48.1792 72.1408-48.1792h634.0096c32.768 0 61.44 19.8144 73.0624 50.4832 11.5712 30.6688 3.1744 64.512-21.4016 86.1696l-240.0256 211.5072c-3.584 3.1744-5.632 7.68-5.632 12.4928v423.4752c0 28.7744-15.0016 54.3232-40.192 68.2496-11.9808 6.656-24.9856 9.984-37.9904 9.984zM177.1008 152.0128c-10.0352 0-14.08 7.168-15.36 10.2912-1.28 3.072-3.4816 11.0592 3.584 18.1248L379.136 394.24c14.7456 14.7456 22.8864 34.3552 22.8864 55.1936v350.2592c0 5.7856 2.9184 11.0592 7.8336 14.1312l120.32 75.008c7.5264 4.6592 14.2848 1.8432 16.896 0.4096 2.56-1.4336 8.5504-5.7344 8.5504-14.5408V451.2256c0-22.4256 9.6256-43.776 26.4704-58.5728l240.0256-211.5072c7.7824-6.8608 5.7856-15.1552 4.5568-18.3808-1.2288-3.2256-5.1712-10.752-15.5648-10.752H177.1008z" fill="#474A54" /><path d="M872.0384 594.5856h-166.4c-16.9472 0-30.72-13.7728-30.72-30.72s13.7728-30.72 30.72-30.72h166.4c16.9472 0 30.72 13.7728 30.72 30.72s-13.7728 30.72-30.72 30.72zM872.0384 713.8816h-166.4c-16.9472 0-30.72-13.7728-30.72-30.72s13.7728-30.72 30.72-30.72h166.4c16.9472 0 30.72 13.7728 30.72 30.72s-13.7728 30.72-30.72 30.72zM872.0384 833.1264h-166.4c-16.9472 0-30.72-13.7728-30.72-30.72s13.7728-30.72 30.72-30.72h166.4c16.9472 0 30.72 13.7728 30.72 30.72s-13.7728 30.72-30.72 30.72z" fill="#474A54" /></svg>