<?xml version="1.0" standalone="no"?><!DOCTYPE svg PUBLIC "-//W3C//DTD SVG 1.1//EN" "http://www.w3.org/Graphics/SVG/1.1/DTD/svg11.dtd"><svg class="icon" width="48px" height="48.00px" viewBox="0 0 1024 1024" version="1.1" xmlns="http://www.w3.org/2000/svg"><path d="M507.4944 292.9664m-198.5536 0a198.5536 198.5536 0 1 0 397.1072 0 198.5536 198.5536 0 1 0-397.1072 0Z" fill="#ffa115" /><path d="M627.6096 902.9632H177.7152c-21.248 0-38.5024-17.2544-38.5024-38.5024v-21.4528c0-176.8448 143.872-320.768 320.768-320.768h95.0784c42.1888 0 83.2 8.0384 121.856 23.9616 15.7184 6.4512 33.6384-1.024 40.0896-16.7424 6.4512-15.7184-1.024-33.6384-16.7424-40.0896a380.67712 380.67712 0 0 0-50.6368-16.7424c52.992-42.0352 87.0912-106.9056 87.0912-179.6608 0-126.4128-102.8608-229.2736-229.2736-229.2736S278.272 166.5536 278.272 292.9664c0 72.7552 34.0992 137.6768 87.1424 179.6608-165.1712 42.1888-287.6416 192.2048-287.6416 370.3296v21.4528c0 55.0912 44.8512 99.9424 99.9424 99.9424h449.9456c16.9472 0 30.72-13.7728 30.72-30.72s-13.7728-30.6688-30.7712-30.6688zM339.712 292.9664c0-92.5184 75.264-167.8336 167.8336-167.8336s167.8336 75.264 167.8336 167.8336S600.064 460.8 507.4944 460.8 339.712 385.536 339.712 292.9664z" fill="#474A54" /><path d="M930.2528 766.0544h-254.1568c-16.9472 0-30.72 13.7728-30.72 30.72s13.7728 30.72 30.72 30.72h254.1568c16.9472 0 30.72-13.7728 30.72-30.72s-13.7728-30.72-30.72-30.72z" fill="#474A54" /></svg>