<?xml version="1.0" standalone="no"?><!DOCTYPE svg PUBLIC "-//W3C//DTD SVG 1.1//EN" "http://www.w3.org/Graphics/SVG/1.1/DTD/svg11.dtd"><svg class="icon" width="48px" height="48.00px" viewBox="0 0 1024 1024" version="1.1" xmlns="http://www.w3.org/2000/svg"><path d="M169.3696 664.2688c4.5056 0 158.3104 116.0704 343.7568 0s333.2096 5.6832 333.2096 50.944v144.384s3.0208 90.624-114.5856 90.624H259.84s-87.4496-2.816-87.4496-103.3216-3.0208-182.6304-3.0208-182.6304z" fill="#ffa115" /><path d="M948.736 283.6992h-143.36c-5.6832-25.856-17.7664-66.3552-42.3936-106.9568-37.7856-62.3104-112.64-136.5504-254.976-136.5504-142.6432 0-215.808 74.5472-252.0576 137.0624-23.3984 40.3456-34.4064 80.5376-39.4752 106.4448H73.6768c-16.9472 0-30.72 13.7728-30.72 30.72s13.7728 30.72 30.72 30.72h66.9696v510.2592c0 72.8064 56.832 131.9936 126.6688 131.9936h487.8336c69.8368 0 126.6688-59.2384 126.6688-131.9936V345.1392h66.9696c16.9472 0 30.72-13.7728 30.72-30.72-0.0512-16.9472-13.824-30.72-30.7712-30.72zM309.0432 208.0768c40.96-70.656 107.8784-106.4448 198.912-106.4448 165.5296 0 218.3168 121.2416 234.3936 182.1184H279.2448c4.864-20.48 13.7728-48.0768 29.7984-75.6736z m511.2832 647.3216c0 38.912-29.2352 70.5536-65.2288 70.5536H267.264c-35.9424 0-65.2288-31.6416-65.2288-70.5536V345.1392H820.3264v510.2592z" fill="#474A54" /><path d="M376.8832 466.8928c-16.9472 0-30.72 13.7728-30.72 30.72v280.1664c0 16.9472 13.7728 30.72 30.72 30.72s30.72-13.7728 30.72-30.72V497.6128c0-16.9472-13.7728-30.72-30.72-30.72zM515.8912 466.8928c-16.9472 0-30.72 13.7728-30.72 30.72v280.1664c0 16.9472 13.7728 30.72 30.72 30.72s30.72-13.7728 30.72-30.72V497.6128c0-16.9472-13.7728-30.72-30.72-30.72zM654.8992 466.8928c-16.9472 0-30.72 13.7728-30.72 30.72v280.1664c0 16.9472 13.7728 30.72 30.72 30.72s30.72-13.7728 30.72-30.72V497.6128c0-16.9472-13.7728-30.72-30.72-30.72z" fill="#474A54" /></svg>