<?xml version="1.0" standalone="no"?><!DOCTYPE svg PUBLIC "-//W3C//DTD SVG 1.1//EN" "http://www.w3.org/Graphics/SVG/1.1/DTD/svg11.dtd"><svg class="icon" width="48px" height="48.00px" viewBox="0 0 1024 1024" version="1.1" xmlns="http://www.w3.org/2000/svg"><path d="M113.92 512s185.8048 95.8464 341.4528 13.5168 323.3792-13.568 338.5344 41.2672c-19.2512 72.3968-85.248 262.0928-339.968 262.0928S105.1136 631.808 113.92 512z" fill="#ffa115" /><path d="M839.68 350.6688h-12.1856V289.0752c0-16.9472-13.7728-30.72-30.72-30.72H113.92c-16.9472 0-30.72 13.7728-30.72 30.72v236.032c0 184.4224 150.016 334.4384 334.4384 334.4384H493.056c149.5552 0 276.48-98.6624 319.1296-234.2912H839.68c75.6736 0 137.2672-61.5936 137.2672-137.2672S915.4048 350.6688 839.68 350.6688z m-346.624 447.4368H417.6384c-150.528 0-272.9984-122.4704-272.9984-272.9984v-205.312h621.4144v205.3632c0 5.0688-0.1536 10.1376-0.4608 15.1552-0.0512 0.8192-0.1536 1.6384-0.2048 2.4576-0.3072 4.352-0.6656 8.704-1.1264 13.056-0.0512 0.6656-0.1536 1.3312-0.256 1.9456-0.5632 4.5568-1.1776 9.0624-1.9968 13.6192-0.1024 0.512-0.2048 1.024-0.256 1.536-0.8192 4.608-1.7408 9.1648-2.816 13.7216-27.9552 120.9856-136.4992 211.456-265.8816 211.456z m346.624-234.2912h-14.4896c0.0512-0.3584 0.0512-0.6656 0.1024-1.024 0.5632-5.12 1.024-10.2912 1.3824-15.5136 0.1024-1.1776 0.2048-2.3552 0.256-3.4816 0.3584-6.1952 0.5632-12.3904 0.5632-18.6368V412.1088H839.68c41.8304 0 75.8272 34.048 75.8272 75.8272s-33.9968 75.8784-75.8272 75.8784zM765.5424 944.128H133.4272c-16.9472 0-30.72-13.7728-30.72-30.72s13.7728-30.72 30.72-30.72h632.1152c16.9472 0 30.72 13.7728 30.72 30.72s-13.7728 30.72-30.72 30.72zM449.4848 212.7872c-16.9472 0-30.72-13.7728-30.72-30.72v-98.816c0-16.9472 13.7728-30.72 30.72-30.72s30.72 13.7728 30.72 30.72v98.8672c0 16.9472-13.7728 30.6688-30.72 30.6688zM303.8208 212.7872c-16.9472 0-30.72-13.7728-30.72-30.72v-98.816c0-16.9472 13.7728-30.72 30.72-30.72s30.72 13.7728 30.72 30.72v98.8672c0 16.9472-13.7728 30.6688-30.72 30.6688zM589.9776 212.7872c-16.9472 0-30.72-13.7728-30.72-30.72v-98.816c0-16.9472 13.7728-30.72 30.72-30.72s30.72 13.7728 30.72 30.72v98.8672c0 16.9472-13.7728 30.6688-30.72 30.6688z" fill="#474A54" /></svg>