<?xml version="1.0" standalone="no"?><!DOCTYPE svg PUBLIC "-//W3C//DTD SVG 1.1//EN" "http://www.w3.org/Graphics/SVG/1.1/DTD/svg11.dtd"><svg class="icon" width="48px" height="48.00px" viewBox="0 0 1024 1024" version="1.1" xmlns="http://www.w3.org/2000/svg"><path d="M518.8096 432.896m-134.656 0a134.656 134.656 0 1 0 269.312 0 134.656 134.656 0 1 0-269.312 0Z" fill="#ffa115" /><path d="M684.1344 432.896c0-91.1872-74.1888-165.376-165.376-165.376s-165.376 74.1888-165.376 165.376 74.1888 165.376 165.376 165.376 165.376-74.1888 165.376-165.376z m-269.2608 0c0-57.2928 46.6432-103.936 103.936-103.936s103.936 46.6432 103.936 103.936-46.6432 103.936-103.936 103.936-103.936-46.592-103.936-103.936z" fill="#474A54" /><path d="M888.7296 432.896c0-203.9808-165.9392-369.92-369.9712-369.92S148.8384 228.9152 148.8384 432.896c0 193.6384 149.5552 352.8704 339.2 368.5888v92.672H326.6048c-16.9472 0-30.72 13.7728-30.72 30.72s13.7728 30.72 30.72 30.72h380.416c16.9472 0 30.72-13.7728 30.72-30.72s-13.7728-30.72-30.72-30.72h-157.5424v-92.672c189.696-15.6672 339.2512-174.9504 339.2512-368.5888z m-678.4512 0c0-170.0864 138.3936-308.48 308.48-308.48 170.1376 0 308.5312 138.3936 308.5312 308.48 0 170.1376-138.3936 308.5312-308.5312 308.5312-170.0864 0-308.48-138.3936-308.48-308.5312z" fill="#474A54" /></svg>