<?xml version="1.0" standalone="no"?><!DOCTYPE svg PUBLIC "-//W3C//DTD SVG 1.1//EN" "http://www.w3.org/Graphics/SVG/1.1/DTD/svg11.dtd"><svg class="icon" width="48px" height="48.00px" viewBox="0 0 1024 1024" version="1.1" xmlns="http://www.w3.org/2000/svg"><path d="M111.1552 810.4448l260.7104-241.3568a28.38528 28.38528 0 0 1 39.936 1.28l114.9952 120.8832c11.1616 11.7248 29.8496 11.776 41.1136 0.1536l119.0912-123.4432c9.8816-10.24 25.856-11.6224 37.3248-3.1744l172.1344 126.464v139.2128s-0.9728 74.496-130.8672 74.496h-583.68s-70.7584-20.3264-70.7584-94.5152z" fill="#ffa115" /><path d="M810.4448 80.4352H213.5552c-73.4208 0-133.12 59.6992-133.12 133.12v195.6864c0 16.9472 13.7728 30.72 30.72 30.72s30.72-13.7728 30.72-30.72V213.5552c0-39.5264 32.1536-71.68 71.68-71.68H810.496c39.5264 0 71.68 32.1536 71.68 71.68V810.496c0 39.5264-32.1536 71.68-71.68 71.68H213.5552c-39.5264 0-71.68-32.1536-71.68-71.68v-113.4592c0-16.9472-13.7728-30.72-30.72-30.72s-30.72 13.7728-30.72 30.72v113.4592c0 73.4208 59.6992 133.12 133.12 133.12H810.496c73.4208 0 133.12-59.6992 133.12-133.12V213.5552c-0.0512-73.4208-59.7504-133.12-133.1712-133.12z" fill="#474A54" /><path d="M430.1824 393.728a30.78144 30.78144 0 0 0-22.0672-10.0864c-8.448-0.2048-16.5888 3.072-22.528 9.0624l-210.7392 212.4288a30.77632 30.77632 0 0 0 0.1536 43.4688 30.6688 30.6688 0 0 0 21.6576 8.9088c7.8848 0 15.8208-3.0208 21.8112-9.0624l187.904-189.44 110.1312 121.6a30.72512 30.72512 0 0 0 22.2208 10.0864c8.3456 0.256 16.64-3.2256 22.5792-9.3184l173.3632-178.7392v81.9712c0 16.9472 13.7728 30.72 30.72 30.72s30.72-13.7728 30.72-30.72V332.1344c0-16.9472-13.7728-30.72-30.72-30.72h-166.1952c-16.9472 0-30.72 13.7728-30.72 30.72s13.7728 30.72 30.72 30.72h88.4224l-147.6096 152.2176-109.824-121.344z" fill="#474A54" /></svg>