<?xml version="1.0" standalone="no"?><!DOCTYPE svg PUBLIC "-//W3C//DTD SVG 1.1//EN" "http://www.w3.org/Graphics/SVG/1.1/DTD/svg11.dtd"><svg class="icon" width="48px" height="48.00px" viewBox="0 0 1024 1024" version="1.1" xmlns="http://www.w3.org/2000/svg"><path d="M290.4064 99.328h455.168c39.0144 0 74.5984 22.1696 91.8528 57.1392l83.0464 168.5504c1.1776 2.3552-0.5632 5.12-3.1744 5.12H117.4528c-2.6624 0-4.352-2.7648-3.1744-5.1712l84.5312-169.0624A102.4256 102.4256 0 0 1 290.4064 99.328z" fill="#ffa115" /><path d="M950.8864 320.1536c-0.5632-2.9696-1.536-5.888-2.9184-8.704l-83.0464-168.5504c-22.5792-45.824-68.352-74.2912-119.3984-74.2912h-455.168c-50.7392 0-96.3584 28.2112-119.04 73.5744L86.784 311.296c-1.4336 2.8672-2.4064 5.8368-2.9696 8.8576a34.1504 34.1504 0 0 0-2.816 13.5168v476.2112c0 73.4208 59.6992 133.12 133.12 133.12h606.464c73.4208 0 133.12-59.6992 133.12-133.12v-476.16c0-4.8128-1.024-9.3696-2.816-13.568zM226.2528 169.6768c12.2368-24.4224 36.8128-39.6288 64.1024-39.6288h455.168c27.4944 0 52.1216 15.3088 64.3072 39.9872l63.744 129.3824H161.3824l64.8704-129.7408z m666.0096 640.2048c0 39.5264-32.1536 71.68-71.68 71.68H214.1184c-39.5264 0-71.68-32.1536-71.68-71.68v-449.024h749.824v449.024z" fill="#474A54" /><path d="M363.2128 605.9008h217.2928c33.2288 0 60.2624 27.0336 60.2624 60.2624 0 33.2288-27.0336 60.2624-60.2624 60.2624H366.08c-16.9472 0-30.72 13.7728-30.72 30.72s13.7728 30.72 30.72 30.72h214.4256c67.1232 0 121.7024-54.5792 121.7024-121.7024s-54.5792-121.7024-121.7024-121.7024H434.8928L471.04 506.4704c11.7248-12.288 11.2128-31.744-1.0752-43.4176s-31.744-11.2128-43.4176 1.0752L340.992 554.0352c-8.448 8.9088-10.8032 21.9648-5.9904 33.28s15.9232 18.5856 28.2112 18.5856z" fill="#474A54" /></svg>