<?xml version="1.0" standalone="no"?><!DOCTYPE svg PUBLIC "-//W3C//DTD SVG 1.1//EN" "http://www.w3.org/Graphics/SVG/1.1/DTD/svg11.dtd"><svg class="icon" width="48px" height="48.00px" viewBox="0 0 1024 1024" version="1.1" xmlns="http://www.w3.org/2000/svg"><path d="M222.3616 519.3216m-149.7088 0a149.7088 149.7088 0 1 0 299.4176 0 149.7088 149.7088 0 1 0-299.4176 0Z" fill="#ffa115" /><path d="M793.6512 617.0112c-76.7488 0-142.3872 48.1792-168.3968 115.8144-156.416-99.072-213.4528-135.0656-234.6496-148.3776a178.9952 178.9952 0 0 0 12.2368-65.1776c0-20.2752-3.4304-39.7824-9.6256-58.0096l252.8256-131.2256c32.6656 46.4896 86.6816 76.9536 147.6608 76.9536 99.4816 0 180.4288-80.9472 180.4288-180.4288S893.1328 46.1824 793.6512 46.1824s-180.4288 80.9472-180.4288 180.4288c0 16.5888 2.304 32.6144 6.5024 47.872l-256 132.864c-33.0752-41.6768-84.1216-68.5056-141.3632-68.5056C122.88 338.8928 41.9328 419.7888 41.9328 519.3216S122.88 699.6992 222.3616 699.6992c54.528 0 103.424-24.32 136.4992-62.6688 37.8368 23.808 164.7616 104.1408 254.3616 160.9216 0.3072 99.2256 81.1008 179.8656 180.4288 179.8656 99.4816 0 180.4288-80.9472 180.4288-180.4288s-80.9472-180.3776-180.4288-180.3776z m0-509.3888c65.5872 0 118.9888 53.3504 118.9888 118.9888 0 65.5872-53.3504 118.9888-118.9888 118.9888-65.5872 0-118.9888-53.3504-118.9888-118.9888 0-65.5872 53.3504-118.9888 118.9888-118.9888zM222.3616 638.2592c-65.5872 0-118.9888-53.3504-118.9888-118.9888 0-65.5872 53.3504-118.9888 118.9888-118.9888 65.5872 0 118.9888 53.3504 118.9888 118.9888 0 65.6384-53.4016 118.9888-118.9888 118.9888z m571.2896 278.1696c-65.5872 0-118.9888-53.3504-118.9888-118.9888 0-65.5872 53.3504-118.9888 118.9888-118.9888 65.5872 0 118.9888 53.3504 118.9888 118.9888 0 65.6384-53.4016 118.9888-118.9888 118.9888z" fill="#474A54" /></svg>