<?xml version="1.0" standalone="no"?><!DOCTYPE svg PUBLIC "-//W3C//DTD SVG 1.1//EN" "http://www.w3.org/Graphics/SVG/1.1/DTD/svg11.dtd"><svg class="icon" width="48px" height="48.00px" viewBox="0 0 1024 1024" version="1.1" xmlns="http://www.w3.org/2000/svg"><path d="M775.7824 948.6336H294.7072c-49.408 0-89.4976-40.0896-89.4976-89.4976v-103.2192H865.28v103.2192c0 49.408-40.0896 89.4976-89.4976 89.4976z" fill="#ffa115" /><path d="M591.5136 829.7472H477.1328c-16.9472 0-30.72 13.7728-30.72 30.72s13.7728 30.72 30.72 30.72h114.3808c16.9472 0 30.72-13.7728 30.72-30.72s-13.7216-30.72-30.72-30.72z" fill="#474A54" /><path d="M767.8976 44.6464H300.8c-73.4208 0-133.12 59.6992-133.12 133.12v668.416c0 73.4208 59.6992 133.12 133.12 133.12h467.0976c73.4208 0 133.12-59.6992 133.12-133.12V177.7664c0-73.3696-59.6992-133.12-133.12-133.12z m-467.0976 61.44h467.0976c39.5264 0 71.68 32.1536 71.68 71.68v547.4304H229.12V177.7664c0-39.5264 32.1536-71.68 71.68-71.68z m467.0976 811.8272H300.8c-39.5264 0-71.68-32.1536-71.68-71.68v-59.5968h610.4576v59.5968c0 39.5264-32.1536 71.68-71.68 71.68z" fill="#474A54" /></svg>