<?xml version="1.0" standalone="no"?><!DOCTYPE svg PUBLIC "-//W3C//DTD SVG 1.1//EN" "http://www.w3.org/Graphics/SVG/1.1/DTD/svg11.dtd"><svg class="icon" width="48px" height="48.00px" viewBox="0 0 1024 1024" version="1.1" xmlns="http://www.w3.org/2000/svg"><path d="M988.5696 388.864l-403.0464-300.032c-38.6048-28.7232-90.624-28.928-129.4336-0.512L45.8752 388.7616a30.7968 30.7968 0 0 0-6.656 42.9568c5.9904 8.192 15.36 12.5952 24.832 12.5952 6.2976 0 12.6464-1.9456 18.1248-5.9392l45.3632-33.1776v426.5472c0 67.4816 50.5344 122.4192 112.64 122.4192H783.872c62.1056 0 112.64-54.9376 112.64-122.4192V396.9536l55.3984 41.216a30.73024 30.73024 0 0 0 43.008-6.2976 30.78656 30.78656 0 0 0-6.3488-43.008z m-153.4976-33.7408v476.5184c0 33.6384-22.9888 60.9792-51.2 60.9792H240.128c-28.2112 0-51.2-27.3408-51.2-60.9792v-471.552l303.4624-222.208c16.896-12.3904 39.5776-12.288 56.4224 0.2048l286.464 213.248c-0.1024 1.28-0.2048 2.5088-0.2048 3.7888z" fill="#474A54" /><path d="M517.12 609.5872m-108.6464 0a108.6464 108.6464 0 1 0 217.2928 0 108.6464 108.6464 0 1 0-217.2928 0Z" fill="#ffa115" /><path d="M517.12 748.9536c-76.8512 0-139.3152-62.5152-139.3152-139.3664 0-76.8512 62.5152-139.3152 139.3152-139.3152 76.8512 0 139.3664 62.5152 139.3664 139.3152 0 76.8512-62.5152 139.3664-139.3664 139.3664z m0-217.2416c-42.9568 0-77.8752 34.9696-77.8752 77.8752s34.9696 77.9264 77.8752 77.9264 77.9264-34.9696 77.9264-77.9264-34.9696-77.8752-77.9264-77.8752z" fill="#474A54" /></svg>