<?xml version="1.0" standalone="no"?><!DOCTYPE svg PUBLIC "-//W3C//DTD SVG 1.1//EN" "http://www.w3.org/Graphics/SVG/1.1/DTD/svg11.dtd"><svg class="icon" width="48px" height="48.00px" viewBox="0 0 1024 1024" version="1.1" xmlns="http://www.w3.org/2000/svg"><path d="M591.9232 871.424a372.83328 372.83328 0 0 1-79.9232 8.6528c-203.6224 0-369.3056-165.6832-369.3056-369.3056 0-89.9072 31.8464-174.592 90.1632-241.664v84.8384c0 16.9472 13.7728 30.72 30.72 30.72s30.72-13.7728 30.72-30.72V209.8176c0-16.9472-13.7728-30.72-30.72-30.72H111.9744c-16.9472 0-30.72 13.7728-30.72 30.72s13.7728 30.72 30.72 30.72H176.64c-61.7984 76.288-95.3856 170.496-95.3856 270.2848 0 237.5168 193.2288 430.7456 430.7456 430.7456 31.3856 0 62.7712-3.3792 93.184-10.0864 16.5888-3.6352 27.0336-20.0704 23.3984-36.608s-20.0704-27.0848-36.6592-23.4496zM912.0256 786.432h-69.0176a430.52544 430.52544 0 0 0 99.7376-275.6096c0-237.5168-193.2288-430.7456-430.7456-430.7456-23.296 0-46.6432 1.8944-69.4272 5.5808a30.70464 30.70464 0 0 0-25.3952 35.2256c2.7136 16.7424 18.5344 28.16 35.2256 25.3952 19.5584-3.1744 39.6288-4.7616 59.5968-4.7616 203.6224 0 369.3056 165.6832 369.3056 369.3056 0 90.0608-32.9216 176.2304-91.5456 243.1488v-86.528c0-16.9472-13.7728-30.72-30.72-30.72s-30.72 13.7728-30.72 30.72v149.6576c0 16.9472 13.7728 30.72 30.72 30.72h152.9856c16.9472 0 30.72-13.7728 30.72-30.72s-13.7728-30.6688-30.72-30.6688z" fill="#474A54" /><path d="M511.5904 510.8224m-168.1408 0a168.1408 168.1408 0 1 0 336.2816 0 168.1408 168.1408 0 1 0-336.2816 0Z" fill="#ffa115" /></svg>