<?xml version="1.0" standalone="no"?><!DOCTYPE svg PUBLIC "-//W3C//DTD SVG 1.1//EN" "http://www.w3.org/Graphics/SVG/1.1/DTD/svg11.dtd"><svg class="icon" width="48px" height="48.00px" viewBox="0 0 1024 1024" version="1.1" xmlns="http://www.w3.org/2000/svg"><path d="M201.1648 471.6032v190.208s24.32 290.4064 302.7456 290.4064 345.4464-219.4432 352.1024-270.6432 0-210.0224 0-210.0224H201.1648z" fill="#ffa115" /><path d="M522.8544 392.5504c16.9472 0 30.72-13.7728 30.72-30.72V176.896c0-16.9472-13.7728-30.72-30.72-30.72s-30.72 13.7728-30.72 30.72v184.9344c0 16.9472 13.7728 30.72 30.72 30.72z" fill="#474A54" /><path d="M522.8544 36.608c-204.544 0-370.9952 166.4512-370.9952 370.9952v204.3392c0 204.544 166.4512 370.9952 370.9952 370.9952 204.5952 0 370.9952-166.4512 370.9952-370.9952V407.6032c0-204.5952-166.4-370.9952-370.9952-370.9952z m0 61.44c170.7008 0 309.5552 138.8544 309.5552 309.5552v23.296H213.2992v-23.296c0-170.7008 138.8544-309.5552 309.5552-309.5552z m0 823.4496c-170.7008 0-309.5552-138.8544-309.5552-309.5552V492.3392h619.1104v119.552c0 170.752-138.8544 309.6064-309.5552 309.6064z" fill="#474A54" /></svg>