<?xml version="1.0" standalone="no"?><!DOCTYPE svg PUBLIC "-//W3C//DTD SVG 1.1//EN" "http://www.w3.org/Graphics/SVG/1.1/DTD/svg11.dtd"><svg class="icon" width="48px" height="48.00px" viewBox="0 0 1024 1024" version="1.1" xmlns="http://www.w3.org/2000/svg"><path d="M777.8816 320.768H139.1616V188.5184c0-48.1792 39.0656-87.2448 87.2448-87.2448h464.2304c48.1792 0 87.2448 39.0656 87.2448 87.2448v132.2496z" fill="#ffa115" /><path d="M888.2176 91.8528c-16.9472 0-30.72 13.7728-30.72 30.72v668.2112c0 54.1696-44.0832 98.2528-98.2528 98.2528H216.4736c-25.7024 0-46.592-20.8896-46.592-46.592v-54.272c0-25.7024 20.8896-46.592 46.592-46.592h484.096c59.5456 0 108.032-48.4352 108.032-108.032V178.5856c0-59.5456-48.4352-108.032-108.032-108.032H216.4736c-59.5456 0-108.032 48.4352-108.032 108.032v663.808c0 59.5456 48.4352 108.032 108.032 108.032h542.7712c88.064 0 159.6928-71.6288 159.6928-159.6928V122.5728c0-16.9984-13.7728-30.72-30.72-30.72zM169.8816 178.5856c0-25.7024 20.8896-46.592 46.592-46.592h484.096c25.7024 0 46.592 20.8896 46.592 46.592v454.912c0 25.7024-20.8896 46.592-46.592 46.592H216.4736c-16.6912 0-32.4608 3.7888-46.592 10.5472V178.5856z" fill="#474A54" /><path d="M752.896 786.7392H250.9312c-16.9472 0-30.72 13.7728-30.72 30.72s13.7728 30.72 30.72 30.72h501.9648c16.9472 0 30.72-13.7728 30.72-30.72s-13.7728-30.72-30.72-30.72z" fill="#474A54" /></svg>