<?xml version="1.0" standalone="no"?><!DOCTYPE svg PUBLIC "-//W3C//DTD SVG 1.1//EN" "http://www.w3.org/Graphics/SVG/1.1/DTD/svg11.dtd"><svg class="icon" width="48px" height="48.00px" viewBox="0 0 1024 1024" version="1.1" xmlns="http://www.w3.org/2000/svg"><path d="M806.5024 900.4544H238.5408c-59.2384 0-107.2128-48.0256-107.2128-107.2128v-140.1856h782.3872v140.1856c0 59.2384-47.9744 107.2128-107.2128 107.2128z" fill="#ffa115" /><path d="M811.3152 931.1744H222.0032c-73.4208 0-133.12-59.6992-133.12-133.12V225.9456c0-73.4208 59.6992-133.12 133.12-133.12h589.3632c73.4208 0 133.12 59.6992 133.12 133.12v572.16c-0.0512 73.3696-59.7504 133.0688-133.1712 133.0688zM222.0032 154.2656c-39.5264 0-71.68 32.1536-71.68 71.68v572.16c0 39.5264 32.1536 71.68 71.68 71.68h589.3632c39.5264 0 71.68-32.1536 71.68-71.68V225.9456c0-39.5264-32.1536-71.68-71.68-71.68H222.0032z" fill="#474A54" /><path d="M264.8064 645.1712a30.6176 30.6176 0 0 1-22.3232-9.6256 30.67904 30.67904 0 0 1 1.2288-43.4176l140.8-133.1712c23.9616-22.6816 61.7472-22.9888 86.0672-0.7168l106.24 97.28c0.6656 0.6144 1.7408 0.6144 2.4064-0.0512l175.104-168.1408a30.67392 30.67392 0 0 1 43.4176 0.8704c11.7248 12.2368 11.3664 31.6928-0.8704 43.4176l-175.104 168.1408c-23.9616 22.9888-61.952 23.4496-86.4256 1.024l-106.24-97.28a1.73568 1.73568 0 0 0-2.3552 0l-140.8 133.1712a30.60736 30.60736 0 0 1-21.1456 8.4992z" fill="#474A54" /></svg>