<?xml version="1.0" standalone="no"?><!DOCTYPE svg PUBLIC "-//W3C//DTD SVG 1.1//EN" "http://www.w3.org/Graphics/SVG/1.1/DTD/svg11.dtd"><svg class="icon" width="48px" height="48.00px" viewBox="0 0 1024 1024" version="1.1" xmlns="http://www.w3.org/2000/svg"><path d="M723.456 199.4752s85.9648 334.6944-76.9024 473.4464-437.248 64.8192-521.6768-54.272c96.512 155.2896 295.5264 422.144 655.872 117.6064 72.3456-90.4704 107.0592-223.1296 73.8816-360.3456S723.456 199.4752 723.456 199.4752z" fill="#ffa115" /><path d="M948.5312 896.5632l-139.6736-134.4512c62.208-72.9088 99.84-167.3728 99.84-270.4896 0-230.1952-187.2896-417.4848-417.4848-417.4848S73.7792 261.4272 73.7792 491.6224s187.2896 417.4848 417.4848 417.4848c105.0112 0 201.0112-39.0656 274.432-103.2704l140.288 135.0144a30.57664 30.57664 0 0 0 21.2992 8.6016c8.0384 0 16.128-3.1744 22.1184-9.4208 11.776-12.288 11.3664-31.744-0.8704-43.4688z m-457.3184-48.896c-196.3008 0-356.0448-159.6928-356.0448-356.0448 0-196.3008 159.6928-356.0448 356.0448-356.0448s356.0448 159.6928 356.0448 356.0448c0 196.352-159.6928 356.0448-356.0448 356.0448z" fill="#474A54" /><path d="M752.4864 522.3424c-16.9472 0-30.72-13.7728-30.72-30.72 0-127.1296-103.424-230.5024-230.5024-230.5024-16.9472 0-30.72-13.7728-30.72-30.72s13.7728-30.72 30.72-30.72c160.9728 0 291.9424 130.9696 291.9424 291.9424 0 16.9984-13.7728 30.72-30.72 30.72z" fill="#474A54" /></svg>