<?xml version="1.0" standalone="no"?><!DOCTYPE svg PUBLIC "-//W3C//DTD SVG 1.1//EN" "http://www.w3.org/Graphics/SVG/1.1/DTD/svg11.dtd"><svg class="icon" width="48px" height="48.00px" viewBox="0 0 1024 1024" version="1.1" xmlns="http://www.w3.org/2000/svg"><path d="M592.2304 691.8144H442.8288c-56.576 0-102.4-45.824-102.4-102.4V440.0128c0-56.576 45.824-102.4 102.4-102.4h149.4016c56.576 0 102.4 45.824 102.4 102.4v149.4016c0 56.576-45.824 102.4-102.4 102.4z" fill="#ffa115" /><path d="M725.3504 440.0128c0-73.4208-59.6992-133.12-133.12-133.12H442.8288c-73.4208 0-133.12 59.6992-133.12 133.12v149.4016c0 73.4208 59.6992 133.12 133.12 133.12h149.4016c73.4208 0 133.12-59.6992 133.12-133.12V440.0128z m-61.44 149.4016c0 39.5264-32.1536 71.68-71.68 71.68H442.8288c-39.5264 0-71.68-32.1536-71.68-71.68V440.0128c0-39.5264 32.1536-71.68 71.68-71.68h149.4016c39.5264 0 71.68 32.1536 71.68 71.68v149.4016zM126.7712 318.464h111.1552c46.592 0 84.48-37.888 84.48-84.48V126.976c0-16.9472-13.7728-30.72-30.72-30.72s-30.72 13.7728-30.72 30.72v107.008c0 12.6976-10.3424 23.04-23.04 23.04H126.7712c-16.9472 0-30.72 13.7728-30.72 30.72s13.7728 30.72 30.72 30.72zM794.88 318.464h111.1552c16.9472 0 30.72-13.7728 30.72-30.72s-13.7728-30.72-30.72-30.72h-111.1552c-12.6976 0-23.04-10.3424-23.04-23.04V126.976c0-16.9472-13.7728-30.72-30.72-30.72s-30.72 13.7728-30.72 30.72v107.008c-0.0512 46.5408 37.888 84.48 84.48 84.48zM905.984 707.5328h-111.1552c-46.592 0-84.48 37.888-84.48 84.48v107.008c0 16.9472 13.7728 30.72 30.72 30.72s30.72-13.7728 30.72-30.72v-107.008c0-12.6976 10.3424-23.04 23.04-23.04h111.1552c16.9472 0 30.72-13.7728 30.72-30.72s-13.7216-30.72-30.72-30.72zM237.9264 707.5328H126.7712c-16.9472 0-30.72 13.7728-30.72 30.72s13.7728 30.72 30.72 30.72h111.1552c12.6976 0 23.04 10.3424 23.04 23.04v107.008c0 16.9472 13.7728 30.72 30.72 30.72s30.72-13.7728 30.72-30.72v-107.008c0-46.592-37.888-84.48-84.48-84.48z" fill="#474A54" /></svg>