<?xml version="1.0" standalone="no"?><!DOCTYPE svg PUBLIC "-//W3C//DTD SVG 1.1//EN" "http://www.w3.org/Graphics/SVG/1.1/DTD/svg11.dtd"><svg class="icon" width="48px" height="48.00px" viewBox="0 0 1024 1024" version="1.1" xmlns="http://www.w3.org/2000/svg"><path d="M504.6784 292.9664m-198.5536 0a198.5536 198.5536 0 1 0 397.1072 0 198.5536 198.5536 0 1 0-397.1072 0Z" fill="#ffa115" /><path d="M624.7936 902.9632H174.848c-21.248 0-38.5024-17.2544-38.5024-38.5024v-21.4528c0-176.8448 143.872-320.768 320.768-320.768h95.0784c42.1888 0 83.2 8.0384 121.856 23.9616 15.6672 6.4512 33.6384-1.024 40.0896-16.7424 6.4512-15.7184-1.024-33.6384-16.7424-40.0896a380.67712 380.67712 0 0 0-50.6368-16.7424c52.992-42.0352 87.0912-106.9056 87.0912-179.6608 0-126.4128-102.8608-229.2736-229.2736-229.2736S275.4048 166.5536 275.4048 292.9664c0 72.7552 34.0992 137.6768 87.1424 179.6608-165.1712 42.1888-287.6416 192.2048-287.6416 370.3296v21.4528c0 55.0912 44.8512 99.9424 99.9424 99.9424h449.9456c16.9472 0 30.72-13.7728 30.72-30.72s-13.7728-30.6688-30.72-30.6688zM336.8448 292.9664c0-92.5184 75.264-167.8336 167.8336-167.8336s167.8336 75.264 167.8336 167.8336S597.1968 460.8 504.6784 460.8 336.8448 385.536 336.8448 292.9664z" fill="#474A54" /><path d="M927.3856 766.0544h-96.3584V669.696c0-16.9472-13.7728-30.72-30.72-30.72s-30.72 13.7728-30.72 30.72v96.3584h-96.3584c-16.9472 0-30.72 13.7728-30.72 30.72s13.7728 30.72 30.72 30.72h96.3584v96.3584c0 16.9472 13.7728 30.72 30.72 30.72s30.72-13.7728 30.72-30.72v-96.3584h96.3584c16.9472 0 30.72-13.7728 30.72-30.72s-13.7216-30.72-30.72-30.72z" fill="#474A54" /></svg>