<?xml version="1.0" standalone="no"?><!DOCTYPE svg PUBLIC "-//W3C//DTD SVG 1.1//EN" "http://www.w3.org/Graphics/SVG/1.1/DTD/svg11.dtd"><svg class="icon" width="48px" height="48.00px" viewBox="0 0 1024 1024" version="1.1" xmlns="http://www.w3.org/2000/svg"><path d="M799.6928 885.2992H226.8672c-61.1328 0-110.6432-49.5616-110.6432-110.6432v-122.0096h794.112v122.0096c0 61.1328-49.5616 110.6432-110.6432 110.6432z" fill="#ffa115" /><path d="M807.936 88.576H218.5728c-73.4208 0-133.12 59.6992-133.12 133.12v572.16c0 73.4208 59.6992 133.12 133.12 133.12H807.936c73.4208 0 133.12-59.6992 133.12-133.12V221.696c0-73.4208-59.6992-133.12-133.12-133.12z m71.68 705.2288c0 39.5264-32.1536 71.68-71.68 71.68H218.5728c-39.5264 0-71.68-32.1536-71.68-71.68V221.696c0-39.5264 32.1536-71.68 71.68-71.68H807.936c39.5264 0 71.68 32.1536 71.68 71.68v572.1088z" fill="#474A54" /><path d="M711.9872 477.0304h-167.9872V309.0432c0-16.9472-13.7728-30.72-30.72-30.72s-30.72 13.7728-30.72 30.72v167.9872H314.5728c-16.9472 0-30.72 13.7728-30.72 30.72s13.7728 30.72 30.72 30.72h167.9872v167.9872c0 16.9472 13.7728 30.72 30.72 30.72s30.72-13.7728 30.72-30.72v-167.9872h167.9872c16.9472 0 30.72-13.7728 30.72-30.72s-13.7728-30.72-30.72-30.72z" fill="#474A54" /></svg>