<?xml version="1.0" standalone="no"?><!DOCTYPE svg PUBLIC "-//W3C//DTD SVG 1.1//EN" "http://www.w3.org/Graphics/SVG/1.1/DTD/svg11.dtd"><svg class="icon" width="48px" height="48.00px" viewBox="0 0 1024 1024" version="1.1" xmlns="http://www.w3.org/2000/svg"><path d="M741.6832 188.5696s47.0528 301.9776-117.6576 409.1392-347.0848 18.2272-405.9136-39.2704c85.9136 121.8048 126.0032 152.1664 126.0032 152.1664l9.984 90.368h313.0368l8.4992-99.9936s342.528-207.1552 66.048-512.4096z" fill="#ffa115" /><path d="M769.6384 162.2528c-69.9904-68.9664-162.816-106.2912-260.9664-104.704-93.8496 1.3824-182.6816 38.8096-250.112 105.4208C191.1296 229.5808 152.6272 317.952 150.1696 411.7504c-3.328 125.696 58.88 244.48 163.2768 313.5488v88.1152c0 16.9472 13.7728 30.72 30.72 30.72h339.8656c16.9472 0 30.72-13.7728 30.72-30.72v-88.1152c101.2224-67.072 163.3792-181.8624 163.3792-303.7184 0-98.2528-38.5024-190.3104-108.4928-259.328z m-101.2736 519.68a30.73024 30.73024 0 0 0-15.0528 26.4192v74.3424H374.8864V710.656c0-12.1344-6.4512-23.552-16.8448-29.7984-93.184-56.2176-149.3504-158.72-146.432-267.4688 4.1984-160 137.8816-292.0448 297.984-294.4 81.8176-1.0752 158.7712 29.7472 216.9344 87.04 58.1632 57.344 90.2144 133.888 90.2144 215.552-0.0512 106.24-56.8832 205.9776-148.3776 260.352z" fill="#474A54" /><path d="M354.7648 357.9392c0.0512-0.2048 0.1536-0.4096 0.2048-0.5632 5.376-16.896-3.7888-31.5904-15.5136-37.4272a30.69952 30.69952 0 0 0-38.7584 9.984c-1.3312 1.9456-2.7136 4.9664-4.096 8.9088l-0.1536-0.0512 0.1536 0.0512v0.0512l-0.1536-0.0512c-0.3072 0.9728-0.5632 1.9456-0.768 2.9696-5.632 18.2784-10.5472 51.2512-10.0864 81.0496 1.024 63.8976 23.4496 118.528 64.9216 157.9008a30.68928 30.68928 0 0 0 43.4176-1.1264c11.6736-12.288 11.2128-31.744-1.0752-43.4176-68.7104-65.2288-40.9088-168.448-38.0928-178.2784zM675.6352 899.072h-321.536c-16.9472 0-30.72 13.7728-30.72 30.72s13.7728 30.72 30.72 30.72h321.536c16.9472 0 30.72-13.7728 30.72-30.72s-13.7216-30.72-30.72-30.72z" fill="#474A54" /></svg>