<?xml version="1.0" standalone="no"?><!DOCTYPE svg PUBLIC "-//W3C//DTD SVG 1.1//EN" "http://www.w3.org/Graphics/SVG/1.1/DTD/svg11.dtd"><svg class="icon" width="48px" height="48.00px" viewBox="0 0 1024 1024" version="1.1" xmlns="http://www.w3.org/2000/svg"><path d="M321.4848 98.304s-195.84 204.3392 0 523.776 418.4576 235.776 418.4576 235.776-114.7904 181.9648-384.4096-16.1792C282.0608 768.9728 152.9856 563.2 140.3904 400.7424S193.6384 138.752 321.4848 98.304z" fill="#ffa115" /><path d="M628.2752 614.3488c-19.0976-29.7984-56.7808-41.8816-89.6512-28.6208L480 609.28c-5.7856 2.304-12.3904-0.0512-15.4112-5.4784L402.8416 491.8272c-3.2256-5.888-1.28-13.1584 4.5056-16.5888L476.16 434.6368a73.5744 73.5744 0 0 0 27.4432-98.4576L379.8016 105.984c-18.8928-35.1744-61.5424-48.9984-97.0752-31.488-57.9072 28.5696-107.8272 84.0704-113.3056 90.2144-1.3824 1.5872-2.6624 3.1744-3.8912 4.7616-102.2976 136.0896-41.472 299.1616-1.2288 407.04 2.0992 5.6832 4.1472 11.1616 6.144 16.4864 38.144 103.4752 135.5264 250.9824 214.6304 297.8816 77.9264 50.5856 147.7632 67.2768 205.9264 67.2768 61.3376 0 109.7216-18.5344 141.0048-35.2768 17.9712-9.6256 31.1808-26.4704 36.3008-46.2336 5.1712-19.8656 1.7408-41.1648-9.3184-58.4704l-130.7136-203.8272z m80.5888 246.8864c-0.512 1.8944-1.9456 5.4272-5.888 7.5776-48.9984 26.3168-151.1424 57.3952-284.928-29.696l-1.2288-0.768c-59.3408-34.816-151.0912-164.352-188.7232-266.496-1.9968-5.376-4.0448-10.9568-6.1952-16.6912-37.6832-101.0688-89.2928-239.4624-7.168-348.7744 0.2048-0.3072 0.4608-0.5632 0.768-0.9216 16.9984-19.2512 56.0128-56.8832 94.464-75.8272 1.536-0.768 3.2256-1.1264 4.9152-1.1264 4.352 0 8.6528 2.4576 10.9056 6.6048L449.536 365.2608c3.1744 5.8368 1.1264 13.1072-4.608 16.4864L376.1664 422.4a73.46688 73.46688 0 0 0-27.0848 99.1744l61.7472 111.9232c17.9712 32.6144 57.6 46.7456 92.16 32.8192l58.624-23.6032c5.4784-2.2016 11.776-0.2048 15.0016 4.8128l130.7136 203.8784c2.5088 3.9424 2.048 7.8336 1.536 9.8304zM888.32 330.8032c-78.2336-139.1104-214.3232-167.7312-220.0576-168.9088a30.68416 30.68416 0 0 0-36.0448 24.0128c-3.3792 16.5888 7.3216 32.768 23.9104 36.2496 1.1264 0.256 114.688 25.0368 178.688 138.8032 63.5392 112.9472 12.4928 235.0592 11.9808 236.1856a30.78656 30.78656 0 0 0 15.872 40.448c3.9936 1.7408 8.1408 2.56 12.2368 2.56 11.8272 0 23.1424-6.912 28.16-18.4832 2.6624-6.0928 64.0512-150.7328-14.7456-290.8672z" fill="#474A54" /><path d="M642.2016 304.2816c-16.5888-3.328-32.5632 7.3728-35.9936 23.9104-3.4304 16.5376 7.2192 32.768 23.7056 36.3008 2.2016 0.4608 53.6576 12.1344 83.5584 65.3312 29.44 52.3776 5.7856 109.8752 5.5808 110.336a30.78656 30.78656 0 0 0 15.872 40.448c3.9936 1.7408 8.1408 2.56 12.2368 2.56 11.8272 0 23.1424-6.912 28.16-18.4832 1.4848-3.4304 36.352-85.504-8.3968-164.9664-44.032-78.4896-121.4464-94.7712-124.7232-95.4368z" fill="#474A54" /></svg>