<?xml version="1.0" standalone="no"?><!DOCTYPE svg PUBLIC "-//W3C//DTD SVG 1.1//EN" "http://www.w3.org/Graphics/SVG/1.1/DTD/svg11.dtd"><svg class="icon" width="48px" height="48.00px" viewBox="0 0 1024 1024" version="1.1" xmlns="http://www.w3.org/2000/svg"><path d="M560.7424 373.5552m-101.9392 0a101.9392 101.9392 0 1 0 203.8784 0 101.9392 101.9392 0 1 0-203.8784 0Z" fill="#ffa115" /><path d="M760.7808 647.0656c0-93.8496-89.5488-169.9328-199.9872-169.9328s-199.9872 76.0832-199.9872 169.9328c0 22.4256 5.12 43.8784 14.4384 63.488 9.0112 18.944 28.5184 30.6688 49.5104 30.7712 67.9424 0.3584 205.7216 1.4336 270.6432 1.792 20.992 0.1024 40.5504-11.4176 49.8688-30.208 9.984-20.224 15.5136-42.496 15.5136-65.8432z" fill="#ffa115" /><path d="M817.2032 66.3552H278.8352c-73.4208 0-133.12 59.6992-133.12 133.12v143.36h-37.4784c-16.9472 0-30.72 13.7728-30.72 30.72s13.7728 30.72 30.72 30.72h37.4784v215.04h-37.4784c-16.9472 0-30.72 13.7728-30.72 30.72s13.7728 30.72 30.72 30.72h37.4784v137.472c0 73.4208 59.6992 133.12 133.12 133.12h538.368c73.4208 0 133.12-59.6992 133.12-133.12V199.4752c0-73.4208-59.6992-133.12-133.12-133.12z m71.68 751.872c0 39.5264-32.1536 71.68-71.68 71.68H278.8352c-39.5264 0-71.68-32.1536-71.68-71.68v-137.472h35.9424c16.9472 0 30.72-13.7728 30.72-30.72s-13.7728-30.72-30.72-30.72h-35.9424v-215.04h35.9424c16.9472 0 30.72-13.7728 30.72-30.72s-13.7728-30.72-30.72-30.72h-35.9424v-143.36c0-39.5264 32.1536-71.68 71.68-71.68h538.368c39.5264 0 71.68 32.1536 71.68 71.68v618.752z" fill="#474A54" /><path d="M656.9984 464.7936c22.5792-23.808 36.4544-55.9104 36.4544-91.2384 0-73.1648-59.5456-132.7104-132.7104-132.7104S428.0832 300.3904 428.0832 373.5552c0 35.328 13.8752 67.4304 36.4544 91.2384-79.3088 31.7952-134.5024 101.5296-134.5024 182.3232 0 26.5216 5.8368 52.3264 17.408 76.6464 13.824 29.184 44.1344 48.128 77.1072 48.2816 37.888 0.2048 97.4848 0.6144 154.0608 1.024 44.8512 0.3072 87.808 0.6144 116.5312 0.768h0.512c32.6144 0 62.8224-18.5344 77.056-47.3088 12.4416-25.1392 18.7392-51.8656 18.7392-79.4624 0.0512-80.7936-55.1424-150.528-134.4512-182.272z m-96.256-162.5088c39.2704 0 71.2704 31.9488 71.2704 71.2704s-31.9488 71.2704-71.2704 71.2704S489.472 412.8768 489.472 373.5552s32-71.2704 71.2704-71.2704z m156.928 397.0048c-3.9424 7.9872-12.5952 13.1072-22.016 13.1072h-0.1536c-28.7232-0.1536-71.6288-0.4608-116.48-0.768-56.6272-0.4096-116.2752-0.8192-154.2144-1.024-9.5232-0.0512-18.1248-5.2224-21.9136-13.2096-7.6288-16.0256-11.4688-32.9728-11.4688-50.3296 0-76.7488 75.9296-139.2128 169.2672-139.2128s169.2672 62.464 169.2672 139.2128c0.1024 18.0736-4.0448 35.6352-12.288 52.224z" fill="#474A54" /></svg>