<?xml version="1.0" standalone="no"?><!DOCTYPE svg PUBLIC "-//W3C//DTD SVG 1.1//EN" "http://www.w3.org/Graphics/SVG/1.1/DTD/svg11.dtd"><svg class="icon" width="48px" height="48.00px" viewBox="0 0 1024 1024" version="1.1" xmlns="http://www.w3.org/2000/svg"><path d="M813.2096 901.5808H218.3168c-68.3008 0-123.6992-55.3984-123.6992-123.6992V648.704h842.24v129.1264c0 68.352-55.3472 123.7504-123.648 123.7504z" fill="#ffa115" /><path d="M857.1904 286.1568v-3.7888c0-75.8272-61.6448-137.472-137.472-137.472H472.832c-0.6144 0-1.1776 0.0512-1.792 0.1024-25.5488-27.136-61.3888-43.008-99.9424-43.008H201.3696c-75.8272 0-137.472 61.6448-137.472 137.472v555.3664c0 75.8272 61.6448 137.472 137.472 137.472h628.736c75.8272 0 137.472-61.6448 137.472-137.472V420.9152c0-66.5088-47.5136-122.1632-110.3872-134.7584z m-61.44-3.7888v1.0752h-200.7552c-28.5184 0-54.3744-15.7184-67.5328-41.0624l-18.688-36.0448h210.944c41.9328 0 76.032 34.0992 76.032 76.032z m110.3872 512.4096c0 41.9328-34.0992 76.032-76.032 76.032H201.3696c-41.9328 0-76.032-34.0992-76.032-76.032V239.4624c0-41.9328 34.0992-76.032 76.032-76.032h169.728c28.5184 0 54.3744 15.7184 67.5328 41.0624l34.304 66.2016a137.02144 137.02144 0 0 0 122.0608 74.24h235.1104c41.9328 0 76.032 34.0992 76.032 76.032v373.8112z" fill="#474A54" /></svg>