<?xml version="1.0" standalone="no"?><!DOCTYPE svg PUBLIC "-//W3C//DTD SVG 1.1//EN" "http://www.w3.org/Graphics/SVG/1.1/DTD/svg11.dtd"><svg class="icon" width="48px" height="48.00px" viewBox="0 0 1024 1024" version="1.1" xmlns="http://www.w3.org/2000/svg"><path d="M783.1552 910.7968H263.5264c-44.1856 0-80.0256-35.84-80.0256-80.0256v-137.2672H863.232v137.2672c0 44.1856-35.84 80.0256-80.0768 80.0256z" fill="#ffa115" /><path d="M760.832 948.9408H273.408c-73.4208 0-133.12-59.6992-133.12-133.12V201.0112c0-73.4208 59.6992-133.12 133.12-133.12h487.3728c73.4208 0 133.12 59.6992 133.12 133.12v614.8096c0.0512 73.4208-59.6992 133.12-133.0688 133.12zM273.408 129.3312c-39.5264 0-71.68 32.1536-71.68 71.68v614.8096c0 39.5264 32.1536 71.68 71.68 71.68h487.3728c39.5264 0 71.68-32.1536 71.68-71.68V201.0112c0-39.5264-32.1536-71.68-71.68-71.68H273.408z" fill="#474A54" /><path d="M531.4048 392.0896h-196.096c-16.9472 0-30.72-13.7728-30.72-30.72s13.7728-30.72 30.72-30.72h196.096c16.9472 0 30.72 13.7728 30.72 30.72s-13.7728 30.72-30.72 30.72zM698.0608 560.6912H335.3088c-16.9472 0-30.72-13.7728-30.72-30.72s13.7728-30.72 30.72-30.72h362.752c16.9472 0 30.72 13.7728 30.72 30.72s-13.7728 30.72-30.72 30.72zM698.0608 724.224H335.3088c-16.9472 0-30.72-13.7728-30.72-30.72s13.7728-30.72 30.72-30.72h362.752c16.9472 0 30.72 13.7728 30.72 30.72s-13.7728 30.72-30.72 30.72z" fill="#474A54" /></svg>