<?xml version="1.0" standalone="no"?><!DOCTYPE svg PUBLIC "-//W3C//DTD SVG 1.1//EN" "http://www.w3.org/Graphics/SVG/1.1/DTD/svg11.dtd"><svg class="icon" width="48px" height="48.00px" viewBox="0 0 1024 1024" version="1.1" xmlns="http://www.w3.org/2000/svg"><path d="M207.0016 930.4064s-100.4032-3.072-91.392-113.3056c9.0112-110.2336 195.4816-150.016 396.3904-150.016s392.6528 48.9984 401.7152 131.6352-12.544 128.9216-98.816 128.9216-607.8976 2.7648-607.8976 2.7648z" fill="#ffa115" /><path d="M656.7936 466.688c52.992-42.0352 87.1424-106.9056 87.1424-179.6608 0-126.4128-102.8608-229.2736-229.2736-229.2736S285.3888 160.5632 285.3888 286.976c0 72.7552 34.0992 137.6256 87.1424 179.6608-165.12 42.1888-287.6416 192.2048-287.6416 370.3296v21.4528c0 55.0912 44.8512 99.9424 99.9424 99.9424h659.6096c55.0912 0 99.9424-44.8512 99.9424-99.9424v-21.4528c0.0512-178.0736-122.4192-328.0896-287.5904-370.2784z m-309.9648-179.712c0-92.5184 75.264-167.8336 167.8336-167.8336s167.8336 75.264 167.8336 167.8336-75.264 167.8336-167.8336 167.8336-167.8336-75.264-167.8336-167.8336z m536.1664 571.4944c0 21.248-17.2544 38.5024-38.5024 38.5024H184.832c-21.248 0-38.5024-17.2544-38.5024-38.5024v-21.4528c0-176.8448 143.872-320.768 320.768-320.768h95.0784c176.8448 0 320.768 143.872 320.768 320.768v21.4528z" fill="#474A54" /><path d="M695.7568 762.0096H333.568c-16.9472 0-30.72 13.7728-30.72 30.72s13.7728 30.72 30.72 30.72h362.1888c16.9472 0 30.72-13.7728 30.72-30.72s-13.7728-30.72-30.72-30.72z" fill="#474A54" /></svg>