<?xml version="1.0" standalone="no"?><!DOCTYPE svg PUBLIC "-//W3C//DTD SVG 1.1//EN" "http://www.w3.org/Graphics/SVG/1.1/DTD/svg11.dtd"><svg class="icon" width="48px" height="48.00px" viewBox="0 0 1024 1024" version="1.1" xmlns="http://www.w3.org/2000/svg"><path d="M711.7312 718.0288H312.832c-116.992 0-211.8656 94.8736-211.8656 211.8656v8.0384h822.6304v-8.0384c0-117.0432-94.8736-211.8656-211.8656-211.8656z" fill="#ffa115" /><path d="M519.168 472.4736c38.2976 0 76.6464-14.592 105.7792-43.7248 11.9808-11.9808 11.9808-31.4368 0-43.4688s-31.4368-11.9808-43.4688 0c-34.4064 34.3552-90.3168 34.3552-124.7232 0a30.72 30.72 0 0 0-43.4176 0 30.72 30.72 0 0 0 0 43.4176c29.2352 29.184 67.5328 43.776 105.8304 43.776z" fill="#474A54" /><path d="M675.4304 520.6528c65.024-48.0256 107.264-125.184 107.264-212.0192 0-145.3056-118.2208-263.5264-263.5264-263.5264S255.6928 163.328 255.6928 308.6336c0 85.4016 40.8576 161.3824 103.9872 209.5616-165.0176 34.0992-289.4336 180.5312-289.4336 355.4816 0 52.3776 42.5984 94.976 94.976 94.976h694.1696c52.3776 0 94.976-42.5984 94.976-94.976-0.0512-171.2128-119.1936-314.9824-278.9376-353.024zM317.1328 308.6336c0-111.4112 90.624-202.0864 202.0864-202.0864s202.0864 90.624 202.0864 202.0864c0 111.4112-90.624 202.0352-202.0864 202.0352s-202.0864-90.624-202.0864-202.0352z m542.208 598.5792H165.2224a33.5872 33.5872 0 0 1-33.536-33.536c0-166.2976 135.2704-301.568 301.568-301.568h158.1056c166.2976 0 301.568 135.2704 301.568 301.568-0.0512 18.4832-15.104 33.536-33.5872 33.536z" fill="#474A54" /></svg>