<?xml version="1.0" standalone="no"?><!DOCTYPE svg PUBLIC "-//W3C//DTD SVG 1.1//EN" "http://www.w3.org/Graphics/SVG/1.1/DTD/svg11.dtd"><svg class="icon" width="48px" height="48.00px" viewBox="0 0 1024 1024" version="1.1" xmlns="http://www.w3.org/2000/svg"><path d="M515.8912 401.9712m-127.1296 0a127.1296 127.1296 0 1 0 254.2592 0 127.1296 127.1296 0 1 0-254.2592 0Z" fill="#ffa115" /><path d="M515.8912 85.6064c-242.176 0-439.2448 197.0176-439.2448 439.2448 0 242.176 197.0176 439.2448 439.2448 439.2448s439.2448-197.0176 439.2448-439.2448c-0.0512-242.176-197.0688-439.2448-439.2448-439.2448z m0 817.0496c-208.3328 0-377.8048-169.472-377.8048-377.8048s169.472-377.8048 377.8048-377.8048 377.8048 169.472 377.8048 377.8048-169.5232 377.8048-377.8048 377.8048z" fill="#474A54" /><path d="M515.8912 559.872c87.04 0 157.8496-70.8096 157.8496-157.8496s-70.8096-157.8496-157.8496-157.8496-157.8496 70.8096-157.8496 157.8496c-0.0512 86.9888 70.7584 157.8496 157.8496 157.8496z m0-254.3104c53.1456 0 96.4096 43.264 96.4096 96.4096s-43.264 96.4096-96.4096 96.4096-96.4608-43.2128-96.4608-96.4096 43.264-96.4096 96.4608-96.4096zM757.4528 683.3152c-131.2768-87.7056-255.8976-82.944-337.3056-63.5392-87.8592 20.9408-144.6912 62.6176-147.0976 64.4096-13.6192 10.0864-16.4352 29.2352-6.4 42.9056a30.72 30.72 0 0 0 42.9056 6.5024c8.0384-5.888 199.0144-142.592 413.7472 0.8192a30.7712 30.7712 0 0 0 42.6496-8.4992 30.68928 30.68928 0 0 0-8.4992-42.5984z" fill="#474A54" /></svg>