<?xml version="1.0" standalone="no"?><!DOCTYPE svg PUBLIC "-//W3C//DTD SVG 1.1//EN" "http://www.w3.org/Graphics/SVG/1.1/DTD/svg11.dtd"><svg class="icon" width="48px" height="48.00px" viewBox="0 0 1024 1024" version="1.1" xmlns="http://www.w3.org/2000/svg"><path d="M296.448 764.16m-110.1824 0a110.1824 110.1824 0 1 0 220.3648 0 110.1824 110.1824 0 1 0-220.3648 0Z" fill="#ffa115" /><path d="M809.728 764.16m-105.9328 0a105.9328 105.9328 0 1 0 211.8656 0 105.9328 105.9328 0 1 0-211.8656 0Z" fill="#ffa115" /><path d="M981.0432 437.7088l-108.1344-105.5744c-16.128-15.7184-37.376-24.4224-59.904-24.4224h-138.9568V253.0816c0-77.6192-63.1296-140.7488-140.7488-140.7488H157.9008c-77.6192 0-140.7488 63.1296-140.7488 140.7488v423.0656c0 65.4848 53.248 118.7328 118.7328 118.7328h23.04c14.08 62.976 70.3488 110.1824 137.5232 110.1824s123.4432-47.2064 137.5232-110.1824h242.688c13.9776 60.6208 68.352 105.9328 133.12 105.9328 64.8192 0 119.2448-45.4144 133.1712-106.0864 0.8704 0.1024 1.792 0.1536 2.6624 0.1536 33.792 0 61.2352-27.4944 61.2352-61.2352V499.0464c0-22.9376-9.4208-45.312-25.8048-61.3376zM296.448 843.6736c-43.8272 0-79.4624-35.6352-79.4624-79.4624s35.6352-79.4624 79.4624-79.4624 79.4624 35.6352 79.4624 79.4624-35.6352 79.4624-79.4624 79.4624z m0-220.416c-67.1232 0-123.4432 47.2064-137.5232 110.1824h-23.04c-31.5904 0-57.2928-25.7024-57.2928-57.2928V253.0816c0-43.7248 35.584-79.3088 79.3088-79.3088h375.4496c43.7248 0 79.3088 35.584 79.3088 79.3088V733.44h-178.688c-14.08-62.9248-70.4-110.1824-137.5232-110.1824z m513.28 216.1664c-41.472 0-75.2128-33.7408-75.2128-75.2128s33.7408-75.2128 75.2128-75.2128 75.2128 33.7408 75.2128 75.2128-33.6896 75.2128-75.2128 75.2128z m0-211.9168c-64.768 0-119.1424 45.312-133.12 105.9328h-2.56V369.152h138.9568a24.064 24.064 0 0 1 16.9472 6.912l108.1344 105.5744c4.6592 4.5568 7.3216 10.9056 7.3216 17.3568l0.2048 234.4448c-0.9216 0-1.792 0.0512-2.6624 0.1536-13.9776-60.672-68.352-106.0864-133.2224-106.0864z" fill="#474A54" /></svg>