<?xml version="1.0" standalone="no"?><!DOCTYPE svg PUBLIC "-//W3C//DTD SVG 1.1//EN" "http://www.w3.org/Graphics/SVG/1.1/DTD/svg11.dtd"><svg class="icon" width="48px" height="48.00px" viewBox="0 0 1024 1024" version="1.1" xmlns="http://www.w3.org/2000/svg"><path d="M833.3824 936.2944H196.1984c-56.4736 0-102.2976-45.7728-102.2976-102.2976v-172.2368h841.728v172.2368c0 56.5248-45.7728 102.2976-102.2464 102.2976z" fill="#ffa115" /><path d="M824.3712 967.0144H205.056c-78.2848 0-141.9776-63.6928-141.9776-141.9776V417.024c0-46.7456 22.9888-90.4704 61.4912-116.992l316.8768-218.0096c49.1008-33.792 114.688-33.1776 163.1744 1.536l302.4384 216.6784a142.31552 142.31552 0 0 1 59.2896 115.4048v409.344c0 78.336-63.6928 142.0288-141.9776 142.0288zM521.9328 118.528c-15.9744 0-31.9488 4.7104-45.6704 14.1312L159.3856 350.6688a80.5376 80.5376 0 0 0-34.9184 66.3552v408.0128c0 44.3904 36.1472 80.5376 80.5376 80.5376H824.32c44.3904 0 80.5376-36.1472 80.5376-80.5376V415.6928c0-25.9072-12.5952-50.3808-33.6384-65.4848L568.832 133.5296a80.5888 80.5888 0 0 0-46.8992-15.0016z" fill="#474A54" /><path d="M521.4208 803.6352a107.1104 107.1104 0 0 1-75.5712-30.9248l-221.9008-217.6c-12.1344-11.8784-12.288-31.3344-0.4096-43.4688s31.3344-12.288 43.4688-0.4096l221.9008 217.6a46.848 46.848 0 0 0 33.3824 13.312 46.2848 46.2848 0 0 0 32.9216-14.3872l206.6944-215.8592c11.7248-12.2368 31.1808-12.6976 43.4176-0.9216s12.6976 31.1808 0.9216 43.4176l-206.6944 215.8592c-20.1216 21.0432-47.2576 32.8704-76.3392 33.3312-0.6144 0.0512-1.1776 0.0512-1.792 0.0512z" fill="#474A54" /></svg>