<?xml version="1.0" standalone="no"?><!DOCTYPE svg PUBLIC "-//W3C//DTD SVG 1.1//EN" "http://www.w3.org/Graphics/SVG/1.1/DTD/svg11.dtd"><svg class="icon" width="48px" height="48.00px" viewBox="0 0 1024 1024" version="1.1" xmlns="http://www.w3.org/2000/svg"><path d="M383.1296 602.9824H173.6192c-29.5936 0-53.6064 24.0128-53.6064 53.6064v182.8864c0 29.5936 24.0128 53.6064 53.6064 53.6064h209.5104c29.5936 0 53.6064-24.0128 53.6064-53.6064v-182.8864c0-29.5936-23.9616-53.6064-53.6064-53.6064zM859.5968 130.7136h-209.5104c-29.5936 0-53.6064 24.0128-53.6064 53.6064v182.8864c0 29.5936 24.0128 53.6064 53.6064 53.6064h209.5104c29.5936 0 53.6064-24.0128 53.6064-53.6064V184.32c0.0512-29.5936-23.9616-53.6064-53.6064-53.6064z" fill="#ffa115" /><path d="M814.1312 81.0496H222.3616c-73.4208 0-133.12 59.6992-133.12 133.12V805.888c0 73.4208 59.6992 133.12 133.12 133.12H814.08c73.4208 0 133.12-59.6992 133.12-133.12V214.1696c0.0512-73.4208-59.6992-133.12-133.0688-133.12z m71.68 724.8384c0 39.5264-32.1536 71.68-71.68 71.68H222.3616c-39.5264 0-71.68-32.1536-71.68-71.68V214.1696c0-39.5264 32.1536-71.68 71.68-71.68H814.08c39.5264 0 71.68 32.1536 71.68 71.68V805.888z" fill="#474A54" /><path d="M789.8112 390.0928H652.8c-11.3152 0-20.48-9.1648-20.48-20.48V241.7152c0-16.9472-13.7728-30.72-30.72-30.72s-30.72 13.7728-30.72 30.72v127.8976c0 45.1584 36.7616 81.92 81.92 81.92h137.0624c16.9472 0 30.72-13.7728 30.72-30.72s-13.7728-30.72-30.7712-30.72zM385.5872 561.4592H245.9136c-16.9472 0-30.72 13.7728-30.72 30.72s13.7728 30.72 30.72 30.72h139.6736c11.3152 0 20.48 9.1648 20.48 20.48v135.7312c0 16.9472 13.7728 30.72 30.72 30.72s30.72-13.7728 30.72-30.72v-135.7312c0-45.1584-36.7616-81.92-81.92-81.92z" fill="#474A54" /></svg>