<?xml version="1.0" standalone="no"?><!DOCTYPE svg PUBLIC "-//W3C//DTD SVG 1.1//EN" "http://www.w3.org/Graphics/SVG/1.1/DTD/svg11.dtd"><svg class="icon" width="48px" height="48.00px" viewBox="0 0 1024 1024" version="1.1" xmlns="http://www.w3.org/2000/svg"><path d="M103.0144 598.9376h847.36v79.9232s-2.8672 119.4496-136.3968 119.4496H544.768l-230.7072 118.784s-42.24 7.5264-45.2096-1.4848c-3.0208-9.0624 0-110.08 0-110.08s-168.8576 13.5168-165.8368-206.592z" fill="#ffa115" /><path d="M294.8608 950.528c-9.472 0-18.8928-2.6624-27.2384-7.8848a51.0208 51.0208 0 0 1-24.0128-43.52l0.1024-70.2976c-91.7504-4.1984-165.12-80.128-165.12-172.9024V280.3712c0-95.4368 77.6704-173.056 173.056-173.056h562.3296c95.4368 0 173.056 77.6704 173.056 173.056v375.552c0 95.4368-77.6704 173.056-173.056 173.056h-256.3584l-240.384 116.3776a50.93376 50.93376 0 0 1-22.3744 5.1712zM251.648 168.7552c-61.5424 0-111.616 50.0736-111.616 111.616v375.552c0 61.5424 50.0736 111.616 111.616 111.616h2.1504c13.7216 0 26.624 5.3248 36.3008 15.0528a51.1744 51.1744 0 0 1 15.0016 36.3008l-0.1024 64.1024 227.8912-110.336c6.912-3.3792 14.6432-5.12 22.3744-5.12h258.7136c61.5424 0 111.616-50.0736 111.616-111.616V280.3712c0-61.5424-50.0736-111.616-111.616-111.616H251.648z" fill="#474A54" /><path d="M310.784 463.0016m-54.5792 0a54.5792 54.5792 0 1 0 109.1584 0 54.5792 54.5792 0 1 0-109.1584 0Z" fill="#474A54" /><path d="M530.7392 463.0016m-54.5792 0a54.5792 54.5792 0 1 0 109.1584 0 54.5792 54.5792 0 1 0-109.1584 0Z" fill="#474A54" /><path d="M748.7488 463.0016m-54.5792 0a54.5792 54.5792 0 1 0 109.1584 0 54.5792 54.5792 0 1 0-109.1584 0Z" fill="#474A54" /></svg>