<?xml version="1.0" standalone="no"?><!DOCTYPE svg PUBLIC "-//W3C//DTD SVG 1.1//EN" "http://www.w3.org/Graphics/SVG/1.1/DTD/svg11.dtd"><svg class="icon" width="48px" height="48.00px" viewBox="0 0 1024 1024" version="1.1" xmlns="http://www.w3.org/2000/svg"><path d="M153.2928 764.9792s-117.7088-63.7952 0-128.8192c27.0336-15.2576 47.104-22.7328 47.104-22.7328H804.352s68.352 42.9056 83.2 41.1136c14.848-1.792 38.3488 98.9696-30.9248 98.9696s-703.3344 11.4688-703.3344 11.4688z" fill="#ffa115" /><path d="M859.648 796.16H164.352c-47.6672 0-86.4256-38.7584-86.4256-86.4256s38.7584-86.4256 86.4256-86.4256c1.9968 0 3.6352-1.6384 3.6352-3.6352V391.168c0-189.696 154.3168-344.064 344.064-344.064s344.064 154.3168 344.064 344.064v228.5056c0 1.9968 1.6384 3.6352 3.6352 3.6352 47.6672 0 86.4256 38.7584 86.4256 86.4256s-38.8608 86.4256-86.528 86.4256zM512 108.544c-155.8016 0-282.624 126.7712-282.624 282.624v228.5056c0 35.8912-29.184 65.0752-65.0752 65.0752-13.7728 0-24.9856 11.2128-24.9856 24.9856s11.2128 24.9856 24.9856 24.9856H859.648c13.7728 0 24.9856-11.2128 24.9856-24.9856s-11.2128-24.9856-24.9856-24.9856c-35.8912 0-65.0752-29.184-65.0752-65.0752V391.168c0-155.8528-126.7712-282.624-282.5728-282.624zM512 967.3216c-56.32 0-112.64-21.4528-155.5456-64.3072a30.72 30.72 0 0 1 0-43.4176 30.72 30.72 0 0 1 43.4176 0c61.7984 61.7984 162.4064 61.7984 224.2048 0 11.9808-11.9808 31.4368-11.9808 43.4688 0s11.9808 31.4368 0 43.4688C624.64 945.8688 568.32 967.3216 512 967.3216z" fill="#474A54" /></svg>