<?xml version="1.0" standalone="no"?><!DOCTYPE svg PUBLIC "-//W3C//DTD SVG 1.1//EN" "http://www.w3.org/Graphics/SVG/1.1/DTD/svg11.dtd"><svg class="icon" width="48px" height="48.00px" viewBox="0 0 1024 1024" version="1.1" xmlns="http://www.w3.org/2000/svg"><path d="M318.7712 430.2336s59.9552-99.328 197.9392-99.328 194.2016 99.328 194.2016 99.328 24.9856-241.7152-182.9376-241.7152-217.0368 195.9424-209.2032 241.7152z" fill="#ffa115" /><path d="M624.896 724.8896a30.63808 30.63808 0 0 0-43.4176 1.28l-41.6256 44.0832V510.3104c0-16.9472-13.7728-30.72-30.72-30.72s-30.72 13.7728-30.72 30.72v256.4608l-42.4448-41.5232c-12.1344-11.8784-31.5904-11.6224-43.4688 0.4608a30.72 30.72 0 0 0 0.4608 43.4176l98.4576 96.3072a30.6688 30.6688 0 0 0 21.504 8.7552h0.6144c8.2432-0.1536 16.0768-3.6352 21.7088-9.6256l90.88-96.256a30.68416 30.68416 0 0 0-1.2288-43.4176z" fill="#474A54" /><path d="M760.7296 393.8304h-7.8848v-1.6896c0-131.4816-106.9568-238.4384-238.4384-238.4384s-238.3872 107.008-238.3872 238.4384v1.6896h-7.8848c-131.6352 0-238.7456 107.1104-238.7456 238.7456s107.1104 238.7456 238.7456 238.7456h94.2592c16.9472 0 30.72-13.7728 30.72-30.72s-13.7728-30.72-30.72-30.72H268.1344c-97.792 0-177.3056-79.5648-177.3056-177.3056s79.5648-177.3056 177.3056-177.3056h41.1136c8.96 0 17.5104-3.9424 23.3472-10.752a30.75584 30.75584 0 0 0 7.0144-24.7296c-1.4336-9.1648-2.1504-18.432-2.1504-27.648 0-97.5872 79.4112-176.9984 176.9984-176.9984s176.9984 79.4112 176.9984 176.9984c0 9.216-0.7168 18.4832-2.1504 27.648-1.3824 8.8576 1.1776 17.92 7.0144 24.7296a30.80192 30.80192 0 0 0 23.3472 10.752h41.1136c97.792 0 177.3056 79.5648 177.3056 177.3056s-79.5648 177.3056-177.3056 177.3056h-98.3552c-16.9472 0-30.72 13.7728-30.72 30.72s13.7728 30.72 30.72 30.72h98.3552c131.6352 0 238.7456-107.1104 238.7456-238.7456s-107.1104-238.7456-238.7968-238.7456z" fill="#474A54" /></svg>