<?xml version="1.0" standalone="no"?><!DOCTYPE svg PUBLIC "-//W3C//DTD SVG 1.1//EN" "http://www.w3.org/Graphics/SVG/1.1/DTD/svg11.dtd"><svg class="icon" width="48px" height="48.00px" viewBox="0 0 1024 1024" version="1.1" xmlns="http://www.w3.org/2000/svg"><path d="M514.816 907.9296c-26.7776 0-53.504-10.1888-73.8816-30.5664l-298.3424-298.3424C39.7824 476.16 39.7824 308.8384 142.6432 205.9776c49.8176-49.8176 116.0704-77.2608 186.5216-77.2608 70.0416 0 135.9872 27.136 185.7024 76.4416 102.912-102.0416 269.6704-101.7344 372.224 0.8192 102.8608 102.8608 102.8608 270.1824 0 373.0432l-298.3424 298.3424c-20.3776 20.3776-47.1552 30.5664-73.9328 30.5664zM329.1648 190.1568c-54.0672 0-104.8576 21.0432-143.0528 59.2896-78.8992 78.8992-78.8992 207.2576 0 286.1568l298.2912 298.3424a42.752 42.752 0 0 0 30.464 12.5952c11.52 0 22.3232-4.5056 30.464-12.5952l298.3424-298.3424c78.8992-78.8992 78.8992-207.2576 0-286.1568-78.8992-78.8992-207.2576-78.8992-286.1568 0-23.5008 23.5008-61.7472 23.5008-85.248 0-38.2976-38.2464-89.088-59.2896-143.104-59.2896z" fill="#474A54" /><path d="M640 404.1216c-32.512-32.512-85.1968-32.512-117.7088 0-4.1472 4.1472-10.8032 4.1472-14.9504 0-32.512-32.512-85.1968-32.512-117.7088 0-32.512 32.512-32.512 85.1968 0 117.7088l7.4752 7.4752 99.072 99.072a26.35776 26.35776 0 0 0 37.2736 0l99.072-99.072 7.4752-7.4752c32.512-32.512 32.512-85.248 0-117.7088z" fill="#ffa115" /><path d="M514.816 666.7776c-14.592 0-29.2352-5.5808-40.3456-16.6912l-106.5472-106.5472c-44.4416-44.4416-44.4416-116.736 0-161.1776 39.936-39.936 102.4-43.9808 146.8928-12.0832 44.4928-31.8976 106.9568-27.8528 146.8928 12.0832 44.4416 44.4416 44.4416 116.736 0 161.1776l-106.5472 106.5472c-11.1104 11.1616-25.7024 16.6912-40.3456 16.6912zM448.512 410.4192c-14.0288 0-27.2384 5.4784-37.12 15.36-20.48 20.48-20.48 53.8112 0 74.2912l103.4752 103.4752 103.4752-103.4752c20.48-20.48 20.48-53.8112 0-74.2912s-53.8112-20.48-74.2912 0a41.05728 41.05728 0 0 1-29.184 12.0832c-11.008 0-21.4016-4.3008-29.184-12.0832-9.9328-9.8816-23.1424-15.36-37.1712-15.36z" fill="#474A54" /></svg>