<?xml version="1.0" standalone="no"?><!DOCTYPE svg PUBLIC "-//W3C//DTD SVG 1.1//EN" "http://www.w3.org/Graphics/SVG/1.1/DTD/svg11.dtd"><svg class="icon" width="48px" height="48.00px" viewBox="0 0 1024 1024" version="1.1" xmlns="http://www.w3.org/2000/svg"><path d="M756.4288 708.8128m-192.5632 0a192.5632 192.5632 0 1 0 385.1264 0 192.5632 192.5632 0 1 0-385.1264 0Z" fill="#ffa115" /><path d="M494.7456 324.096c0-123.136-100.1984-223.2832-223.2832-223.2832S48.128 200.96 48.128 324.096c0 112.6912 83.968 206.1312 192.5632 221.1328v133.3248h-141.824c-16.9472 0-30.72 13.7728-30.72 30.72s13.7728 30.72 30.72 30.72h141.824v136.3968c0 16.9472 13.7728 30.72 30.72 30.72s30.72-13.7728 30.72-30.72v-136.3968H444.416c16.9472 0 30.72-13.7728 30.72-30.72s-13.7728-30.72-30.72-30.72H302.1312V545.28c108.6464-15.0528 192.6144-108.4416 192.6144-221.184z m-385.1776 0c0-89.2416 72.6016-161.8432 161.8432-161.8432S433.3056 234.8544 433.3056 324.096 360.6528 485.9904 271.4112 485.9904 109.568 413.3888 109.568 324.096zM787.1488 487.68V209.0496l120.3712 114.6368a30.54592 30.54592 0 0 0 21.1968 8.4992c8.0896 0 16.2304-3.1744 22.272-9.5232 11.7248-12.288 11.2128-31.744-1.0752-43.4176l-178.432-169.9328a30.6432 30.6432 0 0 0-43.008 0.6656l-168.0384 169.9328a30.73024 30.73024 0 0 0 0.256 43.4688c12.032 11.9296 31.488 11.8272 43.4688-0.256l121.6-122.9824v287.6416c-108.6464 15.0016-192.6144 108.4416-192.6144 221.1328 0 123.136 100.1984 223.2832 223.3344 223.2832 123.136 0 223.2832-100.1984 223.2832-223.2832-0.0512-112.7936-83.968-206.1824-192.6144-221.2352z m-30.72 383.0272c-89.2416 0-161.8944-72.6016-161.8944-161.8432s72.6016-161.8944 161.8944-161.8944 161.8432 72.6016 161.8432 161.8944-72.6016 161.8432-161.8432 161.8432z" fill="#474A54" /></svg>