<?xml version="1.0" standalone="no"?><!DOCTYPE svg PUBLIC "-//W3C//DTD SVG 1.1//EN" "http://www.w3.org/Graphics/SVG/1.1/DTD/svg11.dtd"><svg class="icon" width="48px" height="48.00px" viewBox="0 0 1024 1024" version="1.1" xmlns="http://www.w3.org/2000/svg"><path d="M844.288 850.0736H171.4688c-42.4448 0-76.9024-34.4064-76.9024-76.9024v-139.1104h826.624v139.1104c0 42.496-34.4064 76.9024-76.9024 76.9024z" fill="#ffa115" /><path d="M956.416 325.5296V279.552c0-73.4208-59.6992-133.12-133.12-133.12h-624.64c-73.4208 0-133.12 59.6992-133.12 133.12v477.5936c0 73.4208 59.6992 133.12 133.12 133.12h624.64c73.4208 0 133.12-59.6992 133.12-133.12V325.6832v-0.1536zM198.656 207.872h624.64c39.5264 0 71.68 32.1536 71.68 71.68V307.2l-369.408 199.1168a30.6176 30.6176 0 0 1-29.1328 0L126.976 307.2v-27.648c0-39.5264 32.1536-71.68 71.68-71.68z m624.64 620.9536h-624.64c-39.5264 0-71.68-32.1536-71.68-71.68V376.9856l340.2752 183.3984c13.6704 7.3728 28.7232 11.0592 43.7248 11.0592 15.0016 0 30.0544-3.6864 43.7248-11.0592l340.2752-183.3984v380.16c0 39.5264-32.1536 71.68-71.68 71.68z" fill="#474A54" /></svg>