<?xml version="1.0" standalone="no"?><!DOCTYPE svg PUBLIC "-//W3C//DTD SVG 1.1//EN" "http://www.w3.org/Graphics/SVG/1.1/DTD/svg11.dtd"><svg class="icon" width="48px" height="48.00px" viewBox="0 0 1024 1024" version="1.1" xmlns="http://www.w3.org/2000/svg"><path d="M510.3616 287.8464m-198.5536 0a198.5536 198.5536 0 1 0 397.1072 0 198.5536 198.5536 0 1 0-397.1072 0Z" fill="#ffa115" /><path d="M948.0704 608.768a30.6688 30.6688 0 0 0-43.3152 3.1744l-185.7024 214.8864-87.8592-89.7536a30.73536 30.73536 0 1 0-43.9296 43.008l91.8528 93.8496c10.5472 10.8032 25.088 16.896 40.1408 16.896 0.5632 0 1.1264 0 1.7408-0.0512 15.6672-0.4608 30.5152-7.5776 40.7552-19.4048l189.44-219.2384c11.1104-12.8512 9.728-32.256-3.1232-43.3664z" fill="#474A54" /><path d="M630.528 897.8432H180.5824c-21.248 0-38.5024-17.2544-38.5024-38.5024v-21.4528c0-176.8448 143.872-320.768 320.768-320.768h95.0784c42.1888 0 83.2 8.0384 121.856 23.9616 15.6672 6.4512 33.6384-1.024 40.0896-16.7424 6.4512-15.7184-1.024-33.6384-16.7424-40.0896a380.67712 380.67712 0 0 0-50.6368-16.7424c52.992-42.0352 87.0912-106.9056 87.0912-179.6608 0-126.4128-102.8608-229.2736-229.2736-229.2736S281.1392 161.4336 281.1392 287.8464c0 72.7552 34.0992 137.6768 87.1424 179.6608-165.1712 42.1888-287.6416 192.2048-287.6416 370.3296v21.4528c0 55.0912 44.8512 99.9424 99.9424 99.9424h449.9456c16.9472 0 30.72-13.7728 30.72-30.72s-13.7728-30.6688-30.72-30.6688zM342.5792 287.8464c0-92.5184 75.264-167.8336 167.8336-167.8336s167.8336 75.264 167.8336 167.8336S602.9312 455.68 510.3616 455.68 342.5792 380.416 342.5792 287.8464z" fill="#474A54" /></svg>