<?xml version="1.0" standalone="no"?><!DOCTYPE svg PUBLIC "-//W3C//DTD SVG 1.1//EN" "http://www.w3.org/Graphics/SVG/1.1/DTD/svg11.dtd"><svg class="icon" width="48px" height="48.00px" viewBox="0 0 1024 1024" version="1.1" xmlns="http://www.w3.org/2000/svg"><path d="M371.9168 637.184m-88.2176 0a88.2176 88.2176 0 1 0 176.4352 0 88.2176 88.2176 0 1 0-176.4352 0Z" fill="#ffa115" /><path d="M798.6688 101.2224H243.6608c-73.4208 0-133.12 59.6992-133.12 133.12v555.008c0 73.4208 59.6992 133.12 133.12 133.12h555.008c73.4208 0 133.12-59.6992 133.12-133.12V234.3424c0-73.4208-59.6992-133.12-133.12-133.12z m71.68 688.128c0 39.5264-32.1536 71.68-71.68 71.68H243.6608c-39.5264 0-71.68-32.1536-71.68-71.68V234.3424c0-39.5264 32.1536-71.68 71.68-71.68h555.008c39.5264 0 71.68 32.1536 71.68 71.68v555.008z" fill="#474A54" /><path d="M439.04 273.1008L343.9104 373.8112l-39.8848-39.2704a30.78144 30.78144 0 0 0-43.4688 0.3584 30.78144 30.78144 0 0 0 0.3584 43.4688l62.2592 61.2864a30.6176 30.6176 0 0 0 21.5552 8.8064h0.5632c8.2432-0.1536 16.128-3.6352 21.76-9.6256l116.6848-123.5456a30.67904 30.67904 0 0 0-1.2288-43.4176c-12.3904-11.6736-31.8464-11.1104-43.4688 1.2288zM761.856 329.1648h-172.0832c-16.9472 0-30.72 13.7728-30.72 30.72s13.7728 30.72 30.72 30.72h172.0832c16.9472 0 30.72-13.7728 30.72-30.72s-13.7728-30.72-30.72-30.72zM761.856 606.464h-172.0832c-16.9472 0-30.72 13.7728-30.72 30.72s13.7728 30.72 30.72 30.72h172.0832c16.9472 0 30.72-13.7728 30.72-30.72s-13.7728-30.72-30.72-30.72zM371.9168 518.1952c-65.5872 0-118.9376 53.3504-118.9376 118.9376s53.3504 118.9376 118.9376 118.9376 118.9376-53.3504 118.9376-118.9376c0-65.536-53.3504-118.9376-118.9376-118.9376z m0 176.4864c-31.6928 0-57.4976-25.8048-57.4976-57.4976s25.8048-57.4976 57.4976-57.4976 57.4976 25.8048 57.4976 57.4976-25.8048 57.4976-57.4976 57.4976z" fill="#474A54" /></svg>