<?xml version="1.0" standalone="no"?><!DOCTYPE svg PUBLIC "-//W3C//DTD SVG 1.1//EN" "http://www.w3.org/Graphics/SVG/1.1/DTD/svg11.dtd"><svg class="icon" width="48px" height="48.00px" viewBox="0 0 1024 1024" version="1.1" xmlns="http://www.w3.org/2000/svg"><path d="M201.216 673.536s181.9136 90.368 301.5168 90.368 281.6512-81.8688 314.368-111.2576v166.0416s-94.72 103.7824-326.144 103.7824-288.3072-99.2256-288.3072-99.2256l-1.4336-149.7088z" fill="#ffa115" /><path d="M938.4448 393.6256c19.8656-10.1376 32.2048-29.7984 32.256-51.3536 0.0512-21.5552-12.1856-41.3184-31.9488-51.5072l-397.7728-205.6704a63.16032 63.16032 0 0 0-57.9072 0L84.4288 290.7648c-19.8144 10.24-32.0512 29.952-32 51.5072s12.4416 41.2672 32.256 51.4048l85.8112 43.7248v377.088c0 17.9712 8.1408 34.7136 22.3232 45.8752 35.4816 28.0064 137.5744 93.0816 319.1808 93.0816 184.4736 0 283.2384-73.0624 317.184-104.4992 11.8272-10.9568 18.6368-26.5728 18.6368-42.8032V439.8592l90.624-46.2336zM511.2832 139.6224a1.9968 1.9968 0 0 1 1.536 0l391.4752 202.4448-391.9872 199.8848c-0.3584 0.2048-1.1264 0.2048-1.4848 0L118.8864 342.1184l392.3968-202.496z m275.0976 665.2416c-23.808 21.7088-109.5168 87.1424-274.3808 87.1424-164.5056 0-254.7712-59.392-280.064-79.0528V468.736l250.9312 127.9488a63.3856 63.3856 0 0 0 57.344 0l246.1696-125.4912v333.6704z" fill="#474A54" /><path d="M940.032 481.1264c-16.9472 0-30.72 13.7728-30.72 30.72v252.0576c0 16.9472 13.7728 30.72 30.72 30.72s30.72-13.7728 30.72-30.72V511.8464c0-16.9984-13.7728-30.72-30.72-30.72z" fill="#474A54" /></svg>