<?xml version="1.0" standalone="no"?><!DOCTYPE svg PUBLIC "-//W3C//DTD SVG 1.1//EN" "http://www.w3.org/Graphics/SVG/1.1/DTD/svg11.dtd"><svg class="icon" width="48px" height="48.00px" viewBox="0 0 1024 1024" version="1.1" xmlns="http://www.w3.org/2000/svg"><path d="M512 515.9936m-137.5232 0a137.5232 137.5232 0 1 0 275.0464 0 137.5232 137.5232 0 1 0-275.0464 0Z" fill="#ffa115" /><path d="M919.8592 485.2736c-16.9472 0-30.72 13.7728-30.72 30.72 0 207.9744-169.1648 377.1392-377.1392 377.1392s-377.1392-169.1648-377.1392-377.1392S304.0256 138.8544 512 138.8544c108.032 0 209.7152 46.1312 280.7808 125.3888h-116.0704c-16.9472 0-30.72 13.7728-30.72 30.72s13.7728 30.72 30.72 30.72h188.2624c16.9472 0 30.72-13.7728 30.72-30.72V100.1472c0-16.9472-13.7728-30.72-30.72-30.72s-30.72 13.7728-30.72 30.72v118.272A438.17984 438.17984 0 0 0 512 77.3632c-241.8176 0-438.5792 196.7616-438.5792 438.5792s196.7616 438.5792 438.5792 438.5792 438.5792-196.7616 438.5792-438.5792c0-16.9472-13.7728-30.6688-30.72-30.6688z" fill="#474A54" /><path d="M512 684.1856c-92.7744 0-168.2432-75.4688-168.2432-168.2432 0-92.7744 75.4688-168.2432 168.2432-168.2432s168.2432 75.4688 168.2432 168.2432c0 92.7744-75.4688 168.2432-168.2432 168.2432z m0-274.9952c-58.88 0-106.8032 47.9232-106.8032 106.8032s47.9232 106.8032 106.8032 106.8032 106.8032-47.9232 106.8032-106.8032S570.88 409.1904 512 409.1904z" fill="#474A54" /></svg>