<?xml version="1.0" standalone="no"?><!DOCTYPE svg PUBLIC "-//W3C//DTD SVG 1.1//EN" "http://www.w3.org/Graphics/SVG/1.1/DTD/svg11.dtd"><svg class="icon" width="48px" height="48.00px" viewBox="0 0 1024 1024" version="1.1" xmlns="http://www.w3.org/2000/svg"><path d="M512.7168 420.3008m-145.1008 0a145.1008 145.1008 0 1 0 290.2016 0 145.1008 145.1008 0 1 0-290.2016 0Z" fill="#ffa115" /><path d="M512.7168 596.1216c-96.9216 0-175.8208-78.8992-175.8208-175.8208 0-96.9728 78.8992-175.8208 175.8208-175.8208 96.9728 0 175.8208 78.8992 175.8208 175.8208 0 96.9216-78.848 175.8208-175.8208 175.8208z m0-290.2016c-63.0784 0-114.3808 51.3024-114.3808 114.3808s51.3024 114.3808 114.3808 114.3808 114.3808-51.3024 114.3808-114.3808-51.3024-114.3808-114.3808-114.3808z" fill="#474A54" /><path d="M949.1456 876.6464l-138.5984-243.968c42.8544-59.9552 68.1984-133.2224 68.1984-212.3776 0-201.8304-164.1984-366.0288-366.0288-366.0288S146.688 218.4704 146.688 420.3008c0 78.5408 24.9856 151.3472 67.2768 211.0464l-139.3664 245.2992c-9.5744 16.7936-9.472 36.8128 0.256 53.5552 9.728 16.6912 27.0848 26.6752 46.4384 26.6752H365.568c24.0128 0 46.1312-13.056 57.7024-34.1504l75.1616-136.8064c4.7104 0.2048 9.4208 0.3584 14.2336 0.3584 4.1984 0 8.3456-0.1536 12.544-0.3072l75.1616 136.7552c11.5712 21.0432 33.6896 34.1504 57.7024 34.1504h244.2752c19.3536 0 36.7104-9.984 46.4384-26.6752 9.7792-16.6912 9.8816-36.7104 0.3584-53.5552zM512.7168 115.712c167.936 0 304.5888 136.6528 304.5888 304.5888 0 73.4208-26.112 140.9024-69.5808 193.536-0.1024 0.1536-0.256 0.3072-0.3584 0.4608a291.96288 291.96288 0 0 1-19.3536 21.248l-0.5632 0.5632c-3.2256 3.1744-6.5024 6.2976-9.8304 9.3696-3.0208 2.7136-6.0416 5.376-9.1648 7.936-0.5632 0.4608-1.0752 0.9728-1.6384 1.4336-47.1552 38.912-105.472 63.3344-166.7584 68.7616h-0.0512c-9.0112 0.8192-18.1248 1.28-27.3408 1.28-9.728 0-19.3536-0.512-28.8768-1.3824-61.0816-5.7344-119.1424-30.3104-166.0416-69.3248-0.9728-0.8192-1.9456-1.6896-2.9184-2.5088-2.6624-2.2528-5.2736-4.5568-7.8848-6.912-2.048-1.8944-4.0448-3.84-6.0928-5.7856l-4.3008-4.1472c-2.4576-2.4576-4.8128-5.0176-7.2192-7.5776-0.9216-0.9728-1.8432-1.9968-2.7648-2.9696-2.4576-2.7648-4.864-5.5296-7.2704-8.3968l-2.4064-2.8672c-43.0592-52.5312-68.9152-119.6544-68.9152-192.7168 0.1536-167.936 136.8064-304.5888 304.7424-304.5888zM433.0496 777.472l-63.5904 115.6608c-0.768 1.4336-2.2528 2.304-3.8912 2.304H134.6048l121.6512-214.2208c3.4304 3.328 6.912 6.6048 10.4448 9.7792 0.1024 0.1024 0.2048 0.1536 0.256 0.256 3.6352 3.2768 7.3216 6.4512 11.008 9.5744 1.4848 1.28 3.0208 2.5088 4.5568 3.7376 2.2016 1.792 4.4544 3.5328 6.7072 5.2736a365.70624 365.70624 0 0 0 142.7456 67.3792c0.4096 0.1024 0.7168 0.2048 1.0752 0.256z m225.0752 118.016c-1.5872 0-3.072-0.8704-3.84-2.304l-63.3856-115.3536a364.43648 364.43648 0 0 0 135.68-60.7232c0.9728-0.6656 1.9456-1.3312 2.8672-2.048 1.9968-1.4336 3.9424-2.9696 5.888-4.4544 2.6112-1.9968 5.2224-4.0448 7.7824-6.144 1.2288-0.9728 2.4576-1.9456 3.6352-2.9696 7.3728-6.0928 14.4896-12.4928 21.4016-19.1488l121.0368 213.0944h-231.0656z" fill="#474A54" /></svg>