<?xml version="1.0" standalone="no"?><!DOCTYPE svg PUBLIC "-//W3C//DTD SVG 1.1//EN" "http://www.w3.org/Graphics/SVG/1.1/DTD/svg11.dtd"><svg class="icon" width="48px" height="48.00px" viewBox="0 0 1024 1024" version="1.1" xmlns="http://www.w3.org/2000/svg"><path d="M841.0112 908.6464H192.4096c-49.408 0-89.4976-40.0384-89.4976-89.4976V479.1296c0-15.0016 16.64-24.064 29.2352-15.9232l362.0864 233.8816a41.28768 41.28768 0 0 0 44.8 0L901.12 463.2064c12.5952-8.1408 29.2352 0.9216 29.2352 15.9232v340.0192c0.1536 49.408-39.936 89.4976-89.344 89.4976z" fill="#ffa115" /><path d="M935.2704 435.5072a49.69472 49.69472 0 0 0-50.7392 1.8944l-24.4224 15.7696v-248.32c0-66.2528-53.9136-120.2176-120.2176-120.2176H302.08c-66.2528 0-120.2176 53.9136-120.2176 120.2176V458.752l-33.024-21.2992a49.69472 49.69472 0 0 0-76.6464 41.728V819.2c0 66.2528 53.9136 120.2176 120.2176 120.2176h648.6016c66.2528 0 120.2176-53.9136 120.2176-120.2176V479.1296c0-18.176-9.9328-34.9184-25.9584-43.6224zM243.3024 498.432V204.8512c0-32.4096 26.368-58.7776 58.7776-58.7776h437.8624c32.4096 0 58.7776 26.368 58.7776 58.7776v288.0512l-276.224 178.432c-0.8704 0.5632-1.792 0.9728-2.7648 1.28-2.9184 0.8192-6.0928 0.4096-8.704-1.28L243.3024 498.432z m656.4864 320.7168c0 32.4096-26.368 58.7776-58.7776 58.7776H192.4096c-32.4096 0-58.7776-26.368-58.7776-58.7776V500.736l343.9616 222.208c11.8784 7.68 25.4464 11.52 39.0656 11.52s27.1872-3.84 39.0656-11.52l290.304-187.4944 53.7088-34.6624v318.3616z" fill="#474A54" /><path d="M516.6592 578.9184c-7.8848 0-15.7184-3.0208-21.7088-9.0112L361.6256 436.6848c-42.7008-42.752-42.7008-112.2304 0-154.9824 20.6848-20.6848 48.2304-32.1024 77.4656-32.1024 29.2864 0 56.7808 11.4176 77.4656 32.1024 20.6848-20.6848 48.2304-32.1024 77.4656-32.1024 29.2864 0 56.7808 11.4176 77.4656 32.1024 42.7008 42.7008 42.7008 112.2304 0 154.9824l-133.2736 133.2736c-5.8368 5.9904-13.7216 8.96-21.5552 8.96zM439.1424 311.04c-12.8512 0-24.9344 5.0176-34.048 14.08-18.7904 18.7904-18.7904 49.3056 0 68.096l111.5648 111.5648L628.224 393.216c18.7904-18.7904 18.7904-49.3056 0-68.096a47.78496 47.78496 0 0 0-34.048-14.08c-12.8512 0-24.9344 5.0176-34.048 14.08l-21.76 21.76a30.72 30.72 0 0 1-43.4176 0l-21.76-21.76a48 48 0 0 0-34.048-14.08z" fill="#474A54" /></svg>