<?xml version="1.0" standalone="no"?><!DOCTYPE svg PUBLIC "-//W3C//DTD SVG 1.1//EN" "http://www.w3.org/Graphics/SVG/1.1/DTD/svg11.dtd"><svg class="icon" width="48px" height="48.00px" viewBox="0 0 1024 1024" version="1.1" xmlns="http://www.w3.org/2000/svg"><path d="M709.4272 510.1568m-63.0272 0a63.0272 63.0272 0 1 0 126.0544 0 63.0272 63.0272 0 1 0-126.0544 0Z" fill="#ffa115" /><path d="M303.2576 510.1568m-63.0272 0a63.0272 63.0272 0 1 0 126.0544 0 63.0272 63.0272 0 1 0-126.0544 0Z" fill="#ffa115" /><path d="M514.4064 312.7808m-63.0272 0a63.0272 63.0272 0 1 0 126.0544 0 63.0272 63.0272 0 1 0-126.0544 0Z" fill="#ffa115" /><path d="M514.4064 707.584m-63.0272 0a63.0272 63.0272 0 1 0 126.0544 0 63.0272 63.0272 0 1 0-126.0544 0Z" fill="#ffa115" /><path d="M512 406.4768c51.712 0 93.7472-42.0352 93.7472-93.7472s-42.0352-93.696-93.7472-93.696-93.7472 42.0352-93.7472 93.7472 42.0352 93.696 93.7472 93.696z m0-126.0032c17.8176 0 32.3072 14.4896 32.3072 32.3072 0 17.8176-14.4896 32.3072-32.3072 32.3072s-32.3072-14.4896-32.3072-32.3072c0-17.8176 14.4896-32.3072 32.3072-32.3072zM605.7472 707.584c0-51.712-42.0352-93.7472-93.7472-93.7472s-93.7472 42.0352-93.7472 93.7472 42.0352 93.7472 93.7472 93.7472 93.7472-42.0352 93.7472-93.7472z m-126.0544 0c0-17.8176 14.4896-32.3072 32.3072-32.3072s32.3072 14.4896 32.3072 32.3072-14.4896 32.3072-32.3072 32.3072-32.3072-14.4896-32.3072-32.3072zM709.4272 603.904c51.712 0 93.7472-42.0352 93.7472-93.7472s-42.0352-93.7472-93.7472-93.7472-93.7472 42.0352-93.7472 93.7472 42.0352 93.7472 93.7472 93.7472z m0-126.0544c17.8176 0 32.3072 14.4896 32.3072 32.3072s-14.4896 32.3072-32.3072 32.3072-32.3072-14.4896-32.3072-32.3072 14.4896-32.3072 32.3072-32.3072zM314.5728 416.4096c-51.712 0-93.7472 42.0352-93.7472 93.7472s42.0352 93.7472 93.7472 93.7472c51.6608 0 93.7472-42.0352 93.7472-93.7472s-42.0352-93.7472-93.7472-93.7472z m0 126.0544c-17.8176 0-32.3072-14.4896-32.3072-32.3072s14.4896-32.3072 32.3072-32.3072c17.8176 0 32.3072 14.4896 32.3072 32.3072s-14.4896 32.3072-32.3072 32.3072z" fill="#474A54" /><path d="M920.5248 884.6848h-184.832c128.9216-76.6464 215.552-217.2416 215.552-377.8048 0-242.176-197.0176-439.2448-439.2448-439.2448-242.176 0-439.2448 197.0688-439.2448 439.2448S269.824 946.1248 512 946.1248h408.5248c16.9472 0 30.72-13.7728 30.72-30.72s-13.7728-30.72-30.72-30.72zM134.1952 506.88c0-208.3328 169.472-377.8048 377.8048-377.8048s377.8048 169.472 377.8048 377.8048-169.472 377.8048-377.8048 377.8048S134.1952 715.2128 134.1952 506.88z" fill="#474A54" /></svg>