<?xml version="1.0" standalone="no"?><!DOCTYPE svg PUBLIC "-//W3C//DTD SVG 1.1//EN" "http://www.w3.org/Graphics/SVG/1.1/DTD/svg11.dtd"><svg class="icon" width="48px" height="48.00px" viewBox="0 0 1024 1024" version="1.1" xmlns="http://www.w3.org/2000/svg"><path d="M844.5952 861.7984H178.176c-55.3984 0-100.2496-44.9024-100.2496-100.2496v-116.8384h866.9696v116.8384c-0.0512 55.3472-44.9536 100.2496-100.3008 100.2496z" fill="#ffa115" /><path d="M857.5488 141.6192H174.7968c-73.4208 0-133.12 59.6992-133.12 133.12v475.1872c0 73.4208 59.6992 133.12 133.12 133.12H857.6c73.4208 0 133.12-59.6992 133.12-133.12V274.7392c-0.0512-73.4208-59.7504-133.12-133.1712-133.12z m-682.752 61.44H857.6c39.5264 0 71.68 32.1536 71.68 71.68v77.6704H103.1168V274.7392c0-39.5264 32.1536-71.68 71.68-71.68z m682.752 618.496H174.7968c-39.5264 0-71.68-32.1536-71.68-71.68V413.7984H929.28v336.0768c-0.0512 39.5264-32.2048 71.68-71.7312 71.68z" fill="#474A54" /><path d="M398.2336 541.4912h-200.704c-16.9472 0-30.72-13.7728-30.72-30.72s13.7728-30.72 30.72-30.72h200.7552c16.9472 0 30.72 13.7728 30.72 30.72s-13.7728 30.72-30.7712 30.72z" fill="#474A54" /></svg>