<?xml version="1.0" standalone="no"?><!DOCTYPE svg PUBLIC "-//W3C//DTD SVG 1.1//EN" "http://www.w3.org/Graphics/SVG/1.1/DTD/svg11.dtd"><svg class="icon" width="48px" height="48.00px" viewBox="0 0 1024 1024" version="1.1" xmlns="http://www.w3.org/2000/svg"><path d="M168.4992 722.5856h108.5952V317.3376H168.4992c-33.28 0-60.2624 26.9824-60.2624 60.2624v284.7744c0 33.2288 26.9824 60.2112 60.2624 60.2112z" fill="#ffa115" /><path d="M536.4736 81.0496a72.6016 72.6016 0 0 0-79.4624 16.2816l-163.84 166.4512a53.72928 53.72928 0 0 1-37.9904 15.9232H180.6848c-63.2832 0-114.7392 51.456-114.7392 114.7392v250.9824c0 63.2832 51.456 114.7392 114.7392 114.7392h95.1808c14.1824 0 28.0576 5.7856 37.9904 15.9232L457.0112 921.6a72.3968 72.3968 0 0 0 51.7632 21.76c9.3184 0 18.688-1.792 27.6992-5.4784 27.4432-11.264 45.2096-37.6832 45.2096-67.328V148.4288c0-29.696-17.7152-56.1152-45.2096-67.3792z m-16.2304 789.4528c0 6.6048-4.4032 9.4208-7.0656 10.496s-7.7312 2.2016-12.3904-2.56l-143.1552-145.5104c-21.4016-21.76-51.2512-34.2528-81.7664-34.2528H180.6848c-29.3888 0-53.2992-23.9104-53.2992-53.2992V394.4448c0-29.3888 23.9104-53.2992 53.2992-53.2992h74.5472c30.5152 0 60.3648-12.4928 81.7664-34.2528l163.84-166.4512c4.6592-4.7104 9.728-3.6352 12.3904-2.56 2.6112 1.0752 7.0656 3.8912 7.0656 10.496v722.1248zM670.9248 385.3824a30.72 30.72 0 0 0 0 43.4176 120.5248 120.5248 0 0 1 35.5328 85.76c0 32.4096-12.5952 62.8736-35.5328 85.76-11.9808 11.9808-11.9808 31.4368 0 43.4688a30.67392 30.67392 0 0 0 43.4176 0c34.5088-34.5088 53.504-80.384 53.504-129.2288s-18.9952-94.72-53.504-129.2288a30.76096 30.76096 0 0 0-43.4176 0.0512zM856.5248 243.2512a30.72 30.72 0 0 0-43.4176 0 30.72 30.72 0 0 0 0 43.4176c125.6448 125.6448 125.6448 330.1376 0 455.7824a30.72 30.72 0 0 0 21.7088 52.4288c7.8336 0 15.7184-3.0208 21.7088-9.0112 149.6064-149.5552 149.6064-393.0112 0-542.6176z" fill="#474A54" /></svg>