<?xml version="1.0" standalone="no"?><!DOCTYPE svg PUBLIC "-//W3C//DTD SVG 1.1//EN" "http://www.w3.org/Graphics/SVG/1.1/DTD/svg11.dtd"><svg class="icon" width="48px" height="48.00px" viewBox="0 0 1024 1024" version="1.1" xmlns="http://www.w3.org/2000/svg"><path d="M180.0192 756.8384h138.5472V289.8432H180.0192c-45.2608 0-81.9712 36.7104-81.9712 81.9712v303.0528c0 45.2608 36.7104 81.9712 81.9712 81.9712z" fill="#ffa115" /><path d="M508.7232 939.008c-26.1632 0-51.712-10.6496-70.5024-30.5664l-110.3872-116.7872a36.06528 36.06528 0 0 0-26.0608-11.2128h-116.224c-73.4208 0-133.12-59.6992-133.12-133.12V394.8032c0-73.4208 59.6992-133.12 133.12-133.12h110.4896c9.5232 0 18.5344-3.6864 25.2928-10.4448L440.32 132.9664c28.416-28.2112 69.0176-36.1984 105.984-20.8384 36.9664 15.36 59.9552 49.8176 59.9552 89.856v639.6928c0 40.0896-24.064 75.5712-61.3376 90.4192-11.8272 4.6592-24.064 6.912-36.1984 6.912zM185.5488 323.1232c-39.5264 0-71.68 32.1536-71.68 71.68v252.5184c0 39.5264 32.1536 71.68 71.68 71.68h116.1728c26.624 0 52.4288 11.1104 70.7072 30.464L482.816 866.304c15.5136 16.384 33.9968 10.8032 39.3216 8.704 5.3248-2.0992 22.6304-10.752 22.6304-33.3312V201.9328c0-22.2208-16.896-30.976-22.0672-33.1264-5.1712-2.1504-23.296-7.9872-39.0656 7.68L364.6464 294.8608c-18.3808 18.2272-42.7008 28.3136-68.608 28.3136H185.5488zM695.3472 741.2736c-9.5744 0-18.9952-4.4544-24.9856-12.8512a30.72512 30.72512 0 0 1 7.0656-42.8544c52.1728-37.376 83.3536-97.9456 83.3536-161.9968 0-66.2528-32.8192-127.9488-87.808-165.12a30.6688 30.6688 0 0 1-8.2432-42.6496 30.70976 30.70976 0 0 1 42.6496-8.2432c71.8848 48.5888 114.8416 129.3312 114.8416 216.0128 0 83.8656-40.7552 163.072-109.0048 211.968a30.52544 30.52544 0 0 1-17.8688 5.7344z" fill="#474A54" /><path d="M818.0736 859.392c-8.2944 0-16.5888-3.328-22.6304-9.9328a30.7456 30.7456 0 0 1 1.8432-43.4176c80.128-73.5232 126.1056-178.0224 126.1056-286.72 0-107.7248-43.008-207.9232-121.1392-282.112a30.72512 30.72512 0 0 1-1.1264-43.4176c11.6736-12.288 31.1296-12.8 43.4176-1.1264 90.4704 85.9136 140.2368 201.9328 140.2368 326.656 0 125.8496-53.1968 246.8352-145.9712 331.9808a30.45888 30.45888 0 0 1-20.736 8.0896z" fill="#474A54" /></svg>