<?xml version="1.0" standalone="no"?><!DOCTYPE svg PUBLIC "-//W3C//DTD SVG 1.1//EN" "http://www.w3.org/Graphics/SVG/1.1/DTD/svg11.dtd"><svg class="icon" width="48px" height="48.00px" viewBox="0 0 1024 1024" version="1.1" xmlns="http://www.w3.org/2000/svg"><path d="M800.5632 937.6256H228.3008c-73.4208 0-133.12-59.6992-133.12-133.12V221.952c0-73.4208 59.6992-133.12 133.12-133.12h572.2112c73.4208 0 133.12 59.6992 133.12 133.12v582.5024c0.0512 73.4208-59.6992 133.1712-133.0688 133.1712zM228.3008 150.272c-39.5264 0-71.68 32.1536-71.68 71.68v582.5024c0 39.5264 32.1536 71.68 71.68 71.68h572.2112c39.5264 0 71.68-32.1536 71.68-71.68V221.952c0-39.5264-32.1536-71.68-71.68-71.68H228.3008z" fill="#474A54" /><path d="M317.4912 633.5488a132.4544 98.2528 0 1 0 264.9088 0 132.4544 98.2528 0 1 0-264.9088 0Z" fill="#ffa115" /><path d="M769.536 389.2736l-118.3744-95.6416a39.808 39.808 0 0 0-40.192-5.8368 39.75168 39.75168 0 0 0-24.3712 32.4608l-24.064 220.0576c-29.2864-22.1184-68.9664-35.7888-112.5888-35.7888-89.9584 0-163.1744 57.856-163.1744 128.9728s73.216 128.9728 163.1744 128.9728c82.3808 0 150.6816-48.5376 161.5872-111.3088 0.6656-1.9968 1.1264-4.0448 1.3824-6.2464l30.464-278.6816 87.6032 70.7584a30.73536 30.73536 0 0 0 43.2128-4.608c10.6496-13.1072 8.5504-32.4608-4.6592-43.1104z m-319.5904 311.7568c-55.1424 0-101.7344-30.9248-101.7344-67.5328s46.592-67.5328 101.7344-67.5328 101.7344 30.9248 101.7344 67.5328-46.592 67.5328-101.7344 67.5328z" fill="#474A54" /></svg>