<?xml version="1.0" standalone="no"?><!DOCTYPE svg PUBLIC "-//W3C//DTD SVG 1.1//EN" "http://www.w3.org/Graphics/SVG/1.1/DTD/svg11.dtd"><svg class="icon" width="48px" height="48.00px" viewBox="0 0 1024 1024" version="1.1" xmlns="http://www.w3.org/2000/svg"><path d="M785.7152 694.5792m-147.0464 0a147.0464 147.0464 0 1 0 294.0928 0 147.0464 147.0464 0 1 0-294.0928 0Z" fill="#ffa115" /><path d="M238.6944 770.304m-147.0464 0a147.0464 147.0464 0 1 0 294.0928 0 147.0464 147.0464 0 1 0-294.0928 0Z" fill="#ffa115" /><path d="M962.3552 674.8672V188.0576c0-33.6384-14.5408-65.5872-39.8336-87.7056a116.2752 116.2752 0 0 0-92.2624-27.648l-375.7056 51.1488C397.1584 131.6864 353.8432 181.248 353.8432 239.2064v395.776c-31.0272-26.4704-71.2704-42.496-115.1488-42.496-98.048 0-177.7664 79.7696-177.7664 177.7664s79.7696 177.7664 177.7664 177.7664 177.7664-79.7696 177.7664-177.7664c0-6.8608-0.4096-13.6192-1.1776-20.3264V397.5168l352-49.7664c16.7936-2.3552 28.4672-17.92 26.112-34.7136-2.3552-16.7936-17.92-28.4672-34.7136-26.112L415.232 335.4624v-96.256c0-27.3408 20.4288-50.7904 47.5648-54.4768l375.7056-51.1488c15.7184-2.1504 31.5904 2.6112 43.5712 13.056s18.8416 25.5488 18.8416 41.4208v371.3536c-31.0784-26.5216-71.2704-42.5472-115.2-42.5472-98.048 0-177.7664 79.7696-177.7664 177.7664s79.7696 177.7664 177.7664 177.7664 177.7664-79.7696 177.7664-177.7664c0-6.7072-0.3584-13.312-1.1264-19.7632zM238.6944 886.6304c-64.1536 0-116.3264-52.1728-116.3264-116.3264s52.1728-116.3264 116.3264-116.3264 116.3264 52.1728 116.3264 116.3264c0.0512 64.1536-52.1728 116.3264-116.3264 116.3264z m547.0208-75.6736c-64.1536 0-116.3264-52.1728-116.3264-116.3264s52.1728-116.3264 116.3264-116.3264c58.7264 0 107.4176 43.7248 115.2 100.352v7.3728c0 2.816 0.4096 5.5296 1.1264 8.0896v0.5632c0 64.1024-52.1728 116.2752-116.3264 116.2752z" fill="#474A54" /></svg>