<?xml version="1.0" standalone="no"?><!DOCTYPE svg PUBLIC "-//W3C//DTD SVG 1.1//EN" "http://www.w3.org/Graphics/SVG/1.1/DTD/svg11.dtd"><svg class="icon" width="48px" height="48.00px" viewBox="0 0 1024 1024" version="1.1" xmlns="http://www.w3.org/2000/svg"><path d="M803.4816 219.648a407.1936 407.1936 0 0 1 37.0688 170.1888c0 225.9968-183.1936 409.1904-409.1904 409.1904-112.2304 0-213.9136-45.2096-287.7952-118.3744 64.6144 141.0048 206.8992 239.0528 372.1216 239.0528 225.9968 0 409.1904-183.1936 409.1904-409.1904 0-113.7664-46.4384-216.6784-121.3952-290.8672z" fill="#ffa115" /><path d="M515.6864 950.4256c-242.5856 0-439.9104-197.3248-439.9104-439.9104s197.376-439.9104 439.9104-439.9104 439.9104 197.376 439.9104 439.9104-197.3248 439.9104-439.9104 439.9104z m0-818.432c-208.6912 0-378.4704 169.7792-378.4704 378.4704 0 208.6912 169.7792 378.4704 378.4704 378.4704 208.6912 0 378.4704-169.7792 378.4704-378.4704 0-208.6912-169.7792-378.4704-378.4704-378.4704z" fill="#474A54" /><path d="M507.2896 639.5904c-16.9472 0-30.72-13.7728-30.72-30.72V507.5456c0-16.9472 13.7728-30.72 30.72-30.72 43.6736 0 79.1552-35.5328 79.1552-79.1552S550.9632 318.464 507.2896 318.464s-79.1552 35.5328-79.1552 79.1552c0 16.9472-13.7728 30.72-30.72 30.72s-30.72-13.7728-30.72-30.72c0-77.5168 63.0784-140.5952 140.5952-140.5952s140.5952 63.0784 140.5952 140.5952c0 66.9696-47.104 123.1872-109.8752 137.216v74.0352c0 16.9984-13.7728 30.72-30.72 30.72z" fill="#474A54" /><path d="M507.2896 734.1568m-40.5504 0a40.5504 40.5504 0 1 0 81.1008 0 40.5504 40.5504 0 1 0-81.1008 0Z" fill="#474A54" /></svg>