<?xml version="1.0" standalone="no"?><!DOCTYPE svg PUBLIC "-//W3C//DTD SVG 1.1//EN" "http://www.w3.org/Graphics/SVG/1.1/DTD/svg11.dtd"><svg class="icon" width="48px" height="48.00px" viewBox="0 0 1024 1024" version="1.1" xmlns="http://www.w3.org/2000/svg"><path d="M377.3952 246.9888v527.9232l-98.9184 46.7968H157.44s-84.224-7.936-84.224-117.6064V289.6896s4.5056-104.6016 85.9648-104.6016H273.408s51.9168 70.7072 103.9872 61.9008z" fill="#ffa115" /><path d="M859.4944 853.0944H481.7408c-18.432 0-35.9936-7.9872-48.1792-21.9136-14.2336-16.2304-34.7136-25.5488-56.2176-25.5488s-41.984 9.3184-56.2176 25.5488a64.04608 64.04608 0 0 1-48.1792 21.9136h-98.816c-73.8816 0-133.9904-60.1088-133.9904-133.9904V287.8976c0-73.8816 60.1088-133.9904 133.9904-133.9904H261.632c21.4016 0 41.472 10.9056 53.6576 29.1328 13.9264 20.7872 37.12 33.2288 62.0544 33.2288s48.128-12.3904 62.0544-33.2288c12.2368-18.2272 32.3072-29.1328 53.6576-29.1328h366.3872c73.8816 0 133.9904 60.1088 133.9904 133.9904v431.2064c0 73.8816-60.1088 133.9904-133.9392 133.9904z m-482.0992-108.9024c39.2192 0 76.544 16.9472 102.4 46.4896 0.512 0.6144 1.2288 0.9728 1.9456 0.9728h377.7024c39.9872 0 72.5504-32.5632 72.5504-72.5504V287.8976c0-39.9872-32.5632-72.5504-72.5504-72.5504H493.1072c-0.8192 0-1.8432 0.7168-2.6112 1.8944-25.344 37.8368-67.6352 60.4672-113.1008 60.4672s-87.7568-22.5792-113.1008-60.4672c-0.768-1.1264-1.792-1.8944-2.6112-1.8944h-87.552c-39.9872 0-72.5504 32.5632-72.5504 72.5504v431.2064c0 39.9872 32.5632 72.5504 72.5504 72.5504h98.8672c0.7168 0 1.4336-0.3584 1.9456-0.9728a136.20224 136.20224 0 0 1 102.4512-46.4896z" fill="#474A54" /><path d="M374.0672 474.4192c-16.9472 0-30.72-13.7728-30.72-30.72V379.392c0-16.9472 13.7728-30.72 30.72-30.72s30.72 13.7728 30.72 30.72v64.256c0 16.9984-13.7728 30.7712-30.72 30.7712zM374.0672 669.1328c-16.9472 0-30.72-13.7728-30.72-30.72v-64.256c0-16.9472 13.7728-30.72 30.72-30.72s30.72 13.7728 30.72 30.72v64.256c0 16.9984-13.7728 30.72-30.72 30.72z" fill="#474A54" /></svg>