<?xml version="1.0" standalone="no"?><!DOCTYPE svg PUBLIC "-//W3C//DTD SVG 1.1//EN" "http://www.w3.org/Graphics/SVG/1.1/DTD/svg11.dtd"><svg class="icon" width="48px" height="48.00px" viewBox="0 0 1024 1024" version="1.1" xmlns="http://www.w3.org/2000/svg"><path d="M138.496 181.5552l768.9728 10.24s-328.448 328.1408-384.512 330.4448c-56.0128 2.304-377.6-293.4272-384.4608-340.6848z" fill="#ffa115" /><path d="M848.2304 142.1824H179.7632c-73.4208 0-133.12 59.6992-133.12 133.12V742.4c0 73.4208 59.6992 133.12 133.12 133.12h668.416c73.4208 0 133.12-59.6992 133.12-133.12V275.3024c0.0512-73.4208-59.6992-133.12-133.0688-133.12z m-203.3664 347.3408l270.4384-239.1552c2.9184 7.7824 4.5568 16.1792 4.5568 24.9344V742.4c0 9.0112-1.7408 17.664-4.8128 25.6l-270.1824-278.4768z m203.3664-285.9008c8.0384 0 15.7184 1.3824 22.8864 3.84l-300.9024 266.0864c-26.7776 23.7056-67.3792 23.9104-94.4128 0.512L165.2224 205.1072c4.7104-0.9728 9.5744-1.4848 14.592-1.4848h668.416zM114.7392 772.3008c-4.1984-9.1136-6.6048-19.2512-6.6048-29.9008V275.3024c0-11.4176 2.7648-22.2208 7.5264-31.7952L390.2976 481.28l-275.5584 291.0208z m65.024 41.7792c-6.144 0-12.0832-0.8704-17.7664-2.304l274.8416-290.304c24.7296 20.8896 55.296 31.3344 85.8624 31.3344 26.4192 0 52.736-7.8848 75.3152-23.3472l272.5888 280.9856c-7.0656 2.3552-14.592 3.6352-22.4256 3.6352H179.7632z" fill="#474A54" /></svg>