<?xml version="1.0" standalone="no"?><!DOCTYPE svg PUBLIC "-//W3C//DTD SVG 1.1//EN" "http://www.w3.org/Graphics/SVG/1.1/DTD/svg11.dtd"><svg class="icon" width="48px" height="48.00px" viewBox="0 0 1024 1024" version="1.1" xmlns="http://www.w3.org/2000/svg"><path d="M728.0128 391.4752h-94.1056l-47.0528 81.5104 47.0528 81.5104h94.1056l47.0528-81.5104z" fill="#ffa115" /><path d="M968.4992 695.1424l-54.7328-416.4608c-8.6528-65.9968-65.4336-115.7632-131.9936-115.7632H248.7808c-66.56 0-123.2896 49.7664-131.9936 115.7632l-54.7328 416.4608c-5.0688 38.5536 6.7584 77.4144 32.3584 106.6496s62.6176 45.9776 101.5296 45.9776h96.5632c37.2736 0 73.2672-15.616 98.7136-42.9056l14.6432-15.6672a73.8816 73.8816 0 0 1 53.8112-23.3472h141.056c19.6096 0 37.9904 7.6288 51.9168 21.4016l21.3504 21.1968c25.4976 25.344 59.2896 39.2704 95.232 39.2704h65.4848c38.8608 0 75.8784-16.7424 101.5296-45.9776 25.4976-29.184 37.3248-68.096 32.256-106.5984z m-78.592 66.0992a73.60512 73.60512 0 0 1-55.296 25.0368h-65.4848c-19.5584 0-37.9904-7.6288-51.8656-21.4016l-21.3504-21.1968c-25.4464-25.344-59.2896-39.2704-95.232-39.2704H459.6224c-37.2736 0-73.2672 15.616-98.7136 42.9056l-14.6432 15.6672a73.9328 73.9328 0 0 1-53.8112 23.3984H195.9424c-21.1968 0-41.3696-9.1136-55.296-25.0368a73.54368 73.54368 0 0 1-17.6128-58.112L177.7664 286.72c4.6592-35.5328 35.2256-62.3616 71.0656-62.3616h532.992c35.84 0 66.4064 26.7776 71.0656 62.3616l54.7328 416.512c2.7136 20.8896-3.7376 42.0864-17.7152 58.0096z" fill="#474A54" /><path d="M438.784 442.2656H383.744V387.2256c0-16.9472-13.7728-30.72-30.72-30.72s-30.72 13.7728-30.72 30.72v55.04H267.2128c-16.9472 0-30.72 13.7728-30.72 30.72s13.7728 30.72 30.72 30.72h55.0912v55.0912c0 16.9472 13.7728 30.72 30.72 30.72s30.72-13.7728 30.72-30.72V503.7056H438.784c16.9472 0 30.72-13.7728 30.72-30.72s-13.7216-30.72-30.72-30.72zM754.6368 376.1152c-5.4784-9.5232-15.616-15.36-26.624-15.36h-94.1056c-10.9568 0-21.0944 5.8368-26.624 15.36l-47.0528 81.5104a30.76608 30.76608 0 0 0 0 30.72l47.0528 81.5104c5.4784 9.5232 15.616 15.36 26.624 15.36h94.1056c10.9568 0 21.0944-5.8368 26.624-15.36l47.0528-81.5104a30.76608 30.76608 0 0 0 0-30.72l-47.0528-81.5104z m-44.3392 147.6608h-58.6752l-29.3376-50.7904 29.3376-50.7904h58.6752l29.3376 50.7904-29.3376 50.7904z" fill="#474A54" /></svg>