<?xml version="1.0" standalone="no"?><!DOCTYPE svg PUBLIC "-//W3C//DTD SVG 1.1//EN" "http://www.w3.org/Graphics/SVG/1.1/DTD/svg11.dtd"><svg class="icon" width="48px" height="48.00px" viewBox="0 0 1024 1024" version="1.1" xmlns="http://www.w3.org/2000/svg"><path d="M240.64 700.9792h534.6816v199.9872H240.64z" fill="#ffa115" /><path d="M444.672 396.032c-4.5056 1.3824-109.7728 35.2768-114.432 158.9248a30.68928 30.68928 0 0 0 29.5424 31.8464h1.1776c16.4352 0 30.0544-13.0048 30.6688-29.5424 2.9696-79.0016 68.1472-101.5296 71.3728-102.6048 16.0768-5.0688 25.088-22.2208 20.0704-38.3488a30.7712 30.7712 0 0 0-38.4-20.2752zM507.9552 219.2896c16.9472 0 30.72-13.7728 30.72-30.72V110.1312c0-16.9472-13.7728-30.72-30.72-30.72s-30.72 13.7728-30.72 30.72v78.4384c0 16.9472 13.7728 30.72 30.72 30.72z" fill="#474A54" /><path d="M886.4256 870.2976h-80.384v-308.5312c0-164.352-133.6832-298.0352-298.0352-298.0352C343.6032 263.7312 209.92 397.4144 209.92 561.7664v308.5312H122.9824c-16.9472 0-30.72 13.7728-30.72 30.72s13.7728 30.72 30.72 30.72h763.392c16.9472 0 30.72-13.7728 30.72-30.72s-13.7216-30.72-30.6688-30.72z m-615.0656 0v-308.5312c0-130.4576 106.1376-236.5952 236.5952-236.5952s236.5952 106.1376 236.5952 236.5952v308.5312H271.36zM277.6064 270.2336a30.71488 30.71488 0 0 0 42.5472 8.7552 30.66368 30.66368 0 0 0 8.7552-42.5472l-48.2304-73.2672a30.66368 30.66368 0 0 0-42.5472-8.7552 30.66368 30.66368 0 0 0-8.7552 42.5472l48.2304 73.2672zM161.6384 443.9552c11.4176 0 22.3744-6.4 27.648-17.3056 7.424-15.2576 1.024-33.6384-14.2336-41.0624l-78.9504-38.2464a30.78144 30.78144 0 0 0-41.0624 14.2336c-7.424 15.2576-1.024 33.6384 14.2336 41.0624l78.9504 38.2464c4.352 2.048 8.96 3.072 13.4144 3.072zM691.7632 279.04a30.71488 30.71488 0 0 0 42.5472-8.7552l48.2304-73.2672a30.75584 30.75584 0 0 0-8.7552-42.5472 30.75584 30.75584 0 0 0-42.5472 8.7552l-48.2304 73.2672a30.72 30.72 0 0 0 8.7552 42.5472zM956.8256 361.5744c-7.424-15.2576-25.8048-21.6576-41.0624-14.2336l-78.9504 38.2464a30.70464 30.70464 0 0 0-14.2336 41.0624 30.72 30.72 0 0 0 41.0112 14.2336l78.9504-38.2464c15.3088-7.424 21.7088-25.8048 14.2848-41.0624z" fill="#474A54" /></svg>