<?xml version="1.0" standalone="no"?><!DOCTYPE svg PUBLIC "-//W3C//DTD SVG 1.1//EN" "http://www.w3.org/Graphics/SVG/1.1/DTD/svg11.dtd"><svg class="icon" width="48px" height="48.00px" viewBox="0 0 1024 1024" version="1.1" xmlns="http://www.w3.org/2000/svg"><path d="M264.4992 404.3776s82.7392-106.3424 247.04-106.3424 253.6448 106.3424 253.6448 106.3424 2.3552-268.9024-250.368-268.9024-247.2448 256.6656-250.3168 268.9024z" fill="#ffa115" /><path d="M796.3648 397.2608c0.1536-3.584 0.2048-7.168 0.2048-10.752 0-155.3408-126.3616-281.7024-281.7024-281.7024S233.1136 231.168 233.1136 386.5088c0 3.584 0.0512 7.168 0.2048 10.752-118.0672 23.2448-202.8544 125.7472-202.8544 247.1424 0 138.9568 113.0496 252.0064 252.0064 252.0064h464.64c138.9568 0 252.0064-113.0496 252.0064-252.0064 0.0512-121.3952-84.6848-223.8976-202.752-247.1424z m-49.2032 437.76H282.5216c-105.1136 0-190.5664-85.504-190.5664-190.5664 0-94.1056 67.3792-173.2096 160.1536-188.1088 26.0096-4.1472 44.9024-27.9552 43.0592-54.1184a230.2976 230.2976 0 0 1-0.5632-15.7184c0-121.4464 98.816-220.2624 220.2624-220.2624s220.2624 98.816 220.2624 220.2624c0 5.2224-0.2048 10.496-0.5632 15.7184-1.8944 26.1632 17.0496 49.92 43.0592 54.1184 92.7744 14.848 160.1536 94.0032 160.1536 188.1088-0.0512 105.0624-85.5552 190.5664-190.6176 190.5664z" fill="#474A54" /><path d="M640.256 581.5296c-33.4848 33.4848-78.0288 51.9168-125.3888 51.9168-47.36 0-91.904-18.432-125.3888-51.9168-11.9808-11.9808-31.4368-11.9808-43.4688 0-11.9808 11.9808-11.9808 31.4368 0 43.4688 45.1072 45.1072 105.0624 69.9392 168.8576 69.9392 63.7952 0 123.7504-24.832 168.8576-69.9392 11.9808-11.9808 11.9808-31.4368 0-43.4688-12.032-11.9808-31.488-11.9808-43.4688 0z" fill="#474A54" /></svg>