<?xml version="1.0" standalone="no"?><!DOCTYPE svg PUBLIC "-//W3C//DTD SVG 1.1//EN" "http://www.w3.org/Graphics/SVG/1.1/DTD/svg11.dtd"><svg class="icon" width="48px" height="48.00px" viewBox="0 0 1024 1024" version="1.1" xmlns="http://www.w3.org/2000/svg"><path d="M99.4304 455.5776s25.2416-276.1728 350.72-348.7232c-2.56 174.9504 7.0144 490.5984 461.3632 441.3952 13.1584 91.9552-46.08 355.584-355.6864 379.648 23.7568-138.6496 11.5712-502.016-456.3968-472.32z" fill="#ffa115" /><path d="M536.1664 960.1536c7.1168-0.3584 14.1824-0.8704 21.1968-1.536 0.1536 0 0.256 0 0.4096-0.0512 227.1232-22.0672 405.248-214.0672 405.248-446.8736 0-247.6032-201.4208-449.024-449.024-449.024-38.2464 0-75.4176 4.8128-110.9504 13.8752-1.4848 0.3584-2.9696 0.768-4.4544 1.1776-3.9424 1.0752-7.8848 2.1504-11.776 3.328-5.12 1.4848-10.1888 3.1232-15.2064 4.7616-0.6656 0.2048-1.3312 0.4096-1.9456 0.6656-142.6432 48.128-251.4432 165.1712-289.6896 310.0672-0.4096 1.6384-0.8704 3.2256-1.28 4.864-0.9216 3.6352-1.792 7.2192-2.6112 10.9056a413.696 413.696 0 0 0-2.4576 11.4688c-0.4608 2.3552-0.9216 4.6592-1.3312 7.0144-0.9216 4.9664-1.7408 9.984-2.4576 15.0016a163.84 163.84 0 0 0-0.7168 5.2736c-0.768 5.5296-1.3824 11.0592-1.9456 16.64l-0.3072 3.7376c-0.5632 6.0416-0.9728 12.1344-1.28 18.2272-0.0512 0.7168-0.0512 1.3824-0.1024 2.0992-0.3072 6.6048-0.4608 13.2608-0.4608 19.9168 0 7.168 0.2048 14.2848 0.512 21.3504 0 0.4608 0.0512 0.9728 0.0512 1.4336 0.3072 6.4512 0.8192 12.9024 1.4336 19.3024l0.3072 3.6864c0.5632 5.5808 1.28 11.1104 2.048 16.64l1.2288 8.3968a431.24224 431.24224 0 0 0 5.3248 27.7504c0.256 1.1776 0.512 2.3552 0.768 3.4816 18.7392 80.9472 59.5968 155.2896 119.808 215.4496 0.3584 0.3584 0.7168 0.6656 1.0752 1.024 14.9504 14.848 31.0272 28.7232 47.7696 41.2672 5.7856 4.3008 11.6736 8.5504 17.6128 12.544 11.5712 7.8336 23.7568 15.104 36.352 21.9136 3.1744 1.7408 6.3488 3.4304 9.5744 5.0688l5.2224 2.6112c4.4544 2.2016 8.9088 4.4032 13.4656 6.4512 0.256 0.1024 0.512 0.256 0.768 0.3584l0.3072 0.1536c32.2048 14.6432 66.4064 25.6 102.0928 32.3072 0.3584 0.0512 0.7168 0.1536 1.0752 0.2048a380.07296 380.07296 0 0 0 21.1456 3.3792c6.0928 0.8192 12.1856 1.536 18.3296 2.1504 0.9216 0.1024 1.792 0.1536 2.7136 0.256 6.144 0.5632 12.288 0.9728 18.4832 1.28 0.7168 0.0512 1.4336 0.0512 2.1504 0.1024 6.4512 0.256 12.9024 0.4608 19.4048 0.4608h0.8192c6.912 0 13.7216-0.2048 20.5312-0.512 0.256-0.0512 0.512-0.0512 0.768-0.0512zM399.5136 141.3632c4.9664-1.536 9.984-2.9184 15.0528-4.3008 1.536-0.4096 3.0208-0.8192 4.5568-1.1776 1.1776-0.3072 2.4064-0.5632 3.584-0.8192a376.03328 376.03328 0 0 0-10.6496 89.088c0 117.0432 53.5552 221.7472 137.472 291.0208-5.376 5.632-10.8544 11.1616-16.5376 16.4864-7.8848 7.4752-15.872 14.6944-23.9616 21.7088-69.2224-81.92-172.6464-134.0928-288.1024-134.0928-28.9792 0-57.6512 3.2768-85.6064 9.8304 29.7472-136.2944 131.328-246.0672 262.9632-287.2832 0.4608-0.256 0.8704-0.3584 1.2288-0.4608z m491.2128 461.2608l-0.1536 0.6144c-1.2288 5.0176-2.56 9.984-3.9936 14.9504-0.2048 0.6656-0.4096 1.3824-0.5632 2.048-1.3824 4.7616-2.8672 9.5232-4.4544 14.2336-0.256 0.7168-0.4608 1.4336-0.7168 2.1504-1.6384 4.8128-3.328 9.5232-5.1712 14.2336-0.1536 0.4096-0.3072 0.768-0.4608 1.1776-44.3392 113.7664-140.9536 201.1648-259.2256 233.5744-0.256 0.0512-0.512 0.1536-0.768 0.2048-4.4032 1.1776-8.8576 2.2528-13.312 3.328l-4.608 1.0752c-3.84 0.8704-7.68 1.5872-11.52 2.3552h-0.1024c8.2432-31.232 12.4928-63.3856 12.4928-96.1536 0-70.4512-19.456-136.3968-53.1968-192.8704 10.1888-8.7552 20.3264-17.8176 30.2592-27.1872 8.8064-8.2944 17.2544-16.9472 25.4464-25.7536 55.552 32.2048 119.9616 50.7904 188.672 50.7904 35.8912 0 71.0656-4.9664 105.0112-14.848-1.1776 5.3248-2.3552 10.7008-3.6352 16.0768z m-354.048 193.7408c0 35.2768-5.7856 69.7856-17.152 102.7584-1.8432 0.0512-3.6864 0.1536-5.5296 0.1536h-0.0512c-6.3488 0-12.6976-0.1536-18.9952-0.4608-2.2016-0.1024-4.352-0.3072-6.5024-0.4608-4.096-0.256-8.192-0.5632-12.2368-0.9216-2.6624-0.256-5.3248-0.6144-7.9872-0.9216-3.4816-0.4096-7.0144-0.8192-10.496-1.3312-2.9696-0.4096-5.888-0.9216-8.8576-1.4336-3.1232-0.512-6.1952-1.0752-9.2672-1.6384-3.1744-0.6144-6.4-1.3312-9.5744-1.9968-2.7648-0.6144-5.4784-1.2288-8.2432-1.8944-3.3792-0.8192-6.7584-1.6896-10.1376-2.6624a402.71872 402.71872 0 0 1-17.8688-5.3248c-2.3552-0.768-4.7104-1.5872-7.0656-2.4064-3.3792-1.1776-6.7584-2.4064-10.1376-3.6864-4.2496-1.6384-8.4992-3.2768-12.6976-5.0176-0.768-0.3072-1.4848-0.6656-2.2528-0.9728-4.1984-1.792-8.3456-3.6864-12.4416-5.632a354.85696 354.85696 0 0 1-18.944-9.5232l-1.3824-0.768c-41.728-22.7328-78.7456-52.992-109.4144-88.8832 90.6752-12.5952 186.9824-54.9376 276.7872-121.1392 25.7536 45.6192 40.448 98.2016 40.448 154.1632zM126.8224 494.9504c30.4128-9.5232 62.0032-14.336 94.1056-14.336 96.1024 0 182.272 43.2128 240.2304 111.2064-93.0816 69.0688-192.6656 109.568-282.624 113.664-26.7264-46.08-44.3392-98.1504-50.0736-153.7024 0-0.2048-0.0512-0.4096-0.1024-0.6656-0.5632-5.5808-0.9728-11.264-1.28-16.896-0.0512-0.9728-0.1536-1.8944-0.2048-2.8672-0.3072-6.5536-0.512-13.1072-0.512-19.7632 0.0512-5.5296 0.2048-11.0592 0.4608-16.64z m774.7584 16.7424c0 2.5088-0.1536 5.0176-0.2048 7.5264-35.84 13.6704-73.472 20.6336-112.128 20.6336-53.8112 0-104.5504-13.568-148.8896-37.4272 76.6464-103.0656 116.7872-221.3888 133.0176-278.4768 78.6432 70.9632 128.2048 173.6704 128.2048 287.744z m-181.1456-327.8336c-8.1408 32.512-46.2848 170.9056-131.2768 284.2624-70.5536-57.9584-115.6096-145.8176-115.6096-244.0192 0-33.9456 5.4272-67.1744 16.0256-99.1744 8.0896-0.512 16.2304-0.8704 24.4224-0.8704 75.8272 0 146.5856 22.016 206.4384 59.8016z" fill="#474A54" /></svg>