<?xml version="1.0" standalone="no"?><!DOCTYPE svg PUBLIC "-//W3C//DTD SVG 1.1//EN" "http://www.w3.org/Graphics/SVG/1.1/DTD/svg11.dtd"><svg class="icon" width="48px" height="48.00px" viewBox="0 0 1024 1024" version="1.1" xmlns="http://www.w3.org/2000/svg"><path d="M805.6832 893.184H219.392c-52.5312 0-95.0784-42.5984-95.0784-95.0784v-146.0736h776.4992v146.0736c0 52.48-42.5984 95.0784-95.1296 95.0784z" fill="#ffa115" /><path d="M808.192 85.504H218.8288c-73.4208 0-133.12 59.6992-133.12 133.12v572.16c0 73.4208 59.6992 133.12 133.12 133.12h589.3632c73.4208 0 133.12-59.6992 133.12-133.12V218.624c0-73.4208-59.6992-133.12-133.12-133.12z m71.68 705.28c0 39.5264-32.1536 71.68-71.68 71.68H218.8288c-39.5264 0-71.68-32.1536-71.68-71.68V218.624c0-39.5264 32.1536-71.68 71.68-71.68h589.3632c39.5264 0 71.68 32.1536 71.68 71.68v572.16z" fill="#474A54" /><path d="M455.0144 414.0544c16.9472 0 30.72-13.7728 30.72-30.72s-13.7728-30.72-30.72-30.72H272.6912c-16.9472 0-30.72 13.7728-30.72 30.72v266.0352c0 16.9472 13.7728 30.72 30.72 30.72h182.3744c16.9472 0 30.72-13.7728 30.72-30.72s-13.7728-30.72-30.72-30.72H303.4112v-69.5808h151.6544c16.9472 0 30.72-13.7728 30.72-30.72s-13.7728-30.72-30.72-30.72H303.4112V414.0544h151.6032zM752.4352 352.6144c-16.9472 0-30.72 13.7728-30.72 30.72v164.864l-124.6208-176.0768a30.76096 30.76096 0 0 0-34.4064-11.52c-12.7488 4.0448-21.4016 15.872-21.4016 29.2864v262.0928c0 16.9472 13.7728 30.72 30.72 30.72s30.72-13.7728 30.72-30.72V486.4512l124.6208 176.0768a30.76096 30.76096 0 0 0 34.4064 11.52c12.7488-4.0448 21.4016-15.872 21.4016-29.2864V383.3344c0-16.9472-13.7728-30.72-30.72-30.72z" fill="#474A54" /></svg>