<?xml version="1.0" standalone="no"?><!DOCTYPE svg PUBLIC "-//W3C//DTD SVG 1.1//EN" "http://www.w3.org/Graphics/SVG/1.1/DTD/svg11.dtd"><svg class="icon" width="48px" height="48.00px" viewBox="0 0 1024 1024" version="1.1" xmlns="http://www.w3.org/2000/svg"><path d="M503.1936 721.5616c-117.8112 0-213.3504-95.5392-213.3504-213.3504v-25.6512h426.7008v25.6512c0 117.8624-95.488 213.3504-213.3504 213.3504z" fill="#ffa115" /><path d="M493.3632 751.3088h14.1312c130.5088 0 236.6464-106.1888 236.6464-236.6464V291.2256c0-130.5088-106.1888-236.6464-236.6464-236.6464h-14.1312c-130.5088 0-236.6464 106.1888-236.6464 236.6464v223.4368c0 130.5088 106.1376 236.6464 236.6464 236.6464z m0-635.2896h14.1312c96.6144 0 175.2064 78.592 175.2064 175.2064V450.56h-364.544V291.2256c0-96.6144 78.592-175.2064 175.2064-175.2064zM318.1568 512h364.5952v2.6624c0 96.6144-78.592 175.2064-175.2064 175.2064h-14.1312c-96.6144 0-175.2064-78.592-175.2064-175.2064V512z" fill="#474A54" /><path d="M845.6704 509.9008c0-16.9472-13.7728-30.72-30.72-30.72s-30.72 13.7728-30.72 30.72c0 156.5184-127.3344 283.8016-283.8016 283.8016s-283.8016-127.3344-283.8016-283.8016c0-16.9472-13.7728-30.72-30.72-30.72s-30.72 13.7728-30.72 30.72c0 179.712 138.0352 327.68 313.6 343.7568v71.424H393.6256c-16.9472 0-30.72 13.7728-30.72 30.72s13.7728 30.72 30.72 30.72h207.872c16.9472 0 30.72-13.7728 30.72-30.72s-13.7728-30.72-30.72-30.72h-71.2704v-71.3216c176.4352-15.1552 315.4432-163.5328 315.4432-343.8592z" fill="#474A54" /></svg>