<?xml version="1.0" standalone="no"?><!DOCTYPE svg PUBLIC "-//W3C//DTD SVG 1.1//EN" "http://www.w3.org/Graphics/SVG/1.1/DTD/svg11.dtd"><svg class="icon" width="48px" height="48.00px" viewBox="0 0 1024 1024" version="1.1" xmlns="http://www.w3.org/2000/svg"><path d="M797.184 894.4128H241.2032c-56.6784 0-102.6048-45.9264-102.6048-102.6048v-137.8816h761.1392v137.8816c0.0512 56.6784-45.9264 102.6048-102.5536 102.6048z" fill="#ffa115" /><path d="M797.3888 925.1328H240.9984c-73.4208 0-133.12-59.6992-133.12-133.12V235.6736c0-73.4208 59.6992-133.12 133.12-133.12h556.3392c73.4208 0 133.12 59.6992 133.12 133.12v556.3392c0.0512 73.4208-59.6992 133.12-133.0688 133.12zM240.9984 163.9936c-39.5264 0-71.68 32.1536-71.68 71.68v556.3392c0 39.5264 32.1536 71.68 71.68 71.68h556.3392c39.5264 0 71.68-32.1536 71.68-71.68V235.6736c0-39.5264-32.1536-71.68-71.68-71.68H240.9984z" fill="#474A54" /><path d="M407.0912 684.6464c-16.9472 0-30.72-13.7728-30.72-30.72V373.7088c0-16.9472 13.7728-30.72 30.72-30.72s30.72 13.7728 30.72 30.72v280.1664a30.72 30.72 0 0 1-30.72 30.7712zM633.1904 684.6464c-16.9472 0-30.72-13.7728-30.72-30.72V373.7088c0-16.9472 13.7728-30.72 30.72-30.72s30.72 13.7728 30.72 30.72v280.1664c0 16.9984-13.7728 30.7712-30.72 30.7712z" fill="#474A54" /></svg>