<?xml version="1.0" standalone="no"?><!DOCTYPE svg PUBLIC "-//W3C//DTD SVG 1.1//EN" "http://www.w3.org/Graphics/SVG/1.1/DTD/svg11.dtd"><svg class="icon" width="48px" height="48.00px" viewBox="0 0 1024 1024" version="1.1" xmlns="http://www.w3.org/2000/svg"><path d="M810.496 906.8032H213.7088c-99.0208 0-179.6096-80.5888-179.6096-179.6096v-72.7552c0-16.4352 12.9536-30.0032 29.44-30.6688 44.9024-1.8944 80.0256-38.6048 80.0256-83.5584s-35.1744-81.664-80.0256-83.5584c-16.4352-0.7168-29.44-14.2336-29.44-30.6688V353.1264c0-99.0208 80.5888-179.6096 179.6096-179.6096H810.496c99.0208 0 179.6096 80.5888 179.6096 179.6096v72.7552a30.7712 30.7712 0 0 1-29.4912 30.72c-44.9536 1.8432-80.1792 38.5536-80.1792 83.5584s35.2256 81.7664 80.1792 83.5584c16.4864 0.6656 29.44 14.2336 29.44 30.72v72.7552c0.0512 99.0208-80.4864 179.6096-179.5584 179.6096zM95.5392 680.8576v46.336c0 65.1776 52.992 118.1696 118.1696 118.1696H810.496c65.1776 0 118.1696-52.992 118.1696-118.1696v-46.2848a144.6912 144.6912 0 0 1-109.6704-140.7488 144.64 144.64 0 0 1 109.6704-140.7488v-46.2848c0-65.1776-52.992-118.1696-118.1696-118.1696H213.7088c-65.1776 0-118.1696 52.992-118.1696 118.1696v46.336c63.2832 15.872 109.4656 72.8576 109.4656 140.6976s-46.1824 124.8768-109.4656 140.6976z" fill="#474A54" /><path d="M378.368 699.8016a30.5152 30.5152 0 0 1-21.504-8.8064c-12.1344-11.8784-12.288-31.3344-0.4096-43.4688l250.5728-255.4368c11.8784-12.1344 31.3344-12.288 43.4688-0.4096s12.288 31.3344 0.4096 43.4688l-250.5728 255.4368a30.7456 30.7456 0 0 1-21.9648 9.216z" fill="#474A54" /><path d="M413.44 391.8848m-68.4032 0a68.4032 68.4032 0 1 0 136.8064 0 68.4032 68.4032 0 1 0-136.8064 0Z" fill="#ffa115" /><path d="M616.448 680.7552m-68.4032 0a68.4032 68.4032 0 1 0 136.8064 0 68.4032 68.4032 0 1 0-136.8064 0Z" fill="#ffa115" /><path d="M413.44 491.008c-54.6304 0-99.1232-44.4416-99.1232-99.1232s44.4416-99.1232 99.1232-99.1232 99.1232 44.4416 99.1232 99.1232S468.1216 491.008 413.44 491.008z m0-136.8064c-20.7872 0-37.6832 16.896-37.6832 37.6832s16.896 37.6832 37.6832 37.6832 37.6832-16.896 37.6832-37.6832-16.896-37.6832-37.6832-37.6832zM614.0416 777.1136c-54.6304 0-99.1232-44.4416-99.1232-99.1232s44.4416-99.1232 99.1232-99.1232 99.1232 44.4416 99.1232 99.1232-44.4928 99.1232-99.1232 99.1232z m0-136.8064c-20.7872 0-37.6832 16.896-37.6832 37.6832 0 20.7872 16.896 37.6832 37.6832 37.6832 20.7872 0 37.6832-16.896 37.6832-37.6832 0-20.7872-16.9472-37.6832-37.6832-37.6832z" fill="#474A54" /></svg>