<?xml version="1.0" standalone="no"?><!DOCTYPE svg PUBLIC "-//W3C//DTD SVG 1.1//EN" "http://www.w3.org/Graphics/SVG/1.1/DTD/svg11.dtd"><svg class="icon" width="48px" height="48.00px" viewBox="0 0 1024 1024" version="1.1" xmlns="http://www.w3.org/2000/svg"><path d="M368.0256 396.4416m-98.048 0a98.048 98.048 0 1 0 196.096 0 98.048 98.048 0 1 0-196.096 0Z" fill="#ffa115" /><path d="M369.408 494.4384c-78.7456 0-142.592 63.8464-142.592 142.592v39.68c0 19.8144 16.0768 35.8912 35.8912 35.8912h213.4016c19.8144 0 35.8912-16.0768 35.8912-35.8912v-39.68c0-78.7456-63.8464-142.592-142.592-142.592z" fill="#ffa115" /><path d="M864.3584 110.7968H163.2256c-73.4208 0-133.12 59.6992-133.12 133.12v527.2576c0 73.4208 59.6992 133.12 133.12 133.12h701.1328c73.4208 0 133.12-59.6992 133.12-133.12V243.9168c0-73.4208-59.7504-133.12-133.12-133.12z m71.68 660.3776c0 39.5264-32.1536 71.68-71.68 71.68H163.2256c-39.5264 0-71.68-32.1536-71.68-71.68V243.9168c0-39.5264 32.1536-71.68 71.68-71.68h701.1328c39.5264 0 71.68 32.1536 71.68 71.68v527.2576z" fill="#474A54" /><path d="M802.048 318.6176H607.232c-16.9472 0-30.72 13.7728-30.72 30.72s13.7728 30.72 30.72 30.72h194.7648c16.9472 0 30.72-13.7728 30.72-30.72s-13.7216-30.72-30.6688-30.72zM802.048 481.28h-168.6528c-16.9472 0-30.72 13.7728-30.72 30.72s13.7728 30.72 30.72 30.72h168.6528c16.9472 0 30.72-13.7728 30.72-30.72s-13.7728-30.72-30.72-30.72zM802.048 641.536H668.672c-16.9472 0-30.72 13.7728-30.72 30.72s13.7728 30.72 30.72 30.72h133.3248c16.9472 0 30.72-13.7728 30.72-30.72 0.0512-16.9984-13.7216-30.72-30.6688-30.72zM458.1376 488.2432c23.808-23.3984 38.6048-55.9104 38.6048-91.8528 0-71.0144-57.7536-128.768-128.768-128.768S239.2576 325.4272 239.2576 396.4416c0 36.4544 15.2576 69.4272 39.7312 92.8768-49.664 30.5152-82.8416 85.2992-82.8416 147.7632v39.68c0 36.7104 29.8496 66.6112 66.56 66.6112h213.4016c36.7104 0 66.6112-29.8496 66.6112-66.6112v-39.68c0-63.1808-33.9456-118.528-84.5824-148.8384z m-90.112-159.1296c37.12 0 67.328 30.208 67.328 67.328s-30.208 67.328-67.328 67.328-67.328-30.208-67.328-67.328 30.208-67.328 67.328-67.328zM481.28 676.7616c0 2.816-2.304 5.1712-5.1712 5.1712H262.7072c-2.816 0-5.12-2.304-5.12-5.1712v-39.68c0-61.696 50.176-111.872 111.872-111.872S481.28 575.3856 481.28 637.0304v39.7312z" fill="#474A54" /></svg>