<?xml version="1.0" standalone="no"?><!DOCTYPE svg PUBLIC "-//W3C//DTD SVG 1.1//EN" "http://www.w3.org/Graphics/SVG/1.1/DTD/svg11.dtd"><svg class="icon" width="48px" height="48.00px" viewBox="0 0 1024 1024" version="1.1" xmlns="http://www.w3.org/2000/svg"><path d="M615.5776 557.7216L451.0208 462.6944c-19.8144-11.4688-44.5952 2.8672-44.5952 25.7536v190.0032c0 22.8864 24.7808 37.2224 44.5952 25.7536l164.5568-95.0272c19.8144-11.4176 19.8144-40.0384 0-51.456z" fill="#ffa115" /><path d="M436.1728 739.0208c-10.3936 0-20.736-2.7136-30.208-8.192-18.944-10.9056-30.208-30.5152-30.208-52.3776V488.448c0-21.8624 11.3152-41.4208 30.208-52.3776 18.944-10.9056 41.5232-10.9056 60.4672 0l164.5568 95.0272c18.944 10.9056 30.208 30.5152 30.208 52.3776 0 21.8624-11.3152 41.4208-30.208 52.3776L466.432 730.88c-9.5232 5.376-19.8656 8.1408-30.2592 8.1408z m0.9728-248.8832v186.5728l161.5872-93.2864-161.5872-93.2864z m163.1232 94.208z" fill="#474A54" /><path d="M795.5456 220.7744h-130.7136l66.6624-117.504a30.7712 30.7712 0 0 0-11.5712-41.8816 30.69952 30.69952 0 0 0-41.8816 11.5712l-82.7392 145.8176c-0.3584 0.6656-0.7168 1.3312-1.024 1.9968H419.9936c-0.3072-0.6656-0.6144-1.3824-1.024-1.9968L336.2304 72.96a30.7712 30.7712 0 0 0-41.8816-11.5712 30.7712 30.7712 0 0 0-11.5712 41.8816l66.6624 117.504H216.4736c-73.4208 0-133.12 59.6992-133.12 133.12v459.0592c0 73.4208 59.6992 133.12 133.12 133.12h579.0208c73.4208 0 133.12-59.6992 133.12-133.12V353.8944c0.0512-73.3696-59.6992-133.12-133.0688-133.12z m71.68 592.2304c0 39.5264-32.1536 71.68-71.68 71.68H216.4736c-39.5264 0-71.68-32.1536-71.68-71.68V353.8944c0-39.5264 32.1536-71.68 71.68-71.68h579.0208c39.5264 0 71.68 32.1536 71.68 71.68v459.1104z" fill="#474A54" /></svg>