<?xml version="1.0" standalone="no"?><!DOCTYPE svg PUBLIC "-//W3C//DTD SVG 1.1//EN" "http://www.w3.org/Graphics/SVG/1.1/DTD/svg11.dtd"><svg class="icon" width="48px" height="48.00px" viewBox="0 0 1024 1024" version="1.1" xmlns="http://www.w3.org/2000/svg"><path d="M512 972.2368c-16.9472 0-30.72-13.7728-30.72-30.72v-155.5456c0-16.9472 13.7728-30.72 30.72-30.72s30.72 13.7728 30.72 30.72v155.5456c0 16.9984-13.7728 30.72-30.72 30.72z" fill="#474A54" /><path d="M777.6256 775.168H274.944c-31.0784 0-56.2688-25.1904-56.2688-56.2688v-144.9984c0-31.0784 25.1904-56.2688 56.2688-56.2688h502.6816c17.664 0 34.2528 8.2944 44.9024 22.3232l54.784 72.4992c15.1552 20.0704 15.1552 47.7696 0 67.84l-54.784 72.4992a56.28416 56.28416 0 0 1-44.9024 22.3744z" fill="#ffa115" /><path d="M901.8368 593.92l-54.784-72.4992c-16.3328-21.6064-42.2912-34.56-69.376-34.56h-231.0656v-105.472h205.4144c47.9744 0 86.9888-39.0144 86.9888-86.9888V149.4016c0-47.9744-39.0144-86.9888-86.9888-86.9888H249.344a87.3472 87.3472 0 0 0-69.376 34.56L125.1328 169.472c-23.296 30.8736-23.296 73.984 0 104.8576l54.784 72.4992c16.3328 21.6064 42.2912 34.56 69.376 34.56h235.8272V486.912H274.944c-47.9744 0-86.9888 39.0144-86.9888 86.9888v144.9984c0 47.9744 39.0144 86.9888 86.9888 86.9888h502.6816c27.0848 0 53.0432-12.9024 69.376-34.56l54.784-72.4992c23.3472-30.8736 23.3472-73.984 0.0512-104.9088zM228.9664 309.8112l-54.784-72.4992a25.5744 25.5744 0 0 1 0-30.7712l54.784-72.4992a25.73312 25.73312 0 0 1 20.3776-10.1376h502.6816c14.08 0 25.5488 11.4688 25.5488 25.5488V294.4c0 14.08-11.4688 25.5488-25.5488 25.5488H249.344c-7.9872 0-15.616-3.7888-20.3776-10.1376z m623.8208 351.9488l-54.784 72.4992a25.73312 25.73312 0 0 1-20.3776 10.1376H274.944c-14.08 0-25.5488-11.4688-25.5488-25.5488v-144.9984c0-14.08 11.4688-25.5488 25.5488-25.5488h502.6816c7.936 0 15.5648 3.7888 20.3776 10.1376l54.784 72.4992a25.6512 25.6512 0 0 1 0 30.8224z" fill="#474A54" /></svg>