<?xml version="1.0" standalone="no"?><!DOCTYPE svg PUBLIC "-//W3C//DTD SVG 1.1//EN" "http://www.w3.org/Graphics/SVG/1.1/DTD/svg11.dtd"><svg class="icon" width="48px" height="48.00px" viewBox="0 0 1024 1024" version="1.1" xmlns="http://www.w3.org/2000/svg"><path d="M515.7888 950.4256c-242.5856 0-439.9104-197.3248-439.9104-439.9104s197.376-439.9104 439.9104-439.9104 439.9104 197.376 439.9104 439.9104-197.3248 439.9104-439.9104 439.9104z m0-818.432c-208.6912 0-378.4704 169.7792-378.4704 378.4704 0 208.6912 169.7792 378.4704 378.4704 378.4704s378.4704-169.7792 378.4704-378.4704c0-208.6912-169.7792-378.4704-378.4704-378.4704z" fill="#474A54" /><path d="M526.1312 327.2192l45.0048 91.2384c1.6896 3.4304 4.9664 5.7856 8.704 6.3488l100.6592 14.6432c9.472 1.3824 13.2608 13.056 6.4 19.712l-72.8576 71.0144c-2.7136 2.6624-3.9936 6.5024-3.328 10.24l17.2032 100.2496c1.6384 9.472-8.2944 16.64-16.7936 12.1856l-90.0608-47.36c-3.3792-1.792-7.3728-1.792-10.752 0l-90.0608 47.36c-8.4992 4.4544-18.432-2.7648-16.7936-12.1856l17.2032-100.2496c0.6656-3.7376-0.6144-7.5776-3.328-10.24L344.576 459.1616c-6.8608-6.7072-3.072-18.3808 6.4-19.712l100.6592-14.6432c3.7888-0.5632 7.0144-2.9184 8.704-6.3488l45.0048-91.2384c4.3008-8.5504 16.5888-8.5504 20.7872 0z" fill="#ffa115" /><path d="M414.9248 684.9536c-8.7552 0-17.408-2.7136-24.832-8.1408a42.12736 42.12736 0 0 1-16.8448-41.3696l15.5136-90.3168-65.5872-63.9488a42.01984 42.01984 0 0 1-10.7008-43.3664c5.0176-15.4112 18.0736-26.4704 34.1504-28.7744l90.7264-13.1584 40.5504-82.176c7.168-14.5408 21.7088-23.552 37.9392-23.552s30.72 9.0112 37.9392 23.552l40.5504 82.176 90.6752 13.1584c16.0768 2.3552 29.1328 13.3632 34.1504 28.7744 5.0176 15.4112 0.9216 32.0512-10.7008 43.3664l-65.6384 63.9488 15.5136 90.3168a41.9328 41.9328 0 0 1-16.8448 41.3696 42.10176 42.10176 0 0 1-44.544 3.2256l-81.1008-42.6496-81.1008 42.6496c-6.3488 3.2768-13.1072 4.9152-19.8144 4.9152z m-21.0944-220.7232l45.056 43.9296a42.2656 42.2656 0 0 1 12.1344 37.4272l-10.6496 62.0032 55.7056-29.2864a42.4704 42.4704 0 0 1 39.3728 0l55.7056 29.2864-10.6496-62.0032c-2.3552-13.7216 2.2016-27.6992 12.1344-37.4272l45.056-43.9296-62.208-9.0624a42.24512 42.24512 0 0 1-31.8464-23.1424l-27.8528-56.4224-27.8528 56.4736a42.25024 42.25024 0 0 1-31.7952 23.1424l-62.3104 9.0112z m204.9024-59.3408h0.0512-0.0512z" fill="#474A54" /></svg>