<?xml version="1.0" standalone="no"?><!DOCTYPE svg PUBLIC "-//W3C//DTD SVG 1.1//EN" "http://www.w3.org/Graphics/SVG/1.1/DTD/svg11.dtd"><svg class="icon" width="48px" height="48.00px" viewBox="0 0 1024 1024" version="1.1" xmlns="http://www.w3.org/2000/svg"><path d="M800.2048 921.3952H218.5728c-53.76 0-97.3312-43.5712-97.3312-97.3312v-172.0832H897.536v172.0832c0 53.76-43.5712 97.3312-97.3312 97.3312z" fill="#ffa115" /><path d="M802.5088 246.7328h-7.424V191.6416c0-73.4208-59.6992-133.12-133.12-133.12H223.6416c-73.4208 0-133.12 59.6992-133.12 133.12v632.4736c0 73.4208 59.6992 133.12 133.12 133.12H795.136c73.4208 0 133.12-59.6992 133.12-133.12V372.4288c0-69.2736-56.4224-125.696-125.7472-125.696z m64.3072 577.3824c0 39.5264-32.1536 71.68-71.68 71.68H223.6416c-39.5264 0-71.68-32.1536-71.68-71.68V191.6416c0-39.5264 32.1536-71.68 71.68-71.68h438.3744c39.5264 0 71.68 32.1536 71.68 71.68v509.3888c0 16.9472 13.7728 30.72 30.72 30.72s30.72-13.7728 30.72-30.72V308.1728h7.424c35.4304 0 64.256 28.8256 64.256 64.256v451.6864z" fill="#474A54" /><path d="M593.8176 267.6736H285.952c-16.9472 0-30.72 13.7728-30.72 30.72s13.7728 30.72 30.72 30.72h307.8656c16.9472 0 30.72-13.7728 30.72-30.72s-13.7728-30.72-30.72-30.72zM593.8176 442.8288H285.952c-16.9472 0-30.72 13.7728-30.72 30.72s13.7728 30.72 30.72 30.72h307.8656c16.9472 0 30.72-13.7728 30.72-30.72s-13.7728-30.72-30.72-30.72zM425.1648 621.2608H285.952c-16.9472 0-30.72 13.7728-30.72 30.72s13.7728 30.72 30.72 30.72h139.2128c16.9472 0 30.72-13.7728 30.72-30.72s-13.7216-30.72-30.72-30.72z" fill="#474A54" /></svg>