<?xml version="1.0" standalone="no"?><!DOCTYPE svg PUBLIC "-//W3C//DTD SVG 1.1//EN" "http://www.w3.org/Graphics/SVG/1.1/DTD/svg11.dtd"><svg class="icon" width="48px" height="48.00px" viewBox="0 0 1024 1024" version="1.1" xmlns="http://www.w3.org/2000/svg"><path d="M807.3728 906.9056H387.7376c-54.6816 0-99.0208-44.3392-99.0208-99.0208v-100.9664h617.6768v100.9664c0 54.6816-44.3392 99.0208-99.0208 99.0208z" fill="#ffa115" /><path d="M633.3952 625.8176H397.6704c-16.9472 0-30.72-13.7728-30.72-30.72s13.7728-30.72 30.72-30.72h235.7248c39.5264 0 71.68-32.1536 71.68-71.68V219.0848c0-39.5264-32.1536-71.68-71.68-71.68H220.5184c-39.5264 0-71.68 32.1536-71.68 71.68v273.664c0 31.0272 19.7632 58.4192 49.2032 68.096a30.71488 30.71488 0 0 1 19.5584 38.8096 30.71488 30.71488 0 0 1-38.8096 19.5584 132.87936 132.87936 0 0 1-91.4432-126.464V219.0848c0-73.4208 59.6992-133.12 133.12-133.12h412.8768c73.4208 0 133.12 59.6992 133.12 133.12v273.664c0.0512 73.3696-59.648 133.0688-133.0688 133.0688z" fill="#474A54" /><path d="M803.9936 937.6256H391.1168c-73.4208 0-133.12-59.6992-133.12-133.12v-273.664c0-73.4208 59.6992-133.12 133.12-133.12h236.4928c16.9472 0 30.72 13.7728 30.72 30.72s-13.7728 30.72-30.72 30.72H391.1168c-39.5264 0-71.68 32.1536-71.68 71.68v273.664c0 39.5264 32.1536 71.68 71.68 71.68h412.8768c39.5264 0 71.68-32.1536 71.68-71.68v-273.664c0-32.5632-21.9648-61.0816-53.4016-69.3248-16.4352-4.3008-26.2144-21.0944-21.9136-37.5296s21.1456-26.2144 37.5296-21.9136c58.4192 15.36 99.2256 68.3008 99.2256 128.768v273.664c0 73.3696-59.6992 133.12-133.12 133.12z" fill="#474A54" /></svg>