<?xml version="1.0" standalone="no"?><!DOCTYPE svg PUBLIC "-//W3C//DTD SVG 1.1//EN" "http://www.w3.org/Graphics/SVG/1.1/DTD/svg11.dtd"><svg class="icon" width="48px" height="48.00px" viewBox="0 0 1024 1024" version="1.1" xmlns="http://www.w3.org/2000/svg"><path d="M580.352 392.4992H434.5856c-43.8272 0-79.3088-35.5328-79.3088-79.3088V194.7136c0-43.8272 35.5328-79.3088 79.3088-79.3088h145.7664c43.8272 0 79.3088 35.5328 79.3088 79.3088v118.4768c0 43.776-35.4816 79.3088-79.3088 79.3088z" fill="#ffa115" /><path d="M879.2576 684.032h-26.1632v-116.3776c0-40.192-32.6656-72.8576-72.8576-72.8576H542.72V423.2192h37.632c60.672 0 110.0288-49.3568 110.0288-110.0288V194.7136c0-60.672-49.3568-110.0288-110.0288-110.0288H434.5856c-60.672 0-110.0288 49.3568-110.0288 110.0288v118.4768c0 60.672 49.3568 110.0288 110.0288 110.0288H481.28v71.5776H238.7456c-40.1408 0-72.8576 32.6656-72.8576 72.8576v116.3776h-26.1632c-43.3152 0-78.5408 35.2256-78.5408 78.5408v95.0272c0 43.3152 35.2256 78.5408 78.5408 78.5408h113.7664c43.3152 0 78.5408-35.2256 78.5408-78.5408v-95.0272c0-43.3152-35.2256-78.5408-78.5408-78.5408H227.328v-116.3776c0-6.2976 5.12-11.4176 11.4176-11.4176H481.28v127.7952h-26.1632c-43.3152 0-78.5408 35.2256-78.5408 78.5408v95.0272c0 43.3152 35.2256 78.5408 78.5408 78.5408h113.7664c43.3152 0 78.5408-35.2256 78.5408-78.5408v-95.0272c0-43.3152-35.2256-78.5408-78.5408-78.5408H542.72v-127.7952h237.5168c6.2976 0 11.4176 5.12 11.4176 11.4176v116.3776h-26.1632c-43.3152 0-78.5408 35.2256-78.5408 78.5408v95.0272c0 43.3152 35.2256 78.5408 78.5408 78.5408h113.7664c43.3152 0 78.5408-35.2256 78.5408-78.5408v-95.0272c0-43.3152-35.2256-78.5408-78.5408-78.5408zM385.9968 313.1904V194.7136c0-26.8288 21.8112-48.5888 48.5888-48.5888h145.7664c26.8288 0 48.5888 21.8112 48.5888 48.5888v118.4768c0 26.7776-21.8112 48.5888-48.5888 48.5888H434.5856c-26.7776 0-48.5888-21.8112-48.5888-48.5888z m-115.4048 449.3312v95.0272c0 9.4208-7.68 17.1008-17.1008 17.1008H139.7248c-9.4208 0-17.1008-7.68-17.1008-17.1008v-95.0272c0-9.4208 7.68-17.1008 17.1008-17.1008h113.7664c9.472 0.0512 17.1008 7.68 17.1008 17.1008z m315.392 0v95.0272c0 9.4208-7.68 17.1008-17.1008 17.1008H455.1168c-9.4208 0-17.1008-7.68-17.1008-17.1008v-95.0272c0-9.4208 7.68-17.1008 17.1008-17.1008h113.7664c9.4208 0.0512 17.1008 7.68 17.1008 17.1008z m310.3744 95.0272c0 9.4208-7.68 17.1008-17.1008 17.1008h-113.7664c-9.4208 0-17.1008-7.68-17.1008-17.1008v-95.0272c0-9.4208 7.68-17.1008 17.1008-17.1008h113.7664c9.4208 0 17.1008 7.68 17.1008 17.1008v95.0272z" fill="#474A54" /></svg>