<?xml version="1.0" standalone="no"?><!DOCTYPE svg PUBLIC "-//W3C//DTD SVG 1.1//EN" "http://www.w3.org/Graphics/SVG/1.1/DTD/svg11.dtd"><svg t="1644389201049" class="icon" viewBox="0 0 1024 1024" version="1.1" xmlns="http://www.w3.org/2000/svg" p-id="8175" width="24" height="24" xmlns:xlink="http://www.w3.org/1999/xlink"><defs><style type="text/css"></style></defs><path d="M512 64.992c247.392 0 448 200.608 448 448 0 247.424-200.608 448-448 448s-448-200.576-448-448c0-247.392 200.608-448 448-448z m165.408 281.792l-66.016 0.32L512 465.6l-99.296-118.4-66.112-0.32c-4.384 0-8 3.52-8 8 0 1.92 0.704 3.712 1.92 5.216l130.08 155.008-130.08 154.88a8 8 0 0 0 6.08 13.216l66.112-0.32L512 564.416l99.296 118.4 66.016 0.32c4.384 0 8-3.52 8-8a8.32 8.32 0 0 0-1.92-5.216l-129.92-154.88 130.144-155.008a8 8 0 0 0 1.792-5.184 8 8 0 0 0-8-8z" p-id="8176" fill="#f5222d"></path></svg>