<?xml version="1.0" standalone="no"?><!DOCTYPE svg PUBLIC "-//W3C//DTD SVG 1.1//EN" "http://www.w3.org/Graphics/SVG/1.1/DTD/svg11.dtd"><svg t="1644389045180" class="icon" viewBox="0 0 1024 1024" version="1.1" xmlns="http://www.w3.org/2000/svg" p-id="5622" width="24" height="24" xmlns:xlink="http://www.w3.org/1999/xlink"><defs><style type="text/css"></style></defs><path d="M512 64C264.590222 64 64 264.590222 64 512S264.590222 960 512 960 960 759.409778 960 512 759.409778 64 512 64z m-32 231.992889c0-4.380444 3.612444-7.992889 7.992889-7.992889h48.014222c4.380444 0 7.992889 3.612444 7.992889 7.992889v272.014222a8.021333 8.021333 0 0 1-7.992889 7.992889h-48.014222a8.021333 8.021333 0 0 1-7.992889-7.992889v-272.014222zM512 736a48.014222 48.014222 0 0 1 0-96 48.014222 48.014222 0 0 1 0 96z" p-id="5623" fill="#1890ff"></path></svg>