<?xml version="1.0" standalone="no"?><!DOCTYPE svg PUBLIC "-//W3C//DTD SVG 1.1//EN" "http://www.w3.org/Graphics/SVG/1.1/DTD/svg11.dtd"><svg t="1644388774238" class="icon" viewBox="0 0 1024 1024" version="1.1" xmlns="http://www.w3.org/2000/svg" p-id="3184" width="24" height="24" xmlns:xlink="http://www.w3.org/1999/xlink"><defs><style type="text/css"></style></defs><path d="M512 64a448.064 448.064 0 0 1 0 896A448.064 448.064 0 0 1 512 64z m225.216 256.512h-56.512a38.4 38.4 0 0 0-31.168 16L460.16 599.04 374.4 480.064a38.528 38.528 0 0 0-31.168-16H286.72a9.664 9.664 0 0 0-7.808 15.36l150.016 208a38.272 38.272 0 0 0 62.272 0l253.632-351.616a9.6 9.6 0 0 0-7.68-15.296z" fill="#52c41a" p-id="3185"></path></svg>